<svg xmlns="http://www.w3.org/2000/svg" xmlns:xlink="http://www.w3.org/1999/xlink" width="560" height="249" viewBox="0 0 560 249"><defs><path id="ijxpa" d="M919.2 267.48l-52.51 95.33h52.5zm43.18 174.8h-44.9v-41.46h-107.1v-19l105.36-181.37h44.91v162.37H980v38h-17.62zM677.03 260.22c-6.57 15.55-10.02 35.93-10.02 61.15s3.45 45.6 10.02 61.15c6.56 15.54 15.54 23.49 26.25 23.49s19.7-7.95 26.26-23.5c6.56-15.54 10.02-35.92 10.02-61.14s-3.46-45.6-10.02-61.15c-6.57-15.55-15.55-23.5-26.26-23.5-10.7 0-19.69 7.95-26.25 23.5zm-33.86 151.31c-15.2-23.14-22.8-53.2-22.8-90.16 0-36.97 7.6-67.02 22.8-89.82C658.72 208.4 678.75 197 703.28 197s44.57 11.4 59.77 34.55c15.54 22.8 23.14 52.85 23.14 89.82 0 36.96-7.6 67.02-23.14 90.16-15.2 22.8-35.24 34.2-59.77 34.2s-44.56-11.4-60.1-34.2zM528.82 267.48l-52.5 95.33h52.5zM572 442.28h-44.9v-41.46H420v-19l105.37-181.37h44.9v162.37h19.35v38H572z"/></defs><g><g transform="translate(-420 -197)"><use fill="#fff" xlink:href="#ijxpa"/></g></g></svg>