<svg xmlns="http://www.w3.org/2000/svg" xmlns:xlink="http://www.w3.org/1999/xlink" width="75" height="80" viewBox="0 0 75 80"><defs><path id="fd32b" d="M257.97 2152.58c1.2.03 7.3-.85 7.24.5-.07 1.36-8.76.9-8.76.9l.48-8.4 1.41.94-.37 6.06"/><path id="fd32c" d="M265.28 2156.45c-.37 1.12-7.72-2.3-8.09-2.42-.36.1-6.71 1.88-6.97.32-.26-1.55 7-1.8 7-1.8s8.43 2.78 8.06 3.9"/><path id="fd32d" d="M243.32 2135.07l-17.61-17.2 2.01 6.5-7.94 1.9 27.48 15.3z"/><path id="fd32a" d="M218 2115.15h34.13v28.75H218z"/><path id="fd32f" d="M244.65 2135.5l-.27 1.58-17.37-17 1.88 5.41-6.58.67c10.25 6.35 27.55 16.92 29.82 17.7l-1.06.04c-3.16-1.08-30.12-16.9-31.3-17.64l-1.77-1.1s7.54-.77 8.94-.9l-3.09-9.11z"/><path id="fd32g" d="M285.6 2113.25s-10.1-12.73-18-12.28c-7.9.46-19.17 3.03-22.96 13.77-3.8 10.74-2.42 24.8 6.43 29.15 8.84 4.36 23.84-.46 30.88-11.73 7.05-11.27 6.69-15.28 3.66-18.91"/><path id="fd32h" d="M287.4 2098.08l4.45.54-3 5.03s.75 13.93-.88 16.12c-1.62 2.18-2.65.1-2.28-3.32.37-3.42-.17-4.55-.17-4.55z"/><path id="fd32i" d="M270.07 2104.99s-.82 4.95.63 8.6c1.46 3.64-23.11 25.34-18.57 30.27 0 0-11.57-7.5-10.49-18.3 1.07-10.82 8.37-17.5 8.37-17.5z"/><path id="fd32j" d="M291.85 2098.62l-4.44-.54 1.38 6.37z"/><path id="fd32k" d="M284.66 2093.6s-3.58-6.07-9.41-7.2c-5.84-1.14-17.45 1.56-21.36 5.24-3.92 3.67-6.18 9.57-5.36 14.05.82 4.48 3.04 5.7 8.22 4.22 5.17-1.48 12.54-5.19 12.54-5.19z"/><path id="fd32l" d="M283.63 2093.44s-4.54-1.27-7.72 1.34c-3.2 2.62-5.35 5.4-5.84 10.2-.48 4.82.77 12.78 7.5 11.83 6.73-.96 9.23-6.76 10.36-10.67 1.13-3.9-1.35-12.54-4.3-12.7"/><path id="fd32m" d="M268.42 2113.14s-1.82-2.15-6.1.13c-4.28 2.28-11.39 9.53-13.35 12.82-1.96 3.27-3.29 7.65-2.96 8.48.33.83 10.97 3.9 15.48 1.7 4.52-2.17 9.33-6.97 11.76-11.98 2.43-5-.62-10.7-4.83-11.15"/><path id="fd32n" d="M274.21 2094.91c-4.39 3.3-5.89 10.7-4.8 15.94.79 3.79 3.14 5.98 5.93 6.65 3.55.85 7.4-.6 10.27-4.25 4-5.09 4.35-12.1.94-18.74l-.06-.12-.1-.09c-.05-.05-5.29-4.58-12.18.61m11.13.37c.29.58.55 1.15.78 1.73 2.22 5.56 1.65 11.18-1.63 15.36-2.49 3.16-6.15 4.81-9.11 4.1-3.06-.73-4.18-4.02-4.57-5.92-1-4.8.32-11.53 4.26-14.5 5.58-4.2 9.65-1.26 10.27-.77"/><path id="fd32o" d="M256.85 2116.17c-5.18 4.26-11 11.82-11.55 18.35l-.04.46.4.22c.34.2 8.42 4.61 16.65 1.62 5.4-1.96 9.54-6.63 12.3-13.89.86-2.25.45-4.39-.85-6.52-1-1.62-2.89-4.23-6.88-4.67-2.66-.28-6.22 1.29-10.03 4.43m4.98 19.3c-6.59 2.4-13.3-.46-15.02-1.3.74-6 6.11-12.92 10.94-16.9 3.46-2.85 6.73-4.35 8.96-4.1 3.42.36 5.13 2.05 5.95 3.4a6.9 6.9 0 0 1 .61 5.85c-2.61 6.84-6.46 11.23-11.44 13.04"/><path id="fd32p" d="M249.32 2108.17c-.14.16-13.24 16.37-2.02 30.67 4.17 5.32 10.47 7.2 17.73 5.3 10.48-2.76 19.57-12.6 21.14-22.89l1.42.22c-1.65 10.81-11.2 21.15-22.2 24.04-7.73 2.03-15.07.6-19.55-5.1-11.94-15.21 2.23-32.98 2.37-33.15z"/><path id="fd32q" d="M292.98 2098.55s-3.36 6.07-3.6 6.43c.15 3 .64 14.67-1.88 16.5-.7.5-1.24.3-1.5.15-1.5-.92-.95-6.49-.48-9.73l.88-.92c-.53 3.64-.1 8.26.27 9.23 1.3-1.35 1.67-9.26 1.31-16.45l-.01-.24 2.68-4.05-3.24-.76.33-1.39z"/><path id="fd32r" d="M267.16 2157.33c1.23-.11 11.73-2.71 11.82-1.1.1 1.63-13.06 2.65-13.06 2.65l-1.36-14.16 2.11.36s.35 11.13.5 12.25"/><path id="fd32s" d="M278.28 2159.72c-.23 1.5-11.44-.87-11.68-.89-.22.06-4.45 3.12-4.81 1.32-.36-1.8 4.67-2.76 4.67-2.76s12.05.82 11.82 2.33"/><path id="fd32t" d="M276.67 2102.17c.2 5.3 2.22 7.27 3.35 7.7 1.16.45 2.92-.38 3.38-1.62 2.73-7.42-2.16-13.33-4.99-11.25-1.23.9-1.83 2.62-1.74 5.17m5.76 5.6c-.58.59-1.37.79-2.07.52-.68-.27-2.3-1.4-2.48-6.16-.07-2.09.35-3.51 1.23-4.13 4.47-1.84 4.76 8.3 3.32 9.77"/><path id="fd32u" d="M279.31 2100.44c.57 1.42 1.73 2.3 2.6 1.95.88-.35 1.12-1.78.56-3.2-.57-1.42-1.73-2.3-2.6-1.94-.88.34-1.12 1.77-.56 3.2"/><path id="fd32v" d="M244.16 2090.08c1 1.31 4.13 4.67 6.56 4.47l.12 1.43c-3.7.29-6.68-5.9-6.68-5.9"/><path id="fd32w" d="M241.27 2094.68c.1.17 3.55 3.9 8.72 1.46l-.6 1.5c-6.43 3.04-8.12-2.96-8.12-2.96"/><path id="fd32x" d="M278.84 2089.9l-.55-1.32c4.68-1.93 2.7-7.35 2.62-7.58 0 0 5.64 5.29-2.07 8.9"/><path id="fd32y" d="M286.22 2082.29s4.37 3.96-4.42 8.13l-.59-1.3c.06-.03 6.04-2.82 5-6.83"/><path id="fd32z" d="M272.47 2085.2c11.7.49 16.27 13.79 16.3 13.91l-1.35.46c-.04-.12-4.08-11.75-14.79-12.2-11.33-.48-19.79 5.49-22.17 9.88-1.65 3.04-2.22 8.11-.45 10.8.8 1.22 2.01 1.76 3.59 1.61 6.08-.57 15.68-5.87 15.78-5.93l.69 1.25c-.4.23-9.96 5.5-16.34 6.1a5 5 0 0 1-4.91-2.24c-2.13-3.22-1.45-8.88.39-12.27 2.98-5.5 12-11.85 23.26-11.37"/><clipPath id="fd32e"><use xlink:href="#fd32a"/></clipPath></defs><g><g transform="translate(-218 -2081)"><g><use fill="#231f20" xlink:href="#fd32b"/></g><g><use fill="#231f20" xlink:href="#fd32c"/></g><g><use fill="#4e2323" xlink:href="#fd32d"/></g><g><g/><g clip-path="url(#fd32e)"><use fill="#231f20" xlink:href="#fd32f"/></g></g><g><use fill="#98accf" xlink:href="#fd32g"/></g><g><use fill="#4e2323" xlink:href="#fd32h"/></g><g><use fill="#9a7784" xlink:href="#fd32i"/></g><g><use fill="#806654" xlink:href="#fd32j"/></g><g><use fill="#4e2323" xlink:href="#fd32k"/></g><g><use fill="#fefefe" xlink:href="#fd32l"/></g><g><use fill="#4e2323" xlink:href="#fd32m"/></g><g><use fill="#231f20" xlink:href="#fd32n"/></g><g><use fill="#231f20" xlink:href="#fd32o"/></g><g><use fill="#4e2323" xlink:href="#fd32p"/></g><g><use fill="#231f20" xlink:href="#fd32q"/></g><g><use fill="#231f20" xlink:href="#fd32r"/></g><g><use fill="#231f20" xlink:href="#fd32s"/></g><g><use fill="#231f20" xlink:href="#fd32t"/></g><g><use fill="#231f20" xlink:href="#fd32u"/></g><g><use fill="#231f20" xlink:href="#fd32v"/></g><g><use fill="#231f20" xlink:href="#fd32w"/></g><g><use fill="#231f20" xlink:href="#fd32x"/></g><g><use fill="#231f20" xlink:href="#fd32y"/></g><g><use fill="#231f20" xlink:href="#fd32z"/></g></g></g></svg>