<svg xmlns="http://www.w3.org/2000/svg" xmlns:xlink="http://www.w3.org/1999/xlink" width="40" height="40" viewBox="0 0 40 40"><defs><path id="hhpva" d="M1210 40a20 20 0 1 1 40 0 20 20 0 0 1-40 0z"/><path id="hhpvb" d="M1226 36.95h2.02v-1.8c0-.8.02-2.03.65-2.8.66-.8 1.57-1.35 3.14-1.35 2.55 0 3.62.33 3.62.33l-.5 2.76s-.85-.22-1.63-.22c-.79 0-1.5.26-1.5.98v2.1h3.23l-.23 2.7h-3V49h-3.78v-9.35H1226z"/></defs><g><g transform="translate(-1210 -20)"><use fill="#383838" xlink:href="#hhpva"/></g><g transform="translate(-1210 -20)"><use fill="#fff" xlink:href="#hhpvb"/></g></g></svg>