<svg xmlns="http://www.w3.org/2000/svg" xmlns:xlink="http://www.w3.org/1999/xlink" width="40" height="40" viewBox="0 0 40 40"><defs><path id="rfc1a" d="M1260 40a20 20 0 1 1 40 0 20 20 0 0 1-40 0z"/><path id="rfc1b" d="M1280 31.73c2.67 0 2.98 0 4.04.05.97.05 1.5.2 1.85.33.47.18.8.38 1.15.72.35.33.57.65.75 1.1.14.33.3.84.34 1.77.05 1 .06 1.3.06 3.85s0 2.85-.06 3.86c-.04.93-.2 1.43-.34 1.77-.18.45-.4.76-.75 1.1-.35.33-.68.54-1.15.71-.35.13-.88.29-1.85.33-1.06.05-1.37.06-4.04.06s-2.99-.01-4.04-.06c-.98-.04-1.5-.2-1.86-.33-.47-.17-.8-.38-1.15-.71a2.95 2.95 0 0 1-.75-1.1c-.13-.34-.3-.84-.34-1.77-.05-1-.06-1.31-.06-3.86s.01-2.85.06-3.85c.04-.93.2-1.44.34-1.78.19-.44.4-.76.75-1.1.35-.33.68-.53 1.15-.7.35-.14.88-.3 1.86-.34a72.7 72.7 0 0 1 4.04-.05m0-1.72c-2.72 0-3.06.01-4.12.06-1.07.04-1.8.2-2.43.44a4.93 4.93 0 0 0-2.93 2.8c-.24.6-.41 1.3-.46 2.3a64.63 64.63 0 0 0-.06 3.94c0 2.6.01 2.92.06 3.94.05 1.01.22 1.7.46 2.31a4.93 4.93 0 0 0 2.92 2.8c.64.23 1.37.4 2.44.44 1.06.04 1.4.05 4.12.05 2.71 0 3.05 0 4.12-.05 1.06-.05 1.79-.21 2.43-.45a4.93 4.93 0 0 0 2.92-2.79c.25-.6.42-1.3.46-2.31.05-1.02.06-1.35.06-3.94s0-2.91-.06-3.93a6.73 6.73 0 0 0-.46-2.32 4.93 4.93 0 0 0-2.92-2.8 7.64 7.64 0 0 0-2.43-.43c-1.07-.05-1.4-.06-4.12-.06"/><path id="rfc1c" d="M1280 34.66a5.01 5.01 0 0 0-5.12 4.89c0 2.7 2.3 4.89 5.12 4.89a5.01 5.01 0 0 0 5.12-4.9c0-2.7-2.29-4.88-5.12-4.88m0 8.05a3.25 3.25 0 0 1-3.32-3.17 3.25 3.25 0 0 1 3.32-3.17 3.25 3.25 0 0 1 3.33 3.17 3.25 3.25 0 0 1-3.33 3.17"/></defs><g><g transform="translate(-1260 -20)"><use fill="#383838" xlink:href="#rfc1a"/></g><g transform="translate(-1260 -20)"><use fill="#fff" xlink:href="#rfc1b"/></g><g transform="translate(-1260 -20)"><use fill="#fff" xlink:href="#rfc1c"/></g></g></svg>