<svg xmlns="http://www.w3.org/2000/svg" xmlns:xlink="http://www.w3.org/1999/xlink" width="385" height="306" viewBox="0 0 385 306"><defs><path id="or13b" d="M1288.48 2407.97l-5.93 3.14s-1.26 1.82-1.15 3.14c.08 1.06.93 1.86 1.21 3.32.36 1.92.19 4.63.51 7.15.38 2.93 3.2 5.29 4.98 7.26 1.79 1.97.64 2.52.64 2.52l12.26-3.38-.13-2.1s12.77-2.21 16.86-4.18c4.08-1.97 7.81-4.26 9.07-11.08 1.15-6.28-2.81-7.27-4.35-7.51-1.53-.25-5.18-2-8.55-.25-3.32 1.72-4.6 1.72-7.4 1.97-2.82.25-8.7-3.94-8.7-3.94z"/><path id="or13c" d="M1247.39 2446l-3.3-3.79-2.28-2.8s-1.13-.58-2.1.49c-1.33 1.46-1.43 4.63-4.48 5.62-3.19 1.02-4.58 3.41-5.85 8.01-1.27 4.6-.5 2.63-.5 2.63l-1.66 3.95s.38 3.68 3.94 7.49l2.16-.26s5.09 10.64 10.17 14.06c5.09 3.42 15 3.42 18.7.26 3.68-3.15 3.8-6.04 1.52-8.4-2.29-2.38-9.92-14-9.92-14l-.89-3.62z"/><path id="or13d" d="M1269.03 2375.97s2.5.13 5.37-.78 5.99-1.56 8.36-4.43a38.97 38.97 0 0 0 3.5-4.82l5.11 14.86 3.5 15.37 3.62 11.34s-.63-1.9-6.24-.59c-5.62 1.3-10.3 5.67-10.3 5.67s-12.8-29.97-12.92-36.62"/><path id="or13e" d="M1226.3 2306.17l14.38 17.51 9.3 10.08 21.9 10.8-12.07 9s-11.17-3.73-14.9-6.56c-3.72-2.84-6.67-5.73-6.67-5.73l-7.45-7.22-6.3-7.53-4.87-21.51z"/><path id="or13f" d="M1197.99 2304.36c4.57-1.8 21.46-11.87 26.8 8.25 5.33 20.13 3.17 21.93 3.17 21.93s.63 7.74 2.41 12.13a280.16 280.16 0 0 0 6.35 13.54s-8.12 1.16-25.14 8.64l-12.45 8.52s-13.2-46.18-9.14-60.5c1.65-5.82 5.28-11.44 8-12.51"/><path id="or13g" d="M1189.31 2315.48s2.45 0 3.61.9c1.16.91 3.87 2.6 5.68 8.16 1.8 5.57 2.96 10.37 2.96 10.37l-3.73 35.22-2.65 22.47s-10.12-4.6-11.67-7.45v-25.64l2.06-16.83 2.84-24.35z"/><path id="or13h" d="M1196.82 2303.64s4.19 8.48 11.56 15.65c0 0 5.68-10.34 8.05-10.74 0 0 8.25 4.78 10.12 8.1 0 0 2-4.65-.87-10.49-2.88-5.84-8.25-13.53-8.25-13.53z"/><path id="or13i" d="M1183.27 2247.88s-1.94 10.71-5.95 17.73a16.3 16.3 0 0 0-1.68 13.14c1.3 4.71 3.62 12.5 9.3 19.76 0 0 .91 2.8 6.34 2.68 5.43-.12 18.22.26 21.2-.76 2.97-1.02 9.56-4.34 9.56-4.34s1.94 3.32 5.95 3.32c4 0 7.5-2.68 9.05-4.47 1.55-1.78 2.32-5.35.64-7.78-1.68-2.42-4.52-5.45-10.6-2.64 0 0-.2-4.15.2-7.85.38-3.7 3.26-14.35 6.88-17.79 0 0-8.56 1.82-13.48 1.44-4.9-.39-12.34 1.08-15.7 2.35-3.36 1.28-11.63 3.86-11.63 3.86l-2.04-5.74s-2.42-2.74-3.58-5.93c0 0-3.56-5.96-4.46-6.98"/><path id="or13j" d="M1207.27 2300.1s1.74 4.37 5.84 4.87 5.23-3.99 5.48-5.86-.13-2.75-.13-2.75l-.87-.87z"/><path id="or13k" d="M1246.23 2358.58s9.68-4.87 13.11-6.15c3.44-1.28 9.17-4.61 12.6-3.33 3.45 1.28 8.03 4.36 10.07 8.33 2.03 3.97 3.18 9.36 3.18 9.36s-4.58 6.15-9.42 7.69-7.9 1.66-7.9 1.66l-1.52-5.12-13.24 7.3-6.75-19.35z"/><path id="or13l" d="M1260.9 2390.7s20.77 2.88 21.79 5.13c1.01 2.25 3.18 3.63 2.29 9-.9 5.38-4.2 9.76-4.2 9.76l-4.34 6.5s-6.36 2.13-9.3.26c-2.92-1.88-5.6-2.26-8.27-8.76l2.03-2.88-7.9.38s-.68-9.02 1.15-12.39c2.8-5.12 6.75-7 6.75-7"/><path id="or13m" d="M1185.44 2387.84s-.64 13.8-1.54 14.75c0 0-11.54-2.15-13.72-2.01-2.18.13-2.95.67-3.85 1.47-.9.8-6.28 5.77-6.28 5.77s-2.63 3.31-3.02 3.99c-.38.66.07 1.23 2.5.7 2.44-.54 4.1-2.82 4.1-2.82s3.92-2.44 5.33-2.71c1.41-.27 7.5.84 7.5.84l-4.87.94s-3.85-.14-6.03 1.07c-2.18 1.2-2.3 1.47-1.8 3.08 0 0 6.29-.07 9.24-.2s7.31.6 7.31.6 10.1 1.21 11.83-1.87l1.83-19.24z"/><path id="or13n" d="M1183 2255.5s-2.96 3.19-2.22 5.76c.74 2.58 3.72 4.86 5.5 3.19 1.78-1.67 2.49-5.61 1.6-6.67-.9-1.07-4.87-2.28-4.87-2.28"/><path id="or13o" d="M1202.02 2269.78s-2.76 1.53-2.3 4.98c.46 3.46 1.69 4.86 4.14 4.48 2.45-.38 3.67-4.22 3.37-5.75-.31-1.54-5.21-3.71-5.21-3.71"/><path id="or13p" d="M1186.33 2259.92c-.17 1.3-1.15 2.32-2.18 2.25-1.04-.07-1.74-1.2-1.56-2.5.17-1.32 1.15-2.33 2.19-2.26 1.03.07 1.73 1.2 1.55 2.5"/><path id="or13q" d="M1205.34 2274.2c-.18 1.31-1.16 2.32-2.2 2.25-1.03-.07-1.72-1.2-1.54-2.5.18-1.32 1.16-2.33 2.2-2.26 1.03.08 1.72 1.2 1.54 2.51"/><path id="or13r" d="M1192.99 2266.74l-2.38-5.86s-2.81-4.38-3.61-6.54c0 0-2.93-3.63-4-8.21a116.28 116.28 0 0 1-2.26-11.59c-.4-3.23.53-12.8 6-19.94 0 0 9.84-12.66 22.62-16.3 12.78-3.63 20.76-2.55 20.76-2.55s12.52-2.56 23.03 9.56c0 0 6.66 1.35 9.19 6.87l.26 1.21s2.93-4.44 3.07-7.27c0 0 2.92 5.39-.4 10.9 0 0 7.45 1.9 8.51 7.82 0 0-4.52-1.48-8.25-1.48 0 0 7.46 5.12 5.72 19.13l-2.66-3.23s3.73 17.1-6.79 29.77l-2.52 3.1-7.2 6.73s-10.66 10.39-14.25 11.87c0 0-2.44-5.53-4.7-5.93 0 0-3.8-1.23-6.33.4 0 0-.93-4.59 0-9.98.93-5.39 3.99-13.47 6.52-16.3 0 0-8.79 1.62-12.65 1.49-3.86-.14-11.04-.27-14.1 1.48-3.07 1.75-13.58 4.85-13.58 4.85"/><path id="or13s" d="M1198.3 2377.5s6.8-4.36 13.09-7.57c6.28-3.2 16.5-7.95 25.27-8.98l1.18 2.31 9.03-3.98s7.07 16.81 7.72 25.54l-5.89 4.75 11 .77.79.26s-2.36 1.02-3.67 2.43c-1.3 1.42-4.19 4.24-4.32 11.43l-.13 7.18-18.72-1.54-15.45-1.02s-4.85-1.03-10.35-8.34c-5.5-7.32-8.5-16.56-8.5-16.56l-1.58-4.36z"/><path id="or13t" d="M1256.93 2413.55s2.8 3.99 4.2 5.18c1.4 1.2 5.72 4.92 10.43 5.18l3.18-.93-22.86 36.27-.32-2s-3.37-8.2-6.17-10.85c-2.8-2.66-3.91-3.89-3.91-3.89l1.2-2.39 9.04-18.2z"/><path id="or13u" d="M1185.76 2284.06l3.46 3.09 4.12.67 1.57.34s-3.86 3.67-5.7 3.51c-1.84-.16-2.65-2.19-3.44-4.32-.8-2.13 0-3.29 0-3.29"/><path id="or13v" d="M1256.19 2451.63s4.32 3.64-1.99 6.59c-6.3 2.95-1.4-1.38-1.4-1.38z"/><path id="or13w" d="M1177.16 2268.14c.89-.39 1.9-.34 2.86.13a4.81 4.81 0 0 1 2.23 2.46c.47 1.1.35 3.13.03 4.2a3.42 3.42 0 0 1-1.85 2.2c-.89.4-1.9.35-2.85-.12a4.81 4.81 0 0 1-2.24-2.46c-.95-2.24-.03-5.59 1.82-6.4"/><path id="or13x" d="M1271.13 2344.04s13.72 5.2 14.16 5.53c.44.34 3.59 1.16 4.95 4.52 1.35 3.37 5.04 9.19 5.62 11.64.58 2.45.39 6.54.39 6.54l.34 8.13-1.84 3.8-1.46 1.73-1.83-6.8.97-7.24-2.13-3.66-.77-.32.38 1.67c.73 4.42 1.39 3.95 1.3 5-.04.45-.1 1.6-.33 2.37-.37 1.2-.97 1.98-.97 1.48 0-.82-7.24-14.38-7.43-16.35-.2-1.98.63-3.37.63-3.37v-1.01s-3.15-6.78-7.47-7.84c-4.32-1.06-6.26-2.07-13.43 1.64l-.78-.53z"/><path id="or13y" d="M1191.8 2316.34a31.77 31.77 0 0 1 7.86-10.33v-1c-.06.05-6.55 4.94-9.5 11.42z"/><path id="or13z" d="M1214.85 2304.68c-3.78.82-6.53-4.94-6.57-5l-1.01.51c.18.24 3.63 6.6 7.82 5.68 2.24-.49 4.79-2.43 4.51-8.62l-.64-.81c.55 5.17-2.15 7.82-4.1 8.24"/><path id="or13A" d="M1213.97 2310.96l.03.17c.03.14 2.44 14.6-3.26 19.96l-.62.58 8.55.95-1.6-25.71z"/><path id="or13B" d="M1226.62 2307.02c.68.84 17.75 22.68 23.1 27.31 0 0 20.94 10.5 21.48 10.88-.3.56-11.06 7.55-11.33 8.06-1-.3-9.17-2.52-16.82-8.58-8.1-6.42-16.17-17.09-16.43-18.38l.13 2.17c.03.03 7.58 11 14.63 16.6 9.01 7.16 18.03 9.34 18.39 9.44l.48-.32 12.58-9.38-22.43-11.42c-5.28-4.56-23.97-28.18-24.13-28.39z"/><path id="or13C" d="M1269.76 2348.83c-6.63.3-33.05 14.19-46.2 21.5a29.43 29.43 0 0 0-6.79 5.14c.44-.26 44.41-25.46 53.03-25.85 8.42-.38 11.17 7.21 11.2 7.3l.39-1.32c-.04-.1-2.66-7.18-11.63-6.77"/><path id="or13D" d="M1245.72 2357.37a571.46 571.46 0 0 0-22.4 12.1c-4.13 2.34-6.55 5.04-6.55 5.04.25-.15 15.55-8.61 29.46-15.82z"/><path id="or13E" d="M1246.78 2358.33c9.96-4.66 19.37-8.62 22.9-8.76 8.51-.36 11.29 6.72 11.32 6.8l.39-1.23c-.04-.1-2.69-6.7-11.75-6.31-3.65.15-13.27 4.08-23.41 8.73z"/><path id="or13F" d="M1246.24 2358.98c.07.17 7.8 16.6 8.66 26.33l-24.83 19.67s5.1-2.66 9.08-5.43c3.96-2.77 16.58-13.89 16.58-13.89l-.02-.2c-.79-9.87-7.45-27.65-8.08-27.12z"/><path id="or13G" d="M1248.52 2388.79l-18.45 14.28s4.92-2.5 8.74-5.1c2.24-1.54 7.37-5.79 11.22-9.03z"/><path id="or13H" d="M1264.58 2371.84a316.65 316.65 0 0 1-10.75 5.63l.37 1.8c.09-.04 10.25-6.14 15.78-9.52 0 0-4.06 1.34-5.4 2.09"/><path id="or13I" d="M1190.96 2411.65c-1.27 1.67-7.9 1.2-11.96.58-6.39-.97-14.33 1.26-13.69-.39.53-1.37 1.81-2.15 4.24-2.42l10.58-1.16-3.86-.3-7.04.89c-2.66.3-3.3.95-4.2 2.41-.28.47-1.07 1.6.1 1.84 2.66.55 7.94-.58 13.87 0 3.63.35 10.93 1.15 12.53-.97 1.49-1.97 2.33-16.7 2.44-18.53l-.73-.05c-.44 7.1-1.26 16.75-2.28 18.1"/><path id="or13J" d="M1185.22 2387.84c-.77 7.54-.9 15.07-1.63 15.07-.58 0-2.2-.32-4.06-.68-5.33-1.05-9.87-1.86-11.4-1.06-2.3 1.19-7.72 6.6-8.1 6.98-.42.24-3.98 4.53-2.93 5.08 1.1.56 3.83.89 7.83-3.69.92-.9 4.25-1.87 5.85-1.87 2 0 5.12 1.17 5.16 1.2l.96-.3c-.18-.09-4.34-1.69-6.5-1.69-2.23 0-5.86 1.95-6 2.1-2.23 2.3-5.83 4.28-6.63 3.45.09-.88 3.16-3.27 3.16-3.27s5.32-6.13 7.53-7.28c1.44-.75 7.15.38 10.92 1.12 1.99.4 4.04.8 4.7.8 1.99 0 1.43-9.81 2.29-14.97z"/><path id="or13K" d="M1252.88 2410.09v1.56l8.16-.4 1.34-2.46z"/><path id="or13L" d="M1270.94 2344.77c7.18 2.63 15.74 5.42 17.58 7.22 2.4 2.36 7.62 13.15 8.22 16.98.3 1.98-1.05 9.12-1.05 9.12s-2.23 5.67-2.4 6.35l.02.54c.95-.84 3.05-6.53 3.05-6.53s1.4-8.12 1.16-9.6c-.63-4.02-5.91-14.92-8.44-17.41-2.42-2.38-16.3-7.09-17.15-7.4z"/><path id="or13M" d="M1288.99 2368.55c.13.02 2.1.45 3.27 4.06-.01.15-1.2 6.5-1.2 6.5l.63 1.12 1.1-7.76c-1.3-4.1-3.5-4.6-3.64-4.62z"/><path id="or13N" d="M1257.63 2414c.08.25 2.29 4.48 7.8 7.03 3.21 1.48 5.8 2.85 10 1.47l.25-.69c-3.98 1.32-6.88-.02-9.9-1.41a18.54 18.54 0 0 1-7.78-6.85z"/><path id="or13O" d="M1269.03 2377.32l.1.85c.08.05 9.09 1.81 16.05-8.18l-.42-1.19c-7.17 8.84-15.39 8.73-15.73 8.52"/><path id="or13P" d="M1265.66 2205.04c.7 4.17-3.24 9.62-3.28 9.67 0 0 1.33-.54 2.07-1.93a16.45 16.45 0 0 0 1.96-5.87c1.78 5.19-.82 8.74-1.89 10.79l-.31.59h.63c.25 0 7.12-.42 8.81 5.96-1.3-.56-5.21-1.86-8.34-1.56l-1.07.1.9.63c.06.05 6.5 4.23 6.5 13.88 0 1.14-.1 2.4-.27 3.7-.69-1.16-2.68-3.92-2.68-3.92v.89l2.85 6.1.43-1.86c.3-1.77.42-3.4.42-4.91 0-7.83-3.43-12.06-5-13.6a15.64 15.64 0 0 1 6.65 1.61l.7.37-.17-.8c-1.27-6.52-6.3-7.67-7.98-7.87 3.96-8.38-.93-11.97-.93-11.97"/><path id="or13Q" d="M1268.21 2234.56c.07.17 6.6 17.38-6.78 33.97l.2 1.26a35.28 35.28 0 0 0 8.97-28.84c-.54-4.04-2.39-6.39-2.39-6.39"/><path id="or13R" d="M1252.47 2276.95l-1.49 2.36c6.39-3.32 10.25-9.4 12-14.08 1.47-3.96 1.3-6.87 1.3-6.87-.03.13-2.72 12.3-11.81 18.59"/><path id="or13S" d="M1237.68 2288.63l.55 1.14c5.5-2.48 12.23-8.28 15.15-12.16a26.78 26.78 0 0 0 4.26-7.83c-.06.12-8.63 13.73-19.96 18.85"/><path id="or13T" d="M1252.88 2204.87c7.56 2.3 8.4 8.5 8.42 8.74l1.08-1.48c-.03-.25-1.26-5.58-9.31-8.04z"/><path id="or13U" d="M1252.97 2204.21c-4.25-3.99-10.92-10.77-24.8-8.07l2.87.57c14.94-1.5 24.6 12 24.69 12.14 0 0-.32-2.34-2.76-4.64"/><path id="or13V" d="M1199.94 2203.16c-16.16 10.14-19.1 23.03-19.28 30.47-.08 3.64 1.49 8.47 1.5 8.54l-.06-5.33c-.05-.2-5.1-17.8 18.45-32.58 12.14-7.61 23.06-8.17 29.75-7.52 4.95.48 7.37 1.48 7.37 1.48-.15-.09-16.21-8.55-37.73 4.94"/><path id="or13W" d="M1188.7 2256.9l2.41 3.36-1.7-3.73c-3.85-7.12-3.93-11.5-3.93-11.5-.03.18-.77 4.47 3.23 11.86"/><path id="or13X" d="M1193.54 2265.57l.17.4.39-.2c.05-.03 5.28-2.25 13.52-4.6 3.6-1.02 8.19-1.4 12.91-1.46 14.4-.17 17.14-3.42 17.14-3.42-4.9 2.22-11.2 2.3-17.3 2.39-4.78.06-9.3.12-13 1.18a78.69 78.69 0 0 0-13.25 5c-2.67-6.67-3.8-15.07-3.8-15.07-.04.2-1.17 5.03 3.22 15.78"/><path id="or13Y" d="M1226.34 2284.07l1.23-.2c-.91-18.52 8.1-26.35 8.2-26.43l-1.1-.03c-.1.08-9.27 7.72-8.33 26.66"/><path id="or13Z" d="M1243.38 2462.1s6.84-4.27 11.4-1.2l-.55-1.61c-4.9-3.3-10.54 2.62-10.85 2.8"/><path id="or13aa" d="M1246.23 2466.86s6.03-4.67 10.45-1.28l-.88-1.33c-4.85-3.73-9.31 2.39-9.57 2.6"/><path id="or13ab" d="M1304.7 2417.35s3.45-6.02-.5-8.95l-2.86-.57c-.08.01 5.13 1.74 3.35 9.52"/><path id="or13ac" d="M1310.14 2417.35s.08-3.38-.62-5.31c-.67-1.82-1.64-2.45-2.48-3.26l.58-.95c.07.07 5 2.95 2.52 9.52"/><path id="or13ad" d="M1296.42 2373.47c0 .06.47 5.96 0 7.95-.45 1.94-3.5 4.85-3.52 4.88l-.11 1.54c.13-.12 4.09-4.16 4.59-6.28.49-2.08-.28-8.7-.3-8.95z"/><path id="or13ae" d="M1184.46 2402.49s.83.1 1.51.68c.69.59 2.3 2.76 2.3 2.76l-2.43-4.76z"/><path id="or13af" d="M1187.85 2268.62c-.78.06-3.93 1.1-4.57 1.75-1.34 1.36.62 7.61.8 8.12-.1 1.05-3.42 1.5-3.42 1.5 3.67 1.09 4.04-1.5 4.04-1.5s-1.9-6.21-.37-7.5c.56-.47 2.87-1.35 3.7-1.58 2.47-.69 2.12-5.15 2.1-5.34 0 0-.36 4.4-2.28 4.55"/><path id="or13ag" d="M1187.31 2275.5l2.33 3.8s1.03-.55.19-1.79c-.84-1.23-2.52-2.01-2.52-2.01"/><path id="or13ah" d="M1187.8 2296.42c.67.18 1.41-1.03 1.41-1.03a1.4 1.4 0 0 1-1.19.2c-1.52-.4-3.08-2.96-3.56-3.91 0 0 1.14 4.16 3.34 4.74"/><path id="or13ai" d="M1209.17 2260.4a8.02 8.02 0 0 1 4.66 4.62s.77-2.69-2.11-4.46c-.9-.56-2.55-.16-2.55-.16"/><path id="or13aj" d="M1198.8 2272.81c-.63 5.1 2.74 6.34 3.66 6.45 4.74.55 5.9-4.36 5.75-5.91l-1.03.05c.14 1.33-1.11 5.24-4.29 4.83-.63-.08-3.87-1.18-3.09-5.25a4.45 4.45 0 0 1 2-2.67l-.7-.53c-1.1.74-2.15 1.79-2.3 3.03"/><path id="or13ak" d="M1180.77 2258.55a8.47 8.47 0 0 0 .94 5.2c.42.65.99 1.06 1.65 1.2 1.52.3 2.95-.3 3.92-1.62 1.13-1.54 1.27-3.3.5-4.7l-.98-1.11c.6 1.12.75 4.05-.18 5.32a3.01 3.01 0 0 1-3.1 1.3c-.56-.11-.93-.51-1.13-.84a6.4 6.4 0 0 1 .58-7.2l-.56-.6a6.07 6.07 0 0 0-1.64 3.05"/><path id="or13al" d="M1230.7 2288.82c-2.8-.15-4.43 3.8-4.43 3.8.13-.19 3.3-4.69 6.65-1.6 0 0-.45-1.89-2.23-2.2"/><path id="or13am" d="M1202.6 2267.27a4.18 4.18 0 0 0-1.98 1.46l1.37.1c.02-.04 1.43-1.67 3.38-1.28 0 0-.95-1.18-2.77-.28"/><path id="or13an" d="M1181.61 2257.34l1.3.07c.38-.33 2.5-3.65 2.5-3.65-1.57-1.05-3.63 3.43-3.8 3.58"/><path id="or13ao" d="M1199.67 2286.92a4.74 4.74 0 0 1 8.14-3.34 4.74 4.74 0 0 1 0 6.68 4.76 4.76 0 0 1-8.14-3.34"/><path id="or13ap" d="M1159.76 2409.74s6.7-6.81 9.34-7.47c2.64-.66 2.93-.66 3.96-.66 0 0-2.36-.99-4.62 0-2.26.99-8.02 6.6-8.02 6.6z"/><path id="or13aq" d="M1255.72 2452.82s3.25 2.88-2.84 6.88l.74.43c-1 .44 7.23-1.12 2.57-8.5z"/><path id="or13ar" d="M1184.46 2283.11s-.02 9.37 3.57 9.52c3.6.15 7.83-5.01 7.83-5.01l-1.8.66s-2.72 3.2-5.45 3.25c-2.73.04-3.02-6.83-3.02-6.83z"/><path id="or13as" d="M1180.66 2281.21s.85.94 1.25 1.11c1.53.64 2.8 2.3 3.86 3.7l.17.21c1.55 2.04 5.79 3.64 8.08 1.77l.9-.73-1.1-.04c-.1 0-.14.09-.21.13l-.02-.05c-1.79 1.46-5.64.28-7.1-1.64l-.16-.2c-1.44-1.9-3.23-4.24-5.67-4.26"/><path id="or13at" d="M1242.43 2478.68l.72.52c-.32.86 4.35-12.74 18.28-10.11l-.58-.92c-14.08-2.65-18.37 10.39-18.42 10.51"/><path id="or13au" d="M1312.57 2407.83l-.77.54c.05-.01 10.59 1.61 8.3 16.6l.92-.51c2.13-15.24-8.38-16.64-8.45-16.63"/><path id="or13av" d="M1224.37 2311.67c1.16 4.5 2.94 20.36 3.57 27.3 1.05 11.53 8.7 24 8.77 24.11l.96-.87c-.06-.11-7.47-12.22-8.5-23.57-1.05-11.48-2.45-24.93-4.1-26.46z"/><path id="or13aw" d="M1237.52 2360.23l2.06 2.67-2.33 1.14c-.03-.04-.12-1.27-1.47-3.06z"/><path id="or13ax" d="M1217 2310l.04.07c.06.13 6.03 12.75 6.03 19.74v.9l5.1-5.2-8.78-17.54-2.62-1.06z"/><path id="or13ay" d="M1217.94 2297.9c7.24 4.34 7.8 12.11 7.6 14.93-.08 1.3-.16 1.67-.2 1.93-4.38-5.63-10.1-7.45-10.1-7.45-2.67 1.39-6.43 8.33-7.36 10.14-4.7-4.23-8.43-9.6-10.25-12.45-.24-.37 2.19-3.01 2.03-3.53-.37-1.15-1.22.02-1.23 0 0 0-2.22 2.76-1.45 4.07 1.86 3.16 5.73 9.13 10.66 13.44l.35.3.21-.42c.05-.08 4.29-8.47 7.1-10.09.71.22 5.95 1.92 9.95 7.47l.42.58.23-.69c.09-.29 2.72-12.36-7.22-18.74z"/><path id="or13az" d="M1197.77 2377.54l.6 1.73c.2-.14 19.52-15.48 38.36-18.25l-.1-.79c-19.03 2.79-38.66 17.17-38.86 17.31"/><path id="or13aA" d="M1237.9 2363.09a629.1 629.1 0 0 0-14.38 6.9c-4.25 2.1-6.75 4.52-6.75 4.52.21-.1 10.39-5.3 21.86-10.7z"/><path id="or13aB" d="M1200.21 2267.69s.88.15 2.1.64c2.35.95 5.98 3.2 6.86 8.12 0 0-3.86-3.47-7.57-5.8-1.3-.82-3.69-3.38-4.78-3.72z"/><path id="or13aC" d="M1179.05 2259.92c-2.13 4.52-4.09 9.78-4.09 13.86 0 9.09 7.78 22.26 10.86 25.34 3.37 3.36 27.78 2.84 35.58-2.96.56.7 2.17 2.4 4.86 2.83 2.75.44 5.75-.59 8.9-3.05 4.58-3.57 3.93-7.75 1.99-10.24-2.63-3.38-8.15-4.7-12.84-1.1 0 0 2.58-.72 3.65-1.04 3.4-.99 6.76.27 8.58 2.61 1.73 2.21 2.28 5.94-1.85 9.16-2.98 2.33-5.88 2.82-8.41 2.42-3-.48-3.9-3.26-3.9-3.29l-.24-.34-.33.26c-7.58 6.05-32.46 6.53-35.32 3.69-1.84-1.84-4.6-5.54-7.17-12.14-1.76-4.5-3.6-8.68-3.6-12.15 0-4.46 2.52-10.14 4.95-14.6 2.25-4.12 3.28-12.17 3.32-12.23l-.96-1.92c-.2.28-1.49 9.63-3.98 14.9"/><path id="or13aD" d="M1182.6 2259.1c2.13 1.46 4.66 3.24 5.66 4.02 0 0-3.19-7.3-6.18-7.35l-3.32-1.22s2.02 3.27 3.85 4.54"/><path id="or13aE" d="M1188.25 2255.5l.01-1.1c-5.47-7.06-6.06-14.53-5.75-19.5.21-3.52.04-6.06.04-6.06-.04.13-4.3 14.55 5.7 26.66"/><path id="or13aF" d="M1188.66 2315.84c-.28.68-.58 1.62-.87 2.89-.04.32-3.19 29.73-4.37 38.22-1.18 8.53-.8 29.15-.8 29.36v.16l.12.11c.35.33 8.53 7.92 13 7.92h.37l6.4-59v-.04c-.13-.77-3.02-17.38-10.47-19.47-.58-.16-3.04-.97-3.38-.15m-4.45 41.22c1.18-8.5 4.74-37.22 4.77-37.5.26-1.13.61-2.2 1.01-3.22.01.1-.07.03-.07.03 8.18-.73 11.18 18.68 11.3 19.35l-5.57 56.73c-3.97-.36-10.45-4.85-11.44-5.76 0-.7-.71-24.5 0-29.63"/><path id="or13aG" d="M1289.94 2378.87c.26 2.68 4.18 20.96 8.27 26.68l1.23.38c-1.55-2.45-5.8-18-9.1-28.56z"/><path id="or13aH" d="M1282 2362.07c.8 2.14 2.12 4.6 3.52 7.7 1.39 3.07 3.18 7.87 3.32 9.02.08.7.4 1.2.88 1.38.44.15.92 0 1.3-.43.86-.94 1.3-3.3.02-7.12-1.49-4.4-2.14-8.96-2.15-8.27-.04 1.5-.1 4 1.44 8.55 1.17 3.47.82 5.55.16 6.28-.18.2-.37.27-.53.22-.19-.07-.33-.34-.37-.71-.16-1.28-2.08-6.58-3.52-9.78-1.44-3.17-2.58-5.02-3.38-7.14-1.45-3.87-.1-7.25-.1-7.25a8.44 8.44 0 0 0-.6 7.55"/><path id="or13aI" d="M1265.23 2372.02c.14.58 3.68 15.48 7.95 21.23l1.55.3c-4.18-5.64-8.09-21.76-8.12-21.9z"/><path id="or13aJ" d="M1269.03 2377.36c-1.18-3.29-1.9-5.65-1.92-5.71l-1.88.4c.07.22.66 2.23 1.66 5.05z"/><path id="or13aK" d="M1267.13 2375.46c1.46 5.08 4.04 12.98 6.95 16.84l1.6.3c-2.74-3.64-5.37-11.57-6.93-16.9z"/><path id="or13aL" d="M1196.82 2375.67c.06.3 4.21 26.46 20.51 33.67l.08.03 34.46 2.27-.07-.43c-.03-.18-2.19-19.3 8.69-21.1l-.68-.1-11.76-1.13-.07.75 9.78.95c-5.96 2.35-7.85 9.56-7.85 14.9 0 2.26.28 4.52.38 5.32-.82.02-32.23-3.04-32.43-3.04-15.9-7.1-20.17-32.96-20.23-33.25z"/><path id="or13aM" d="M1298.2 2404.84c2.69 2.33 5.05 6.14 15.71 1.81 5.5-1.55 11.43.1 11.89 4.53.42 4.06-1.79 8.18-4.99 10.99-5.6 4.9-20.92 6.7-21.07 6.72l.22.96s-.02 1.33.03 1.89c-.22.06-2.66 1.45-5.24 2.2-2.91.84-6 1.03-6 1.03l-1.53-4c-4.73-3.24-3.94-9.14-4.09-12.87-1.04-2-1.42-4.22-.2-5.76 1.45-1.8 3.55-2.62 6.63-3.92 2.68-.6 8.13-3.26 11 .14 0 0-.09-5.24-11.5-1.26-4.99 1.69-11.68 4.53-7.08 10.99.07 3.66-1.66 10.09 3.94 13.72l1.8 4.38s3.08-.12 6.65-.9a27.1 27.1 0 0 0 6.9-2.72s-.42-1.63-.48-2.25c2.42-.32 15.94-2.32 21.3-7.02 3.4-2.99 5.27-8.58 4.86-13.23-.13-1.42-3.2-8.53-13.76-4.46-5.44 2.1-13.2.71-15.88-3.55-.52-.82.6 2.33.9 2.58"/><path id="or13aN" d="M1241.95 2440.2c.38-.7-.33 1.66 3.63-6.65 8.1-17.06 16.72-27.52 16.8-27.62 0 0-1.94 1.05-4.05 3.88a140.28 140.28 0 0 0-13.77 23.09c-4.52 9.51-4.3 6.85-3.73 6.85z"/><path id="or13aO" d="M1257.1 2412.59a140.22 140.22 0 0 0-12.56 21.33c-4.5 9.42-4.28 6.78-3.71 6.78l1.1.45c.39-.7-.31 1.64 3.61-6.59a158.92 158.92 0 0 1 12.1-21.07z"/><path id="or13aP" d="M1258.22 2412.6a97.44 97.44 0 0 1 5.11-6.67s-2.14 1.1-4.46 4.1c-.4.5-.8 1.03-1.24 1.61z"/><path id="or13aQ" d="M1253.74 2457.34l.54-.98c1.4-1.3 11.27-17.22 19.2-30.01 3.82-6.15 7.11-11.46 8.6-13.76 4.44-6.83 3.73-15 .32-18.07-3.1-2.78-20.02-4.7-20.74-4.78l-2.5 1.02c.17.01 19.22 2.3 22.14 4.93 2.74 2.46 4.76 9.37.15 16.46-1.5 2.32-4.8 7.63-8.6 13.78-7.5 12.08-18.65 29.59-19.97 30.82z"/><path id="or13aR" d="M1276.47 2419.46c2.4-3.5 4.36-6.33 5.43-7.83 4.7-6.54 3.95-14.38.34-17.31-3.28-2.67-21.2-4.5-21.95-4.58l-2.66.97c.18.02 20.35 2.22 23.44 4.73 2.9 2.36 5.04 8.98.16 15.78-1.19 1.66-3.46 4.95-6.23 8.99z"/><path id="or13aS" d="M1277.06 2420.98l-2.9 4.35c-8 11.94-19.87 29.26-21.28 30.48l.91.58.58-.97c1.49-1.29 12.01-17.03 20.47-29.68l3.7-5.53z"/><path id="or13aT" d="M1252.95 2459.25s1.4-2.36 4.68-4.42c0 0-1.05-1.13-3.16.72-2.1 1.85-1.52 3.7-1.52 3.7"/><path id="or13aU" d="M1264.63 2472.36c-3.82-4.34-7.73-9.43-9.55-12.88-1.43-2.71-.78-2.64-.8-2.69l-1.08.54c.02.04-.3-.48.92 1.88 1.8 3.52 5.8 8.99 9.94 13.67 1.15 1.32 1.15 2.61.8 4.08-.5 2.04-2.44 3.26-5.28 4.34-4.22 1.6-10.87 1.39-14.02-.4-6.75-3.83-10.88-15.4-10.93-15.51l-.13-.13s-1.93.9-2.31 1.05a24.61 24.61 0 0 1-4.5-7.49c.09-.24 1.53-2.66 1.53-2.66v-.05c.83-6.07 4.66-9.39 8.02-11.19 1.86-1 2.33-5.09 3.28-5.32 3.1-.45 7.68 6.56 10.12 11.92 1.32 2.9 1.8 5.98 1.8 5.98s.93-1.63-.54-5.55a49.2 49.2 0 0 0-2.6-5.16c-3.55-6.26-7.92-9.56-9.46-8.18-1.54 1.38-1.31 4.6-2.8 5.23-3.15 1.3-7.42 4.2-8.55 11.96-.14-.03-2.22 3.28-2.22 3.28.05.18 1.88 5.5 5 8.7l.18.18 1.83-.75c.88 1.93 5.56 11.58 11.97 15.22 3.37 1.91 10.5 2.11 14.98.42 3.13-1.18 5.24-3.2 5.8-5.53a5.4 5.4 0 0 0-1.4-4.96"/><path id="or13aV" d="M1202 2340.06s3.13-2.15 4.32-6.49c0 0-.8 6.63-4.75 9.52z"/><path id="or13aW" d="M1140.55 2306.73s8.72-2.4 14.57 1.28c5.86 3.67 9.35 7.31 8.23 13.5-1.1 6.19-1.25 6.96-4.48 11.76-3.23 4.8-7.62 10.59-7.62 10.59s6.11 3.32 5.46 7c-.67 3.67-1.78 7.66-8.15 11.28 0 0 8.65 13.38 8.77 18.2.12 4.82.66 11.71-6.32 17.62-6.98 5.9-15.07 2.62-20.25-1.53s-5.21-6.15-5.21-6.15l2.69-23.91 2.07-2.59 3.25-19.18 5.03-34.64-.07-1.81z"/><path id="or13aX" d="M1141.69 2306.33c-.99.36-1.93 1.9-.35 1.38 4.05-1.36 9.3-1.81 15.01 1.01 16.12 7.96.29 27.85-10.25 37.26-2.54-4.23-10.08-7.63-10.08-7.63l-.02 1.16s1.48.81 4.87 3.23c3.39 2.43 5.36 4.16 5.36 4.16 13.72-12.14 26.73-30.74 11.28-39.51-5.78-3.28-11.39-2.7-15.82-1.06"/><path id="or13aY" d="M983.96 2362.55l24.73-19.46s64.75-4.33 93.01 5.5c28.26 9.83 27.11 16.07 27.47 17.7.37 1.65.6 19.26-3.92 30.86-4.52 11.6-16.88 22.41-49.45 21.04a56.43 56.43 0 0 1-28.46-8.74c-9.05-5.64-11.97-11.32-11.97-11.32l-.78-9.83-12.56-9.04-21.18 7.06s-12.96-8.24-16.89-23.77"/><path id="or13aZ" d="M1157.7 2307.42c17.66 11.06-6.2 35.18-7.13 36-.26.03-5.07.9-5.07.9l.1.67 5.47-.42.1-.09c.61-.54 26.54-25.97 7.02-37.57z"/><path id="or13ba" d="M1150.46 2343.98c.06.04 5.55 2.5 5.63 6.84.05 2.74-2 7.3-6.09 9.73-7.66 4.57-16.94 4.9-21.32 4.47-.75.11.25 1.87.25 1.87s13.57-.19 21.4-4.86c4.34-2.59 8.03-7.2 7.47-11.1-.68-4.74-6.1-7.7-6.34-7.84z"/><path id="or13bb" d="M1147.03 2362.14c.12.11 11.4 11.5 10.63 23.51-.36 5.6-7.7 22.98-24.62 11.72-2.3-1.54-6.15-8.03-6.15-8.03l-.39 2.82s3.36 4.7 5.41 6.2c19.11 14.09 26.48-7.37 26.85-13.2.8-12.35-9.08-23.86-9.2-23.98z"/><path id="or13bc" d="M1142.65 2363.82c.18.13 17.71 13.27 10.84 29.46l.7.28c7.08-16.69-9.46-30.34-9.64-30.47z"/><path id="or13bd" d="M1053.55 2286.92s-5.9 8.85-4.85 19.95c1.05 11.1 48.67 41.63 48.67 41.63s25 6.6 31.66 17.44c0 0 1.96-.53 2.88-2.24.92-1.72 1.3-8.33 1.83-10.97.53-2.64 6.41-29.47 7.98-34.36 1.57-4.89 1.57-7.4 1.57-7.4s.79-5.15-.13-6.34c0 0-18.44-6.87-29.43-5.42-2.5.33-5.15-.21-8.12 0-4.3.3-9.13 1.45-13.86 1.32-6.43-.17-12.8-1.95-18.45-4.36a258.6 258.6 0 0 1-19.75-9.25"/><path id="or13be" d="M1021.97 2282.6s8.23-4.98 15.4-5.76c7.16-.79 8.35-.14 8.35-.14l2.66 3.93 3.05 1.18s-11.94 9.17-15.92 18.47c-3.99 9.3-9.43 11.4-9.43 11.4z"/><path id="or13bf" d="M996.31 2299.42s4.62-10.54 8.71-11.87a48.12 48.12 0 0 1 9.51-1.73s3.17-.8 5.95-.8c2.77 0 7.13.8 9.77 2.66 2.64 1.87 7.53 4.94 8.58 9.47 1.06 4.54 1.2 17.74 1.2 17.74l-35.93 11.07z"/><path id="or13bg" d="M1051.98 2285.33s-4.7-3.4-5.86-4.97c-1.17-1.57-2.48-7.73.39-9.7 2.86-1.96 6.9-4.97 10.16-2.09s2.08 3.8 2.08 3.8 6.9-6.68 11.08-9.43c4.17-2.75 17.71-13.62 17.71-13.62l.27.66s16.28-10.09 22.14-17.95c0 0 7.82-3.14 10.03-4.7 2.22-1.58 10.95-9.18 13.16-14.94 0 0 4.67-2 4.15.87-.52 2.88-1.02 7.38.41 2.67 1.43-4.72 1.04-2.75 1.04-2.75s6.78-2.63 7.56 3.66c.78 6.28-2.81 14.57-2.81 14.57s8.15-6.58 8.67-9.07c0 0 4.17-.46 4.7 5.96.52 6.41-3.1 18.82-3.1 18.82l-2.53 7s3.26 3.04 2.74 8.28c-.52 5.23-5.04 14.18-9.08 17.19l-3.15 24.47s-11.6-3.93-17.59-4.32c-6-.4-21.62-2.88-32.44.78 0 0-3.12-3-5.47-3.27-2.34-.26-5.6.4-5.6.4s-12.9-3.54-18.63-6.69c-5.73-3.14-10.03-5.63-10.03-5.63"/><path id="or13bh" d="M1054.28 2266.26s13.4-22.47 25.07-33.69l-1.7-.14s7.63-9.39 12.74-13.95c5.11-4.57 15.72-11.5 15.72-11.5s14.68-7.12 15.51-8.45c.65-1.03-6.7.65-8.28.21-.65-.18 3.68-4.08 4.24-4.44 9.35-6.06 16.32-.63 17.85-.07 0 0-1.6-3.23-5.67-4.8-4.06-1.56-5.8-.98-5.8-.98s7.16-5.22 14.58-.42c4.85 3.13 6.8 6.9 6.8 6.9l3.26-4.65 4.67-2.68-4.81 7.2-.57 4.36s5.67-4.99 9.2-3.94c3.54 1.04 4.4 2.53 4.4 2.53s-6.8-.14-6.52 1.98c.08.55 6.95 1.75 7.65 2.18 2.1 1.3 5.98 6.15 6.37 7.2.4 1.03-4.18-1.9-6.8-1.77 0 0 11.9 6.06 9.63 11.84l-6.37-5.35 2.27 9.02s-2.54 4-4.46 5.92c-.43.42-2.26 7.24-3.62 10.57a41.91 41.91 0 0 1-6.58 10.78s4.74-14.59 4.04-22.06c-.08-.74 1.41-6.62-2.77-3.1 0 0-9.84 6.34-14.94 8.46 0 0 6.43-9.64 5.68-15.65-.08-.62-.81-2.77-1.46-2.22-4.04 3.38-8.38 4.55-10.84 5.92 0 0 3.61-5.2 4.14-7.4.54-2.21-5.54 4.29-6.26 3.17 0 0-4.06 6.83-10.61 9.83s-9.57 4.43-9.57 4.43-7.86 8.61-12.45 11.22c-4.59 2.61-11.01 7.05-11.01 7.05l.92-1.05s-4.85 3-8.26 6c-3.4 3-20.7 16.97-20.7 16.97s-2.85-5.3-4.69-5.43"/><path id="or13bi" d="M1107.76 2270.73s1.1 7.16 3.53 9.1c0 0-.6 3.52-1.82 4.12-1.22.61-2.8-1.46-2.92-4.6-.12-3.16 1.21-8.62 1.21-8.62"/><path id="or13bj" d="M1069.9 2306.45s-36.88.66-40.95-1.71c0 0-.79-3.95-2.5-5.92-1.7-1.97-1.97-4.08-1.57-5.13.4-1.05 1.05-2.9 1.05-2.9s-2.23-1.97-4.73-1.97c-2.5 0-5.25.4-6.95 4.08-1.71 3.68-.14 8.94-.14 8.94s-8.92-.78-12.47-.65c-3.54.13-6.03-.66-7.35 1.31-1.31 1.98-3.41 4.08-1.18 6.84 0 0 4.33-.13 9.45-.52 5.12-.4 6.3 2.37 6.3 3.81 0 1.45-1.44 7.1-3.28 8.16-1.84 1.05-3.28 1.31-6.04.52-2.75-.78-6.3-1.83-6.3-1.83s-5.25-1.06-6.43.26c-1.18 1.31-3.54 7.1-.13 9.34 3.41 2.23 9.71.13 12.86.92 3.16.79 4.73.52 5.39 3.81.65 3.3.26 7.64-1.32 8.42-1.57.8-8 0-8 0s-4.2-.92-5 1.32c-.78 2.24-.52 6.05 2.5 7.9 3.02 1.84 7.48 2.36 12.6-.93 0 0 10.63 3.82 17.33 2.9 6.7-.92 9.45-2.5 9.45-2.5s30.06-.13 38.86-4.08c0 0 2.88-7.5 2.88-15s-.39-15-1.83-18.55c-1.45-3.55-2.5-6.84-2.5-6.84"/><path id="or13bk" d="M1016.1 2291.35s-1.46-3.48-3.59-3.48c-2.12 0-5.58.77-5.98 2.2-.4 1.41-.13 3.73-.13 3.73l-4.55 5s-12.6 4.03-14.46 6.87c-1.86 2.83-6.11 10.44-6.78 14.05-.66 3.6-1.06 12.12 2.26 17.27 3.33 5.16 2.4 5.55 2.4 5.55s.26 10.32 2.52 11.48c2.26 1.16 4.39 4 7.18 3.22a7.98 7.98 0 0 0 4.25-3.1l-.26-1.8 14.08-11.86 7.98-39.97z"/><path id="or13bl" d="M1064.17 2304.78s2.21-7.85 6.24-8.24c4.03-.4 7.28.52 7.28.52l3.77.53s1.82-1.18 4.16-.4c2.34.79 3.77.92 5.98 4.98 2.2 4.05 6.1 11.12 6.37 22.64.26 11.52-1.56 22.25-7.8 25.26-6.24 3.01-7.41.66-7.41.66s-2.47 4.18-5.98 4.58c-3.51.39-7.15.13-9.1-1.44-1.95-1.57-3.9-5.76-3.9-5.76l6.1-1.96s2.87-5.9 3.39-11.4 0-15.3-.78-18.84c-.78-3.53-3-9.42-4.16-10.21h-4.16z"/><path id="or13bm" d="M1118.17 2263.72c-1.46 1.8-4.66 1.72-7.15-.19s-3.32-4.92-1.86-6.73c1.46-1.8 4.66-1.72 7.15.19 2.5 1.91 3.32 4.92 1.86 6.73"/><path id="or13bn" d="M1033.26 2423.34s-19.87 8.26-26.94 2.36c0 0-7.27-14.15-8.51-29.8-1.24-15.65 0 0 0 0l2.58-5.42.4-4.15 20.62-7.06s10.7 5.9 12.23 9.05c1.53 3.15 0 0 0 0s1.15 28.92-.38 35.02"/><path id="or13bo" d="M1048.64 2304.27l1.5-11.36 3.18-7.8-3.74-2.95s-8.79 8.8-9.74 11.97c-.96 3.17-.75 1.83-.75 1.83l.37 9.13 9.24.87z"/><path id="or13bp" d="M1012.2 2427.13s-2.25 11.35 1.47 20.37c3.72 9.02 4.52 7.65 4.52 7.65l6.6 5.25 7.56 1.7 4.77-3 2.9-6 .96-7.46-.8-6.74-2.86-7.76-3.64-6.2-2.34-2.82s-13.96 6.47-19.15 5"/><path id="or13bq" d="M1018.62 2426.4s5.45.04 8.4-1.67c2.93-1.7 6.35-2.61 6.35-2.61s.39 5.98-6.73 8.62c-7.12 2.64-9.19-1.36-9.19-1.36l-3.08-2.43z"/><path id="or13br" d="M1014.35 2427.86l-.93-.69 2.02-.12c.01 0 1.02 1.03 2.73 1.96 1.71.93 4.04 1.71 6.66 1.28a9.66 9.66 0 0 0 2.26-.68c5.26-2.32 4.95-5.55 4.76-6.71-.05-.27-.1-.38-.1-.38l1.37-.4c0 .02.07.22.14.54.33 1.4.37 5.51-5.55 8.06-.9.38-1.78.64-2.64.78-6.24 1-10.67-3.61-10.72-3.64"/><path id="or13bs" d="M1030.27 2422.62c.15.2 15.16 19.08 6.31 35.22-1.84 3.35-4.86 4-7.08 3.94-5.92-.13-12.46-4.95-15.38-11.38-4.67-10.27-2.82-22.62-2.8-22.75l-1.38-.26c-.01.13-1.75 15.13 3 25.6 3.05 6.68 10.02 11.83 16.23 11.97 3.46.08 7.29-2.55 8.87-5.45 9.1-16.6-5.74-37.19-7.13-37.39z"/><path id="or13bt" d="M1015.32 2451.67c.06-.04 7-6.63 16.24-8.27 3.53-.61 7.42-.48 11.32 1.07l-.61 1.22a19.02 19.02 0 0 0-10.46-.98c-4.32.76-8.2 2.72-10.98 4.51-2.8 1.78-4.46 3.36-4.46 3.36z"/><path id="or13bu" d="M1029.77 2438.39c-1.9.27-3.65.97-4.96 1.63-1.65.9-1.89 2.09-1.89 2.09.05-.04 5.46-3.98 10.45-2.77 0 0-.77-1.4-3.6-.95"/><path id="or13bv" d="M1028.1 2435.47c-1.27.18-2.53.65-3.59 1.15-1.66.79-2.54 2.63-2.54 2.63.06-.04 5.82-4.32 9.5-2.28 0 0-.22-1.8-3.36-1.5"/><path id="or13bw" d="M992.4 2378.22c-3.18-3.93-4.84-8.57-6.83-11.25-2.28-3.07-10.02-3.06-10.02-3.06s-10.47-3.8-17.45-3.68c-6.98.13-11.32 4.05-11.2 6.86.12 2.81 2.65 12.23 13 18.96 10.36 6.73 17.7 7.71 21.8 5.5l2.4 5.4 9.63 2.32s2.41-1.23 4.1-3.68c1.68-2.44 3.97-6.84 3-9.54 0 0-4.93-3.5-8.44-7.83"/><path id="or13bx" d="M985.75 2368.8s-3.77 5.07-.37 10.01c3.4 4.95 9.96 7.03 10.93 5.86z"/><path id="or13by" d="M986.62 2381.38c5.79 5.2 9.54 3.26 9.7 3.18l-.77-1.52c-.04.01-2.7 1.57-8.1-3.27-6.27-5.63-1.76-11.18-1.57-11.5l-1.15-1.38c-.05.08-4.89 8.41 1.89 14.49"/><path id="or13bz" d="M963.84 2360.23c.1.11 9.3 11.01-5.54 26.16l.62.5c15.33-15.64 6.18-26.02 6.08-26.14z"/><path id="or13bA" d="M971.61 2362.52c.06.08 5.43 6.3 3.3 11.15-.35.8-1.06 2.74-1.06 2.74 6.28-5.3-1.16-13.92-1.48-14.28z"/><path id="or13bB" d="M975.41 2363.49c.06.07 5.44 6.28 3.3 11.15-.35.8-1.05 2.73-1.05 2.73 6.27-5.3-1.17-13.91-1.5-14.28z"/><path id="or13bC" d="M1142.53 2216.4c5.2 6.03-5.56 18.95-5.58 19.11 0 0 20.88-6.76 23.53-16.51 1.28-4.72-3.29-6.34-3.29-6.34s6.93 4.2-1.63 11.27c-4.62 5.17-14.65 9.42-16.26 10.22 6.92-9.95 6.64-14.98 3.82-18.11z"/><path id="or13bD" d="M1133.85 2221.85c1.2-1.33 3.28-4.8 4.06-7.37 2.41-7.94-.7-10.39-.7-10.39 3.62 9.74-5.89 18.97-5.96 19.03 0 0 4.88.35 9.58-3.88 7.64-6.06 3.61-13.39 3.62-13.63 0 0 3.62 11.68-10.6 16.24"/><path id="or13bE" d="M1110.47 2232.04l-1.08 1.57c19.07-6.42 25.6-20.63 25.66-20.77l-.7-1.13c-.06.14-5.19 14.04-23.88 20.33"/><path id="or13bF" d="M1088.02 2249.21l1.25-2.1s-27.81 20.84-31.19 25l.66.53c2.82-3.48 21.44-17.55 27.48-22.34-.47.8-.62 1.32-.62 1.32l1.4-.82c10.96-6.35 18.77-12.77 23.15-17.76 5.2-5.94 5.9-9.91 5.9-9.91-.06.13-5.57 12.66-28.03 26.08"/><path id="or13bG" d="M1154.81 2199.33c1.17-.3 1.53-2.38 7.04-1.42l.75-.1-.5-.55c-4.66-5.1-9.47-2.15-12.05-.57-.57.35-1.27.77-1.51.79v-.03-.16l.01-.14.07-.53c.64-3.4 5.16-8.42 5.21-8.46l.87-.97-1.29.33c-5.27 1.32-7.06 4.42-7.66 6.1-.96-1.77-3.38-5.34-7.88-6.89-4.25-1.46-9.21-.73-14.76 2.2 0 0 8.17-.5 11.58 4.19-3.62-1.4-12.19-5.05-21.7 4.96l-.75.8 1.11-.15c.04 0 10.35-.92 11.07-1.18.72-.26-3.76-.66-10.01.3 10.85-10.48 20.99-3.59 21.12-3.52l1.1.57-.53-1.08c-2.26-4.57-6.44-5.65-9.48-5.6 4.56-2.02 7.44-1.67 10.97-.45 5.6 1.93 7.98 8.32 8 8.38 0 0 1.34-5.49 6.68-7.41-1.41 1.7-4.38 5.95-4.88 8.59l-.08.63v.17c0 .32.06.7.4.9.54.29 1.84-.68 2.98-1.38 2.43-1.48 6.23-4.18 10.24-.38-5.14-1.38-6.77 1.72-7.8 2.06z"/><path id="or13bH" d="M1120.9 2197.63c-3.15 1.32-28.5 13.56-45 34.85l-1.02 1.2 2.7-.95c-4.08 4.65-18.83 21.87-24.25 33.84l.76.35c6.23-13.76 27.27-35.76 27.27-35.76s-2.18.12-2.8.34c15.39-19.74 41.27-33.1 45.09-34.08z"/><path id="or13bI" d="M1148.35 2200.28s3.13-.78 6.57-.14c4.28.8 8.67 1.86 12.1 8.35-2.02-.82-2.92-1.83-6.2-1.68 0 0 .71 1.32 1.5 1.27 2.46-.42 6.94 2.67 6.94 2.67l-.62-1.36c-7-14.36-20.14-9.14-20.29-9.1"/><path id="or13bJ" d="M1157.5 2227.92c-.09 4.25-1.16 12.1-6.3 23.51l1.44 1.21c5.49-14.55 6.5-21.97 6.08-25.5-.74-6.3-1.09-4.52-1.21.78"/><path id="or13bK" d="M1139.8 2302.9l2.6 1.16c-.36-14.57 3.09-25.64 3.1-25.71l-2.16 1.29c-.02.06-3.03 6.85-3.54 23.25"/><path id="or13bL" d="M1147.89 2252.22c4.72 2.6 9.7 4.92 4.49 17.16-2 4.68-5.14 8.2-8.98 9.14-6.96 1.69-15.89-3.1-20.92-10.8l-.21-.32-.35.18c-.04.02-4.32 3.04-9.18 1.64-3.77-1.09-7.4-2.85-8.52-7.37l-.17-.33-.35.14c-.22.09-5.57 2.79-8.56 7.58 0 0 7.43-6.34 8.57-6.85 1.63 4.17 2.42 5.52 8.8 7.62 4.42 1.46 8.25-.2 9.35-.72 5.25 7.79 14.51 12.34 21.7 10.59 4.1-1 8.1-4.8 10.19-9.72 5.5-12.92-.45-16.2-5.24-18.85-7.9-4.36-9.05-8.15-9.06-8.19 0 0 .16 4.54 8.44 9.1"/><path id="or13bM" d="M1108.27 2284.23c.48.62 1 .88 1.56.75 1.52-.33 2.23-3.1 2.44-4.01a12.06 12.06 0 0 0 5.66 2.61c.59.12 2.79.2 3.67-1.54.33-.65.42-1.62.06-2.99-.74-2.78 1.03-3.32 1.03-3.32-.04 0-.98.01-1.57.77-.3.38-.44.87-.44 1.46 0 .4.06.82.19 1.3.14.51.22.95.2 1.33-.15 1.92-1.93 1.84-2.4 1.75-9.69-1.83-10.08-10.83-10.08-12.25v-.18l-.8-.13c-.13.4-3.03 9.96.48 14.45m.64-.48c-1.17-1.5-1.54-3.69-1.54-5.88 0-2.03.32-4.05.63-5.54.39 2.2 1.22 5.88 4 8.3-.24-.04-.34-.55-.34-.55-.36 1.61-1.22 3.95-2.01 4.13-.22.05-.46-.11-.74-.46"/><path id="or13bN" d="M1107.64 2269.82c-1.29.26-2.02 1.8-2.05 1.86 0 0 1.3-.34 2.18-.52.63-.12 2.57.05 2.57.05-.9-1.1-1.81-1.58-2.7-1.39"/><path id="or13bO" d="M1107.94 2292.58c1.23.36 3.35-1.21 3.35-1.21-1.1.6-2.09.75-3.03.47-2.38-.7-3.6-3.94-3.62-3.97 0 0 .47 3.87 3.3 4.7"/><path id="or13bP" d="M1124.8 2261.16s-.97-3.31 1.37-6.61c2.35-3.3 4.41-4.6 5.46-3.33 1.04 1.27.61 3.36-.9 6.08-1.5 2.72-3.27 4.23-5.93 3.86"/><path id="or13bQ" d="M1126.73 2254.64c-1.5 2.05-2.3 4.27-2.1 5.78a2 2 0 0 0 .79 1.44c.43.3 1 .38 1.65.24 1.53-.31 3.4-1.78 4.9-3.84.65-.89 1.16-1.78 1.52-2.64.86-2.06.84-3.85-.2-4.57-1.47-1.02-4.35.56-6.56 3.59zm-.83 6.56c-.27-.19-.43-.5-.49-.94-.17-1.3.6-3.33 1.94-5.19 2.07-2.84 4.5-4.03 5.46-3.36.96.66.6 3.28-1.46 6.12-1.35 1.86-3.07 3.23-4.38 3.5-.45.1-.81.05-1.07-.13z"/><path id="or13bR" d="M1131.47 2258.66c-1.2 2.13-1.94 3-2.68 2.34-.75-.67-.39-2.95.8-5.09 1.2-2.13 2.56-3.78 3.3-3.1.75.66-.23 3.71-1.42 5.85"/><path id="or13bS" d="M1127.17 2229s6.59-8.27 9.78-.91c3.2 7.35-2.4.91-5.99 2.75-3.59 1.84-5.59 0-3.79-1.84"/><path id="or13bT" d="M1050.74 2272.28c-3.9 2.12-1.32 6.07-1.32 6.07-.04-.16-1-3.98 1.65-5.37 2.67-1.4 5.01 1.17 5.11 1.27 0 0-1.63-4.04-5.44-1.97"/><path id="or13bU" d="M1143.2 2304.5c.02.02 1.78 3.03-1.61 13.44-3.5 10.75-8.64 37.58-8.85 42.24-.18 4.21-2.98 5.51-3.1 5.57l-.24.1v.27c.02.2-.22 19.24-4.63 32.21-4.78 14.05-25.96 23.5-53.22 19.17-27.26-4.33-36.06-20.23-36.08-20.28l-.2 1.77c.09.26 9.8 15.95 33.34 19.89 23.53 3.93 51.19-.4 57.84-18.78 3.54-9.8 3.8-24 3.8-30.5 0-1.65-.04-2.79-.05-3.26.77-.43 3.54-1.6 3.72-5.65.2-4.63 5.92-31.73 9.41-42.43 1.68-5.15 1.13-8.63 1.13-10.8 0-2.44-.56-3.33-.6-3.4z"/><path id="or13bV" d="M1091.34 2299.8l.97 1.92c28.02-7.41 51.08 4.12 51.3 4.24v-1.14c-.22-.12-23.97-12.51-52.27-5.03"/><path id="or13bW" d="M1083 2299.6c-2.3-3.42-5.28-4.24-9.96-4.1-6.12.2-9.55 9.78-9.24 9.33l1.73.18c.01-.06 2.12-8.18 7.63-8.35 5.75-.17 7.6.64 10.58 7.06 0 0-.09-3.15-.75-4.13"/><path id="or13bX" d="M1080.89 2297.05l.42.67c.05-.03 5.37-2.28 9.11.85 3.96 3.3 10.92 14.31 8.73 35.63-.83 8.03-2.98 12.46-6.62 14.43-3.42 1.86-7 .85-7.04.83l-1.28 2.13c.15.08 4.8.44 8.58-1.61 3.9-2.1 6.8-7.43 7.66-15.74 2.22-21.64-5.4-33.75-9.47-37.15-4.18-3.5-9.85-.19-10.09-.04"/><path id="or13bY" d="M1072.64 2355.07c-6.73-1.8-7.14-6.59-7.17-6.81l-1.69.6c0 .06.81 5.63 8.18 7.2 15.02 3.23 17.1-16.5 16.42-22.49 0 0-2.99 24.91-15.74 21.5"/><path id="or13bZ" d="M1096.67 2345.29l-.58 1.61c.52-.15 9.85-3.05 16.65-5.4 3.24-1.11 7.1-4.12 7.1-4.12-4.44 2.4-22.98 7.85-23.17 7.9"/><path id="or13ca" d="M1108.44 2342.24c.18.07 4.43 1.69 8.55.28l-8.3-1.33z"/><path id="or13cb" d="M1018.8 2289.04a7.46 7.46 0 0 0-5.37 5.14c-2.4 8.02.42 8.7.68 8.79l2.65.4c-.02 0-4.24-1.64-2.08-8.88.77-2.56 2.04-3.72 4.14-4.26 2.9-.74 6.13.33 6.58.8.2.2-.06.85-.32 1.54-.54 1.4-1.36 3.52.08 5.67 2.07 3.11 3.06 7.55 3.07 7.6l.02.25.23.09c5.7 2.23 39.57 1.64 41 1.54l-.29-.91c-.35.02-33.59.23-39.7-1.82-.13-1.12-1.73-4.27-3.69-7.2a3.83 3.83 0 0 1-.67-2.18c0-1 .36-1.93.67-2.74a5 5 0 0 0 .45-1.63c0-.3-.08-.56-.3-.79-.73-.75-4.14-2.18-7.15-1.4"/><path id="or13cc" d="M992.16 2303.01c-1 2.82-.57 4.15-.04 4.97.53.81-.05.75 1.4.84l2.3-.69c-1.39-.09-4.34-.79-2.6-4.82 1.42-3.29 4.37-3.32 8.05-3.16 1.32.05 2.67.1 4.04 0 5.08-.38 15.63 3.13 15.7 3.16 0 0-4.49-2.4-6.94-2.96-2.68-.61-6.09-1.19-8.81-.98-1.33.1-2.67.04-3.95-.01-3.69-.16-7.77-.27-9.15 3.65"/><path id="or13cd" d="M993.95 2308.1c-1.53.22-2.48 1.13-2.48 1.13.15-.02 14.87-2 15.81-.1 1.2 2.44.66 6.54-1.77 8.98-2.71 2.7-7.43.6-11.02-.87l-3.88-1.32 1.46 1.2 2.1.81c3.8 1.55 9.52 3.88 12.6.79 2.73-2.72 3.5-7.24 2.3-9.96-1.49-3.39-11.6-1.2-15.12-.67"/><path id="or13ce" d="M985.81 2318.92c-1.17 2.2-1.3 6.49.2 8.64a3 3 0 0 0 2.75 1.25c4.2-.18 12.65-.93 12.73-.94l1.47-.85c-.08.01-9.54.2-13.72.38-.9.04-1.76-.2-2.22-.85-1.29-1.84-.81-4.98.3-7.06 1.2-2.22 8.67-.58 11.1.28l-.66-.92c-.97-.34-10.22-3.15-11.95.07"/><path id="or13cf" d="M995.24 2329.32l-1.57 1.31c2.03-.45 8.45-1.43 9.46.66.98 2.01 1.84 6.67.2 8.87-.53.73-.51 1.31-2.3.92l-13.27-1.32 3.09 1.27 10.87 1.08a3.15 3.15 0 0 0 3.03-1.23c1.82-2.45.97-8.01-.1-10.22-1.48-3.07-9.09-1.41-9.4-1.34"/><path id="or13cg" d="M1006.93 2287.68c-2.68.97-1.76 3.6-2.35 5.6-2 6.81-15.18 6.1-19.4 13.44-2.45 4.3-5.97 11.3-5.97 19.3 0 4.43 1.21 9.27 4.53 14.4.08.39 1.37 6.8 1.74 9.96.23 1.86 1.74 3.94 3.84 5.32 7.42 4.88 11.15-2.27 9-4.44l-.61.47c.2.25-.08 2.96-2.04 3.83-2.16.6-3.84.45-5.88-.87-1.89-1.24-3.33-2.78-3.53-4.4-.39-3.26-.76-10.23-.78-10.3l-1 .14.9-.14c-8.43-12.96-4.35-23.48 1.03-32.39 1.5-2.49 5.15-4.47 9.06-6.2 4.72-2.07 9.7-3.94 10.28-8.12.48-3.36.1-3.63 2.06-4.35 4.14-1.5 6.16-.92 6.8 2.38l.7-.31c-.4-2.81-2.65-5.4-8.38-3.32"/><path id="or13ch" d="M991.5 2341.8a4.86 4.86 0 0 0-.4 4.92c2.7 5.55 8.64 6.5 15.82 3.3 18.05 6.47 27.93-.95 30.25-2.84l-2.92.92c-7.77 2.98-12.23 3.3-27.92.6l-.84.48-.1.04c-4.26 1.74-10.22 2.4-12.87-3.12-1.96-4.1 2.76-5.1 2.79-5.1l.03-.76c-.11 0-2.72-.09-3.84 1.57"/><path id="or13ci" d="M1032.38 2349.86l-3.76 1.8c35.1-.56 42.52-5.21 42.52-5.21l1.2-2.41s-4.92 3.62-39.96 5.82"/><path id="or13cj" d="M1048.58 2282.43c.14.09 14.92 11.11 30.92 13.06l1.39-1.07c-15.8-1.92-30.93-12.17-31.07-12.26z"/><path id="or13ck" d="M1019.12 2285.27l3.36.7c8.88-8.6 22.18-7.67 22.3-7.67v-.94c-.5 0-11.65-4.88-25.66 7.91"/><path id="or13cl" d="M1047.64 2306.72l1.05.2c-.18-11.97 4.59-19.47 4.64-19.54l-.62-.46c-.05.07-5.27 7.56-5.07 19.8"/><path id="or13cm" d="M1038.12 2295.73l.84 1.66c2.58-8.1 11.3-14.54 10.51-13.88l-.48-1.35c-.33.28-9.13 8.13-10.87 13.57"/><path id="or13cn" d="M1095.14 2346.75c.31.1 32.37 9.88 34.47 18.24l.69-.59c-2.2-8.79-32.96-18.99-34.25-19.4z"/><path id="or13co" d="M1012.66 2285.2c-.5-.05-6.12-.4-9.85 2.42-3.5 2.65-6.96 8.16-8.4 12.92l2.33-.37c1.4-4.6 4.28-9.37 7.65-11.92 3.61-2.74 8.23-2.28 8.27-2.28l.08.01.08-.02c.16-.05 16.3-4.85 24.22 9.09.85 1.5 1.06 3.46 1.3 5.72.17 1.57.36 3.36.81 5.19l.87-.38c-.44-1.78-.02-3.2-.2-4.83-.24-2.35-.72-5.2-1.66-6.85-8.02-14.12-24.52-8.98-25.5-8.7"/><path id="or13cp" d="M1031.01 2290.05c-6.6-6.28-17.46-4.91-17.59-4.9l.11.8c.15-.02 14.61-1.83 19.78 8.6 0 0 .68-1.98-2.3-4.5"/><path id="or13cq" d="M982.06 2361.38l.12.25c.36.82 9.04 20.01 17.96 24.22l.18.09.18-.1c.14-.09 19.18-8.01 34.77-11.2 0 0-14.87-.76-34.77 8.77-8.06-3.98-14.77-19.23-15.84-21.55.4-.35 6.18-5.9 6.18-5.9l-1.8-.49z"/><path id="or13cr" d="M1020.07 2379.08c.1.05 13.56 7.88 19.96 19.23 0 0-1.44-7.12-6.8-12.59-4.32-4.4-12.79-7.38-12.83-7.4z"/><path id="or13cs" d="M1031.61 2385.6c3.36 6.2 1.6 19.44 1.74 30.32.03 1.87-.29 6.05-.29 6.05s-1.18 1.2-9 3.26c-11.64 3.07-16 .65-16.65.3-6.82-12.46-8.32-22.54-8.32-29.04 0-4.82.04-5.88.06-5.94l-1.16 2.5c-.05.16-4.22 12.07 7.92 34.16l.05.1.09.05c.2.13 5.32 3.22 18.1-.16 10.18-2.68 10.31-3.71 10.31-4.21v-.02c0-.1 2.03-25.27-.33-34.4-.5-1.92-3.54-4.88-2.52-2.98"/><path id="or13a" d="M945 2360.62h56.88v41.2H945z"/><path id="or13cu" d="M947.27 2363.53c-2.8 2.15-3.02 5.96-.61 10.74 5.3 10.54 22.04 23.26 34.5 19.57l2.42 5.4 10.63 2.58.13-.08c.07-.04 7.55-4.72 7.55-13.85l-1.97-.75c0 8.08-4.85 12.16-5.77 12.78l-9.46-2.26a903.6 903.6 0 0 1-2.25-5.72l-.31.1c-11.96 3.84-28.48-7.57-33.6-17.74-1.28-2.56-2.93-7.23.41-9.8 9.54-7.29 36.88 3.83 37.03 3.9l-1.44-2.81c-.16-.07-27.38-9.62-37.26-2.06"/><path id="or13cv" d="M1149.01 2238.87a4.04 4.04 0 0 1 3.22 3.75c.47 4.3 3.42 2.54 2.64-2.85-.77-5.38-5.74-4.92-6.98-2.69-1.25 2.23.17 1.55 1.12 1.79"/><path id="or13cw" d="M989.13 2321.26c.71-.12 1.5-.15 2 .54.44.63.54 1.7.32 3.47-.3 2.4-1.5 2.58-1.86 2.58-.84 0-1.6-.77-1.72-1.76 0-.09-.11-.81-.11-1.68 0-.82.09-1.75.43-2.39.23-.44.54-.7.94-.76zm-.67 4.69c.08.6.58 1.09 1.13 1.09.66 0 1.13-.7 1.27-1.9.18-1.45.12-2.36-.17-2.77-.24-.34-.7-.44-1.49-.3-.22.04-.4.18-.53.43-.45.86-.3 2.78-.21 3.44z"/><path id="or13cx" d="M993.01 2343.4c.52-.28 1.13-.5 1.74-.06.55.41.98 1.27 1.38 2.8.55 2.05-.33 2.52-.62 2.61-.66.21-1.5-.24-1.92-1.03-.03-.06-.35-.64-.63-1.36a5.1 5.1 0 0 1-.44-2.08c.04-.43.2-.72.49-.87zm1 4.07c.25.47.8.75 1.24.61.52-.17.66-.86.38-1.9-.33-1.25-.67-1.98-1.03-2.25-.3-.23-.7-.19-1.27.13-.16.09-.25.25-.28.49-.07.84.67 2.38.96 2.9z"/><path id="or13cy" d="M996.75 2331.74c.71-.13 1.5-.16 1.99.63.44.73.53 1.96.3 3.97-.32 2.74-1.52 2.95-1.88 2.95-.84 0-1.59-.9-1.7-2.04-.01-.1-.1-.92-.1-1.92 0-.93.1-2 .44-2.72.24-.5.56-.8.95-.87zm-.7 5.35c.07.69.56 1.25 1.1 1.26.67 0 1.13-.8 1.3-2.17.18-1.65.13-2.69-.16-3.16-.23-.4-.69-.5-1.48-.35-.22.04-.4.2-.53.49-.46.98-.32 3.16-.23 3.92z"/><path id="or13cz" d="M989.17 2350.05c.5-.25 1.1-.46 1.7-.1.55.34 1 1.05 1.43 2.31.6 1.72-.25 2.12-.53 2.2-.64.2-1.47-.16-1.9-.81-.04-.05-.36-.53-.66-1.13a3.8 3.8 0 0 1-.5-1.73c.03-.36.18-.6.46-.74zm1.1 3.36c.26.4.82.62 1.23.49.5-.15.62-.74.32-1.6-.36-1.03-.72-1.64-1.08-1.85-.3-.18-.68-.14-1.24.13-.15.08-.24.22-.25.42-.06.7.72 1.97 1.02 2.4z"/><path id="or13cA" d="M1000.35 2309.78c.7.1 1.44.31 1.62 1.14.16.75-.15 1.83-1.03 3.5-1.18 2.25-2.36 2.07-2.7 1.96-.77-.26-1.17-1.25-.9-2.26.02-.08.21-.82.54-1.67.32-.8.76-1.7 1.3-2.21.39-.36.78-.51 1.17-.46zm-2.41 4.39c-.16.6.11 1.24.61 1.4.61.21 1.3-.33 1.9-1.47.72-1.36 1.02-2.26.9-2.76-.08-.4-.47-.64-1.25-.74-.22-.04-.43.05-.65.25-.75.71-1.34 2.63-1.5 3.3zm-.6-.05v.02z"/><path id="or13cB" d="M1023.75 2292.83c.15.7.24 1.5-.2 2.04-.41.5-1.16.68-2.43.6-1.72-.1-1.96-1.3-2-1.66-.07-.84.42-1.65 1.1-1.85a6.6 6.6 0 0 1 1.18-.25 2.87 2.87 0 0 1 1.73.24c.33.2.54.5.62.88zm-3.38-.3c-.41.13-.71.67-.67 1.22.06.66.6 1.07 1.46 1.12 1.04.07 1.68-.06 1.94-.39.22-.26.25-.73.08-1.51a.73.73 0 0 0-.35-.5c-.65-.38-1.99-.09-2.45.06z"/><path id="or13cC" d="M996.37 2302.15c.65 0 1.37.07 1.68.72.29.6.2 1.53-.3 3.01-.68 2.02-1.79 2.02-2.11 1.97-.75-.1-1.29-.87-1.23-1.73 0-.08.04-.7.2-1.45.14-.7.37-1.49.79-1.99.28-.34.6-.52.97-.53zm-1.4 3.93c-.04.52.32 1 .8 1.07.6.09 1.13-.45 1.47-1.46.41-1.21.52-2 .33-2.39-.16-.32-.55-.46-1.28-.44-.2 0-.38.1-.54.3-.56.67-.76 2.33-.78 2.9z"/><path id="or13cD" d="M1013.61 2298.35l-3.04 2.02 3.8.84z"/><path id="or13cE" d="M1165.82 2210.68c-1.73-1.33-5.3-3.81-7.7-4.69 0 0 19.61 5.86 15.25 20.36 0 0 .22-7.25-6.75-10.33 0 0 11.11 14.5-13.52 17.58 0 0 10.32-7.4 8.36-15.3 0 0 4.92 5.99-3.07 13.02 0 0 17.02-1.9 5.6-18.15 0 0 6.98 3.73 8.51 5.7 0 0-1.5-4.2-6.68-8.2"/><path id="or13cF" d="M1131.25 2219.33s5.78-1.35 8.07-5.9l.48-1.72s-2.65 4.8-8.31 6.63z"/><path id="or13cG" d="M1162.6 2228.84s-2.2 14.27-9.5 23.8l.84-2.7s5.02-6.8 7.51-20.45z"/><path id="or13cH" d="M1067.58 2304.06c.07.06 6.67 6.23 6.8 20.94.21 23.74-6.52 25.56-6.58 25.57 0 0 2.9 1.55 5.46-5.66a50.14 50.14 0 0 0 2.8-19.82c-1.01-18.93-8.48-21.03-8.48-21.03"/><path id="or13cI" d="M1049.67 2266.59a9.52 9.52 0 0 0-5.84 9.01 8 8 0 0 0 5.5 7.5l4.96-.81c-5.9-.2-8.88-3.15-8.98-6.33a8.74 8.74 0 0 1 5.38-8.25 4.76 4.76 0 0 1 4.61.27c2.73 1.66 2.66 5.69 2.67 5.73 0 0 1.02-4.95-3.01-7.08-1.54-.82-3.27-.92-5.29-.04"/><clipPath id="or13ct"><use xlink:href="#or13a"/></clipPath></defs><g><g transform="translate(-954 -2178)"><g transform="rotate(-11 1146 2331)"><g><use fill="#eea53e" xlink:href="#or13b"/></g><g><use fill="#eea53e" xlink:href="#or13c"/></g><g><use fill="#f15044" xlink:href="#or13d"/></g><g><use fill="#fefefe" xlink:href="#or13e"/></g><g><use fill="#f15044" xlink:href="#or13f"/></g><g><use fill="#fefefe" xlink:href="#or13g"/></g><g><use fill="#fefefe" xlink:href="#or13h"/></g><g><use fill="#fcc4c2" xlink:href="#or13i"/></g><g><use fill="#fcc4c2" xlink:href="#or13j"/></g><g><use fill="#fcc4c2" xlink:href="#or13k"/></g><g><use fill="#fcc4c2" xlink:href="#or13l"/></g><g><use fill="#fcc4c2" xlink:href="#or13m"/></g><g><use fill="#6b8bc7" xlink:href="#or13n"/></g><g><use fill="#6b8bc7" xlink:href="#or13o"/></g><g><use fill="#211300" xlink:href="#or13p"/></g><g><use fill="#211300" xlink:href="#or13q"/></g><g><use fill="#f1c58a" xlink:href="#or13r"/></g><g><use fill="#211300" xlink:href="#or13s"/></g><g><use fill="#f15044" xlink:href="#or13t"/></g><g><use fill="#965d57" xlink:href="#or13u"/></g><g><use fill="#eea53e" xlink:href="#or13v"/></g><g><use fill="#f9917a" xlink:href="#or13w"/></g><g><use fill="#fcc4c2" xlink:href="#or13x"/></g><g><use fill="#742900" xlink:href="#or13y"/></g><g><use fill="#182717" xlink:href="#or13z"/></g><g><use fill="#211300" xlink:href="#or13A"/></g><g><use fill="#182717" xlink:href="#or13B"/></g><g><use fill="#742900" xlink:href="#or13C"/></g><g><use fill="#211300" xlink:href="#or13D"/></g><g><use fill="#742900" xlink:href="#or13E"/></g><g><use fill="#211300" xlink:href="#or13F"/></g><g><use fill="#fefefe" xlink:href="#or13G"/></g><g><use fill="#742900" xlink:href="#or13H"/></g><g><use fill="#742900" xlink:href="#or13I"/></g><g><use fill="#742900" xlink:href="#or13J"/></g><g><use fill="#742900" xlink:href="#or13K"/></g><g><use fill="#742900" xlink:href="#or13L"/></g><g><use fill="#742900" xlink:href="#or13M"/></g><g><use fill="#742900" xlink:href="#or13N"/></g><g><use fill="#742900" xlink:href="#or13O"/></g><g><use fill="#735236" xlink:href="#or13P"/></g><g><use fill="#735236" xlink:href="#or13Q"/></g><g><use fill="#735236" xlink:href="#or13R"/></g><g><use fill="#735236" xlink:href="#or13S"/></g><g><use fill="#735236" xlink:href="#or13T"/></g><g><use fill="#735236" xlink:href="#or13U"/></g><g><use fill="#735236" xlink:href="#or13V"/></g><g><use fill="#735236" xlink:href="#or13W"/></g><g><use fill="#735236" xlink:href="#or13X"/></g><g><use fill="#735236" xlink:href="#or13Y"/></g><g><use fill="#211300" xlink:href="#or13Z"/></g><g><use fill="#211300" xlink:href="#or13aa"/></g><g><use fill="#211300" xlink:href="#or13ab"/></g><g><use fill="#211300" xlink:href="#or13ac"/></g><g><use fill="#742900" xlink:href="#or13ad"/></g><g><use fill="#742900" xlink:href="#or13ae"/></g><g><use fill="#742900" xlink:href="#or13af"/></g><g><use fill="#742900" xlink:href="#or13ag"/></g><g><use fill="#742900" xlink:href="#or13ah"/></g><g><use fill="#211300" xlink:href="#or13ai"/></g><g><use fill="#211300" xlink:href="#or13aj"/></g><g><use fill="#211300" xlink:href="#or13ak"/></g><g><use fill="#742900" xlink:href="#or13al"/></g><g><use fill="#742900" xlink:href="#or13am"/></g><g><use fill="#742900" xlink:href="#or13an"/></g><g><use fill="#f9917a" xlink:href="#or13ao"/></g><g><use fill="#742900" xlink:href="#or13ap"/></g><g><use fill="#755137" xlink:href="#or13aq"/></g><g><use fill="#5a2b25" xlink:href="#or13ar"/></g><g><use fill="#5a2b25" xlink:href="#or13as"/></g><g><use fill="#211300" xlink:href="#or13at"/></g><g><use fill="#211300" xlink:href="#or13au"/></g><g><use fill="#742900" xlink:href="#or13av"/></g><g><use fill="#211300" xlink:href="#or13aw"/></g><g><use fill="#211300" xlink:href="#or13ax"/></g><g><use fill="#182717" xlink:href="#or13ay"/></g><g><use fill="#211300" xlink:href="#or13az"/></g><g><use fill="#fefefe" xlink:href="#or13aA"/></g><g><use fill="#211300" xlink:href="#or13aB"/></g><g><use fill="#742900" xlink:href="#or13aC"/></g><g><use fill="#211300" xlink:href="#or13aD"/></g><g><use fill="#735236" xlink:href="#or13aE"/></g><g><use fill="#182717" xlink:href="#or13aF"/></g><g><use fill="#742900" xlink:href="#or13aG"/></g><g><use fill="#742900" xlink:href="#or13aH"/></g><g><use fill="#742900" xlink:href="#or13aI"/></g><g><use fill="#742900" xlink:href="#or13aJ"/></g><g><use fill="#742900" xlink:href="#or13aK"/></g><g><use fill="#211300" xlink:href="#or13aL"/></g><g><use fill="#755137" xlink:href="#or13aM"/></g><g><use fill="#742900" xlink:href="#or13aN"/></g><g><use fill="#742900" xlink:href="#or13aO"/></g><g><use fill="#742900" xlink:href="#or13aP"/></g><g><use fill="#742900" xlink:href="#or13aQ"/></g><g><use fill="#742900" xlink:href="#or13aR"/></g><g><use fill="#742900" xlink:href="#or13aS"/></g><g><use fill="#755137" xlink:href="#or13aT"/></g><g><use fill="#755137" xlink:href="#or13aU"/></g><g><use fill="#742900" xlink:href="#or13aV"/></g><g><use fill="#f15044" xlink:href="#or13aW"/></g><g><use fill="#742900" xlink:href="#or13aX"/></g><g><use fill="#fefefe" xlink:href="#or13aY"/></g><g><use fill="#742900" xlink:href="#or13aZ"/></g><g><use fill="#742900" xlink:href="#or13ba"/></g><g><use fill="#742900" xlink:href="#or13bb"/></g><g><use fill="#742900" xlink:href="#or13bc"/></g><g><use fill="#005a24" xlink:href="#or13bd"/></g><g><use fill="#005a24" xlink:href="#or13be"/></g><g><use fill="#005a24" xlink:href="#or13bf"/></g><g><use fill="#fcac88" xlink:href="#or13bg"/></g><g><use fill="#f57252" xlink:href="#or13bh"/></g><g><use fill="#9d3640" xlink:href="#or13bi"/></g><g><use fill="#fcac88" xlink:href="#or13bj"/></g><g><use fill="#fcac88" xlink:href="#or13bk"/></g><g><use fill="#005a24" xlink:href="#or13bl"/></g><g><use fill="#f9917a" xlink:href="#or13bm"/></g><g><use fill="#fefefe" xlink:href="#or13bn"/></g><g><use fill="#fefefe" xlink:href="#or13bo"/></g><g><use fill="#f57252" xlink:href="#or13bp"/></g><g><use fill="#f15044" xlink:href="#or13bq"/></g><g><use fill="#a63d2d" xlink:href="#or13br"/></g><g><use fill="#a63d2d" xlink:href="#or13bs"/></g><g><use fill="#211300" xlink:href="#or13bt"/></g><g><use fill="#211300" xlink:href="#or13bu"/></g><g><use fill="#211300" xlink:href="#or13bv"/></g><g><use fill="#f57252" xlink:href="#or13bw"/></g><g><use fill="#f15044" xlink:href="#or13bx"/></g><g><use fill="#a63d2d" xlink:href="#or13by"/></g><g><use fill="#211300" xlink:href="#or13bz"/></g><g><use fill="#211300" xlink:href="#or13bA"/></g><g><use fill="#211300" xlink:href="#or13bB"/></g><g><use fill="#a63d2d" xlink:href="#or13bC"/></g><g><use fill="#a63d2d" xlink:href="#or13bD"/></g><g><use fill="#a63d2d" xlink:href="#or13bE"/></g><g><use fill="#a63d2d" xlink:href="#or13bF"/></g><g><use fill="#a63d2d" xlink:href="#or13bG"/></g><g><use fill="#a63d2d" xlink:href="#or13bH"/></g><g><use fill="#a63d2d" xlink:href="#or13bI"/></g><g><use fill="#742900" xlink:href="#or13bJ"/></g><g><use fill="#742900" xlink:href="#or13bK"/></g><g><use fill="#742900" xlink:href="#or13bL"/></g><g><use fill="#571900" xlink:href="#or13bM"/></g><g><use fill="#571900" xlink:href="#or13bN"/></g><g><use fill="#742900" xlink:href="#or13bO"/></g><g><use fill="#fefefe" xlink:href="#or13bP"/></g><g><use fill="#211300" xlink:href="#or13bQ"/></g><g><use fill="#211300" xlink:href="#or13bR"/></g><g><use fill="#211300" xlink:href="#or13bS"/></g><g><use fill="#742900" xlink:href="#or13bT"/></g><g><use fill="#182717" xlink:href="#or13bU"/></g><g><use fill="#003314" xlink:href="#or13bV"/></g><g><use fill="#003314" xlink:href="#or13bW"/></g><g><use fill="#003314" xlink:href="#or13bX"/></g><g><use fill="#003314" xlink:href="#or13bY"/></g><g><use fill="#003314" xlink:href="#or13bZ"/></g><g><use fill="#003314" xlink:href="#or13ca"/></g><g><use fill="#742900" xlink:href="#or13cb"/></g><g><use fill="#742900" xlink:href="#or13cc"/></g><g><use fill="#742900" xlink:href="#or13cd"/></g><g><use fill="#742900" xlink:href="#or13ce"/></g><g><use fill="#742900" xlink:href="#or13cf"/></g><g><use fill="#742900" xlink:href="#or13cg"/></g><g><use fill="#742900" xlink:href="#or13ch"/></g><g><use fill="#742900" xlink:href="#or13ci"/></g><g><use fill="#003314" xlink:href="#or13cj"/></g><g><use fill="#003314" xlink:href="#or13ck"/></g><g><use fill="#182717" xlink:href="#or13cl"/></g><g><use fill="#182717" xlink:href="#or13cm"/></g><g><use fill="#003314" xlink:href="#or13cn"/></g><g><use fill="#003314" xlink:href="#or13co"/></g><g><use fill="#003314" xlink:href="#or13cp"/></g><g><use fill="#182717" xlink:href="#or13cq"/></g><g><use fill="#182717" xlink:href="#or13cr"/></g><g><use fill="#182717" xlink:href="#or13cs"/></g><g><g/><g clip-path="url(#or13ct)"><use fill="#a63d2d" xlink:href="#or13cu"/></g></g><g><use fill="#211300" xlink:href="#or13cv"/></g><g><use fill="#742900" xlink:href="#or13cw"/></g><g><use fill="#742900" xlink:href="#or13cx"/></g><g><use fill="#742900" xlink:href="#or13cy"/></g><g><use fill="#742900" xlink:href="#or13cz"/></g><g><use fill="#742900" xlink:href="#or13cA"/></g><g><use fill="#742900" xlink:href="#or13cB"/></g><g><use fill="#742900" xlink:href="#or13cC"/></g><g><use fill="#211300" xlink:href="#or13cD"/></g><g><use fill="#a63d2d" xlink:href="#or13cE"/></g><g><use fill="#a63d2d" xlink:href="#or13cF"/></g><g><use fill="#a63d2d" xlink:href="#or13cG"/></g><g><use fill="#003314" xlink:href="#or13cH"/></g><g><use fill="#742900" xlink:href="#or13cI"/></g></g></g></g></svg>