<svg viewBox="0 0 120 117" xmlns="http://www.w3.org/2000/svg" xmlns:xlink="http://www.w3.org/1999/xlink"><defs><path id="a" d="M0 0h119.842v116.766H0z"/></defs><g fill="#fff" fill-rule="evenodd"><mask id="b"><use xlink:href="#a"/></mask><path d="M38.61 31.598c.106.128.151.28.108.422-.703 2.332-1.615 4.087-2.991 6.297-.11.223-.354.286-.58.177-2.538-1.126-4.28.286-4.29 2.217.004 1.788 2.108 2.78 3.973 2.26.275-.09.532.024.596.292.185.839.265 1.548.251 2.308a.38.38 0 0 1-.146.28c-1.275 1.193-3.62 2.37-6.695 1.894-4.397-.66-7.218-5.267-6.023-11.446.893-4.596 3.713-8.54 8.802-7.986 2.325.256 5.206 1.21 6.995 3.285m1.027 8.33c-1.16-6.467 1.998-11.128 6.653-11.854 5.813-.914 9.307 2.753 10.039 8.897.759 6.172-1.826 9.69-6.24 10.546-4.88.856-9.445-1.666-10.452-7.589m7.029 2.72c.224 1.3 1.185 2.203 2.608 2.057 1.27-.223 1.968-1.23 1.848-2.682-.159-1.626-1.268-2.579-2.6-2.408-1.249.105-2.163 1.389-1.856 3.033m34.19-10.769a.483.483 0 0 1 .116-.484c1.83-1.764 3.72-2.596 6.982-3.044 3.023-.477 6.814-.024 7.43 4.099.434 2.676-.992 4.385-2.29 5.935 1.33.299 2.82 1.163 3.18 3.497.409 2.945-2.45 5.162-5.65 5.633-2.91.433-5.237-.062-6.948-1.25-.162-.127-.21-.267-.175-.45.179-.903.554-1.862 1.1-2.873.093-.188.292-.242.5-.21.334.074.815.16 1.36.06.9-.086 1.398-.797 1.312-1.462-.138-.835-1.013-1.016-2.02-.856-.261.034-.481-.086-.514-.344l-.328-1.4c-.058-.227.064-.418.287-.506.842-.314 1.328-.64 1.273-1.309-.17-.86-.974-1.168-1.663-1.049-.52.067-.908.262-1.152.411-.216.145-.449.175-.553.043-.84-1.037-1.614-2.731-2.247-4.441m-40.923 23.11c-.103-.154-.076-.334.052-.488 1.52-1.597 3.375-3.143 5.024-4.123a.364.364 0 0 1 .49.078l3.117 3.812 1.83-3.427c.102-.154.257-.23.438-.18 1.828.413 3.425 1.211 4.97 2.319.155.103.207.284.155.463-2.138 5.412-6.62 12.47-9.273 14.994-.078.078-.208.13-.31.104-1.263-.284-2.679-1.494-3.453-2.422-.103-.155-.127-.336-.024-.464l2.678-4.174c-2.242-2.266-4.302-4.405-5.694-6.492m18.806-3.283a.397.397 0 0 1 .251-.275c1.758-.62 3.766-.861 6.071-.926a.387.387 0 0 1 .376.252c1.686 4.168 3.643 9.693 4.8 14.385.024.15-.027.3-.151.402-.98.671-2.665 1.44-4.094 1.66-.176.05-.326-.05-.401-.201l-2.759-5.477-1.957 6.107c-.075.176-.226.302-.402.275-1.152-.131-2.655-.438-3.706-.843a.34.34 0 0 1-.225-.378c.345-4.285 1.303-11.125 2.197-14.981m19.779 4.73c3.715.557 5.143 3.36 4.582 6.366-.701 3.876-4.362 5.882-10.805 4.216-.158-.06-.271-.176-.287-.326-.436-4.566-.565-10.121-.205-15.12.007-.178.144-.319.319-.36 1.924-.322 4.818-.336 6.69.079.21.055.327.218.298.424l-.592 4.721zm-1.02 7.506c1.077.205 1.893-.584 2.186-1.607.302-1.182-.216-2.386-1.768-2.358l-.418 3.965zm5.677-11.379c-.022-.209.122-.36.318-.405 3.53-.588 9.8-1.113 14.419-1.12a.389.389 0 0 1 .43.402c-.057 2.592-.094 4.665-.666 7.007a.439.439 0 0 1-.455.324l-2.898-.171c-.235 3.028-.376 5.747-.782 7.991-.005.155-.118.255-.286.302-1.058.277-2.998.37-4.1.232a.344.344 0 0 1-.322-.296c-.63-2.82-.95-5.789-1.19-8.675l-3.667-.351c-.194-.031-.328-.114-.352-.27-.314-1.437-.428-3.076-.449-4.97M26.168 70.947a.39.39 0 0 1 .243-.453c1.4-.475 3.573-.833 5.342-.9.2.003.356.141.38.357l.103 1.712c2.392.26 5.755 2.03 6.538 6.235.655 3.763-.858 6.1-4.27 7.838l.068 1.248a.357.357 0 0 1-.233.377c-1.06.347-3.168.666-4.243.519-.13-.02-.226-.12-.283-.255l-.341-1.037c-3.139.039-6.407-1.851-7.259-5.818-.762-3.689 1.45-6.956 4.432-8.1l-.477-1.723zm1.92 8.014c-1.158.244-1.556 1.58-1.3 2.457.254.979 1.161 1.502 2.205 1.638l-.905-4.095zm5.83 3.416c1.252-.419 1.678-1.436 1.493-2.335-.115-1.146-.972-2.092-2.07-1.886l.577 4.22zm7.025-11.127a.376.376 0 0 1 .336-.32c1.463-.115 3.195-.052 4.942.218.22.04.34.215.323.442l-.662 5.405c1.325-1.718 2.711-3.756 4.02-5.095a.474.474 0 0 1 .3-.124c1.436.162 2.756.556 4.21 1.179.137.076.212.218.203.395-.354 4.697-1.23 8.918-2.87 13.864-.027.148-.172.249-.328.271-.869.044-2.09-.053-3.425-.349a.358.358 0 0 1-.309-.387l.17-4.376c-.84 1.273-2.429 3.044-3.714 4.26a.363.363 0 0 1-.247.11c-.917.034-1.757-.069-2.704-.293-.17-.031-.28-.129-.306-.26-.572-4.18-.79-9.34.061-14.94m16.983.323a.385.385 0 0 1 .25-.26c2-.516 4.67-.39 6.203.15a.356.356 0 0 1 .231.23c1.392 4.435 2.636 9.222 3.48 13.814.034.168-.026.344-.216.404-1.038.433-2.4.688-3.842.853a.364.364 0 0 1-.352-.223L61 81.258l-2.827 5.434c-.064.15-.206.208-.35.217-.997-.084-2.09-.162-3.326-.575a.367.367 0 0 1-.245-.424c.686-4.125 2.572-10.697 3.674-14.337m16.194-1.207c.224-.014.384.154.398.38.167 2.687.222 3.995.207 6.164 3.449-.718 5.523.942 5.762 3.979.289 3.46-2.302 5.537-9.772 6.178a.404.404 0 0 1-.416-.278c-1.221-4.386-2.318-10.015-2.853-15-.011-.176.055-.33.2-.39 1.488-.546 4.535-.912 6.474-1.033zm.945 13.906c1.068-.195 1.96-.744 1.857-1.96-.036-.593-.451-1.061-1.067-1.05-.437.002-.765.075-1.116.252l.326 2.758zM59.337 28.76c.029-.237.207-.385.444-.385 1.867 0 4.268.237 5.81.86.207.088.296.296.266.503l-1.097 6.135 1.038.12c1.304-4.891 4.268-7.974 8.684-7.114 4.03.77 6.876 4.535 5.72 10.788-1.156 6.67-5.424 9.574-10.166 8.506-3.438-.74-4.594-2.993-5.335-5.423l-1.274-.09-.741 3.054a.472.472 0 0 1-.445.355c-.89-.06-2.312-.385-3.201-.681a.415.415 0 0 1-.297-.356c-.355-5.187-.207-10.76.594-16.272M70.45 42.127c-.118 1.215.504 2.282 1.838 2.49 1.156.178 1.985-.593 2.223-1.927.296-1.482-.326-2.578-1.572-2.756-1.185-.237-2.281.652-2.49 2.193M24.107 67.128c-.153-.013-.289-.13-.3-.283-.98-4.631-1.98-9.517-2.22-14.458a.381.381 0 0 1 .25-.4c1.145-.34 3.393-.889 5.198-.895a.416.416 0 0 1 .319.18L29.86 54.9l2.874-3.775c.07-.081.142-.137.243-.145 1.234-.168 3.692.056 5.13.229.203.01.341.153.333.383.048 4.752-.34 10.147-1.205 14.586-.039.156-.133.264-.283.3-.951.199-2.502.212-3.58.064-.181-.038-.32-.18-.31-.385l-.058-2.843-2.106 2.8c-.162.216-.44.237-.61.02l-2.063-2.44.113 2.89a.357.357 0 0 1-.302.38c-1.225.294-2.773.333-3.93.164m58.153 18.801c-.14-.028-.235-.15-.251-.306-.376-4.343-.292-10.126.59-14.982.035-.171.157-.3.305-.321 1-.182 2.363-.265 3.986.036a.37.37 0 0 1 .27.209l2.662 6.49 4.012-5.708a.356.356 0 0 1 .276-.174c1.131-.001 2.73.295 3.88.68.162.033.248.204.231.405-.702 5.275-1.601 9.616-3.107 14.576-.052.143-.146.251-.272.277-.878.18-2.716-.01-3.713-.314-.185-.038-.27-.208-.254-.41l.458-3.228-2.49 2.691c-.184.193-.443.166-.565-.062l-1.748-3.266-.112 3.3c-.016.201-.143.354-.338.365-1.212.166-2.782.079-3.82-.258" mask="url(#b)"/></g></svg>