<svg xmlns="http://www.w3.org/2000/svg" xmlns:xlink="http://www.w3.org/1999/xlink" width="120" height="117" viewBox="0 0 120 117"><defs><path id="x630a" d="M140 20h119.84v116.77H140z"/><path id="x630c" d="M199.3 136.77c-32.29-.08-58.81-26.74-59.3-58.42-.5-33.15 30.98-58.48 60.28-58.35 32.65.15 59.74 29.93 59.56 64.7-.16 31.6-24.66 52.15-60.55 52.07"/><path id="x630d" d="M178.61 51.6c.1.12.15.28.11.42a24.68 24.68 0 0 1-3 6.3c-.1.22-.34.28-.57.17-2.54-1.12-4.28.29-4.3 2.22.01 1.79 2.12 2.78 3.98 2.26.28-.09.53.02.6.3.18.83.26 1.54.25 2.3a.38.38 0 0 1-.15.28 7.96 7.96 0 0 1-6.7 1.9c-4.39-.67-7.2-5.27-6.01-11.45.89-4.6 3.7-8.54 8.8-7.99 2.32.26 5.2 1.21 7 3.29"/><path id="x630e" d="M186.67 62.64c.22 1.3 1.18 2.2 2.6 2.06 1.28-.22 1.98-1.23 1.86-2.68-.16-1.62-1.27-2.57-2.6-2.4-1.25.1-2.17 1.38-1.86 3.02m-7.03-2.72c-1.16-6.46 2-11.13 6.65-11.85 5.82-.92 9.31 2.75 10.04 8.9.76 6.17-1.82 9.69-6.24 10.54-4.88.86-9.44-1.66-10.45-7.59"/><path id="x630f" d="M220.85 51.88a.48.48 0 0 1 .12-.48c1.83-1.77 3.72-2.6 6.98-3.05 3.02-.47 6.81-.02 7.43 4.1.43 2.68-1 4.39-2.3 5.94a3.9 3.9 0 0 1 3.19 3.5c.4 2.94-2.45 5.16-5.65 5.63-2.91.43-5.24-.07-6.95-1.25-.16-.13-.2-.27-.17-.45.18-.9.55-1.87 1.1-2.88.09-.18.29-.24.5-.2.33.07.81.15 1.36.05.9-.08 1.4-.8 1.3-1.46-.13-.83-1-1.01-2.01-.85-.26.03-.48-.09-.52-.35l-.32-1.4c-.06-.23.06-.42.28-.5.85-.32 1.33-.64 1.28-1.31-.17-.86-.98-1.17-1.67-1.05-.52.06-.9.26-1.15.4-.21.15-.45.18-.55.05a16.9 16.9 0 0 1-2.25-4.44"/><path id="x630g" d="M179.93 75c-.1-.16-.07-.34.05-.5a25.28 25.28 0 0 1 5.03-4.12c.15-.1.36-.08.49.08l3.12 3.81 1.83-3.43c.1-.15.25-.23.43-.17 1.83.4 3.43 1.2 4.97 2.31.16.1.21.29.16.47-2.14 5.4-6.62 12.47-9.27 15-.08.07-.21.12-.31.1-1.27-.29-2.68-1.5-3.46-2.43-.1-.15-.12-.33-.02-.46l2.68-4.18c-2.24-2.26-4.3-4.4-5.7-6.49"/><path id="x630h" d="M198.74 71.71a.4.4 0 0 1 .25-.27c1.76-.62 3.77-.87 6.07-.93.18 0 .33.1.38.25 1.69 4.17 3.64 9.7 4.8 14.39.02.15-.03.3-.15.4-.98.67-2.67 1.44-4.1 1.66-.17.05-.32-.05-.4-.2l-2.76-5.48-1.95 6.1c-.08.18-.23.3-.4.28a16.7 16.7 0 0 1-3.71-.84.34.34 0 0 1-.23-.38c.35-4.28 1.3-11.12 2.2-14.98"/><path id="x630i" d="M217.5 83.94c1.07.2 1.89-.59 2.18-1.6.3-1.19-.22-2.39-1.76-2.36zm1.01-7.5c3.72.55 5.15 3.35 4.59 6.36-.7 3.87-4.37 5.88-10.8 4.21-.17-.06-.28-.17-.3-.32a95.12 95.12 0 0 1-.2-15.12c0-.18.14-.32.32-.36a20.4 20.4 0 0 1 6.69.08c.2.05.33.22.3.42z"/><path id="x630j" d="M223.17 72.57c-.02-.21.12-.36.32-.4 3.53-.6 9.8-1.12 14.42-1.13.25-.02.44.17.43.4-.06 2.6-.1 4.67-.67 7.01a.44.44 0 0 1-.45.32l-2.9-.17c-.23 3.03-.38 5.75-.78 8 0 .15-.12.25-.29.3-1.06.27-3 .37-4.1.23a.34.34 0 0 1-.32-.3 64.88 64.88 0 0 1-1.2-8.67l-3.66-.35c-.2-.03-.33-.12-.35-.27a24.88 24.88 0 0 1-.45-4.97"/><path id="x630k" d="M173.34 98.16c1.1-.2 1.95.73 2.07 1.88.18.9-.24 1.91-1.5 2.33zm-4.35 4.88c-1.04-.14-1.95-.66-2.2-1.63-.26-.88.14-2.2 1.3-2.45zm-2.35-10.37a7.15 7.15 0 0 0-4.43 8.1 7.17 7.17 0 0 0 7.26 5.81l.34 1.04c.06.14.16.24.28.26 1.08.14 3.19-.18 4.25-.52.16-.06.25-.21.23-.38l-.07-1.25c3.41-1.74 4.93-4.07 4.27-7.84a7.51 7.51 0 0 0-6.54-6.23l-.1-1.71c-.02-.22-.18-.36-.38-.36a21.1 21.1 0 0 0-5.34.9.39.39 0 0 0-.24.45z"/><path id="x630l" d="M180.95 91.26c.03-.18.15-.3.33-.33 1.47-.11 3.2-.05 4.94.22.22.04.34.22.33.44l-.67 5.41c1.33-1.72 2.72-3.76 4.02-5.1.1-.08.2-.11.3-.12 1.44.16 2.76.56 4.21 1.18.14.08.22.22.2.4a55.46 55.46 0 0 1-2.86 13.86c-.03.15-.17.25-.33.27a13.5 13.5 0 0 1-3.43-.35.36.36 0 0 1-.3-.39l.17-4.37a28.56 28.56 0 0 1-3.72 4.26.36.36 0 0 1-.25.1 9.7 9.7 0 0 1-2.7-.29c-.17-.03-.28-.12-.3-.26-.58-4.18-.8-9.34.06-14.93"/><path id="x630m" d="M197.92 91.58a.38.38 0 0 1 .25-.26c2-.52 4.67-.4 6.2.15.13.04.2.13.24.23 1.39 4.43 2.63 9.22 3.48 13.81.03.17-.03.35-.22.4-1.04.44-2.4.7-3.84.86a.36.36 0 0 1-.35-.22l-2.68-5.29-2.83 5.44c-.07.15-.2.2-.35.21-1-.08-2.1-.16-3.33-.57a.37.37 0 0 1-.24-.43c.68-4.12 2.57-10.7 3.67-14.33"/><path id="x630n" d="M215.07 104.28c1.06-.2 1.96-.75 1.86-1.96-.04-.6-.46-1.06-1.07-1.05-.44 0-.77.07-1.12.25zm-.95-13.9c.22-.02.38.14.4.37.16 2.69.22 4 .2 6.16 3.45-.71 5.52.95 5.76 3.98.3 3.46-2.3 5.54-9.77 6.18a.4.4 0 0 1-.42-.28 98.96 98.96 0 0 1-2.85-15c-.01-.17.06-.33.2-.39 1.49-.54 4.54-.9 6.48-1.03z"/><path id="x630o" d="M210.45 62.13c-.12 1.22.5 2.28 1.83 2.5 1.16.17 1.98-.6 2.22-1.93.3-1.49-.32-2.58-1.57-2.76-1.18-.24-2.27.65-2.48 2.2m-11.11-13.38c.02-.23.2-.38.44-.38 1.87 0 4.27.24 5.8.86.22.09.3.3.28.5l-1.1 6.14 1.04.12c1.3-4.9 4.26-7.98 8.68-7.12 4.03.77 6.88 4.54 5.72 10.8-1.16 6.66-5.42 9.57-10.16 8.5-3.44-.74-4.6-3-5.34-5.43l-1.27-.08-.75 3.05a.47.47 0 0 1-.44.35c-.89-.06-2.31-.38-3.2-.68-.18-.06-.27-.18-.3-.35-.35-5.19-.2-10.76.6-16.28"/><path id="x630p" d="M164.11 87.13c-.15-.02-.29-.13-.3-.29-.98-4.63-1.98-9.51-2.22-14.45a.38.38 0 0 1 .25-.4c1.15-.34 3.4-.9 5.2-.9.13.02.23.06.32.18l2.5 3.63 2.88-3.78c.07-.08.14-.13.24-.14 1.24-.17 3.7.06 5.13.23.2 0 .34.15.34.38a76.48 76.48 0 0 1-1.21 14.59c-.04.15-.13.26-.28.3-.95.2-2.5.2-3.58.06-.18-.04-.32-.18-.31-.38L173 83.3l-2.1 2.8c-.17.22-.45.24-.62.02l-2.06-2.44.11 2.9c.02.17-.1.33-.3.37-1.22.3-2.77.34-3.93.17"/><path id="x630q" d="M222.26 105.93c-.14-.03-.23-.15-.25-.3-.37-4.35-.3-10.13.6-14.99.03-.17.15-.3.3-.32 1-.18 2.36-.26 3.98.04.12.02.22.1.27.2l2.66 6.5 4.02-5.7a.36.36 0 0 1 .27-.18c1.13 0 2.73.3 3.88.68.16.03.25.2.23.4-.7 5.28-1.6 9.62-3.1 14.58-.06.14-.15.25-.28.27a9.87 9.87 0 0 1-3.7-.31c-.2-.04-.28-.2-.26-.4l.46-3.24-2.5 2.7c-.18.19-.44.16-.56-.07l-1.75-3.26-.1 3.3c-.03.2-.15.35-.35.36a9.62 9.62 0 0 1-3.82-.26"/><clipPath id="x630b"><use xlink:href="#x630a"/></clipPath></defs><g><g transform="translate(-140 -20)"><g/><g clip-path="url(#x630b)"><use fill="#f3762e" xlink:href="#x630c"/></g><g clip-path="url(#x630b)"><use fill="#fff" xlink:href="#x630d"/></g><g clip-path="url(#x630b)"><use fill="#fff" xlink:href="#x630e"/></g><g clip-path="url(#x630b)"><use fill="#fff" xlink:href="#x630f"/></g><g clip-path="url(#x630b)"><use fill="#fff" xlink:href="#x630g"/></g><g clip-path="url(#x630b)"><use fill="#fff" xlink:href="#x630h"/></g><g clip-path="url(#x630b)"><use fill="#fff" xlink:href="#x630i"/></g><g clip-path="url(#x630b)"><use fill="#fff" xlink:href="#x630j"/></g><g clip-path="url(#x630b)"><use fill="#fff" xlink:href="#x630k"/></g><g clip-path="url(#x630b)"><use fill="#fff" xlink:href="#x630l"/></g><g clip-path="url(#x630b)"><use fill="#fff" xlink:href="#x630m"/></g><g clip-path="url(#x630b)"><use fill="#fff" xlink:href="#x630n"/></g><g clip-path="url(#x630b)"><use fill="#fff" xlink:href="#x630o"/></g><g clip-path="url(#x630b)"><use fill="#fff" xlink:href="#x630p"/></g><g clip-path="url(#x630b)"><use fill="#fff" xlink:href="#x630q"/></g></g></g></svg>