<svg xmlns="http://www.w3.org/2000/svg" xmlns:xlink="http://www.w3.org/1999/xlink" width="80" height="120" viewBox="0 0 80 120"><defs><path id="pvlaa" d="M690.77 4437.06c-9.29-11.28-13.35-24.07-9.06-38.75 5.09-17.44 24.62-30.43 41.93-28.02 21.01 2.93 35.98 18.82 36.35 38.85.19 9.87-3.51 18.44-9.38 26.08-5.28 6.86-10.84 13.49-15.92 20.48-7.1 9.78-11.66 20.8-14.08 32.75-.1.53-.36 1.03-.55 1.55-3.9-21.23-16.33-37.2-29.3-52.94z"/><path id="pvlab" d="M705.6 4408.4a14.4 14.4 0 1 1 28.8 0 14.4 14.4 0 0 1-28.8 0"/></defs><g><g transform="translate(-680 -4370)"><use fill="#00abcc" xlink:href="#pvlaa"/></g><g transform="translate(-680 -4370)"><use fill="#fff" xlink:href="#pvlab"/></g></g></svg>