<svg xmlns="http://www.w3.org/2000/svg" xmlns:xlink="http://www.w3.org/1999/xlink" width="191" height="265" viewBox="0 0 191 265"><defs><path id="7dwhb" d="M250.03 50.4H250.08z"/><path id="7dwhc" d="M250.08 50.4h.05z"/><path id="7dwhd" d="M224.32 180.96s-33-17.88-36.75-34.2c-3.75-16.3-1.8-31.44 10.15-31.14 11.95.3 15.19 4.79 19.3 12.04 4.12 7.26 11.79 17.78 17.56 21.75 5.78 3.98 14.3 11.25 12.29 14.35-2.02 3.09-12.16-4.11-11.63-1.52.52 2.58 8.65 12.89 5.65 13.61-3 .73-14.5-10.43-14.26-5.22.24 5.2 5.7 10.4 3.05 11.31-2.65.92-5.36-.98-5.36-.98"/><path id="7dwhe" d="M247.66 162.11c-1.05-5.12-20.78-20-26.7-30.25-5.95-10.27-14.87-21.74-25.75-17.8-5.55 2-9.16 6.37-10.44 12.63-1.72 8.41.92 19.95 6.74 29.4 7.19 11.66 26.49 22.43 27.3 22.88l1.08.58c5.2 2.77 8.98 4.6 10.45 2.88.65-.77 1.2-2.44.06-3.94-7.41-9.79-.26-7.02.72-6.5.8.42 1.73 1.13 2.85 2.01 1.01.8 2.1 1.67 3.17 2.24 1.3.68 2.6.95 3.8.23.68-.4 1.08-.99 1.19-1.73.23-1.55-.76-3.28-2.02-5.49a28.92 28.92 0 0 1-2.64-5.5 3.98 3.98 0 0 1-.14-.58c.3.05.9.33 1.52.66l.95.51c.36.2.74.42 1.14.62 2.36 1.25 5.1 2.35 6.34.18.49-.86.62-1.88.38-3.03m-51.84-43.8c9.91-3.59 17 5.48 23.43 15.38 7.29 11.2 26.08 24.26 26.98 28.61.13.67.07 1.2-.2 1.68-.85 1.48-4.6-.72-6.8-1.94-1.95-1.07-3.44-1.7-4.17-.87-.62.7-.2 2.03-.07 2.47.7 2.21 2.94 4.74 3.94 6.48.96 1.68 1.86 3.26 1.74 4.06-.01.09-.06.38-.53.66-1.47.9-3.84-1.71-5.96-3.24-6.92-4.96-14.07-5.2-5.14 7.35.63.9.43 1.84.2 2.1-.85 1-5.04-1.08-7.91-2.6l-1.01-.53-1.06-.56c-.23-.13-18.43-10.72-25.34-21.93-5.53-8.98-8.7-19.4-7.08-27.3 1.19-5.8 3.8-7.94 8.98-9.82"/><path id="7dwhf" d="M198.86 104.92c-.75-.63-1.84-.23-2.08-.04-4.43 3.32-2.31 9.14-2.26 9.4l1.64-.02c0-.06-.88-4.82 2.62-7.81.28-.25.66-1.03.08-1.53"/><path id="7dwhg" d="M184.61 109.34c-.86-.18-1.35 1.06-1.4 1.51-.66 7.3 5.96 9.29 6.03 9.3l.47-1.33c-.21-.07-4.77-1.52-4.32-7.48.03-.47.1-1.82-.78-2"/><path id="7dwha" d="M177 120.48h8.45v6.83H177z"/><path id="7dwhi" d="M177.7 120.53c-.67.15-.77 1.21-.66 1.5 2.14 5.44 8.16 5.28 8.22 5.28l.19-1.44c-.2-.01-4.3-.26-6.13-4.58-.13-.3-.58-1-1.63-.76"/><path id="7dwhj" d="M248.98 85.02s2.56-1.92 4.06-.94c1.5 1-8.24-6.71-5.08 22.79 2.74 25.6-12.36 11.04-16.3 7.33-3.95-3.71-17.1-34.06 5.77-50.68 22.88-16.63 35.2 4.83 33.63 19.92-1.57 15.1-15.24 9.42-16.74 3.43-1.5-5.99-5.34-1.85-5.34-1.85"/><path id="7dwhk" d="M245.86 121.98c-2.41.08-4.66.08-8.92-2.64-5.33-3.46-9.6-9.75-11.95-17.14-4.09-12.96-2.27-28.63 12.32-39.2 5.46-3.94 10.18-5.75 14.38-6 5.2-.31 9.55 2.01 12.57 5.28 3.05 3.26 5.02 7.43 6.25 11.3 1 3.19 1.62 5.3 1.68 7.44.1 3.24-.89 6.4-2.49 8.84-1.6 2.42-3.79 4.2-6.54 4.39-2.57.18-5.38-1.44-7.32-4.53-3.95-7.18-5.02-3.79-5.69-3.58-1.65 4.07-2.67 10.07-1.48 18.83 1.04 7.92 1.48 12.22.04 15.21a3.2 3.2 0 0 1-2.85 1.8m-6.66-58.1c-13.95 10.09-15.77 25.89-11.89 38.18 2.2 7.01 6.31 12.82 10.77 15.68 4.06 2.66 9.3 4.7 9.54-.51.02-2.9-.62-7.2-1.34-12.47-1.3-9.4-.1-15.86 1.8-20.22l-.09-.19c.07 0 .13-.02.2-.03 2.8-6.23 8.58-6.14 8.58-6.14s-.12.04-.4.2a9.9 9.9 0 0 0-1.18.78c-.94.73-2.2 1.92-3.37 3.75l.17-.02c.5-.05 1.17.17 1.6.5.46.3.8.67 1.18 1.13.76.92 1.68 2.3 3.1 4.48 1.77 2.61 3.18 3.19 4.62 3.14 1.65-.06 3.64-1.42 5.05-3.6a14.09 14.09 0 0 0 2.24-7.93c-.05-1.9-.51-4.76-1.46-7.77-1.15-3.64-3.04-7.53-5.66-10.31-2.65-2.78-5.78-4.49-10.17-4.27h-.03c-3.57.2-8 1.8-13.26 5.62"/><path id="7dwhl" d="M355.33 150.95s5.29-16.1 3.4-23.7c-3.17-12.63-21.38-43.34-36.97-49.82-13.15-5.48-8.14-4.81-25.23-3.53-11.21.84-36.02 2.47-45 6.18-5.03 2.07-3.61-2.37-4.22-2.65-6.87-3.18-9.5 6.25-9.5 11.66 0 1.06-10.58 10.9-11.53 18.32-1.55 12.09.4 17.02-.66 23.1-.7 4.01-6.59 4.88-7.11 10.72-.25 2.72-1.61 7.9-.6 11.31 1.33 4.47 4.8 12.41 6.73 13.7 1.18.8-8.49 15.1-8.49 15.1s-11.29 30.98 24.3 55.66c35.57 24.67 55.95 22.46 82.37 13.25 6.27-2.19 23.36-8.96 33.26-22.8 9.9-13.84 8.95-39.97 9.5-53.54.53-12.72-6.22-23.3-10.25-22.96"/><path id="7dwhm" d="M239.64 92.32c-22.66 4.97-17.18 47.82-12.98 42.9 7.38-8.65 21.49-16 33.95 1.51 9.98 14.01 22.13 9.75 22.88-15.92 1.02-35.3-30.32-31.46-43.85-28.5"/><path id="7dwhn" d="M261.31 157.67s2.88 5.23-4.45 9.3c0 0 2.43 1.98 4.5-1.14 2.06-3.12 1.29-5.9-.05-8.16"/><path id="7dwho" d="M356.84 118.09c-8.62-21.32-21.87-30.59-21.87-30.59v3.71s11.81 9.34 18.8 27.46c2.93 7.58 4.31 13.82 4.13 19.89-.29 10.15-6.62 17.88-6.62 17.88 6.06-4 9.63-8.63 9.78-17.44.08-5.2-.15-10.85-4.22-20.91"/><path id="7dwhp" d="M237.7 174.98c1.97 1.98-6.63-4.65-7.44-5.57-2.45-2.77-10.14-5.15-11.4-20.41-.55-6.6 1.86-16.17 7.02-16.7-.37-9.84-3.05-8.34-.61-22.03 2.44-13.7 13.31-22.67 21.28-26.79 7.52-3.89 31.23-7.08 39.22-7.59 9.15-.58 17.71-.14 17.72-.14l.1-3.22c4.5-.51-39.97-1.54-55.44 7.1-12.31 6.86-20.48 12.17-24.14 25.87-3.65 13.7-1.47 16.9-.57 25.01 0 0-8.87 6.11-6.21 20.87 3.46 19.23 19.8 22.94 20.46 23.6"/><path id="7dwhq" d="M262.42 97.9c-1.66-.64-4.65 2.12-4.25 2.61.56.72 2.73-.22 4.53.81 1.85 1.06 3.26 3.63 3.8 3.25.39-.26.4-4.95-4.08-6.68"/><path id="7dwhr" d="M232.4 99.49c-1.23.6-1.08 4.07-.59 4.14.73.1 1.27-1.77 2.8-2.21 1.58-.45 3.85.28 3.9-.28.04-.39-2.79-3.27-6.11-1.65"/><path id="7dwhs" d="M262.17 111.9s-5.59 3.99-5.7 9.22c-.11 5.23.64 14.64 5.89 14.7 5.25.04 6.54-6.37 7.06-11.83.52-5.45-1.8-12.8-7.25-12.08"/><path id="7dwht" d="M261.92 136.85a5.25 5.25 0 0 1-.78-.14c-2.2-.6-3-2.3-4.04-4.7a18.9 18.9 0 0 1-1.3-8.7c.1-1.3.3-2.54.6-3.7 1.3-4.93 2.98-8.19 6.99-7.9.26.02.52.07.77.14 2.21.59 3.3 1.76 4.34 4.16a18.9 18.9 0 0 1 1.3 8.71c-.1 1.3-.3 2.53-.6 3.7-1.3 4.92-3.28 8.71-7.28 8.43m5.64-20.17c-.89-2.07-2.17-3.35-3.41-3.67h-.04a2.8 2.8 0 0 0-.44-.09c-2.15-.34-4.95 2.41-6.1 7.03-.27 1.06-.46 2.2-.55 3.4-.22 2.98.25 5.76 1.15 7.84.9 2.09 2.2 3.37 3.45 3.68l.45.08c2.14.34 4.94-2.42 6.09-7.04.27-1.05.46-2.19.54-3.38.22-2.99-.25-5.77-1.14-7.85"/><path id="7dwhu" d="M262.95 123.49c-.1 2.8 1.12 5.13 2.74 5.23 1.62.1 3-2.08 3.1-4.87.1-2.8-1.12-5.14-2.74-5.24-1.61-.1-3 2.08-3.1 4.88"/><path id="7dwhv" d="M230.8 111.19s-4.92 3.56-5.01 8.25c-.1 4.7.57 13.11 5.2 13.15 4.64.04 5.77-5.7 6.23-10.6.45-4.88-1.61-11.46-6.42-10.8"/><path id="7dwhw" d="M230.61 133.52a4.48 4.48 0 0 1-.68-.13c-1.95-.53-2.65-2.05-3.57-4.2a17.16 17.16 0 0 1-1.15-7.8c.08-1.16.26-2.27.52-3.3 1.14-4.42 2.62-7.35 6.15-7.1.24.03.47.07.69.13 1.94.53 2.9 1.58 3.83 3.72a17.17 17.17 0 0 1 1.15 7.8 18.89 18.89 0 0 1-.53 3.31c-1.13 4.42-2.88 7.82-6.4 7.57m4.95-18.08a6.98 6.98 0 0 0-1.77-2.59c-.4-.34-.83-.58-1.24-.69h-.04a2.2 2.2 0 0 0-.4-.08c-1.89-.3-4.35 2.17-5.36 6.3-.24.95-.4 1.97-.48 3.04-.2 2.68.22 5.17 1.02 7.02.79 1.87 1.94 3.02 3.05 3.3l.4.07c1.88.3 4.35-2.17 5.36-6.31.24-.95.4-1.96.47-3.03a15.5 15.5 0 0 0-1.01-7.03"/><path id="7dwhx" d="M231.46 121.43c-.07 2.42 1.05 4.46 2.52 4.56 1.46.1 2.7-1.8 2.78-4.23.08-2.42-1.05-4.47-2.51-4.56-1.47-.1-2.71 1.8-2.79 4.23"/><path id="7dwhy" d="M367.3 170.02c-.56-15.66-14.48-21.57-10.97-19.2 1.89 1.27 7.97 10.09 8.13 20.48.93 59.78-21.38 70.72-42.1 77.86-15.63 5.39-50.8 7.77-72.53-7.53-50.1-35.29-26.82-71.03-23.6-74.6.44-.48-.5-2.86-1.58-1.58-3.7 4.32-33.62 35.73 24.14 79.88 21.75 16.62 59.29 12.31 75.6 7.01 30.39-9.88 45.06-22 42.91-82.32"/><path id="7dwhz" d="M261.43 119.66c-.45.55.14 1.78 1.31 2.75 1.18.97 2.5 1.31 2.94.76.45-.55-.13-1.78-1.3-2.75-1.18-.97-2.5-1.3-2.95-.76"/><path id="7dwhA" d="M230.33 116.8c-.4.48.12 1.56 1.15 2.41 1.03.85 2.19 1.15 2.58.67.4-.48-.12-1.57-1.15-2.41-1.03-.85-2.18-1.15-2.58-.67"/><path id="7dwhB" d="M295.49 77.48s2.26-12.77 9.2-13.89c6.94-1.11 12.25 5.09 18.08 9.29 5.83 4.2 21.04 7.12 19.74 17.2-1.29 10.08-6.07 19.24-11.14 14.17-5.06-5.07-3.37-11.57-3.37-11.57s-9.59-9.2-14.7-10c0 0-1.17 4.5-4.37 5.54-3.2 1.03-13.29-1.08-13.44-10.74"/><path id="7dwhC" d="M328.83 96.66s-.57-2.44-.07-5.92c.51-3.47-1.8-6.35-1.8-6.35s1.16 5.25-.09 8.53z"/><path id="7dwhD" d="M295.1 75.02c0 .04-2 8.05 4.69 11.8 3.88 2.18 6.9 2.81 9.52 2 2.43-.78 6.62-4.55 4.53-7.73-3.72-5.65 2.19-3.12 2.19-3.12s-1.54-1.83-3.04-2.31c-1.6-.51-2.68 1.63-.77 5.54 1.48 3.04-1.32 5.58-3.35 6.21-2.2.7-4.86.1-8.37-1.87-5.7-3.18-3.29-10.1-3.21-10.4.03-.15 1.18-9.82 8.48-9.85 4.7-.02 8.13 2.69 11.76 5.56 2.35 1.86 4.78 3.77 7.73 5.18l3.23 1.42c7.06 3.01 13.53 2.96 12.68 14.68-.55 7.65-3.08 11.31-6.09 11.63-2.58.28-4.54-.21-5.35-3-.44-1.47-.7-2.8-.9-4.1-1.12-7-5.2-10.2-15.7-16.42l.3 1.94c9.91 5.9 13.1 9.95 13.96 14.75.24 1.32.48 2.7.94 4.25 1 3.43 3.97 5.58 7.23 5.23 3.59-.38 7.64-3.84 8.26-12.38.92-12.78-7.22-16.25-14.4-19.31l-3.17-1.4c-2.81-1.34-5.17-3.2-7.46-5-3.84-3.04-7.46-5.9-12.67-5.88-8.49.04-10.91 12.07-11.01 12.58"/><path id="7dwhE" d="M247.07 208.91s-.73-1.57.3-1.91c.9-.32 1.15.56 1.15.56 1.55 3.02 4.87 5.58 4.9 5.6l-.8 1.2c-.17-.11-3.84-2.1-5.55-5.45"/><path id="7dwhF" d="M258.08 210.82c-.02-.05-1.92-4.1-4.62-6.39 0 0-1.32-.93-.61-1.6.86-1.05 1.85.03 1.85.03 2.93 2.5 4.58 7.12 4.68 7.33z"/><path id="7dwhG" d="M264.25 208.64c0-.05-.78-4.46-4.52-7.15 0 0-1.22-.84-.26-1.8.64-.64 1.63.05 1.63.05 4.14 2.97 4.49 8.31 4.53 8.55z"/><path id="7dwhH" d="M269.42 258.6s20.23 9.86 21.98-9.77c1.75-19.64-9.42-50.75-34.65-39.34-17.7 8-5.01 22.9 5.49 30.28 6.12 4.3 2.34 14.73 7.18 18.83"/><path id="7dwhI" d="M267.08 205.51c8.89.02 15.43 5.82 19.58 13.47 4.19 7.68 6.18 17.32 6.13 25.75a48.77 48.77 0 0 1-.18 3.9c-.45 5.12-2.16 8.55-4.6 10.64-2.44 2.09-5.45 2.74-8.26 2.73-14.97-.08-14.2-9.3-14.65-12.9-.41-3.66-1.02-6.87-3.56-8.63-6.84-4.88-14.76-12.66-14.83-20.66 0-4.55 2.95-8.81 9.54-11.75a26.24 26.24 0 0 1 10.83-2.55m.44 43.31c.4 3.65 1.1 8 5.46 9.55 1.85.6 4.33 1.19 6.78 1.19 2.46 0 4.83-.56 6.68-2.15 1.84-1.58 3.32-4.28 3.74-8.98.1-1.19.17-2.43.18-3.7.05-8.03-2.57-18.09-6.5-25.29 0 0-6.34-10.7-14.09-10.71 0 0-5.24-1.35-10.58 1.05 0 0-9.89 4.54-8.68 12.04-.16 6.23 5.8 12.07 12.43 16.65 3.58 2.54 4.15 6.7 4.58 10.35"/><path id="7dwhJ" d="M241.19 191.5s.17-1.73-.91-1.72c-.96 0-.9.92-.9.92-.47 3.36-2.76 6.87-2.79 6.9l1.16.87c.12-.16 2.92-3.25 3.44-6.98"/><path id="7dwhK" d="M231.42 196.94c0-.05.47-4.5 2.26-7.56 0 0 .93-1.32.05-1.72-1.16-.7-1.73.65-1.73.65-1.95 3.33-1.99 8.24-2.01 8.47z"/><path id="7dwhL" d="M224.89 196.94c-.01-.05-.73-4.47 1.92-8.26 0 0 .87-1.19-.35-1.78-.82-.39-1.52.58-1.52.58-2.94 4.19-1.5 9.34-1.47 9.58z"/><path id="7dwhM" d="M235.12 247.83s-14.53 13.99-22.63-3.96c-8.11-17.96-7.81-51.03 19.76-48.63 19.33 1.69 7.42 19.64 3.46 33.53-.85 3.01 1.06 12.94-.59 19.06"/><path id="7dwhN" d="M221.19 194.91a26.15 26.15 0 0 1 11.06-1.18c7.19.58 11.37 3.63 12.87 7.92.97 2.88-7.73 25.7-8.22 28.31-2.72 14.44 3.56 21.24-9.08 22.47-2.66.94-5.72 1.32-8.7.16-3-1.16-5.74-3.83-7.85-8.52-.52-1.15-1-2.36-1.45-3.61-2.81-7.94-4.11-17.7-2.69-26.34 1.4-8.6 5.68-16.25 14.05-19.21zm13.34 33.26c1.63-7.64 8.55-21 7.66-23.36-1.32-7.48-12.15-8.48-12.15-8.48-5.83-.5-10.34 2.51-10.34 2.51-7.3 2.59-9.76 14.78-9.76 14.78-1.35 8.1-.51 18.46 2.18 26.02.42 1.2.89 2.35 1.38 3.43 1.94 4.3 4.23 6.35 6.48 7.24 2.27.88 4.7.63 7.01-.19 9.52-.9 5.13-10.66 7.54-21.95z"/><path id="7dwhO" d="M247.62 131.48s-9.53-6.88-16.8-3.26c-7.27 3.63-11.43 5.8-10.9 14.31.51 8.51 4.15 9.06 6.92 9.24 2.77.18 7.27-1.63 13.33 0 6.06 1.63 11.6-1.45 11.6-5.07s1.22-8.15-4.15-15.22"/><path id="7dwhP" d="M250.76 151c-1.69 1.73-4.18 2.56-7.35 2.56h-.03c-2.1 0-4.54-.36-7.34-1.08l.24-1.05-.25 1.05a8.8 8.8 0 0 0-2.26-.28c-2.33-.02-4.5.84-6.81.87a6.22 6.22 0 0 1-5.02-2.45 13.46 13.46 0 0 1-3.15-8.7c0-7.42 3.84-13.3 15.49-14.6 13.9-1.57 17.95 9.9 17.96 10.02.62 2.44.94 4.61.94 6.57 0 2.9-.73 5.38-2.42 7.1m.33-7.1c0-1.7-.28-3.7-.85-5.93l-.12-.32c-.76-1.83-4.22-9.22-13.92-9.22-.53 0-1.07.02-1.64.07-8.82.74-14.38 6.7-14.4 12.9.01 2.59.85 5.13 2.64 7.28 1.2 1.39 2.17 1.68 3.46 1.7 1.75.03 4.73-.34 7.5-.35.88 0 1.8.09 2.77.34 2.68.7 4.97 1.02 6.85 1.02 2.86 0 4.75-.74 5.92-1.94s1.79-3 1.8-5.55"/><path id="7dwhQ" d="M244.1 133.45c-.18 1.31-2.78 2.03-5.82 1.62-3.03-.42-5.35-1.82-5.17-3.12.18-1.3 2.78-2.03 5.82-1.61 3.03.41 5.34 1.8 5.17 3.11"/><path id="7dwhR" d="M271.87 162s29.57-45.04 75.51-8.54c0 0-36.96-30.03-75.51 8.54"/><path id="7dwhS" d="M325.84 140.92s2.93-42.45-9.94-57.01c-12.86-14.57-28.01-23.1-34.78-11.94-6.76 11.17-4.53 17.19-.25 25.9 4.28 8.73 9.48 22.94 9.75 30.95.27 8 1.96 20.77 6.01 21.04 4.05.26 4.02-10.88 6.1-8.63 2.1 2.25 6.17 13.66 8.6 11.4 2.45-2.25 1.96-16.96 6.63-13.18 4.68 3.77 3.22 8.86 5.63 7.06 2.4-1.8 2.25-5.59 2.25-5.59"/><path id="7dwhT" d="M297.67 151.18c2.75.35 3.09-9.55 4.47-9.35 1.39.2 2.6 3.6 3.57 5.58 1.3 2.66 2.31 4.76 3.87 5.6.76.4 1.53.43 2.3.1 1.39-.62 1.9-2 2.03-3.65.11-1.38 2.07-13.99 6.07-4.65.86 2 2.57 2.7 3.68 2.63 2.45-.17 2.99-4.89 3.49-11.54l.1-1.38c.07-1.06 1.49-26.1-5.05-40.65-5.3-11.78-14.4-22.07-23.2-26.23-6.55-3.1-12.71-2.76-17.84.96-10.06 7.28-4.7 23.3 1.28 35.74 5.97 12.42 8.1 40.66 12.21 45.12.92 1 1.94 1.58 3.02 1.72m1.43-80.66c8.27 3.91 16.03 13.93 21.07 25.12 6.29 14 5.34 37.9 5.33 38.2l-.1 1.36-.1 1.29c-.3 3.67-.85 8.92-2.26 9.02-.39.03-1.39-.42-1.83-1.61-6.34-16.75-8.65 6.63-10.35 7.37-.54.25-.84.1-.93.04-.81-.44-1.74-2.34-2.72-4.36-1.03-2.11-3.09-7.1-5.26-6.9-2.6.24-2.74 9.45-4.6 9.21a2.74 2.74 0 0 1-1.67-.95c-3.5-3.8-4.49-29.94-10.55-44.27-5.35-12.64-9.56-25.34-.4-31.98 4.8-3.48 8.31-4.4 14.37-1.54"/><path id="7dwhU" d="M236.22 77.44s11.09-7.96 13.2 4.77l-2.64 1.06s.53-7.43-10.56-5.83"/><path id="7dwhV" d="M245.6 75.31s-11.1 3.71-7.4 12.72l2.12-1.06s-3.17-5.3 5.28-11.66"/><path id="7dwhW" d="M287.67-2.29v70.24"/><path id="7dwhX" d="M288.5 68.8c0-.1.8-7.33-3.94-9.3a6.19 6.19 0 0 0-2.04-.44c-.33-.02-.78.39-1 .92-.31.92 1.5 1.18 2.02 1.4 3.84 1.5 4.61 8.3 4.76 8.01.11-.19.18-.4.2-.6"/><path id="7dwhY" d="M275.7 64.35c-.62 0-1.43.3-1.79.7-.34.36-.16.66.4.68 10.86 2.19 7.97 5.84 8.71 5.8l.33-.04c.64-.08 1.62-6.84-7.64-7.14"/><path id="7dwhZ" d="M292.94 70.1c.01 0 1.07-.32 1.63-1.92.6-1.82.59-5.17-2.42-10.03-.34-.55-.97-1.04-1.41-1.11-.4-.06-1.23.2-.32 1.51 4.42 6.43 2.36 11.6 2.52 11.56"/><clipPath id="7dwhh"><use xlink:href="#7dwha"/></clipPath></defs><g><g transform="translate(-177 3)"><g><g><use fill="#211300" xlink:href="#7dwhb"/></g><g><use fill="#211300" xlink:href="#7dwhc"/></g><g><use fill="#511300" xlink:href="#7dwhd"/></g><g><use fill="#370d00" xlink:href="#7dwhe"/></g><g><use fill="#370d00" xlink:href="#7dwhf"/></g><g><use fill="#370d00" xlink:href="#7dwhg"/></g><g><g/><g clip-path="url(#7dwhh)"><use fill="#370d00" xlink:href="#7dwhi"/></g></g><g><use fill="#511300" xlink:href="#7dwhj"/></g><g><use fill="#370d00" xlink:href="#7dwhk"/></g><g><use fill="#86380f" xlink:href="#7dwhl"/></g><g><use fill="#511300" xlink:href="#7dwhm"/></g><g><use fill="#1c0f08" xlink:href="#7dwhn"/></g><g><use fill="#420500" xlink:href="#7dwho"/></g><g><use fill="#420500" xlink:href="#7dwhp"/></g><g><use fill="#211300" xlink:href="#7dwhq"/></g><g><use fill="#211300" xlink:href="#7dwhr"/></g><g><use fill="#ffecb8" xlink:href="#7dwhs"/></g><g><use fill="#211300" xlink:href="#7dwht"/></g><g><use fill="#211300" xlink:href="#7dwhu"/></g><g><use fill="#ffecb8" xlink:href="#7dwhv"/></g><g><use fill="#211300" xlink:href="#7dwhw"/></g><g><use fill="#211300" xlink:href="#7dwhx"/></g><g><use fill="#420500" xlink:href="#7dwhy"/></g><g><use fill="#fefefe" xlink:href="#7dwhz"/></g><g><use fill="#fefefe" xlink:href="#7dwhA"/></g><g><use fill="#511300" xlink:href="#7dwhB"/></g><g><use fill="#370d00" xlink:href="#7dwhC"/></g><g><use fill="#370d00" xlink:href="#7dwhD"/></g><g><use fill="#370d00" xlink:href="#7dwhE"/></g><g><use fill="#370d00" xlink:href="#7dwhF"/></g><g><use fill="#370d00" xlink:href="#7dwhG"/></g><g><use fill="#511300" xlink:href="#7dwhH"/></g><g><use fill="#370d00" xlink:href="#7dwhI"/></g><g><use fill="#370d00" xlink:href="#7dwhJ"/></g><g><use fill="#370d00" xlink:href="#7dwhK"/></g><g><use fill="#370d00" xlink:href="#7dwhL"/></g><g><use fill="#511300" xlink:href="#7dwhM"/></g><g><use fill="#370d00" xlink:href="#7dwhN"/></g><g><use fill="#1e1108" xlink:href="#7dwhO"/></g><g><use fill="#370d00" xlink:href="#7dwhP"/></g><g><use fill="#fefefe" xlink:href="#7dwhQ"/></g><g><use fill="#370d00" xlink:href="#7dwhR"/></g><g><use fill="#511300" xlink:href="#7dwhS"/></g><g><use fill="#370d00" xlink:href="#7dwhT"/></g><g><use fill="#370d00" xlink:href="#7dwhU"/></g><g><use fill="#370d00" xlink:href="#7dwhV"/></g></g><g><g><use fill="#fff" fill-opacity="0" stroke="#040908" stroke-miterlimit="50" xlink:href="#7dwhW"/></g><g><use fill="#370d00" xlink:href="#7dwhX"/></g><g><use fill="#370d00" xlink:href="#7dwhY"/></g><g><use fill="#370d00" xlink:href="#7dwhZ"/></g></g></g></g></svg>