<svg xmlns="http://www.w3.org/2000/svg" xmlns:xlink="http://www.w3.org/1999/xlink" width="360" height="257" viewBox="0 0 360 257"><defs><path id="vsadc" d="M589.83 891.64s15.89 8.29 30.92-4.6l.71 4.54 5.2-.65s-12.72 10.15-16.78 11.04c-4.07.9-11.08 1.48-11.08 1.48z"/><path id="vsadd" d="M620.45 895.86c-6.42 4.83-15.4 7.08-17.1 6.98l.56 1.18c6.85-.6 13.15-4.33 17.61-7.74a34.57 34.57 0 0 0-2.99-3.95c1.06 1.47 2.2 3.4 1.92 3.53"/><path id="vsade" d="M628.1 890.38l-6.58-.42 1.17-6.35s-2.67 3.07-6.77 5.8l1.18 1.29a7 7 0 0 1 1.43 1.64 34.57 34.57 0 0 1 3 3.95c4.04-3.08 6.57-5.9 6.57-5.9"/><path id="vsadf" d="M604.81 893.57c-8.98.5-17.37-2.63-17.37-2.63l.4.56c.02 0 8.06 4.34 16.91 3.69 0 0 6.02.06 12.23-4.52.03-.01.07 0 .12.02l-1.17-1.28c-3.08 2.05-6.96 3.92-11.12 4.16"/><path id="vsadg" d="M671.58 804.7s-20.21-39.52 2.57-40.24c22.78-.72 16.63 17.33 16.63 17.33z"/><path id="vsadh" d="M677.18 808.17s-1.46 5.06-3.76 6.48c-2.48 1.54-5.86-.7-7.23-4.75-2.64-7.8-4.63-28.97-.22-40.8 4.97-13.33 19.18-20.92 26.96-19.4 20.38 3.98 17.58 14.62 16.96 16.54-2.86 8.83-17.34 15.44-19.71 10.9-2.38-4.53 1.46-4.62-2.1-6.27-3.56-1.64-6.38.57-9.36 9.74-3 9.17-1.54 27.56-1.54 27.56"/><path id="vsadi" d="M666.42 805.35l-.72-4.22c-.43-2.37-5.92-31.16 9.5-43.05 10.4-8.03 13.6-7.14 18.19-6.56 4.95.64 14.18 3.84 16 9.97l.27.85c2.1 7-5.08 8.33-9.06 11.82-11.16 9.75-8.18-5.63-11.18-6.36-1.65-.4-15.64-1.26-13.17 31.77.4 5.21 2.59 9.9-.64 13.41-2.72 2.97-8.34-2.1-9.19-7.63m7.72-49.4c-16.71 12.9-11.3 45.57-10.79 48.47l.72 4.18c.93 6.1 7.8 12 12.45 6.91 3.43-3.74 5.18-15.78 4.4-16.55-5.94-5.84-1.04-30.76 7.15-27.08 1.49.67-.54 6.64 3.78 8.42 2.85 1.18 7.41-1.7 10.5-5.06 4.08-4.4 12.1-6.35 9.77-14.07l-.26-.85c-1.84-6.2-21.48-18.94-37.72-4.37"/><path id="vsadj" d="M672.15 775.47s16.1-19.1 18.93-3.3c0 0-2.27-8.98-18.93 3.3"/><path id="vsadk" d="M677.67 904.99s-37.36-23.17-39.77-41.4c-2.4-18.24 1.89-34.57 16.2-32.93 14.32 1.64 17.63 6.9 21.65 15.28 4 8.38 11.88 20.72 18.3 25.7 6.43 4.97 15.73 13.85 12.92 17.02-2.82 3.16-14.08-5.83-13.78-2.94.3 2.89 8.74 15.03 5.05 15.5-3.7.47-16.1-13-16.47-7.27-.38 5.72 5.5 11.99 2.21 12.7-3.29.7-6.3-1.66-6.3-1.66"/><path id="vsadl" d="M639.38 843.26c2.15-6.2 5.52-8.25 11.91-9.74 12.22-2.84 19.47 7.83 25.83 19.32 7.2 13.01 27.82 29.29 28.33 34.14a2.4 2.4 0 0 1-.46 1.8c-1.18 1.52-5.36-1.28-7.82-2.85-2.16-1.38-3.84-2.23-4.82-1.4-.83.7-.5 2.2-.4 2.69.56 2.49 2.88 5.48 3.85 7.5.91 1.93 1.78 3.75 1.54 4.6-.03.1-.12.41-.71.67-1.87.82-4.33-2.28-6.66-4.18-7.57-6.16-16.02-7.19-7.03 7.47.63 1.03.27 2.04-.04 2.31-1.13 1-5.84-1.73-9.05-3.69l-1.13-.7-1.18-.73c-.25-.16-20.48-13.68-27.24-26.66-5.42-10.4-7.84-22.1-4.92-30.55m66.95 46.91a4.4 4.4 0 0 0 .84-3.26c-.6-5.7-22.09-24.07-27.8-35.88-5.74-11.84-14.85-25.33-28.25-22.22-6.84 1.6-11.69 5.97-14 12.66-3.13 8.99-1.46 21.86 4.23 32.79 7.03 13.5 28.54 27.34 29.46 27.92l1.2.75c5.8 3.58 10.05 5.99 12.01 4.27a3.28 3.28 0 0 0 .59-4.3c-7.54-11.47.59-7.68 1.68-7.01.9.55 1.91 1.43 3.12 2.51 1.1.99 2.27 2.04 3.48 2.78 1.45.89 2.97 1.33 4.48.67.85-.37 1.4-.97 1.63-1.77.47-1.65-.49-3.66-1.7-6.2a29.6 29.6 0 0 1-2.43-6.28 4.49 4.49 0 0 1-.1-.65 7.8 7.8 0 0 1 1.73.88l1.06.67 1.27.8c2.64 1.61 5.75 3.11 7.5.87"/><path id="vsadm" d="M641.89 823.16s-1.47-.6-1.08-1.71c.29-1 2.17-.12 2.17-.12 7.1 3.13 7.9 8.82 7.97 9.08l-2.06-.02c-.07-.21-1.16-4.65-7-7.23"/><path id="vsadn" d="M634 840.56s-.5 1.08-1.98.77c-1.59-.3-.6-1.72-.6-1.72 2.51-4.29 8.13-4.4 10.82-4.2l-.37 1.67c-.25-.02-5.46-.63-7.86 3.48"/><path id="vsado" d="M633.48 849.27s-.2 1.15-1.74 1.27c-1.66.16-1.08-1.45-1.08-1.45 1.23-4.67 6.76-6.32 9.47-6.87l.12 1.65c-.25.06-5.58.92-6.77 5.4"/><path id="vsadp" d="M557.52 908.97s-7.27 1.78-7.77-.46.89-6.41 6.05-10.77c5.16-4.35 9.41-2.7 8.78.82-.63 3.52-7.06 10.4-7.06 10.4"/><path id="vsadq" d="M564.45 895.86c.5.58.75 1.33.79 2.12v.02c.1 2.56-1.7 5.81-4.68 8.57-2.57 2.34-5.39 3.73-7.68 3.85-1.21.06-2.33-.26-3.07-1.12a3.47 3.47 0 0 1-.79-2.14c-.1-2.56 1.7-5.81 4.68-8.57 2.57-2.35 5.4-3.74 7.69-3.85 1.2-.06 2.32.26 3.06 1.12m-9.95 3.65c-2.8 2.54-4.38 5.65-4.29 7.55v.04c.03.6.2 1.04.49 1.38.42.5 1.13.75 2.12.7 1.87-.07 4.55-1.32 6.95-3.53 2.82-2.57 4.4-5.7 4.28-7.6a2.22 2.22 0 0 0-.49-1.37c-.42-.5-1.12-.76-2.12-.71-1.86.08-4.54 1.33-6.94 3.54"/><path id="vsadr" d="M562.84 899.11s8.18 9.32 26.76 11.93c17.66 2.49 20.22-.2 20.22-.2s8.47 18.31 4.28 28.34c-3.28 7.83-5.33 16.66-16.9 21.95-3.27 1.5-9.94-1.62-13.02 1.92-1.35 1.57-10.75-4.71-17.42-9.1-5.03-3.31-11.12-7.49-11.12-7.49s-19.99-27.28 7.2-47.35"/><path id="vsads" d="M571.32 905.67a.88.88 0 0 0-.04.02l.04-.02m-.46.2l.01.1a2 2 0 0 1 .41-.28zm-23.47 26.64l.12.12c-.05-.14-.09-.2-.12-.12m45.54 13.21c-1.62.11-3.1.16-4.3.1-7.6-.38-15.68-1.87-23.24-3.85l.33-1.32c1.32-5.3 2.21-10.84 3.8-16.05.23-.8.5-1.64.76-2.49 7.8 2.84 16.88 5.04 25.75 5.12-.17 1.64-.34 3.28-.42 4.87-.25 4.5-1.3 9.24-2.68 13.62m6-.03c.45-1.52.92-3.68 1.4-5.26.72-2.4.95-7.98.93-13.43a37.74 37.74 0 0 0 12.52-3.26 17.54 17.54 0 0 1-1.46-4.91c-2.36.2-6.07 1.02-11.2 1.4a62.86 62.86 0 0 0-.44-6.04c-.62-3.54-2.8-1.64-5.35-3.01l.06.86c.35-.18 1.06 4.75 1.12 5.94.04.8.04 1.6.02 2.42-3.67.02-7.89-.24-12.7-1.05-3.81-.64-7.94-1.74-11.71-2.62l-.06-.02c.95-2.86 1.98-5.84 2.98-8.85.72-2.15-1.83-.39-4.11-1.54-.01-.16-.04-.23-.06-.35-1.27 1.1-2.85 4.62-4.44 9.13-1.41-.46-11.56-6.05-12.8-7.8l-3.2 5.48c1.94 3 12.4 6.58 15 7.5-2.2 7.13-2.7 4.85-5.63 20.12-2.9-.91-5.48-3.32-8.01-4.69-1.75-.94 5.39 8.87 7.39 9.49-.33 2.96 2.8 6.67 4.45 5.98.64-.27.63-3.86.74-4.43l.1.03c5.16 1.78 9.96 3.32 15.46 3.95 2.6.3 6.85.27 11.33.04a38 38 0 0 1-2.32 5.97c-.88 1.68-2.42 4.87-4.22 5.8-.88.46-.23 1.5 3.73-.7 3.05-1.69 4.72-3.78 6.49-6.8.9-1.56 1.62-3.12 2.24-4.69 6.08-.54 12.39-2.82 14.18-5.48.7-1.02 2.49-5.42 2.76-6.48-1.98 3.14-7.21 7.35-15.2 7.3"/><path id="vsadt" d="M612.62 936.5l-.14.67c-1.56 7.17-6.08 12.75-13.26 17.34l.8 2.68c-.36.24-3.61 4.34-3.61 4.34s-2.76-1.93-3.08-1.45c-.55.85 3.26 3.61 3.26 3.61s15.66-17.46 17.69-25.16c-.53-.72-1.08-1.4-1.66-2.03"/><path id="vsadu" d="M560.81 900.79s6.17 5 18.73 8.28c12.56 3.26 27.23.46 31.47-.3 0 0-10.97-10.63-14.44-14.48-3.46-3.84-5.49-6.22-4.15-9.67 1.34-3.45-4.3-9.65-6.69-4.13 0 0 8.32 10.29-2.57 11.25-3.51.31-8.2 2.2-12.05 4.1-3.87 1.88-10.3 4.95-10.3 4.95"/><path id="vsadv" d="M583.79 892.46l-2.07-.86s-12.4 3.52-19.43 7.93c.5.43 1 .86 1.54 1.3 8.1-4.68 19.96-8.37 19.96-8.37"/><path id="vsadw" d="M592.26 952.68c-1.04.85-9.28 10.29-9.55 10.09-2.93-2.2-.28-1.24-12.7-8.1-15.78-8.72-23.64-24.1-18.92-37.2 3.1-8.6 8.08-13.75 11.38-15.82.44-.28.9-.55 1.36-.82-.53-.43-1.05-.87-1.54-1.3-.43.27-.84.54-1.22.81-3.3 2.36-9.5 7.2-12.02 16.47-7.19 26.44 16.03 37.62 19.88 39.3 9.85 4.3 11.33 6.14 13.92 9.75l12.12-14.44s.79-1.6-2.71 1.26"/><path id="vsadx" d="M614.38 938.16c.63-2.94 1.24-13.42 1.24-13.42-1.6-15.5-14.83-27.77-19.55-31.68-3.83-3.18-3.3-4.54-3.3-4.54-2.14 1.25 3.66 6.54 3.66 6.54 6.87 6.5 16.5 16.73 18.01 31.65 0 0-.36 2.95-1.81 9.79.58.62 1.13 1.3 1.65 2.02l.1-.36"/><path id="vsady" d="M559.89 901.67l1.22-1.06s10.3 8.46 32.35 9.54c0 0 12.95-.42 20.87-3.64l.52 1.18c-28.44 11.3-54.96-6.02-54.96-6.02"/><path id="vsadz" d="M570.7 969.61z"/><path id="vsadA" d="M545.62 888.22c-10.25-9.9-18.33-28.8-18.16-36.27.17-7.46 11.86-22.68 11.86-22.68s6.46-6.59 11.67-9.45c5.21-2.86 21.63-10.95 30.64-11.7 9.02-.74 19.57 3.47 22.4 5.93 2.85 2.45 11.16 9.26 13.52 17.06.52 1.72 8.56 19 5.07 29.24-2.5 7.36-7.85 12.83-10.48 15.44-.5.5-6.68 4.67-11.8 7.48-.94.52-4.73 1.64-6.86 3.7-1.28 1.23-1.26 3.2-1.65 4.44-.45 1.47-4.6 1.09-5.38.72-2.53-1.17-6.62-1.93-8.15-1.6-3.06.67-22.74 7.29-32.68-2.31"/><path id="vsadB" d="M543.96 833.73s-16.51-9.54-17.25-10.02c-.75-.47-12.01-6.22-15.03-14.79-3.02-8.56-5.24-17.74-3.35-23.46 1.9-5.73 6.04-13.67 14.49-26.97 8.45-13.3 9.08-15.39 9.08-15.39s3.07 6.22 3.63 16.47c.57 10.25.8 21.53 1.07 30.11.27 8.59 6.36 25.9 15.66 37.65s-8.3 6.4-8.3 6.4"/><path id="vsadC" d="M563.76 815.14s-1.76-10.68-3-14.32c-1.24-3.64-3.08-13.29-2.25-16.54.83-3.26 4.3-14.89 13.02-17.3 8.71-2.4 10.89-3.22 19.56-2.37 9 .88 15.15-.93 18.04-.34 0 0-1.34 4.62-6.3 10.02-6.59 7.17-17.72 15.5-22.55 14.02 0 0-1.76 2.07-2.74 5.72-1.46 5.46-2.37 13.66-2.69 17.3-.54 6.07-11.09 3.8-11.09 3.8"/><path id="vsadD" d="M595.75 868.72s3.46 10.42 6.23 9.5c2.1-.69.76-7.7.76-7.7z"/><path id="vsadE" d="M593.38 814.8c-1.63-.44-3.4.13-3.71-.05-.52-.32-.03-.86-.03-.86.07-.07 3.88-3.27 6.45 1.37 0 0 .3.7-.22 1.11-.23.18-1.36-1.27-2.49-1.57"/><path id="vsadF" d="M572.94 825.55c-.02-.03-.93-.97-1.2-2.12a4.64 4.64 0 0 1 .75-4.05c2.01-1.9 4.02-1.74 4.04-1.16.02.58-3.83 1.82-2.83 7.3.09.51-.76.03-.76.03"/><path id="vsadG" d="M605.61 876.98s.76 6.6-4.02 6.9c-2.49.16-3.86-3.16-3.87-3.17 0 0 2.4 1.76 4.43 1.25 2.56 0 3.46-4.98 3.46-4.98"/><path id="vsadH" d="M602.16 879.92c1.98-.36 1.3-9.02 1.37-9.03 2.5-.13 8.19-3.01 10.94-6.51 1-1.26-1.29-.42-2.6.89-9.8 8.11-16.52 2.13-16.52 2.13s3.42 13.6 6.8 12.52m-.17-2.21c-2.86 1.1-3.79-5.95-5.48-8.4 1.63.83 3.56 1.6 5.98 1.77.47 1.06.07 6.64-.5 6.63"/><path id="vsadI" d="M602.12 835.02s1.74-.3 3.51 2.45c1.1 1.7 2.2 3.8 2.28 5.87.04 1.25-.47.35-1.35.95-.48.32-1.9 1.94-2.4 1.7-2-.96-2.91-4.74-3.23-6.77-.4-2.53 1.2-4.2 1.2-4.2"/><path id="vsadJ" d="M607.23 841.19c.55 1.45.44 2.83-.24 3.09-.67.25-1.67-.72-2.21-2.17-.55-1.46-.44-2.84.24-3.09.68-.25 1.67.72 2.21 2.17"/><path id="vsadK" d="M603.59 846.01c-.94-.93-1.81-2.31-2.43-3.96a11.1 11.1 0 0 1-.78-4.58c.1-1.3.54-2.42 1.6-2.84 1.07-.38 2.14.18 3.07 1.1.94.92 1.8 2.3 2.43 3.95.61 1.66.98 2.84.88 4.16-.04.5-1.3-.04-1.8.45-.95.53-2.12 1.8-2.41 1.7-.57-.2-.05.52-.56.02m3.66-2.14a8.7 8.7 0 0 0-.74-3.81 10.15 10.15 0 0 0-2.2-3.62c-.82-.81-1.57-1.04-1.98-.87-.42.13-.84.8-.92 1.96-.09 1.12.14 2.63.72 4.16a10.2 10.2 0 0 0 2.2 3.61c.37.37-.34-.49-.02-.34.38.18 2.75-.84 2.94-1.1"/><path id="vsadL" d="M529.92 826.58c-5.76-3.36-12.1-7.37-14.68-10.29-.8-.9-1.59-2.02-2.35-3.3-4.08-6.88-7.39-18.47-5.19-27.17 1.17-4.53 5.67-12.77 10.45-20.95 4.77-8.16 9.82-16.22 12-20.16.63-1.11 1.03-1.94 1.08-2.17.07-.21.1-.42.4-.63.26-.17.64-.06.77.06.15.12.23.25.32.4.78 1.35 1.85 5.85 2.77 11.99.9 6.1 1.58 13.72 1.37 20.94-.41 14.16 1.66 28.61 9.6 41.96 1.38 2.32 1 1.78 2.76 4.03l1.94 2.83-2.06-.79c-2.5-2.21-2.56-1.94-3.97-4.3-8.08-13.58-9.94-28.2-9.52-42.48.21-7.13-.46-14.7-1.35-20.76-.77-5.25-1.76-9.46-2.38-11.06-.21.46-.52 1.04-.94 1.79a184.2 184.2 0 0 1-2.52 4.32c-2.04 3.41-4.72 7.79-7.45 12.38-5.46 9.17-10.99 18.01-12.22 22.87-2.12 8.22 1.8 19.26 5.77 25.9.73 1.23 1.48 2.29 2.22 3.13 2.34 2.68 8.7 6.75 14.42 10.07 5.72 3.33 8.55 6.08 8.55 6.08l-2.34-.25s-1.7-1.1-7.45-4.44"/><path id="vsadM" d="M563.82 814.86zm-.29-1.52s-10.89-28.87-1.74-39.23a15.95 15.95 0 0 1 3.84-4.7c5.4-4.5 14.5-5.31 23.09-5.4 8.56-.07 16.73.59 19.8-.56.56-.19 1.03-.29 1.51-.05.56.31.61.94.51 1.42-.1.53-.34 1.11-.71 1.8-2.45 4.5-10.13 13.86-19.6 19.16-6.27 4.17-15.64 2.09-15.64 2.09 16.16.68 30.05-14.9 33.25-20.93.48-.85.64-1.54.63-1.73h-.08c-.1.01-.28.05-.5.13-3.6 1.27-10.62-.31-19.16-.22-8.52.07-17.44.97-22.39 5.14-1.54 1.3-3.57 4.38-3.57 4.38-8.94 14.42 2.77 38.33 2.8 38.36z"/><path id="vsadN" d="M573.13 810.13c.02-.04 2.04-15.6 5.71-21.82l.7-.25.91.43c-1.72 2.88-3.17 8.46-3.96 12.54-.8 4.1-1.13 8.19-1.14 8.2v-.76.76z"/><path id="vsadO" d="M547.57 821.22l.59 1.05c.29-.2 27.6-18.25 47.52-11.63 17.18 5.7 26.96 28.96 27.15 40.82.14 8.59-4.06 17.39-11.17 23.39a49.83 49.83 0 0 1-6.32 4.32c-.89.53-1.26 2.61-2.16 3.13-1.51.88-1.76-.85-3.43.13-5.04 2.97-10.48 3.96-7.24 8.71.34.51 2.46 2.1 2.33 1.94-5.44-6.79 1.51-6.45 5.75-9.15.83-.53 1.88-.23 2.76-.78.8-.5 1.44-1.88 2.24-2.4a118.1 118.1 0 0 0 7.09-5.05c9.7-7.57 12.02-16.08 11.88-24.66-.2-11.94-10.22-36.12-28.56-41.63-23.04-6.92-47.23 10.96-48.43 11.8"/><path id="vsadP" d="M527.03 853.48c1.28 9 5.06 25.6 19.2 36 8.71 6.41 22.04 4.15 31.37 2.24 5.81-1.2 6.95-1.03 1.07 1.05l2.4.64c.1-.3 2.93-.64 4.66-2.14.56-.49-.25-2.58-8.78-1.38-9.25 1.3-20.85 4.5-29.22-1.65-13.9-10.22-17.83-26.47-18.84-35.36-.94-8.29 10.01-22.2 10.1-22.3l-.89-.73c-.39.44-12.64 12.57-11.07 23.63"/><path id="vsadQ" d="M597.83 850.46c-1.28-.46-1.76-1.67-1.78-1.72 0 0-.04 2.42 1.55 3.03 2.15.83 2.92.15 5-1.27l.32-1.64c-1.87 1.29-3.83 2.06-5.1 1.6"/><path id="vsadR" d="M580.67 857.23c.04-.02 2.95-1.79 7-.47 2.66.86 5.72 2.56 6.13 5.99.64 5.26-5.48 11-5.03 12.71 0 0 8.6-5.53 7.08-13.12-.72-3.6-3.75-5.49-6.66-6.43-4.4-1.43-8.52 1.32-8.52 1.32"/><path id="vsadS" d="M585.27 841.82s1.85-.23 3.52 2.58 3.09 7.82.5 9.35c-2.6 1.53-5.32-5.17-5.57-7.73a5.34 5.34 0 0 1 1.55-4.2"/><path id="vsadT" d="M590.45 846.96c.47 1.47.26 2.86-.47 3.1-.73.23-1.7-.78-2.18-2.26-.47-1.48-.26-2.86.47-3.1.73-.23 1.7.78 2.18 2.26"/><path id="vsadU" d="M586.05 852.93a10.52 10.52 0 0 1-2.28-4.06c-.54-1.68-.7-3.31-.51-4.64.2-1.3.73-2.41 1.87-2.8 1.16-.35 2.25.25 3.16 1.2.93.96 1.75 2.38 2.29 4.06.53 1.68.7 3.3.5 4.63-.2 1.3-.73 2.42-1.87 2.8-1.16.35-2.24-.24-3.16-1.19m3.95-1.7a9.7 9.7 0 0 0-.47-4.2 9.71 9.71 0 0 0-2.07-3.7c-.8-.85-1.58-1.1-2.02-.94-.45.11-.93.78-1.1 1.93a9.7 9.7 0 0 0 .47 4.21 9.8 9.8 0 0 0 2.06 3.7c.82.85 1.6 1.1 2.03.94.45-.12.93-.78 1.1-1.93"/><path id="vsadV" d="M605.7 840.23c.06.7-.27 1.3-.74 1.34-.47.03-.9-.5-.95-1.2-.06-.71.28-1.31.74-1.35.47-.04.9.5.95 1.2"/><path id="vsadW" d="M588.62 846.56c.06.7-.28 1.3-.74 1.34-.47.04-.9-.5-.95-1.2-.06-.71.28-1.31.74-1.35.47-.03.9.5.95 1.2"/><path id="vsadX" d="M606.57 843.8s3.83-.72 6.01.77c2.18 1.49 7.3 4.7 6.75 12.45-.55 7.74-12.01 8.97-15.94 1.5 0 0-5.41-8.91 3.18-14.71"/><path id="vsadY" d="M601.72 856.87c-1.96-5.6.01-11.56 4.88-13.31 4.88-1.66 10.15 1.78 12.12 7.38 1.96 5.6-.02 11.56-4.88 13.31-4.89 1.66-10.15-1.79-12.12-7.38m1.46-8.1c-.69 1.68-.8 4.85.12 7.48.92 2.63 2.61 4.7 4.57 5.92 1.96 1.22 3.67 1.79 5.63 1.1a7.03 7.03 0 0 0 4.2-4.47c.78-2.16.8-4.84-.12-7.47a11.36 11.36 0 0 0-4.57-5.92 7.04 7.04 0 0 0-6.08-.88c-1.96.69-3.07 2.57-3.75 4.25"/><path id="vsadZ" d="M608.72 854.15c.5 1.41.33 2.76-.37 3-.7.25-1.68-.7-2.18-2.11-.5-1.41-.32-2.76.38-3 .7-.25 1.68.7 2.17 2.11"/><path id="vsadaa" d="M614.57 852.24c.5 1.41.32 2.76-.37 3-.71.25-1.68-.7-2.18-2.1-.5-1.42-.32-2.76.38-3.01s1.68.7 2.17 2.11"/><path id="vsadab" d="M594.02 952.07l-1.46-3.09-4.6.66-1.91 4.3.75 20.86 2.93-3.25 4.33 3.1.28-15.14z"/><path id="vsadac" d="M601.55 948.45l-.01 25.29 3.16-2.58 3.7 3.79 1.2-27.21-4.5-.39z"/><path id="vsadad" d="M850.82 845.11s3.7-13.7-7.07-35.17c-4.31-8.6-14.15-22.24-19.7-28.87-8.31-9.93-12.2-5.77-31.9-19.25l-21.7-.96s-33.67-7.12-57.81 4.13c-5.3 2.47-11.47.34-15.75 4.05-7.16 6.2-19.85 24.3-19.85 24.66 0 9.11-5.23 20.18-5.29 23.76 0 0 2.5 12.55 2.77 26.23.26 13.68.2 33.56 10.86 37.8 0 0-12.94-5.16-8.45 33.84s54.49 63.8 85.46 63c23.74-.62 42.65-1.94 55.8-7.58 29.4-12.6 36.82-33.14 39.04-37.62 6.05-12.21 7.3-20.94 6.26-45.23-1.8-42.07-12.67-42.79-12.67-42.79"/><path id="vsadae" d="M594.56 955.3c.04-1.62.07-6.7-3.25-7.5-2.37-.57-6 .52-5.96 8.42 0 1.55.2 6.85.4 11.67l1.2-.04c-.04-.43-1.12-12.44-.4-15.1.71-2.73 5.58-6.46 7.1.68.51 2.38-.16 14.1-.16 14.1l-4.34.24 5.35-.2v-1.48c-.02-3.54-.01-7.55.06-10.79"/><path id="vsadaf" d="M586.95 967.88v-.04l-1.2.05.36 8.77 3.82-4.41 4.68 3.7-.02-1.29s-.06-3.08-.08-7.09l-5.36.2z"/><path id="vsadag" d="M609.9 947.33l-1.18-.02-.6 20.09a30 30 0 0 0 1.18-.2z"/><path id="vsadah" d="M601.93 966.36c-.18-4.18-.34-9.23-.3-13 0-2.29.11-4.14 1.12-5.89 0 0-2.28 3.56-2.3 5.91-.04 3.96.14 9.28.33 13.57.55.2 1.12.36 1.71.47a1.31 1.31 0 0 1-.56-1.06"/><path id="vsadai" d="M608.13 967.4v.02s-4.12 1.12-5.64 0c-.59-.1-1.16-.26-1.71-.46.18 4.16.37 7.36.37 7.36l.07 1.38 3.5-3.72 4.32 4.2.27-8.97c-.37.07-.77.13-1.18.19"/><path id="vsadaj" d="M846.55 848.19c-4.36 1.04 6.87-2.75-2.11-30.55-10.46-32.4-39.81-48.92-36.64-45.24l-7.95-9.14c2.48 1.7 34.09 11.03 48.56 54.86 8.97 27.18-1.45 29.97-1.86 30.07"/><path id="vsadak" d="M780.16 763.41l-.19 3.24c-74-16.26-98.6 20.43-98.95 20.55 0 0 5.43-13.74 15.19-18.04 9.76-4.3 46.22-18.2 81.71-4.7z"/><path id="vsadal" d="M809.72 864.27c-13.2 4.8-23.88 13.03-35.5 22.48 0 0-1.12-10.42 34.42-24.03 15.41-5.9 16.58-4.2 16.98-4.23l-15.9 5.78"/><path id="vsadam" d="M762.02 856.14s.05 4.6-2.41 8.18c-1.88 2.72-6.49 4.62-6.27 4.81 1.22 1.13 10.57 2.16 11.09-5.3.1-1.58-2.41-7.69-2.41-7.69"/><path id="vsadan" d="M681.5 787.8c-.05 2.44-13.24 16.79-5.64 55.04 3.61 18.18-.19 19.37 1.76 27.21 2.45 9.88 15.18 15.65 15.25 15.68 0 0-13.97-3.6-17.18-12.42-4.2-11.53-1.66-23.42-3.53-31.45-9.43-40.61 9.35-54.06 9.35-54.06"/><path id="vsada" d="M673.44 843.45h193.42v137.12H673.44z"/><path id="vsadap" d="M860.76 855.63c-4.44-17.1-17.19-11.71-12.69-10.08 2.43.87 7.17.86 9.86 12.27 16.56 70.12-14.56 93.77-35.75 107.35-15.98 10.25-55.81 15.66-84.6 7.02-38.1-11.44-61.03-44.64-61.27-64.8-.39-31.77 9.6-24.92 9.68-24.94l-1.56-1.15c-.41.05-11.39-7.62-10.98 26.09.25 20.8 25.05 57.48 63.91 69.15 29.66 8.9 71 1.69 87.88-8.43 20.96-12.58 55.74-34.68 35.52-112.48"/><path id="vsadaq" d="M678.6 962.7s8.37 3.12 10.66 1.86c2.3-1.25 11.26-6.24 11.26-6.24s3.5 9.88-8.17 13.27c-11.69 3.38-13.78-3.05-14.39-8.62"/><path id="vsadar" d="M677.96 962.97s-40.35-11.67-71.13-12.17c-30.78-.51-39.61 6.83-39.61 6.83l1.34 1.44s57.5-10.97 110.46 7.94z"/><path id="vsadas" d="M701.77 962.15l-.81-3.9s70.15-45.52 107.7-42l-.45 2.98s-33.34-1.04-106.44 42.92"/><path id="vsadat" d="M566.22 957.48l5.01-26.78s12.54-6.74 34.59-4.2c0 0 45.4-6.3 89.94 19.65 0 0 77.26-64.83 109.71-43.17l3.1 12.68s-39.89-1.1-117.57 48.96c0 0-87.11-24.93-124.78-7.14"/><path id="vsadau" d="M576.17 919.5s77.98-46.21 123.24 4.68l1.54.5s33.71-36.06 82.02-30.87c7.64.82 12.92 4.75 21.21 8.63 0 0-41.5-11.8-115.98 55.54 0 0-35.87-28.46-110.5-36.28z"/><path id="vsadav" d="M565.65 953.68s-2.33 6.88 1.38 5.14c36.56-17.16 103.71 2.1 118.68 6.6 3.64 1.5 6.46-.68 7.06-1.07 69.8-44.16 105.21-47.72 113.82-47.84 4 .55 2.88-1.97 2.88-1.97l-2.92-12.1-.47-.11c-45.6-12.33-112.42 50.08-118.8 55.88-63.93-37.25-115.87-28.47-116.36-28.4l-.7.1zm6.15-22.52c6.03-.62 52.64-4.07 113.43 27.02.93.47 3.07 2.45 5.48-.93 13.45-11.74 75-62.93 114.3-53.62.12.52 2.41 6.07 2.08 9.24-.13 1.33.53 2.44-4.6 2.3-13.34.75-47.1 5.1-110.68 47.45-.8.51-3.7 1.15-4.84.81-15.25-4.5-88-23.88-119.52-7.84.4-2.47 4.18-23.38 4.35-24.43z"/><path id="vsadaw" d="M573.96 919.54l.5 1.37c.74-.21 80.58-48.4 125.4 5.4l1.26-1.65c-45.56-54.69-126.4-5.33-127.16-5.12"/><path id="vsadax" d="M763.33 892.98c-24.58 4.83-46.23 9.77-60.22 26.64-10.27 12.4-16.41 38.53-16.56 38.77l1.58.58c.15-.24 5.92-25.3 16.68-37.78 14.17-16.42 36.41-21.72 60.15-26.39 14.16-2.78 27.7.18 40.21 8.79l1.2-1.14c-12.95-8.9-28.3-12.37-43.04-9.47"/><path id="vsaday" d="M693.69 969.68c-3.69 2.1-7.9 2.23-10.15 1.3-4.93-2.06-4.06-8.94-4.08-9.02l-3.06.27c.06.35 1.6 8.5 7.28 10.86 3.22 1.35 8.15.77 11.99-1.42 2.82-1.6 7.42-5.46 6.6-13.3l-3.12.4c.74 7.1-2.98 9.5-5.46 10.9"/><path id="vsadaz" d="M683.51 954.79c6.24 4.15 4.47 3.7 4.54 4.18 0 0-39.62-29.35-112.33-36.48l-1.9-2.64s65.88 5.72 109.7 34.94"/><path id="vsadaA" d="M570.91 929.8s20.36-7.94 38.88-2.92l2.83.8s-24-3.47-36.42 2.03z"/><path id="vsadaB" d="M689.28 960.91l.26.06c.71-.64 69.98-64.66 116.13-54.82l.27-.7c-46.68-9.95-115.94 54.81-116.66 55.46"/><path id="vsadaC" d="M689.21 961.93l.57.01c.84-.57 85.4-58.4 117.13-48.73l.36-.68c-32.22-9.81-114.62 47.04-118.06 49.4"/><path id="vsadaD" d="M571.1 935.95c.57-.07 59.22-6.37 117.07 25.04l-.16-.33c-58.12-31.57-116.4-25.5-116.98-25.43z"/><path id="vsadaE" d="M569.96 942.94l.3.67c.43-.15 44.24-14.66 118.69 18.82l.17-.25c-74.85-33.66-118.73-19.4-119.16-19.24"/><path id="vsadaF" d="M701.6 961.08s68.15-41.47 104.79-41.9c.69 0 .14-3.65.81-3.63l2.46-.18-.58 5.2s-40.93 1-107.54 43.08z"/><path id="vsadaG" d="M678.14 965.68s-61.02-19.2-107.84-7.05c-.54.14-2.32 0-3.22-.43-.92-.45-.93.6-1.47.76l2.58 2.17s38.26-12.84 110.83 5.88z"/><path id="vsadaH" d="M755.94 755.44s6.05-16.28 15.51-16.09c9.47.2 15.02 9.63 21.73 16.56 6.72 6.93 26.17 14.42 22.05 27.39-4.12 12.97-12.64 23.9-18.14 16.01-5.5-7.9-1.71-16.05-1.71-16.05s-10.5-14.41-17.09-16.7c0 0-2.62 5.65-7.1 6.25-4.49.6-17.36-4.6-15.25-17.37"/><path id="vsadaI" d="M756.03 752.12c-.02.04-4.58 10.12 3.38 16.66 4.63 3.8 8.62 5.99 12.14 4.9 19.23-5.93-3.49-13.97-2.7-13.59 15.08 7.4 4.1 11.44 2.45 11.65-3.08.39-6.46-1.03-10.64-4.48-6.78-5.56-1.93-14.1-1.77-14.46.08-.2 3.91-12.65 13.6-10.95 6.22 1.1 10.12 5.49 14.25 10.14 2.67 3 5.42 6.11 9 8.67l3.94 2.65c8.64 5.66 17.22 7.13 13.3 22.38-2.56 9.94-6.79 14.16-10.85 13.86-3.49-.26-5.97-1.37-6.38-5.23a26.9 26.9 0 0 1-.22-5.62c1.83-17.11-25.58-27.78-25.58-27.78 11.73 10.12 23.63 21.26 23.62 27.78 0 1.8 0 3.68.23 5.83.5 4.76 3.93 8.3 8.34 8.62 4.84.36 11.03-3.22 13.89-14.34 4.27-16.6-5.68-23.12-14.46-28.88l-3.87-2.6c-3.4-2.43-6.09-5.45-8.68-8.38-4.36-4.92-8.48-9.56-15.38-10.77-11.27-1.98-17.36 13.29-17.61 13.94"/><path id="vsadaJ" d="M724.52 928.25s-.57-1.91.67-2.13c1.1-.2 1.23.84 1.23.84 1.25 3.71 4.62 7.2 4.66 7.24l-1.14 1.22c-.17-.15-4.03-3.05-5.42-7.17"/><path id="vsadaK" d="M736.83 932.33c-.01-.05-1.5-5-4.2-8.1 0 0-1.35-1.28-.43-1.93 1.18-1.03 2.12.36 2.12.36 2.93 3.37 4.03 8.93 4.1 9.18z"/><path id="vsadaL" d="M744.28 930.91c0-.06-.12-5.23-3.96-8.95 0 0-1.25-1.16.01-2.09.85-.62 1.87.33 1.87.33 4.24 4.11 3.72 10.27 3.73 10.55z"/><path id="vsadaM" d="M741.59 988.83s21.52 14.76 26.92-7.35c5.4-22.1-2.05-59.56-32.98-50.9-21.7 6.06-9.72 25.27 1.06 35.51 6.3 5.98.15 17.23 5 22.74"/><path id="vsadb" d="M722.07 927.53h49.52v67.19h-49.52z"/><path id="vsadaO" d="M748.07 927.82c10.2 1.55 16.7 9.3 20.16 18.76 3.47 9.49 4.1 20.84 2.58 30.46-.24 1.52-.54 2.99-.88 4.41-1.4 5.76-3.95 9.39-7.12 11.35-3.16 1.96-6.73 2.19-9.96 1.7-17.16-2.7-14.69-13.09-14.58-17.26.15-4.26.01-8.03-2.6-10.48-7.01-6.75-14.76-17.01-13.45-26.16.78-5.18 4.9-9.54 12.98-11.75 4.76-1.33 9.05-1.62 12.87-1.03m-6.98 49.5c-.18 4.22-.13 9.31 4.63 11.84 2.01 1 4.76 2.1 7.57 2.52 2.83.43 5.65.2 8.04-1.29 2.39-1.49 4.55-4.31 5.85-9.6.33-1.34.6-2.74.84-4.19 1.45-9.15.18-21.09-3.1-29.98 0 0-5.43-13.3-14.31-14.66 0 0-5.79-2.45-12.33-.63 0 0-12.14 3.46-12.05 12.23-1.25 7.08 4.58 14.77 11.4 21.14 3.66 3.53 3.6 8.38 3.46 12.61"/><path id="vsadaP" d="M697.18 924.53s.87-1.75-.29-2.17c-1.02-.37-1.32.61-1.32.61-1.82 3.37-5.64 6.16-5.68 6.2l.9 1.36c.18-.12 4.38-2.28 6.4-6"/><path id="vsadaQ" d="M684.67 926.4c.03-.05 2.28-4.55 5.39-7.08 0 0 1.5-1 .73-1.8-.96-1.18-2.1 0-2.1 0-3.38 2.75-5.36 7.92-5.47 8.15z"/><path id="vsadaR" d="M677.74 923.82c.01-.06 1-5 5.3-7.95 0 0 1.4-.91.33-2.01-.7-.74-1.84 0-1.84 0-4.77 3.26-5.28 9.26-5.34 9.53z"/><path id="vsadaS" d="M670.72 979.93s-23.14 10.62-24.65-11.52c-1.52-22.15 11.86-56.92 40.16-43.48 19.85 9.43 5.13 25.9-6.93 33.97-7.04 4.7-3 16.53-8.58 21.03"/><path id="vsadaT" d="M674.61 920.22c3.78.07 7.85 1.06 12.2 3.13 7.4 3.46 10.64 8.32 10.53 13.44-.26 9-9.41 17.58-17.28 22.92-2.92 1.92-3.68 5.51-4.24 9.63-.6 4.03.06 14.44-16.88 14.18-3.19-.06-6.58-.87-9.3-3.28-2.71-2.41-4.57-6.31-4.95-12.09-.1-1.42-.13-2.88-.12-4.39.15-9.49 2.63-20.3 7.55-28.85 4.89-8.51 12.43-14.89 22.5-14.7m-1.53 48.74c.58-4.09 1.32-8.76 5.44-11.54 7.6-5 14.5-11.43 14.46-18.44 1.55-8.42-9.55-13.76-9.55-13.76-5.99-2.83-11.95-1.43-11.95-1.43-8.77-.17-16.2 11.72-16.2 11.72-4.63 8.01-7.83 19.28-7.96 28.31-.02 1.43.02 2.83.1 4.17.38 5.3 1.99 8.37 4.03 10.2 2.06 1.83 4.73 2.52 7.52 2.57 2.77.06 5.6-.55 7.7-1.17 4.99-1.64 5.89-6.53 6.41-10.63"/><path id="vsadaU" d="M690.42 785.25c-26.78 17.2-13.63 59.27-6.03 61.15 5.33 1.32 8.1-9.88 15.65-14.25 7.54-4.38 15.57-9.24 33.42-1.32 21.12 9.39 41.96-.48 30.02-31.9-14.26-37.55-57.08-23.94-73.06-13.68"/><path id="vsadaV" d="M718.56 835.02s-13.01-5.25-20.7.77c-7.68 6.01-12.04 9.56-9.27 19.04 2.77 9.47 7.2 9.12 10.53 8.6 3.33-.53 8.2-3.77 15.78-3.54 7.58.24 13.35-4.7 12.44-8.8-.92-4.08-.64-9.51-8.78-16.07"/><path id="vsadaW" d="M727.23 856.24c-1.56 2.38-4.3 3.98-8.05 4.82h-.03c-2.49.57-5.46.8-8.96.73l.02-1.25-.03 1.26c-.97-.03-1.88.08-2.74.27-2.77.6-5.1 2.15-7.84 2.8-2 .47-4.31.23-6.55-1.44a15.17 15.17 0 0 1-5.94-9c-1.9-8.36 1.18-16.02 14.62-20.58 16.06-5.45 23.74 6.43 23.79 6.56a30.04 30.04 0 0 1 2.78 7.16c.74 3.27.5 6.27-1.07 8.67m-1.4-8.12a27.36 27.36 0 0 0-2.5-6.47l-.23-.32a17.64 17.64 0 0 0-18.8-6.72c-.63.14-1.27.31-1.93.51-10.25 3.17-15.32 11.36-13.76 18.36.66 2.92 2.3 5.57 4.96 7.52 1.78 1.25 3 1.32 4.52 1.01 2.08-.43 5.51-1.63 8.8-2.39 1.03-.23 2.15-.37 3.35-.34 3.36.07 6.14-.17 8.36-.67 3.4-.76 5.44-2.08 6.52-3.75 1.09-1.66 1.36-3.86.72-6.74"/><path id="vsadaX" d="M727.86 783.6c-2.1-.3-4.85 3.67-4.27 4.13.85.68 3.13-.96 5.5-.24 2.42.75 4.73 3.35 5.28 2.77.37-.4-.84-5.84-6.5-6.66"/><path id="vsadaY" d="M685.23 796.48c-1.28 1-.2 5 .4 4.94.86-.07 1-2.37 2.68-3.28 1.72-.94 4.55-.69 4.47-1.35-.06-.45-4.1-3.05-7.55-.31"/><path id="vsadaZ" d="M730.61 802.47s-5.39 6.67-3.84 13.05c1.55 6.39 5.47 17.55 11.76 15.88 6.3-1.68 5.78-9.88 4.65-16.67-1.14-6.8-6.28-14.93-12.57-12.26"/><path id="vsadba" d="M738.34 832.79c-.33.05-.65.08-.97.08-2.83.01-4.33-1.78-6.34-4.34a23.85 23.85 0 0 1-4.35-10.14c-.3-1.61-.46-3.18-.48-4.69-.03-6.4.93-10.9 5.8-11.89.33-.05.66-.08.98-.08 2.83-.01 4.5 1.05 6.52 3.61a23.88 23.88 0 0 1 4.35 10.14c.3 1.6.46 3.18.48 4.68.03 6.4-1.12 11.65-6 12.63m.27-26.32c-1.73-2.22-3.68-3.34-5.26-3.32h-.05c-.2 0-.38.02-.56.05-2.68.3-5.14 4.55-5.03 10.53.02 1.37.16 2.81.44 4.28a21.5 21.5 0 0 0 3.89 9.13c1.74 2.24 3.71 3.36 5.3 3.32.2 0 .39-.01.58-.05 2.66-.3 5.12-4.55 5.01-10.53-.01-1.37-.15-2.8-.43-4.28-.7-3.7-2.16-6.91-3.9-9.13"/><path id="vsadbb" d="M687.43 812.4s-4.53.82-5.19 9.49c-.66 8.67 4.02 19.76 10.14 16.66 6.13-3.09 5.04-10.05 3.89-16.4-1.15-6.36-6.2-11.22-8.84-9.75"/><path id="vsadbc" d="M697.73 824.9l-.2-1.34a19.29 19.29 0 0 0-3.8-8.78c-5.46-7.3-9.88-.17-10.98 2-1.1 2.18-1.58 6.4-1.11 10.2l.36-.26 1.3-.18c-.43-3.48 0-6.73.97-9.1.98-2.4 2.45-3.75 3.82-3.96l.15-.02c1.32-.2 2.95.54 4.48 2.38 1.5 1.8 2.75 4.57 3.33 7.8.07.4.13.8.18 1.22.44 3.48.01 6.73-.96 9.1-.98 2.4-2.45 3.75-3.82 3.96l-.15.03c-1.32.2-2.95-.55-4.47-2.39a17.25 17.25 0 0 1-3.34-7.79l-.19-1.23-1.3.18-.36.26.2 1.34c2.27 8.84 7.02 12.3 9.74 11.96l.29-.04c2.8-.54 6.71-4.35 5.86-15.34"/><path id="vsadbd" d="M733.22 827.75c1.27 3.19 3.7 5.21 5.43 4.51 1.72-.7 2.09-3.85.81-7.04-1.27-3.19-3.7-5.21-5.42-4.51-1.73.7-2.1 3.85-.82 7.04"/><path id="vsadbe" d="M688.56 832.98c.1 3.65 1.77 6.6 3.73 6.56 1.96-.02 3.46-3 3.36-6.66-.1-3.65-1.77-6.59-3.73-6.56-1.95.03-3.46 3-3.36 6.66"/><path id="vsadbf" d="M718.38 839.78c0 1.86-3.24 3.37-7.23 3.37-4 0-7.23-1.51-7.23-3.37s3.24-3.37 7.23-3.37c4 0 7.23 1.5 7.23 3.37"/><path id="vsadbg" d="M690.61 827.04c1.27 1.87 1.67 3.82.9 4.33-.78.52-2.43-.57-3.7-2.45-1.26-1.87-1.66-3.81-.88-4.33.77-.52 2.42.58 3.68 2.45"/><path id="vsadbh" d="M734 819.34c1.27 1.87 1.67 3.82.9 4.33-.78.53-2.43-.57-3.7-2.45-1.26-1.87-1.66-3.81-.88-4.33.77-.52 2.42.58 3.68 2.45"/><path id="vsadbi" d="M813.26 873.86c-6.31 1.64-3.62 14.88-3.62 14.88 3.45 18.78-11.24 27.2-12.64 27.95-23.67 12.7-12.22 31.1 2.03 35.16 18.3 5.22 38.37-11.54 45.15-26.15 7.3-15.75 6.42-33.97.62-47.71-3.4-8.1-4.84 1.3-7.67 3.58-4.9 3.95-4.22-5.02-6.22-8.64-8.15-14.74-5.54 11.28-11.8 13.97-2.7 1.17-1.66-14.5-5.85-13.04"/><path id="vsadbj" d="M827.09 868.1c-2.5.76-3.33 4.95-4.3 9.66-.67 3.25-1.04 8.63-3.65 7.85-.26-.97-.51-2.49-.7-3.61-.6-3.76-.73-10.95-5.09-10.17-4.86 1.31-5.05 9.41-4.85 13.92.1 2.63.52 4.7.56 4.93.26 1.43.42 2.8.47 4.1.62 14.59-11.85 20.6-13.26 21.36-12.95 6.95-14.72 15.13-14.53 19.63l.03.4c.56 7.97 7.6 15.63 16.75 18.24 19.6 5.59 37.86-11.92 44.64-26.53 6.91-14.89 9.55-34.26 3.05-49.68-.8-1.93-5.52-8.82-8.15.02-.37 1.26-2.9 10.08-4.3-.35-.15-1.17-1.94-11.2-6.67-9.77m-7.47 21.3c3.42-1.48 4.54-6.89 5.62-12.12.44-2.14 1.98-10.58 4.24-2.52.3 1.03.85 2.47 1.18 3.97.62 2.84 1.2 5.53 3.28 6.28 1.2.43 2.58.04 4.08-1.17 1.16-.94 2-2.52 2.8-4.05.38-.7 1.94-1.43 2.48-.14a58.03 58.03 0 0 1 4.39 19.97c.38 9.13-2.07 16.97-5.78 24.95-6.29 13.56-24.05 30.45-42 25.34-7.92-2.27-14.5-7.47-14.97-14.1-.44-6.22 2.48-11.6 11.23-16.3 1.77-.94 18.65-10.24 14.98-30.2-.61-3.05-1.48-11.87 2.39-12.88l.16-.05c.66.46 1.3 4.4 1.6 6.3.55 3.36.95 5.8 2.4 6.63.59.33 1.27.36 1.92.08"/><path id="vsadbk" d="M780.67 950.52s-1.68-.44-2.1.88c-.41 1.14 1.81 1.6 1.81 1.6 8.3 1.88 12.82-2.96 13.07-3.15l-1.81-1.38c-.2.15-4.15 3.6-10.97 2.05"/><path id="vsadbl" d="M778.19 940.11s-1.28-1.22-2.22-.24c-.86.82.87 2.33.87 2.33 6.38 5.78 12.45 3.66 12.75 3.6l-.97-2.13c-.24.04-5.2 1.2-10.43-3.56"/><path id="vsadbm" d="M773.99 932.82s-1.28-1.22-2.22-.24c-.86.82.87 2.33.87 2.33 6.38 5.78 12.45 3.66 12.75 3.6l-.97-2.13c-.24.04-5.19 1.2-10.43-3.56"/><path id="vsadbn" d="M565.5 922.9a28.4 28.4 0 0 1 4.3-3.83c.5-.42.62-.57.4-.86-2.59-5.24-2.17-8.81-.64-11.23a8.7 8.7 0 0 1 4.07-3.5c.78-.39 1.53-.67 2.16-.87l-4.18-4.67s-3.16.2-6.4 2.43l-.49.34c-4.91 4.77-8.74 12.47.77 22.18"/><path id="vsadbo" d="M569.8 919.07a28.4 28.4 0 0 0-4.31 3.82l.01.02c2.26-2.31 3.62-3.3 4.3-3.84"/><path id="vsadbp" d="M573.63 903.48a10.04 10.04 0 0 0-4.08 3.5c-2.02 3.6-.09 8.1 1.75 11.07l.24-.16c-2.84-5.3-4.13-12.37 6.07-15.74 0 0-.75.12-1.82.46l.02.02c-.81.26-1.53.54-2.18.85"/><path id="vsadbq" d="M564.72 900.71c3.57-3.47 7.72-5.39 7.72-5.39s-27.1 10.48-7.83 28.53l.43-.47c-11.25-10.6-5.94-18.6-.32-22.67"/><path id="vsadbr" d="M576.35 924.53s-2.8-2.87-4.8-6.63a30.46 30.46 0 0 0-1.75 1.17c-.68.55-2.04 1.53-4.3 3.84l-.01-.01-.44.48-.43.48c1.6 1.5 3.53 3.06 5.83 4.67l1.32.52-.85-5.24z"/><path id="vsadbs" d="M569.55 906.99c-1.52 2.42-1.94 5.99.65 11.23.21.28.1.44-.4.86.48-.35.98-.7 1.5-1.02-1.84-2.98-3.77-7.47-1.75-11.07"/><path id="vsadbt" d="M575.82 902.64l-.03-.03c-.63.2-1.38.49-2.16.88.65-.31 1.37-.6 2.19-.85"/><path id="vsadbu" d="M565.05 923.38l.44-.48c-9.5-9.71-5.68-17.41-.77-22.18-5.6 4.07-10.92 12.06.33 22.66"/><clipPath id="vsadao"><use xlink:href="#vsada"/></clipPath><clipPath id="vsadaN"><use xlink:href="#vsadb"/></clipPath></defs><g><g transform="translate(-507 -738)"><g><use fill="#fcad98" xlink:href="#vsadc"/></g><g><use fill="#6f2c2c" xlink:href="#vsadd"/></g><g><use fill="#211300" xlink:href="#vsade"/></g><g><use fill="#6f2c2c" xlink:href="#vsadf"/></g><g><use fill="#864936" xlink:href="#vsadg"/></g><g><use fill="#511300" xlink:href="#vsadh"/></g><g><use fill="#370d00" xlink:href="#vsadi"/></g><g><use fill="#370d00" xlink:href="#vsadj"/></g><g><use fill="#511300" xlink:href="#vsadk"/></g><g><use fill="#370d00" xlink:href="#vsadl"/></g><g><use fill="#370d00" xlink:href="#vsadm"/></g><g><use fill="#370d00" xlink:href="#vsadn"/></g><g><use fill="#370d00" xlink:href="#vsado"/></g><g><use fill="#3baae2" xlink:href="#vsadp"/></g><g><use fill="#003455" xlink:href="#vsadq"/></g><g><use fill="#3baae2" xlink:href="#vsadr"/></g><g><use fill="#fefefe" xlink:href="#vsads"/></g><g><use fill="#003455" xlink:href="#vsadt"/></g><g><use fill="#fcad98" xlink:href="#vsadu"/></g><g/><g><use fill="#6f2c2c" xlink:href="#vsadv"/></g><g><use fill="#003455" xlink:href="#vsadw"/></g><g><use fill="#6f2c2c" xlink:href="#vsadx"/></g><g><use fill="#003455" xlink:href="#vsady"/></g><g><use fill="#211300" xlink:href="#vsadz"/></g><g><use fill="#fcad98" xlink:href="#vsadA"/></g><g><use fill="#fcad98" xlink:href="#vsadB"/></g><g><use fill="#fcad98" xlink:href="#vsadC"/></g><g><use fill="#42201b" xlink:href="#vsadD"/></g><g><use fill="#211300" xlink:href="#vsadE"/></g><g><use fill="#211300" xlink:href="#vsadF"/></g><g><use fill="#6f2c2c" xlink:href="#vsadG"/></g><g><use fill="#6f2c2c" xlink:href="#vsadH"/></g><g><use fill="#3baae2" xlink:href="#vsadI"/></g><g><use fill="#151716" xlink:href="#vsadJ"/></g><g><use fill="#151716" xlink:href="#vsadK"/></g><g><use fill="#6f2c2c" xlink:href="#vsadL"/></g><g><use fill="#6f2c2c" xlink:href="#vsadM"/></g><g><use fill="#6f2c2c" xlink:href="#vsadN"/></g><g><use fill="#6f2c2c" xlink:href="#vsadO"/></g><g><use fill="#6f2c2c" xlink:href="#vsadP"/></g><g><use fill="#6f2c2c" xlink:href="#vsadQ"/></g><g><use fill="#b1393a" xlink:href="#vsadR"/></g><g><use fill="#3baae2" xlink:href="#vsadS"/></g><g><use fill="#151716" xlink:href="#vsadT"/></g><g><use fill="#151716" xlink:href="#vsadU"/></g><g><use fill="#fefefe" xlink:href="#vsadV"/></g><g><use fill="#fefefe" xlink:href="#vsadW"/></g><g><use fill="#f46551" xlink:href="#vsadX"/></g><g><use fill="#b1393a" xlink:href="#vsadY"/></g><g><use fill="#211300" xlink:href="#vsadZ"/></g><g><use fill="#211300" xlink:href="#vsadaa"/></g><g><use fill="#fcad98" xlink:href="#vsadab"/></g><g><use fill="#fcad98" xlink:href="#vsadac"/></g><g><use fill="#86380f" xlink:href="#vsadad"/></g><g><use fill="#6f2c2c" xlink:href="#vsadae"/></g><g><use fill="#211300" xlink:href="#vsadaf"/></g><g><use fill="#6f2c2c" xlink:href="#vsadag"/></g><g><use fill="#6f2c2c" xlink:href="#vsadah"/></g><g><use fill="#211300" xlink:href="#vsadai"/></g><g><use fill="#420500" xlink:href="#vsadaj"/></g><g><use fill="#420500" xlink:href="#vsadak"/></g><g><use fill="#370d00" xlink:href="#vsadal"/></g><g><use fill="#211300" xlink:href="#vsadam"/></g><g><use fill="#420500" xlink:href="#vsadan"/></g><g><g/><g clip-path="url(#vsadao)"><use fill="#420500" xlink:href="#vsadap"/></g></g><g><use fill="#bf4b41" xlink:href="#vsadaq"/></g><g><use fill="#bf4b41" xlink:href="#vsadar"/></g><g><use fill="#bf4b41" xlink:href="#vsadas"/></g><g><use fill="#d0c2b4" xlink:href="#vsadat"/></g><g><use fill="#fff3e6" xlink:href="#vsadau"/></g><g><use fill="#211300" xlink:href="#vsadav"/></g><g><use fill="#6f2c2c" xlink:href="#vsadaw"/></g><g><use fill="#211300" xlink:href="#vsadax"/></g><g><use fill="#211300" xlink:href="#vsaday"/></g><g><use fill="#211300" xlink:href="#vsadaz"/></g><g><use fill="#211300" xlink:href="#vsadaA"/></g><g><use fill="#fefefe" xlink:href="#vsadaB"/></g><g><use fill="#fefefe" xlink:href="#vsadaC"/></g><g><use fill="#fefefe" xlink:href="#vsadaD"/></g><g><use fill="#fefefe" xlink:href="#vsadaE"/></g><g><use fill="#211300" xlink:href="#vsadaF"/></g><g><use fill="#211300" xlink:href="#vsadaG"/></g><g><use fill="#511300" xlink:href="#vsadaH"/></g><g><use fill="#370d00" xlink:href="#vsadaI"/></g><g><use fill="#370d00" xlink:href="#vsadaJ"/></g><g><use fill="#370d00" xlink:href="#vsadaK"/></g><g><use fill="#370d00" xlink:href="#vsadaL"/></g><g><use fill="#511300" xlink:href="#vsadaM"/></g><g><g/><g clip-path="url(#vsadaN)"><use fill="#370d00" xlink:href="#vsadaO"/></g></g><g><use fill="#370d00" xlink:href="#vsadaP"/></g><g><use fill="#370d00" xlink:href="#vsadaQ"/></g><g><use fill="#370d00" xlink:href="#vsadaR"/></g><g><use fill="#511300" xlink:href="#vsadaS"/></g><g><use fill="#370d00" xlink:href="#vsadaT"/></g><g><use fill="#511300" xlink:href="#vsadaU"/></g><g><use fill="#1e1108" xlink:href="#vsadaV"/></g><g><use fill="#370d00" xlink:href="#vsadaW"/></g><g><use fill="#370d00" xlink:href="#vsadaX"/></g><g><use fill="#370d00" xlink:href="#vsadaY"/></g><g><use fill="#ffecb8" xlink:href="#vsadaZ"/></g><g><use fill="#370d00" xlink:href="#vsadba"/></g><g><use fill="#ffecb8" xlink:href="#vsadbb"/></g><g><use fill="#370d00" xlink:href="#vsadbc"/></g><g><use fill="#370d00" xlink:href="#vsadbd"/></g><g><use fill="#370d00" xlink:href="#vsadbe"/></g><g><use fill="#fefefe" xlink:href="#vsadbf"/></g><g><use fill="#fefefe" xlink:href="#vsadbg"/></g><g><use fill="#fefefe" xlink:href="#vsadbh"/></g><g><use fill="#511300" xlink:href="#vsadbi"/></g><g><use fill="#370d00" xlink:href="#vsadbj"/></g><g><use fill="#370d00" xlink:href="#vsadbk"/></g><g><use fill="#370d00" xlink:href="#vsadbl"/></g><g><use fill="#370d00" xlink:href="#vsadbm"/></g><g><use fill="#fcad98" xlink:href="#vsadbn"/></g><g><use fill="#fbaea8" xlink:href="#vsadbo"/></g><g><use fill="#6f2c2c" xlink:href="#vsadbp"/></g><g><use fill="#6f2c2c" xlink:href="#vsadbq"/></g><g><use fill="#211300" xlink:href="#vsadbr"/></g><g><use fill="#6f2c2c" xlink:href="#vsadbs"/></g><g><use fill="#6f2c2c" xlink:href="#vsadbt"/></g><g><use fill="#6f2c2c" xlink:href="#vsadbu"/></g></g></g></svg>