<svg xmlns="http://www.w3.org/2000/svg" xmlns:xlink="http://www.w3.org/1999/xlink" width="40" height="40" viewBox="0 0 40 40"><defs><path id="y6yka" d="M1160 40a20 20 0 1 1 40 0 20 20 0 0 1-40 0z"/><path id="y6ykb" d="M1179.79 45.46h1.2s.35-.04.54-.22c.17-.17.16-.49.16-.49s-.02-1.47.72-1.69c.74-.21 1.68 1.43 2.68 2.06.75.47 1.33.37 1.33.37l2.67-.03s1.4-.08.73-1.1c-.05-.08-.38-.74-1.98-2.1-1.68-1.44-1.45-1.2.56-3.68 1.23-1.51 1.72-2.43 1.57-2.82-.15-.38-1.05-.28-1.05-.28l-3 .02s-.23-.03-.4.06c-.16.09-.26.3-.26.3s-.48 1.16-1.11 2.16c-1.34 2.09-1.88 2.2-2.1 2.07-.5-.3-.38-1.22-.38-1.87 0-2.03.34-2.87-.65-3.09a5.55 5.55 0 0 0-1.4-.13 7.04 7.04 0 0 0-2.5.24c-.34.15-.6.5-.44.51.2.03.65.12.88.42.31.38.3 1.25.3 1.25s.18 2.38-.41 2.68c-.4.2-.96-.21-2.16-2.11a17 17 0 0 1-1.07-2.05s-.09-.2-.25-.3c-.2-.13-.46-.18-.46-.18l-2.86.02s-.43.01-.58.18c-.15.16-.02.47-.02.47s2.24 4.82 4.78 7.25c2.32 2.22 4.96 2.08 4.96 2.08"/></defs><g><g transform="translate(-1160 -20)"><use fill="#383838" xlink:href="#y6yka"/></g><g transform="translate(-1160 -20)"><use fill="#fff" xlink:href="#y6ykb"/></g></g></svg>