<?xml version="1.0" standalone="no"?>
<!DOCTYPE svg PUBLIC "-//W3C//DTD SVG 1.1//EN" "http://www.w3.org/Graphics/SVG/1.1/DTD/svg11.dtd" >
<svg xmlns="http://www.w3.org/2000/svg" xmlns:xlink="http://www.w3.org/1999/xlink" version="1.1">
<metadata>
Created by FontForge 20170910 at Wed May 28 18:45:07 2014
 By Jimmy Wärting
Copyright (c) 2014 by Andriy Konstantynov. All rights reserved.
</metadata>
<defs>
<font id="ProbaPro-Regular" horiz-adv-x="220" >
  <font-face 
    font-family="Proba Pro"
    font-weight="400"
    font-stretch="normal"
    units-per-em="1000"
    panose-1="2 13 0 3 3 2 0 0 0 0"
    ascent="747"
    descent="-253"
    x-height="450"
    cap-height="700"
    bbox="-31 -257 1206 1001"
    underline-thickness="50"
    underline-position="-200"
    unicode-range="U+0020-FB03"
  />
<missing-glyph horiz-adv-x="230" 
 />
    <glyph glyph-name="ff" unicode="ff" horiz-adv-x="578" 
d="M425 0h-75v392h-179v-392h-76v392h-62v58h62v156q0 68 41 109.5t109 41.5q33 0 54 -10v-62q-17 10 -42 10q-39 0 -62.5 -25t-23.5 -64v-156h179v156q0 68 40.5 109.5t108.5 41.5q33 0 54 -10v-62q-17 10 -42 10q-39 0 -62.5 -25t-23.5 -64v-156h128v-58h-128v-392z" />
    <glyph glyph-name="fi" unicode="fi" horiz-adv-x="496" 
d="M422 0h-72v392h-179v-392h-76v392h-62v58h62v156q0 68 41 109.5t109 41.5q33 0 54 -10v-62q-17 10 -42 10q-39 0 -62.5 -25t-23.5 -64v-156h251v-450zM351 550q-14 15 -14 35t14 34q15 15 35 15t34 -15q15 -14 15 -34t-15 -35q-14 -14 -34 -14t-35 14z" />
    <glyph glyph-name="ffi" unicode="ffi" horiz-adv-x="750" 
d="M677 0h-73v392h-179v-392h-75v392h-179v-392h-76v392h-62v58h62v156q0 68 41 109.5t109 41.5q33 0 54 -10v-62q-17 10 -42 10q-39 0 -62.5 -25t-23.5 -64v-156h179v156q0 68 40.5 109.5t108.5 41.5q33 0 54 -10v-62q-17 10 -42 10q-39 0 -62.5 -25t-23.5 -64v-156h252
v-450zM640 634q21 0 35 -14.5t14 -34.5t-14 -34.5t-35 -14.5q-20 0 -34.5 14.5t-14.5 34.5t14.5 34.5t34.5 14.5z" />
    <glyph glyph-name="f_j" unicode="fj" horiz-adv-x="496" 
d="M294 -250v49q56 0 56 53v540h-179v-392h-76v392h-62v58h62v156q0 68 41 109.5t109 41.5q33 0 54 -10v-62q-17 10 -42 10q-39 0 -62.5 -25t-23.5 -64v-156h251v-600q0 -48 -25.5 -76t-69.5 -28q-25 0 -33 4zM351 550q-14 15 -14 35t14 34q15 15 35 15t34 -15
q15 -14 15 -34t-15 -35q-14 -14 -34 -14t-35 14z" />
    <glyph glyph-name="afii10104_afii10104" unicode="&#x457;&#x457;" horiz-adv-x="439" 
d="M146 0h-73v450h73v-450zM-13 560q-2 29 29 42t51 -9q22 -20 9 -51t-42 -29q-20 0 -33.5 13.5t-13.5 33.5zM366 0h-73v450h73v-450zM372 526q-14 14 -14 34t14 33q14 14 33 14t33 -14q14 -13 14 -33t-14 -34q-14 -13 -33 -13t-33 13zM186 526q-13 14 -13 34t13 33
q14 14 34 14t33 -14q14 -13 14 -33t-14 -34q-13 -13 -33 -13t-34 13z" />
    <glyph glyph-name="afii10103_afii10104" unicode="&#x456;&#x457;" horiz-adv-x="439" 
d="M146 0h-73v450h73v-450zM110 634q20 0 34.5 -14.5t14.5 -34.5t-14.5 -34.5t-34.5 -14.5q-21 0 -35 14.5t-14 34.5t14 34.5t35 14.5zM366 0h-73v450h73v-450zM215 560q0 19 13.5 32.5t33.5 13.5t33.5 -13.5t13.5 -32.5q0 -20 -13.5 -33.5t-33.5 -13.5t-33.5 13.5
t-13.5 33.5zM372 526q-14 14 -14 34t14 33q14 14 33 14t33 -14q14 -13 14 -33t-14 -34q-14 -13 -33 -13t-33 13z" />
    <glyph glyph-name="quoteright_afii10104" unicode="&#x2019;&#x457;" horiz-adv-x="304" 
d="M51 491l-26 26q40 38 47 73q-18 2 -30 15.5t-12 32.5q0 20 14.5 34.5t35.5 14.5t34.5 -15t13.5 -42q0 -64 -77 -139zM230 0h-73v450h73v-450zM269 607q20 0 33.5 -13.5t13.5 -33.5t-13.5 -33.5t-33.5 -13.5q-19 0 -32.5 13.5t-13.5 33.5t13.5 33.5t32.5 13.5z" />
    <glyph glyph-name="afii10056_afii10056" unicode="&#x407;&#x407;" horiz-adv-x="444" 
d="M149 0h-76v700h76v-700zM79 797q0 -19 -13.5 -32.5t-32.5 -13.5q-31 0 -43 28.5t10 50.5t50.5 10t28.5 -43zM371 0h-76v700h76v-700zM365 797q0 30 28.5 43t50.5 -10q23 -22 10 -50.5t-43 -28.5q-19 0 -32.5 13.5t-13.5 32.5zM175 797q0 20 13 33.5t33 13.5t34 -13.5
t14 -33.5q0 -19 -14 -32.5t-34 -13.5q-19 0 -32.5 13.5t-13.5 32.5z" />
    <glyph glyph-name="f_f_j" unicode="ffj" horiz-adv-x="750" 
d="M548 -250v49q56 0 56 53v540h-179v-392h-75v392h-179v-392h-76v392h-62v58h62v156q0 68 41 109.5t109 41.5q33 0 54 -10v-62q-17 10 -42 10q-39 0 -62.5 -25t-23.5 -64v-156h179v156q0 68 40.5 109.5t108.5 41.5q33 0 54 -10v-62q-17 10 -42 10q-39 0 -62.5 -25
t-23.5 -64v-156h252v-600q0 -48 -26 -76t-70 -28q-25 0 -33 4zM640 634q21 0 35 -14.5t14 -34.5t-14 -34.5t-35 -14.5q-20 0 -34.5 14.5t-14.5 34.5t14.5 34.5t34.5 14.5z" />
    <glyph glyph-name=".notdef" horiz-adv-x="230" 
 />
    <glyph glyph-name=".null" horiz-adv-x="0" 
 />
    <glyph glyph-name="nonmarkingreturn" horiz-adv-x="333" 
 />
    <glyph glyph-name="space" unicode=" " horiz-adv-x="230" 
 />
    <glyph glyph-name="exclam" unicode="!" 
d="M61 42q0 20 14 34.5t35 14.5q20 0 34.5 -14.5t14.5 -34.5q0 -21 -14.5 -35t-34.5 -14q-21 0 -35 14t-14 35zM146 192h-73v508h73v-508z" />
    <glyph glyph-name="quotedbl" unicode="&#x22;" horiz-adv-x="365" 
d="M137 450h-64v250h64v-250zM291 450h-63v250h63v-250z" />
    <glyph glyph-name="numbersign" unicode="#" horiz-adv-x="605" 
d="M406 0h-73l27 176h-171l-27 -176h-74l28 176h-76v58h85l37 232h-85v58h93l29 176h73l-29 -176h172l28 176h73l-28 -176h77v-58h-86l-37 -232h87v-58h-95zM406 466h-171l-37 -232h172z" />
    <glyph glyph-name="dollar" unicode="$" horiz-adv-x="530" 
d="M284 -100h-44v94q-121 7 -199 91l47 47q59 -67 152 -71v263q-72 27 -123 64q-59 46 -59 131q0 77 46 130t136 58v93h44v-95q102 -10 170 -80l-47 -48q-47 49 -123 60v-250q34 -13 46 -19l43 -21q28 -14 41 -27q66 -54 61 -127q0 -76 -50 -135q-49 -56 -141 -64v-94z
M284 306v-243q53 9 83 46t30 82q0 40 -27.5 66t-85.5 49zM135 521q0 -40 25 -66t80 -51v234q-49 -6 -77 -39.5t-28 -77.5z" />
    <glyph glyph-name="percent" unicode="%" horiz-adv-x="855" 
d="M281 0h-74l368 700h74zM210 707q75 0 122 -46.5t47 -122.5t-47 -122.5t-122 -46.5q-76 0 -123 46.5t-47 122.5t47 122.5t123 46.5zM135 619q-29 -32 -29 -81q0 -50 29 -82q28 -31 75 -31q46 0 74 31q29 32 29 82q0 49 -29 81t-74 32q-46 0 -75 -32zM645 331
q76 0 123 -46.5t47 -122.5t-47 -122.5t-123 -46.5q-75 0 -122 46.5t-47 122.5t47 122.5t122 46.5zM570 243q-28 -31 -28 -81q0 -51 28 -82t75 -31t75 31q29 32 29 82q0 49 -29 81t-75 32t-75 -32z" />
    <glyph glyph-name="ampersand" unicode="&#x26;" horiz-adv-x="603" 
d="M412 349h-76v62h227v-62h-76v-146q0 -94 -61 -152t-159 -58t-159 58q-60 59 -60 152q0 63 31 110t85 69q-86 44 -86 145q0 81 52 130q53 50 137 50t137 -50q52 -49 52 -130h-75q0 51 -31.5 83t-82.5 32q-50 0 -81.5 -32t-31.5 -83t31.5 -83.5t81.5 -32.5h29v-62h-29
q-64 0 -104 -40.5t-40 -105.5q0 -64 40 -104.5t104 -40.5q65 0 105 40t40 105v146z" />
    <glyph glyph-name="quotesingle" unicode="'" horiz-adv-x="210" 
d="M137 450h-64v250h64v-250z" />
    <glyph glyph-name="parenleft" unicode="(" horiz-adv-x="298" 
d="M247 757v-56q-46 0 -79 -127q-32 -130 -32 -324t32 -324q33 -127 79 -127v-56q-81 0 -133 142q-53 144 -53 365t53 365q52 142 133 142z" />
    <glyph glyph-name="parenright" unicode=")" horiz-adv-x="298" 
d="M51 701v56q81 0 133 -142q53 -144 53 -365t-53 -365q-52 -142 -133 -142v56q45 0 78 128q33 127 33 323t-33 323q-33 128 -78 128z" />
    <glyph glyph-name="asterisk" unicode="*" horiz-adv-x="446" 
d="M304 363l-81 113l-82 -114l-44 34l81 112l-132 43l17 53l132 -43v139h55v-139l133 44l17 -53l-133 -44l83 -113z" />
    <glyph glyph-name="plus" unicode="+" horiz-adv-x="436" 
d="M189 264h-128v58h128v128h58v-128h128v-58h-128v-128h-58v128z" />
    <glyph glyph-name="comma" unicode="," 
d="M82 -105l-26 26q40 40 46 73q-17 2 -29 15.5t-12 32.5q0 20 14 34.5t35 14.5t35 -14.5t14 -42.5q0 -62 -77 -139z" />
    <glyph glyph-name="hyphen" unicode="-" horiz-adv-x="340" 
d="M279 236h-218v58h218v-58z" />
    <glyph glyph-name="period" unicode="." 
d="M61 42q0 20 14 34.5t35 14.5q20 0 34.5 -14.5t14.5 -34.5q0 -21 -14.5 -35t-34.5 -14q-21 0 -35 14t-14 35z" />
    <glyph glyph-name="slash" unicode="/" horiz-adv-x="549" 
d="M127 -50h-74l369 800h74z" />
    <glyph glyph-name="zero" unicode="0" horiz-adv-x="565" 
d="M283 707q103 0 167 -99q65 -100 65 -258t-65 -258q-64 -99 -167 -99q-105 0 -169 99q-64 98 -64 258t64 258q64 99 169 99zM169 561q-43 -80 -43 -211t43 -211q43 -81 114 -81q69 0 113 81q44 82 44 211t-44 211q-44 81 -113 81q-71 0 -114 -81z" />
    <glyph glyph-name="one" unicode="1" horiz-adv-x="316" 
d="M143 635l-110 -21v59l182 31v-704h-72v635z" />
    <glyph glyph-name="two" unicode="2" horiz-adv-x="517" 
d="M50 0v65l304 303q40 41 40 118q0 69 -38.5 112t-99.5 43t-99.5 -43t-38.5 -112h-75q0 98 59 160q58 61 154 61t154 -61q59 -62 59 -160q0 -102 -64 -167l-256 -256h320v-63h-419z" />
    <glyph glyph-name="three" unicode="3" horiz-adv-x="532" 
d="M265 349h-46v62h46q50 0 82 32q32 34 32 84q0 51 -32 83t-82 32t-82 -32t-32 -83h-75q0 81 52 130q53 50 137 50q83 0 136 -50t53 -130q0 -101 -86 -145q54 -22 85 -69t31 -110q0 -94 -61 -152q-59 -58 -158 -58q-98 0 -159 58t-61 152h76q0 -65 40 -105t104 -40
t104 40.5t40 104.5q0 65 -40 105.5t-104 40.5z" />
    <glyph glyph-name="four" unicode="4" horiz-adv-x="548" 
d="M433 0h-73v136h-320v36l315 528h75v-501h63v-63h-60v-136zM362 589l-231 -390h231v390z" />
    <glyph glyph-name="five" unicode="5" horiz-adv-x="524" 
d="M469 214q0 -98 -59 -160q-58 -61 -154 -61t-154 57q-59 59 -59 150h73q0 -62 39 -101.5t101 -39.5q61 0 99.5 43t38.5 112q0 75 -43.5 122t-112.5 47q-73 0 -116 -43l-53 21l43 339h305v-63h-240l-30 -211q38 23 95 23q101 0 164 -65q63 -64 63 -170z" />
    <glyph glyph-name="six" unicode="6" horiz-adv-x="530" 
d="M293 707l62 -36q-100 -139 -169 -261q35 20 80 20q96 0 158 -60q61 -60 61 -158t-61 -159q-62 -60 -159 -60q-99 0 -160 61q-60 62 -60 164q0 92 58 198q31 58 190 291zM121 212q0 -68 40 -111t104 -43t104 43t40 111q0 69 -40 112t-104 43t-104 -43t-40 -112z" />
    <glyph glyph-name="seven" unicode="7" horiz-adv-x="523" 
d="M379 637h-329v63h423v-27l-253 -673h-78z" />
    <glyph glyph-name="eight" unicode="8" horiz-adv-x="535" 
d="M78 527q0 81 52 130q53 50 137 50t137 -50q52 -49 52 -130q0 -102 -85 -145q54 -22 85 -69t31 -110q0 -94 -61 -152t-159 -58t-159 58q-60 59 -60 152q0 63 30.5 110t84.5 69q-85 43 -85 145zM267 58q65 0 105 40t40 105t-40 105t-105 40q-64 0 -104 -40.5t-40 -104.5
t40 -104.5t104 -40.5zM267 412q51 0 82.5 32t31.5 83t-31.5 83t-82.5 32q-50 0 -81.5 -32t-31.5 -83t31.5 -83t81.5 -32z" />
    <glyph glyph-name="nine" unicode="9" horiz-adv-x="530" 
d="M237 -7l-62 36q100 139 169 261q-35 -20 -80 -20q-96 0 -158 60q-61 60 -61 158t61 158q61 61 159 61q99 0 159 -61q61 -61 61 -164q0 -92 -58 -198q-31 -58 -190 -291zM409 488q0 68 -40 111t-104 43t-104 -43t-40 -111q0 -69 40 -112t104 -43t104 43t40 112z" />
    <glyph glyph-name="colon" unicode=":" 
d="M61 42q0 20 14 34.5t35 14.5q20 0 34.5 -14.5t14.5 -34.5q0 -21 -14.5 -35t-34.5 -14q-21 0 -35 14t-14 35zM61 408q0 21 14 35t35 14q20 0 34.5 -14t14.5 -35q0 -20 -14.5 -34.5t-34.5 -14.5q-21 0 -35 14.5t-14 34.5z" />
    <glyph glyph-name="semicolon" unicode=";" 
d="M61 408q0 21 14 35t35 14q20 0 34.5 -14t14.5 -35q0 -20 -14.5 -34.5t-34.5 -14.5q-21 0 -35 14.5t-14 34.5zM82 -105l-26 26q40 40 46 73q-17 2 -29 15.5t-12 32.5q0 20 14 34.5t35 14.5t35 -14.5t14 -42.5q0 -62 -77 -139z" />
    <glyph glyph-name="less" unicode="&#x3c;" horiz-adv-x="410" 
d="M359 152l-43 -43l-280 191l280 191l43 -43l-220 -148z" />
    <glyph glyph-name="equal" unicode="=" horiz-adv-x="476" 
d="M415 326h-354v58h354v-58zM415 151h-354v59h354v-59z" />
    <glyph glyph-name="greater" unicode="&#x3e;" horiz-adv-x="410" 
d="M89 491l280 -191l-280 -191l-43 43l220 148l-220 148z" />
    <glyph glyph-name="question" unicode="?" horiz-adv-x="471" 
d="M86 586l-48 48q79 73 192 73q93 0 144 -53q52 -52 52 -127q0 -76 -55 -120q-2 -2 -13.5 -10.5t-14.5 -11t-13.5 -11.5t-14 -13t-11.5 -13.5t-11.5 -16t-9 -16.5t-7.5 -19.5t-4 -21.5t-2 -25v-57h-73v57q0 95 54 147q9 9 33 28.5t35 30.5t21.5 30.5t10.5 40.5
q0 49 -32.5 82.5t-89.5 33.5q-87 0 -143 -56zM184 42q0 20 14.5 34.5t34.5 14.5q21 0 35 -14.5t14 -34.5q0 -21 -14 -35t-35 -14q-20 0 -34.5 14t-14.5 35z" />
    <glyph glyph-name="at" unicode="@" horiz-adv-x="1040" 
d="M832 -74l46 -46q-62 -66 -154 -101.5t-200 -35.5q-213 0 -347 134q-132 133 -132 348t132 348q132 134 345 134t343 -127t130 -316q0 -145 -76 -213q-65 -58 -148 -58q-88 0 -116 52q-55 -52 -141 -52q-97 0 -157 64q-59 65 -59 168q0 104 64 168t169 64q124 0 187 -73
v-274q0 -24 18.5 -38t48.5 -14q53 0 93 48q41 50 41 150q0 166 -108 276t-288 110q-178 0 -291 -116q-111 -116 -111 -301t111 -301q113 -116 293 -116q92 0 173 31t134 87zM532 58q74 0 114 43v255q-44 36 -116 36q-70 0 -114 -47q-43 -46 -43 -120t44 -120.5t115 -46.5z
" />
    <glyph glyph-name="A" unicode="A" horiz-adv-x="749" 
d="M721 0h-87l-88 202h-343l-88 -202h-87l311 700h72zM518 270l-143 334l-144 -334h287z" />
    <glyph glyph-name="B" unicode="B" horiz-adv-x="545" 
d="M293 0h-217v700h191q84 0 135.5 -49t51.5 -131q0 -106 -82 -151q55 -18 87.5 -64.5t32.5 -111.5q0 -89 -55 -141t-144 -52zM417 198q0 58 -35 94t-92 36h-136v-262h136q57 0 92 36t35 96zM262 634h-108v-240h108q53 0 85 33t32 87t-32 87t-85 33z" />
    <glyph glyph-name="C" unicode="C" horiz-adv-x="699" 
d="M406 61q127 0 204 80l49 -47q-98 -101 -256 -101q-157 0 -255 99q-98 100 -98 258t98 258q98 99 255 99q158 0 256 -101l-49 -48q-76 81 -204 81q-124 0 -201 -80t-77 -209t77 -209t201 -80z" />
    <glyph glyph-name="D" unicode="D" horiz-adv-x="692" 
d="M290 0h-214v700h214q158 0 255 -96t97 -254t-97 -254t-255 -96zM290 634h-136v-568h136q123 0 198 78q76 77 76 206t-76 206q-75 78 -198 78z" />
    <glyph glyph-name="E" unicode="E" horiz-adv-x="498" 
d="M445 637h-294v-253h262v-63h-262v-258h299v-63h-374v700h369v-63z" />
    <glyph glyph-name="F" unicode="F" horiz-adv-x="472" 
d="M430 637h-279v-253h244v-63h-244v-321h-75v700h354v-63z" />
    <glyph glyph-name="G" unicode="G" horiz-adv-x="735" 
d="M584 306h-181v63h256v-276q-97 -100 -256 -100q-157 0 -255 99q-98 100 -98 258t98 258q98 99 255 99q158 0 256 -101l-49 -48q-76 81 -204 81q-124 0 -201 -80t-77 -209t77 -209t201 -80q107 0 178 59v186z" />
    <glyph glyph-name="H" unicode="H" horiz-adv-x="690" 
d="M76 700h75v-316h388v316h75v-700h-75v321h-388v-321h-75v700z" />
    <glyph glyph-name="I" unicode="I" horiz-adv-x="222" 
d="M149 0h-76v700h76v-700z" />
    <glyph glyph-name="J" unicode="J" horiz-adv-x="453" 
d="M304 190v510h75v-510q0 -88 -55 -143q-54 -54 -141 -54q-88 0 -143 55l49 49q35 -36 91 -36q55 0 89.5 35.5t34.5 93.5z" />
    <glyph glyph-name="K" unicode="K" horiz-adv-x="596" 
d="M149 0h-76v700h76v-700zM565 0h-97l-309 359l289 341h95l-289 -341z" />
    <glyph glyph-name="L" unicode="L" horiz-adv-x="465" 
d="M76 700h75v-637h274v-63h-349v700z" />
    <glyph glyph-name="M" unicode="M" horiz-adv-x="809" 
d="M733 0h-75v545l-237 -384h-33l-237 384v-545h-75v700h57l271 -433l271 433h58v-700z" />
    <glyph glyph-name="N" unicode="N" horiz-adv-x="713" 
d="M76 0v700h51l435 -558v558h75v-700h-51l-435 558v-558h-75z" />
    <glyph glyph-name="O" unicode="O" horiz-adv-x="805" 
d="M148 92q-98 100 -98 258t98 258q98 99 255 99q156 0 254 -99q98 -100 98 -258t-98 -258q-98 -99 -254 -99q-157 0 -255 99zM204 559q-76 -79 -76 -209t76 -209q77 -80 199 -80q121 0 198 80q76 79 76 209t-76 209q-77 80 -198 80q-122 0 -199 -80z" />
    <glyph glyph-name="P" unicode="P" horiz-adv-x="519" 
d="M154 0h-78v700h189q91 0 147 -54q57 -52 57 -142t-57 -142q-56 -53 -147 -53h-111v-309zM265 634h-111v-260h111q56 0 91 36t35 94t-35 94t-91 36z" />
    <glyph glyph-name="Q" unicode="Q" horiz-adv-x="805" 
d="M767 22l-48 -48l-91 92q-91 -73 -225 -73q-157 0 -255 99q-98 100 -98 258t98 258q98 99 255 99q156 0 254 -99q98 -100 98 -258q0 -142 -79 -236zM402 61q109 0 176 55l-115 115l47 48l109 -109q58 73 58 180q0 129 -77 209t-198 80t-198 -80q-76 -79 -76 -209t76 -209
q77 -80 198 -80z" />
    <glyph glyph-name="R" unicode="R" horiz-adv-x="534" 
d="M504 0h-86l-168 309h-96v-309h-78v700h196q92 0 148 -54q56 -53 56 -142q0 -74 -40 -124.5t-110 -65.5zM272 634h-118v-260h118q57 0 91.5 35.5t34.5 94.5t-34.5 94.5t-91.5 35.5z" />
    <glyph glyph-name="S" unicode="S" horiz-adv-x="530" 
d="M454 625l-47 -48q-25 27 -66.5 44.5t-81.5 17.5q-59 0 -91.5 -34.5t-32.5 -83.5q0 -79 120 -124l61.5 -22.5t56.5 -27t54.5 -38t33.5 -49.5t14 -67q0 -82 -56 -141t-159 -59q-133 0 -219 92l47 47q30 -33 74.5 -52t90.5 -19q71 0 107 41q37 40 37 89q0 76 -120 119
q-39 14 -60 22t-57 27.5t-54.5 39t-33.5 51t-14 69.5q0 78 49 133t145 55q123 0 202 -82z" />
    <glyph glyph-name="T" unicode="T" horiz-adv-x="557" 
d="M517 637h-201v-637h-75v637h-201v63h477v-63z" />
    <glyph glyph-name="U" unicode="U" horiz-adv-x="673" 
d="M522 255v445h75v-445q0 -117 -73 -190q-72 -72 -188 -72q-117 0 -189 72q-71 73 -71 190v445h75v-445q0 -87 51 -141q51 -53 133 -53t135 53q52 53 52 141z" />
    <glyph glyph-name="V" unicode="V" horiz-adv-x="749" 
d="M632 700h89l-310 -700h-72l-311 700h89l258 -602z" />
    <glyph glyph-name="W" unicode="W" horiz-adv-x="1133" 
d="M1018 700h87l-263 -700h-76l-200 571l-199 -571h-76l-263 700h87l214 -584l198 584h79l199 -584z" />
    <glyph glyph-name="X" unicode="X" horiz-adv-x="721" 
d="M690 0h-97l-233 303l-233 -303h-96l274 354l-267 346h97l225 -294l225 294h97l-268 -346z" />
    <glyph glyph-name="Y" unicode="Y" horiz-adv-x="667" 
d="M371 0h-76v302l-267 398h88l217 -323l218 323h87l-267 -399v-301z" />
    <glyph glyph-name="Z" unicode="Z" horiz-adv-x="625" 
d="M463 637h-406v63h515v-27l-413 -610h416v-63h-525v28z" />
    <glyph glyph-name="bracketleft" unicode="[" horiz-adv-x="297" 
d="M73 750h174v-58h-101v-884h101v-58h-174v1000z" />
    <glyph glyph-name="backslash" unicode="\" horiz-adv-x="549" 
d="M53 750h74l369 -800h-74z" />
    <glyph glyph-name="bracketright" unicode="]" horiz-adv-x="297" 
d="M151 692h-100v58h173v-1000h-173v58h100v884z" />
    <glyph glyph-name="asciicircum" unicode="^" horiz-adv-x="453" 
d="M36 485l190 190l191 -190l-38 -38l-153 152l-152 -152z" />
    <glyph glyph-name="underscore" unicode="_" horiz-adv-x="450" 
d="M450 -158h-450v58h450v-58z" />
    <glyph glyph-name="grave" unicode="`" horiz-adv-x="265" 
d="M51 637l38 38l125 -125l-38 -38z" />
    <glyph glyph-name="a" unicode="a" horiz-adv-x="453" 
d="M408 49v-49q-8 -4 -29 -4q-55 0 -75 48q-56 -51 -129 -51q-61 0 -95 35t-34 88q0 68 61 107t156 39q22 0 34 -3v55q0 34 -24.5 58.5t-66.5 24.5q-27 0 -54.5 -10.5t-43.5 -26.5l-40 40q56 57 144 57q73 0 115.5 -40.5t42.5 -102.5v-228q0 -37 38 -37zM197 53q60 0 100 43
v113q-18 2 -30 2q-66 0 -107 -24t-41 -64q0 -29 19.5 -49.5t58.5 -20.5z" />
    <glyph glyph-name="b" unicode="b" horiz-adv-x="539" 
d="M261 -7q-125 0 -188 73v684h73v-330q52 37 126 37q98 0 160 -65t62 -167q0 -104 -64 -168t-169 -64zM262 392q-72 0 -116 -48v-250q42 -36 116 -36q70 0 113 46q44 47 44 121q0 73 -44 120t-113 47z" />
    <glyph glyph-name="c" unicode="c" horiz-adv-x="478" 
d="M280 58q75 0 117 47l45 -45q-61 -67 -166 -67q-103 0 -167 64t-64 168t64 168t167 64t166 -68l-45 -45q-43 48 -117 48q-71 0 -115 -46.5t-44 -120.5t44 -120.5t115 -46.5z" />
    <glyph glyph-name="d" unicode="d" horiz-adv-x="541" 
d="M468 750v-750h-73v38q-55 -45 -133 -45q-97 0 -157 64q-60 65 -60 168t63 168q63 64 165 64q69 0 122 -33v326h73zM280 58q73 0 115 44v247q-43 43 -115 43q-71 0 -115 -46.5t-44 -120.5t44 -120.5t115 -46.5z" />
    <glyph glyph-name="e" unicode="e" horiz-adv-x="508" 
d="M465 206h-342q5 -67 48 -107.5t111 -40.5q76 0 120 47l44 -45q-64 -67 -168 -67q-105 0 -169 64t-64 170q0 101 59 166q60 64 156 64t150.5 -67t54.5 -184zM262 393q-57 0 -95 -36.5t-44 -98.5h269q-7 64 -40.5 99.5t-89.5 35.5z" />
    <glyph glyph-name="f" unicode="f" horiz-adv-x="324" 
d="M95 392h-62v58h62v156q0 68 41 109.5t109 41.5q33 0 54 -10v-62q-17 10 -42 10q-39 0 -62.5 -25t-23.5 -64v-156h128v-58h-128v-392h-76v392z" />
    <glyph glyph-name="g" unicode="g" horiz-adv-x="507" 
d="M23 -118q0 42 27.5 74.5t75.5 48.5q-58 25 -58 75q0 52 63 77q-78 37 -78 136q0 75 49 119.5t128 44.5q75 0 122 -40q34 40 77 40q15 0 25 -2v-59q-10 3 -21 3q-25 0 -46 -23q20 -35 20 -81q0 -72 -50 -117q-49 -45 -129 -45q-41 0 -65.5 -14.5t-24.5 -36.5t29.5 -36
t77.5 -14q96 0 154 -38t58 -100q0 -67 -66 -109q-65 -42 -164 -42q-93 0 -148.5 38t-55.5 101zM98 -118q0 -37 35 -59.5t94 -22.5q65 0 109 26q45 26 45 67q0 37 -37.5 59t-98.5 22q-67 0 -107 -25.5t-40 -66.5zM155 370q-29 -29 -29 -75t29 -75q31 -29 76 -29q46 0 75 29
q30 28 30 75t-30 75q-29 29 -75 29q-45 0 -76 -29z" />
    <glyph glyph-name="h" unicode="h" horiz-adv-x="523" 
d="M73 0v750h73v-338q54 45 132 45q77 0 123 -50.5t46 -133.5v-273h-72v273q0 53 -31.5 86t-81.5 33q-71 0 -116 -45v-347h-73z" />
    <glyph glyph-name="i" unicode="i" 
d="M146 0h-73v450h73v-450zM110 634q20 0 34.5 -14.5t14.5 -34.5t-14.5 -34.5t-34.5 -14.5q-21 0 -35 14.5t-14 34.5t14 34.5t35 14.5z" />
    <glyph glyph-name="j" unicode="j" 
d="M110 634q20 0 34.5 -14.5t14.5 -34.5t-14.5 -34.5t-34.5 -14.5q-21 0 -35 14.5t-14 34.5t14 34.5t35 14.5zM18 -250v49q55 0 55 53v598h73v-600q0 -48 -26 -76t-69 -28q-25 0 -33 4z" />
    <glyph glyph-name="k" unicode="k" horiz-adv-x="466" 
d="M146 232v-232h-73v750h73v-504l180 204h87l-188 -211l210 -239h-87z" />
    <glyph glyph-name="l" unicode="l" horiz-adv-x="247" 
d="M204 49v-49q-8 -4 -35 -4q-44 0 -70 28t-26 76v650h73v-648q0 -53 58 -53z" />
    <glyph glyph-name="m" unicode="m" horiz-adv-x="761" 
d="M688 0h-73v303q0 39 -23 64t-60 25q-73 0 -120 -44q5 -25 5 -45v-303h-73v303q0 39 -22.5 64t-59.5 25q-71 0 -116 -45v-347h-73v450h73v-38q54 45 132 45q77 0 115 -62q60 62 156 62q63 0 101 -42.5t38 -111.5v-303z" />
    <glyph glyph-name="n" unicode="n" horiz-adv-x="521" 
d="M73 0v450h73v-38q54 45 132 45q77 0 123 -50.5t46 -133.5v-273h-72v273q0 53 -31.5 86t-81.5 33q-71 0 -116 -45v-347h-73z" />
    <glyph glyph-name="o" unicode="o" horiz-adv-x="555" 
d="M109 57q-64 64 -64 168t64 168t169 64q103 0 168 -65q64 -64 64 -167q0 -104 -64 -168t-168 -64q-105 0 -169 64zM164 345q-43 -46 -43 -120q0 -75 43 -121t114 -46q70 0 113 46q44 47 44 121q0 73 -44 120t-113 47q-70 0 -114 -47z" />
    <glyph glyph-name="p" unicode="p" horiz-adv-x="541" 
d="M73 -250v700h73v-38q54 45 133 45q97 0 157 -65q60 -64 60 -167t-63 -168q-63 -64 -165 -64q-70 0 -122 33v-276h-73zM262 392q-71 0 -116 -45v-246q44 -43 116 -43q71 0 114 46q44 47 44 121q0 73 -44 120t-114 47z" />
    <glyph glyph-name="q" unicode="q" horiz-adv-x="539" 
d="M279 457q124 0 187 -73v-634h-73v280q-52 -37 -126 -37q-100 0 -161 64t-61 168t64 168t170 64zM121 225q0 -75 43 -121t114 -46q73 0 115 47v251q-43 36 -116 36q-70 0 -113 -46t-43 -121z" />
    <glyph glyph-name="r" unicode="r" horiz-adv-x="345" 
d="M268 456q3 0 29 -2v-64q-17 3 -34 3q-73 0 -117 -62v-331h-73v450h73v-55q52 61 122 61z" />
    <glyph glyph-name="s" unicode="s" horiz-adv-x="384" 
d="M324 404l-45 -45q-35 36 -87 36q-32 0 -49.5 -19t-17.5 -46q0 -26 21.5 -43.5t52.5 -29t62.5 -25t53 -40t21.5 -64.5q0 -54 -39 -95q-39 -40 -110 -40q-91 0 -148 60l46 45q38 -44 97 -44q39 0 60 21.5t21 51.5q0 25 -21.5 42t-52.5 28t-62.5 25t-53 41t-21.5 66
q0 56 35.5 92t99.5 36q86 0 137 -53z" />
    <glyph glyph-name="t" unicode="t" horiz-adv-x="319" 
d="M88 392h-58v58h58v100h75v-100h121v-58h-121v-253q0 -37 22 -60.5t58 -23.5q24 0 41 10v-62q-21 -10 -53 -10q-66 0 -104.5 40t-38.5 106v253z" />
    <glyph glyph-name="u" unicode="u" horiz-adv-x="531" 
d="M386 450h72v-265q0 -86 -54 -139q-53 -53 -139 -53t-139 53t-53 139v265h76v-265q0 -56 33 -91.5t85 -35.5q53 0 86 35.5t33 91.5v265z" />
    <glyph glyph-name="v" unicode="v" horiz-adv-x="529" 
d="M422 450h81l-204 -450h-69l-204 450h81l158 -360z" />
    <glyph glyph-name="w" unicode="w" horiz-adv-x="792" 
d="M683 450h83l-174 -450h-76l-120 348l-120 -348h-76l-174 450h83l129 -362l121 362h74l121 -362z" />
    <glyph glyph-name="x" unicode="x" horiz-adv-x="513" 
d="M482 0h-85l-141 183l-141 -183h-84l178 229l-171 221h85l133 -173l134 173h85l-172 -221z" />
    <glyph glyph-name="y" unicode="y" horiz-adv-x="529" 
d="M422 450h81l-321 -700h-81l129 250l-204 450h81l158 -363z" />
    <glyph glyph-name="z" unicode="z" horiz-adv-x="470" 
d="M314 392h-260v58h366v-27l-264 -365h264v-58h-370v28z" />
    <glyph glyph-name="braceleft" unicode="{" horiz-adv-x="318" 
d="M278 -201v-56q-67 0 -112 62q-45 61 -45 157v95q0 71 -24 117q-23 47 -57 47v56q34 0 57.5 46.5t23.5 116.5v98q0 96 45 157q45 62 112 62v-56q-34 0 -57.5 -46.5t-23.5 -116.5v-98q0 -67 -22.5 -117t-62.5 -74q40 -24 62.5 -74.5t22.5 -117.5v-95q0 -70 23.5 -116.5
t57.5 -46.5z" />
    <glyph glyph-name="bar" unicode="|" 
d="M146 -250h-73v1000h73v-1000z" />
    <glyph glyph-name="braceright" unicode="}" horiz-adv-x="318" 
d="M40 -257v56q34 0 57.5 46.5t23.5 116.5v95q0 67 22.5 117.5t62.5 74.5q-40 24 -62.5 74t-22.5 117v98q0 70 -23.5 116.5t-57.5 46.5v56q67 0 112 -62q45 -61 45 -157v-98q0 -70 23.5 -116.5t57.5 -46.5v-56q-34 0 -58 -47q-23 -48 -23 -117v-95q0 -96 -45 -157
q-45 -62 -112 -62z" />
    <glyph glyph-name="asciitilde" unicode="~" horiz-adv-x="433" 
d="M85 249h-49q0 47 30 77t76 30q40 0 80 -32t68 -32q25 0 41 16.5t16 43.5h50q0 -48 -30 -78t-77 -30q-27 0 -48 10t-32.5 22.5t-29 22.5t-37.5 10q-25 0 -41.5 -16.5t-16.5 -43.5z" />
    <glyph glyph-name="exclamdown" unicode="&#xa1;" 
d="M61 408q0 21 14 35t35 14q20 0 34.5 -14t14.5 -35q0 -20 -14.5 -34.5t-34.5 -14.5q-21 0 -35 14.5t-14 34.5zM73 -250v508h73v-508h-73z" />
    <glyph glyph-name="cent" unicode="&#xa2;" horiz-adv-x="478" 
d="M287 -100h-44v95q-90 11 -144 73t-54 157t54 156q54 64 144 74v95h44v-93q95 -5 155 -68l-45 -45q-42 45 -110 48v-334q69 2 110 47l45 -45q-60 -63 -155 -67v-93zM243 61v327q-56 -11 -89 -55t-33 -108t33 -108t89 -56z" />
    <glyph glyph-name="sterling" unicode="&#xa3;" horiz-adv-x="512" 
d="M116 321h-76v58h76v131q0 88 54 142q55 55 142 55q88 0 143 -55l-49 -49q-33 36 -91 36q-55 0 -89.5 -35.5t-34.5 -93.5v-131h178v-58h-178v-204q27 -6 75 -34q49 -28 80 -28q26 0 42.5 16.5t16.5 42.5h59q0 -54 -32.5 -87.5t-83.5 -33.5q-44 0 -103 33q-58 34 -89 34
q-26 0 -42.5 -16.5t-16.5 -43.5h-59q0 44 21 74.5t57 41.5v205z" />
    <glyph glyph-name="currency" unicode="&#xa4;" horiz-adv-x="529" 
d="M96 300q0 58 28 99l-84 84l42 41l84 -84q44 29 99 29t98 -29l85 84l41 -41l-84 -84q29 -41 29 -99q0 -59 -29 -100l83 -83l-41 -41l-84 84q-41 -29 -98 -29q-58 0 -99 29l-84 -84l-41 41l83 83q-28 41 -28 100zM190 381q-29 -32 -29 -81q0 -50 29 -82q28 -31 75 -31
q46 0 74 31q29 32 29 82q0 49 -29 81t-74 32q-46 0 -75 -32z" />
    <glyph glyph-name="yen" unicode="&#xa5;" horiz-adv-x="667" 
d="M295 221h-140v44h140v37l-267 398h88l217 -323l218 323h87l-267 -399v-36h140v-44h-140v-84h140v-44h-140v-93h-76v93h-140v44h140v84z" />
    <glyph glyph-name="brokenbar" unicode="&#xa6;" 
d="M146 -250h-73v450h73v-450zM73 750h73v-450h-73v450z" />
    <glyph glyph-name="section" unicode="&#xa7;" horiz-adv-x="423" 
d="M161 439l204 -205l-48 -48l-207 206q-65 65 -65 146q0 76 50.5 122.5t132.5 46.5q97 0 155 -67l-47 -47q-39 48 -108 48q-47 0 -77 -29t-30 -74q0 -62 40 -99zM262 11l-204 205l48 48l207 -206q65 -65 65 -146q0 -76 -50.5 -122.5t-132.5 -46.5q-96 0 -154 67l46 47
q41 -48 108 -48q47 0 77.5 29t30.5 74q0 55 -41 99z" />
    <glyph glyph-name="dieresis" unicode="&#xa8;" horiz-adv-x="427" 
d="M71 573q0 19 13.5 32.5t32.5 13.5q31 0 43 -28.5t-10 -50.5t-50.5 -10t-28.5 43zM272 540q-14 14 -14 33t14 33t33 14t33 -14t14 -33t-14 -33t-33 -14t-33 14z" />
    <glyph glyph-name="copyright" unicode="&#xa9;" horiz-adv-x="805" 
d="M148 92q-98 100 -98 258t98 258q98 99 255 99q156 0 254 -99q98 -100 98 -258t-98 -258q-98 -99 -254 -99q-157 0 -255 99zM403 38q130 0 213 86q82 86 82 226t-82 225q-82 87 -213 87t-214 -87q-82 -85 -82 -225t82 -226q83 -86 214 -86zM412 212q61 0 97 38l29 -28
q-50 -51 -128 -51q-79 0 -128 49t-49 130q0 80 49 129q50 50 128 50t128 -51l-29 -28q-36 38 -97 38q-59 0 -95.5 -38t-36.5 -100t36.5 -100t95.5 -38z" />
    <glyph glyph-name="ordfeminine" unicode="&#xaa;" horiz-adv-x="260" 
d="M232 483v-31q-10 -2 -18 -2q-33 0 -44 26q-28 -28 -70 -28q-33 0 -52 19.5t-19 48.5q0 38 33 60t85 22q9 0 19 -2v26q0 18 -13 31t-34 13q-33 0 -53 -20l-25 25q33 33 81 33q41 0 65.5 -23t24.5 -59v-119q0 -20 20 -20zM115 486q30 0 51 22v56q-10 2 -16 2
q-33 0 -53.5 -12t-20.5 -33q0 -14 9.5 -24.5t29.5 -10.5z" />
    <glyph glyph-name="guillemotleft" unicode="&#xab;" horiz-adv-x="470" 
d="M244 117l-38 -38l-170 171l170 171l38 -38l-132 -133zM414 117l-38 -38l-171 171l171 171l38 -38l-133 -133z" />
    <glyph glyph-name="logicalnot" unicode="&#xac;" horiz-adv-x="500" 
d="M381 271h-320v58h378v-173h-58v115z" />
    <glyph glyph-name="uni00AD" unicode="&#xad;" horiz-adv-x="340" 
d="M279 236h-218v58h218v-58z" />
    <glyph glyph-name="registered" unicode="&#xae;" horiz-adv-x="805" 
d="M148 92q-98 100 -98 258t98 258q98 99 255 99q156 0 254 -99q98 -100 98 -258t-98 -258q-98 -99 -254 -99q-157 0 -255 99zM403 38q130 0 213 86q82 86 82 226t-82 225q-82 87 -213 87t-214 -87q-82 -85 -82 -225t82 -226q83 -86 214 -86zM525 174h-52l-80 151h-43v-151
h-47v350h102q47 0 76 -27.5t29 -72.5q0 -76 -72 -95zM405 484h-55v-120h55q26 0 42 16.5t16 43.5t-16 43.5t-42 16.5z" />
    <glyph glyph-name="overscore" unicode="&#xaf;" horiz-adv-x="376" 
d="M310 543h-244v47h244v-47z" />
    <glyph glyph-name="degree" unicode="&#xb0;" horiz-adv-x="290" 
d="M73 529q-28 28 -28 74t28 74t73 28t72 -28q28 -28 28 -74t-28 -74q-27 -28 -72 -28t-73 28zM146 541q26 0 43 16.5t17 44.5t-17 45t-43 17q-27 0 -43.5 -17t-16.5 -45t16.5 -44.5t43.5 -16.5z" />
    <glyph glyph-name="plusminus" unicode="&#xb1;" horiz-adv-x="436" 
d="M189 273h-128v59h128v128h58v-128h128v-59h-128v-127h-58v127zM375 55h-314v58h314v-58z" />
    <glyph glyph-name="twosuperior" unicode="&#xb2;" horiz-adv-x="279" 
d="M33 350v38l150 150q19 19 19 54q0 32 -17.5 52t-45.5 20q-29 0 -46.5 -20t-17.5 -52h-45q0 50 30 81t79 31q48 0 78 -31t30 -81t-33 -83l-121 -121h154v-38h-214z" />
    <glyph glyph-name="threesuperior" unicode="&#xb3;" horiz-adv-x="287" 
d="M143 521h-23v37h23q24 0 38.5 15t14.5 39q0 23 -14.5 37.5t-38.5 14.5q-23 0 -37.5 -14.5t-14.5 -37.5h-46q0 40 27.5 66t70.5 26q44 0 71 -25.5t27 -66.5q0 -50 -40 -72q54 -26 54 -87q0 -48 -31 -77.5t-81 -29.5t-80.5 29.5t-30.5 77.5h45q0 -30 18.5 -48.5t47.5 -18.5
q30 0 48.5 18.5t18.5 48.5t-18.5 49t-48.5 19z" />
    <glyph glyph-name="acute" unicode="&#xb4;" horiz-adv-x="265" 
d="M89 512l-38 38l125 125l38 -38z" />
    <glyph glyph-name="mu" unicode="&#xb5;" horiz-adv-x="531" 
d="M18 -200v49q55 0 55 53v548h76v-265q0 -56 33 -91.5t85 -35.5q53 0 86 35.5t33 91.5v265h72v-265q0 -86 -54 -139q-53 -53 -139 -53q-69 0 -119 36v-129q0 -48 -26 -76t-69 -28q-25 0 -33 4z" />
    <glyph glyph-name="paragraph" unicode="&#xb6;" horiz-adv-x="574" 
d="M252 700h101v-700h-71v318h-30q-90 0 -144.5 52t-54.5 139t54.5 139t144.5 52zM501 0h-71v700h71v-700z" />
    <glyph glyph-name="middot" unicode="&#xb7;" 
d="M110 299q20 0 34.5 -14.5t14.5 -34.5t-14.5 -34.5t-34.5 -14.5q-21 0 -35 14.5t-14 34.5t14 34.5t35 14.5z" />
    <glyph glyph-name="cedilla" unicode="&#xb8;" horiz-adv-x="264" 
d="M105 0h35v-59q30 -5 47.5 -25t17.5 -51q0 -35 -23 -58q-22 -22 -60 -22t-60 25l25 25q21 -22 53.5 -11t29.5 42q0 47 -65 47v87z" />
    <glyph glyph-name="onesuperior" unicode="&#xb9;" horiz-adv-x="182" 
d="M81 661l-55 -10v35l99 16v-352h-44v311z" />
    <glyph glyph-name="ordmasculine" unicode="&#xba;" horiz-adv-x="316" 
d="M65 483q-36 36 -36 93q0 58 36 92q36 36 93 36q58 0 92 -36q36 -34 36 -92q0 -57 -36 -93q-35 -35 -92 -35q-56 0 -93 35zM77 576q0 -39 22.5 -62.5t58.5 -23.5t58.5 23.5t22.5 62.5q0 38 -22.5 62t-58.5 24t-58.5 -24t-22.5 -62z" />
    <glyph glyph-name="guillemotright" unicode="&#xbb;" horiz-adv-x="470" 
d="M258 421l171 -171l-171 -171l-38 38l133 133l-133 133zM89 421l171 -171l-171 -171l-38 38l133 133l-133 133z" />
    <glyph glyph-name="onequarter" unicode="&#xbc;" horiz-adv-x="634" 
d="M81 661l-55 -10v35l99 16v-352h-44v311zM153 0h-55l368 700h55zM568 0h-44v66h-158v20l156 264h45v-247h31v-37h-30v-66zM526 283l-104 -180h104v180z" />
    <glyph glyph-name="onehalf" unicode="&#xbd;" horiz-adv-x="686" 
d="M81 661l-55 -10v35l99 16v-352h-44v311zM153 0h-55l368 700h55zM440 0v38l150 150q18 18 18 54q0 32 -17 52t-45 20q-29 0 -46.5 -20t-17.5 -52h-46q0 50 30.5 81t79.5 31q48 0 78 -31t30 -81q0 -52 -34 -83l-120 -121h154v-38h-214z" />
    <glyph glyph-name="threequarters" unicode="&#xbe;" horiz-adv-x="652" 
d="M143 521h-23v37h23q24 0 38.5 15t14.5 39q0 23 -14.5 37.5t-38.5 14.5q-23 0 -37.5 -14.5t-14.5 -37.5h-46q0 40 27.5 66t70.5 26q44 0 71 -25.5t27 -66.5q0 -50 -40 -72q54 -26 54 -87q0 -48 -31 -77.5t-81 -29.5t-80.5 29.5t-30.5 77.5h45q0 -30 18.5 -48.5t47.5 -18.5
q30 0 48.5 18.5t18.5 48.5t-18.5 49t-48.5 19zM586 0h-44v66h-158v20l156 264h44v-247h31v-37h-29v-66zM544 283l-105 -180h105v180zM196 0h-56l368 700h56z" />
    <glyph glyph-name="questiondown" unicode="&#xbf;" horiz-adv-x="471" 
d="M385 -136l48 -48q-79 -73 -192 -73q-92 0 -145 53q-51 52 -51 127q0 76 55 119q2 1 19.5 15t21.5 18t18 17t18 21.5t12 23t10.5 30.5t2.5 34v57h72v-57q0 -95 -54 -147q-10 -9 -32.5 -28.5t-34 -30.5t-22 -30.5t-10.5 -40.5q0 -49 32 -82.5t90 -33.5q39 0 78 15.5
t64 40.5zM287 408q0 -20 -14.5 -34.5t-34.5 -14.5t-34.5 14.5t-14.5 34.5q0 21 14.5 35t34.5 14t34.5 -14t14.5 -35z" />
    <glyph glyph-name="Agrave" unicode="&#xc0;" horiz-adv-x="749" 
d="M721 0h-87l-88 202h-343l-88 -202h-87l311 700h72zM518 270l-143 334l-144 -334h287zM273 862l38 38l125 -125l-38 -38z" />
    <glyph glyph-name="Aacute" unicode="&#xc1;" horiz-adv-x="749" 
d="M721 0h-87l-88 202h-343l-88 -202h-87l311 700h72zM518 270l-143 334l-144 -334h287zM351 737l-38 38l125 125l38 -38z" />
    <glyph glyph-name="Acircumflex" unicode="&#xc2;" horiz-adv-x="749" 
d="M721 0h-87l-88 202h-343l-88 -202h-87l311 700h72zM518 270l-143 334l-144 -334h287zM249 775l126 125l125 -125l-38 -38l-87 87l-88 -87z" />
    <glyph glyph-name="Atilde" unicode="&#xc3;" horiz-adv-x="749" 
d="M721 0h-87l-88 202h-343l-88 -202h-87l311 700h72zM518 270l-143 334l-144 -334h287zM279 764h-43q0 39 24 63t60 24q30 0 59 -24t49 -24q18 0 30 12.5t12 31.5h42q0 -39 -23 -63t-61 -24q-32 0 -60 24q-29 24 -47 24q-19 0 -30.5 -12t-11.5 -32z" />
    <glyph glyph-name="Adieresis" unicode="&#xc4;" horiz-adv-x="749" 
d="M721 0h-87l-88 202h-343l-88 -202h-87l311 700h72zM518 270l-143 334l-144 -334h287zM327 797q0 -19 -13.5 -32.5t-32.5 -13.5q-31 0 -43 28.5t10 50.5t50.5 10t28.5 -43zM421 797q0 20 13.5 33.5t33.5 13.5t33.5 -13.5t13.5 -33.5q0 -19 -13.5 -32.5t-33.5 -13.5
t-33.5 13.5t-13.5 32.5z" />
    <glyph glyph-name="Aring" unicode="&#xc5;" horiz-adv-x="749" 
d="M721 0h-87l-88 202h-343l-88 -202h-87l311 700h72zM518 270l-143 334l-144 -334h287zM375 910q40 0 63.5 -24.5t23.5 -65.5q0 -40 -23.5 -64.5t-63.5 -24.5q-39 0 -63.5 24.5t-24.5 64.5t24.5 65t63.5 25zM337 859q-15 -15 -15 -39t15 -39t38 -15t38 15t15 39t-15 39
t-38 15t-38 -15z" />
    <glyph glyph-name="AE" unicode="&#xc6;" horiz-adv-x="772" 
d="M721 637h-271v-253h239v-63h-239v-258h276v-63h-351v202h-172l-88 -202h-87l311 700h382v-63zM375 604l-144 -334h144v334z" />
    <glyph glyph-name="Ccedilla" unicode="&#xc7;" horiz-adv-x="699" 
d="M406 61q127 0 204 80l49 -47q-92 -95 -241 -101v-52q66 -12 66 -76q0 -35 -23 -58q-22 -22 -60 -22t-60 25l25 25q23 -23 52.5 -11t29.5 42q0 47 -64 47v81q-150 6 -242 104t-92 252q0 158 98 258q98 99 255 99q158 0 256 -101l-49 -48q-76 81 -204 81q-124 0 -201 -80
t-77 -209t77 -209t201 -80z" />
    <glyph glyph-name="Egrave" unicode="&#xc8;" horiz-adv-x="498" 
d="M445 637h-294v-253h262v-63h-262v-258h299v-63h-374v700h369v-63zM160 862l38 38l125 -125l-38 -38z" />
    <glyph glyph-name="Eacute" unicode="&#xc9;" horiz-adv-x="498" 
d="M445 637h-294v-253h262v-63h-262v-258h299v-63h-374v700h369v-63zM238 737l-38 38l125 125l38 -38z" />
    <glyph glyph-name="Ecircumflex" unicode="&#xca;" horiz-adv-x="498" 
d="M137 775l125 125l125 -125l-38 -38l-87 87l-87 -87zM445 637h-294v-253h262v-63h-262v-258h299v-63h-374v700h369v-63z" />
    <glyph glyph-name="Edieresis" unicode="&#xcb;" horiz-adv-x="498" 
d="M445 637h-294v-253h262v-63h-262v-258h299v-63h-374v700h369v-63zM134 764q-13 14 -13 33t13 33q14 14 34 14t33 -14q14 -14 14 -33t-14 -33q-13 -13 -33 -13t-34 13zM309 797q0 30 28.5 43t50.5 -10q23 -22 10 -50.5t-43 -28.5q-19 0 -32.5 13.5t-13.5 32.5z" />
    <glyph glyph-name="Igrave" unicode="&#xcc;" horiz-adv-x="222" 
d="M10 862l38 38l125 -125l-38 -38zM149 0h-76v700h76v-700z" />
    <glyph glyph-name="Iacute" unicode="&#xcd;" horiz-adv-x="222" 
d="M88 737l-38 38l125 125l38 -38zM149 0h-76v700h76v-700z" />
    <glyph glyph-name="Icircumflex" unicode="&#xce;" horiz-adv-x="222" 
d="M-14 775l125 125l125 -125l-38 -38l-87 87l-87 -87zM149 0h-76v700h76v-700z" />
    <glyph glyph-name="Idieresis" unicode="&#xcf;" horiz-adv-x="222" 
d="M149 0h-76v700h76v-700zM79 797q0 -19 -13.5 -32.5t-32.5 -13.5q-31 0 -43 28.5t10 50.5t50.5 10t28.5 -43zM143 797q0 30 28.5 43t50.5 -10q23 -22 10 -50.5t-43 -28.5q-19 0 -32.5 13.5t-13.5 32.5z" />
    <glyph glyph-name="Eth" unicode="&#xd0;" horiz-adv-x="708" 
d="M101 321h-55v58h55v321h204q157 0 255 -96q97 -96 97 -254t-97 -254q-98 -96 -255 -96h-204v321zM305 634h-126v-255h161v-58h-161v-255h126q123 0 198 78q76 77 76 206t-76 206q-75 78 -198 78z" />
    <glyph glyph-name="Ntilde" unicode="&#xd1;" horiz-adv-x="713" 
d="M76 0v700h51l435 -558v558h75v-700h-51l-435 558v-558h-75zM260 764h-42q0 39 23.5 63t60.5 24q32 0 60 -24q29 -24 47 -24q19 0 30.5 12t11.5 32h43q0 -39 -23.5 -63t-61.5 -24q-31 0 -60 24q-27 24 -46 24t-31 -12t-12 -32z" />
    <glyph glyph-name="Ograve" unicode="&#xd2;" horiz-adv-x="805" 
d="M148 92q-98 100 -98 258t98 258q98 99 255 99q156 0 254 -99q98 -100 98 -258t-98 -258q-98 -99 -254 -99q-157 0 -255 99zM204 559q-76 -79 -76 -209t76 -209q77 -80 199 -80q121 0 198 80q76 79 76 209t-76 209q-77 80 -198 80q-122 0 -199 -80zM301 862l38 38
l125 -125l-38 -38z" />
    <glyph glyph-name="Oacute" unicode="&#xd3;" horiz-adv-x="805" 
d="M148 92q-98 100 -98 258t98 258q98 99 255 99q156 0 254 -99q98 -100 98 -258t-98 -258q-98 -99 -254 -99q-157 0 -255 99zM204 559q-76 -79 -76 -209t76 -209q77 -80 199 -80q121 0 198 80q76 79 76 209t-76 209q-77 80 -198 80q-122 0 -199 -80zM379 737l-38 38
l125 125l38 -38z" />
    <glyph glyph-name="Ocircumflex" unicode="&#xd4;" horiz-adv-x="805" 
d="M148 92q-98 100 -98 258t98 258q98 99 255 99q156 0 254 -99q98 -100 98 -258t-98 -258q-98 -99 -254 -99q-157 0 -255 99zM204 559q-76 -79 -76 -209t76 -209q77 -80 199 -80q121 0 198 80q76 79 76 209t-76 209q-77 80 -198 80q-122 0 -199 -80zM277 775l126 125
l125 -125l-38 -38l-87 87l-88 -87z" />
    <glyph glyph-name="Otilde" unicode="&#xd5;" horiz-adv-x="805" 
d="M148 92q-98 100 -98 258t98 258q98 99 255 99q156 0 254 -99q98 -100 98 -258t-98 -258q-98 -99 -254 -99q-157 0 -255 99zM204 559q-76 -79 -76 -209t76 -209q77 -80 199 -80q121 0 198 80q76 79 76 209t-76 209q-77 80 -198 80q-122 0 -199 -80zM307 764h-43
q0 39 23.5 63t60.5 24q30 0 59 -24t49 -24q18 0 30 12.5t12 31.5h42q0 -39 -23 -63t-61 -24q-32 0 -60 24q-29 24 -47 24q-19 0 -30.5 -12t-11.5 -32z" />
    <glyph glyph-name="Odieresis" unicode="&#xd6;" horiz-adv-x="805" 
d="M148 92q-98 100 -98 258t98 258q98 99 255 99q156 0 254 -99q98 -100 98 -258t-98 -258q-98 -99 -254 -99q-157 0 -255 99zM204 559q-76 -79 -76 -209t76 -209q77 -80 199 -80q121 0 198 80q76 79 76 209t-76 209q-77 80 -198 80q-122 0 -199 -80zM355 797
q0 -19 -13.5 -32.5t-32.5 -13.5q-31 0 -43 28.5t10 50.5t50.5 10t28.5 -43zM449 797q0 20 13.5 33.5t33.5 13.5t33.5 -13.5t13.5 -33.5q0 -19 -13.5 -32.5t-33.5 -13.5t-33.5 13.5t-13.5 32.5z" />
    <glyph glyph-name="multiply" unicode="&#xd7;" horiz-adv-x="436" 
d="M218 249l-118 -118l-42 41l118 118l-118 119l42 41l118 -118l118 118l41 -41l-118 -119l118 -118l-41 -41z" />
    <glyph glyph-name="Oslash" unicode="&#xd8;" horiz-adv-x="805" 
d="M132 -7h-79l90 104q-93 97 -93 253q0 158 98 258q98 99 255 99q123 0 214 -65l56 65h79l-90 -104q93 -99 93 -253q0 -158 -98 -258q-98 -99 -254 -99q-127 0 -215 64zM677 350q0 116 -65 196l-376 -433q68 -52 167 -52q121 0 198 80q76 79 76 209zM128 350
q0 -116 65 -196l376 433q-70 52 -166 52q-122 0 -199 -80q-76 -79 -76 -209z" />
    <glyph glyph-name="Ugrave" unicode="&#xd9;" horiz-adv-x="673" 
d="M522 255v445h75v-445q0 -117 -73 -190q-72 -72 -188 -72q-117 0 -189 72q-71 73 -71 190v445h75v-445q0 -87 51 -141q51 -53 133 -53t135 53q52 53 52 141zM235 862l38 38l125 -125l-38 -38z" />
    <glyph glyph-name="Uacute" unicode="&#xda;" horiz-adv-x="673" 
d="M522 255v445h75v-445q0 -117 -73 -190q-72 -72 -188 -72q-117 0 -189 72q-71 73 -71 190v445h75v-445q0 -87 51 -141q51 -53 133 -53t135 53q52 53 52 141zM313 737l-38 38l125 125l38 -38z" />
    <glyph glyph-name="Ucircumflex" unicode="&#xdb;" horiz-adv-x="673" 
d="M522 255v445h75v-445q0 -117 -73 -190q-72 -72 -188 -72q-117 0 -189 72q-71 73 -71 190v445h75v-445q0 -87 51 -141q51 -53 133 -53t135 53q52 53 52 141zM211 775l125 125l126 -125l-38 -38l-88 87l-87 -87z" />
    <glyph glyph-name="Udieresis" unicode="&#xdc;" horiz-adv-x="673" 
d="M522 255v445h75v-445q0 -117 -73 -190q-72 -72 -188 -72q-117 0 -189 72q-71 73 -71 190v445h75v-445q0 -87 51 -141q51 -53 133 -53t135 53q52 53 52 141zM289 797q0 -19 -13.5 -32.5t-32.5 -13.5q-31 0 -43 28.5t10 50.5t50.5 10t28.5 -43zM383 797q0 20 13.5 33.5
t33.5 13.5t33.5 -13.5t13.5 -33.5q0 -19 -13.5 -32.5t-33.5 -13.5t-33.5 13.5t-13.5 32.5z" />
    <glyph glyph-name="Yacute" unicode="&#xdd;" horiz-adv-x="667" 
d="M371 0h-76v302l-267 398h88l217 -323l218 323h87l-267 -399v-301zM310 737l-38 38l125 125l38 -38z" />
    <glyph glyph-name="Thorn" unicode="&#xde;" horiz-adv-x="519" 
d="M154 0h-78v700h78v-146h111q91 0 147 -54q57 -53 57 -142q0 -88 -57 -142q-56 -53 -147 -53h-111v-163zM391 358q0 59 -35 95t-91 36h-111v-260h111q56 0 91 35.5t35 93.5z" />
    <glyph glyph-name="germandbls" unicode="&#xdf;" horiz-adv-x="600" 
d="M149 571v-571h-76v571q0 83 54 134q55 52 143 52q89 0 142 -52q55 -51 55 -134q0 -64 -33.5 -110.5t-90.5 -61.5q0 -72 74 -108q68 -33 90 -52q45 -40 45 -107q0 -57 -40 -98q-39 -41 -110 -41q-92 0 -147 60l45 45q39 -44 97 -44q39 0 60.5 22.5t21.5 52.5q0 55 -74 89
q-24 11 -37.5 18t-35 22.5t-33 32t-20.5 42.5t-9 57v60q54 0 87 33q34 33 34 87t-34 88q-33 34 -87 34t-87.5 -34t-33.5 -87z" />
    <glyph glyph-name="agrave" unicode="&#xe0;" horiz-adv-x="453" 
d="M408 49v-49q-8 -4 -29 -4q-55 0 -75 48q-56 -51 -129 -51q-61 0 -95 35t-34 88q0 68 61 107t156 39q22 0 34 -3v55q0 34 -24.5 58.5t-66.5 24.5q-27 0 -54.5 -10.5t-43.5 -26.5l-40 40q56 57 144 57q73 0 115.5 -40.5t42.5 -102.5v-228q0 -37 38 -37zM197 53q60 0 100 43
v113q-18 2 -30 2q-66 0 -107 -24t-41 -64q0 -29 19.5 -49.5t58.5 -20.5zM107 637l38 38l125 -125l-38 -38z" />
    <glyph glyph-name="aacute" unicode="&#xe1;" horiz-adv-x="453" 
d="M408 49v-49q-8 -4 -29 -4q-55 0 -75 48q-56 -51 -129 -51q-61 0 -95 35t-34 88q0 68 61 107t156 39q22 0 34 -3v55q0 34 -24.5 58.5t-66.5 24.5q-27 0 -54.5 -10.5t-43.5 -26.5l-40 40q56 57 144 57q73 0 115.5 -40.5t42.5 -102.5v-228q0 -37 38 -37zM197 53q60 0 100 43
v113q-18 2 -30 2q-66 0 -107 -24t-41 -64q0 -29 19.5 -49.5t58.5 -20.5zM188 512l-38 38l125 125l38 -38z" />
    <glyph glyph-name="acircumflex" unicode="&#xe2;" horiz-adv-x="453" 
d="M408 49v-49q-8 -4 -29 -4q-55 0 -75 48q-56 -51 -129 -51q-61 0 -95 35t-34 88q0 68 61 107t156 39q22 0 34 -3v55q0 34 -24.5 58.5t-66.5 24.5q-27 0 -54.5 -10.5t-43.5 -26.5l-40 40q56 57 144 57q73 0 115.5 -40.5t42.5 -102.5v-228q0 -37 38 -37zM197 53q60 0 100 43
v113q-18 2 -30 2q-66 0 -107 -24t-41 -64q0 -29 19.5 -49.5t58.5 -20.5zM88 550l126 125l125 -125l-38 -38l-87 87l-88 -87z" />
    <glyph glyph-name="atilde" unicode="&#xe3;" horiz-adv-x="453" 
d="M408 49v-49q-8 -4 -29 -4q-55 0 -75 48q-56 -51 -129 -51q-61 0 -95 35t-34 88q0 68 61 107t156 39q22 0 34 -3v55q0 34 -24.5 58.5t-66.5 24.5q-27 0 -54.5 -10.5t-43.5 -26.5l-40 40q56 57 144 57q73 0 115.5 -40.5t42.5 -102.5v-228q0 -37 38 -37zM197 53q60 0 100 43
v113q-18 2 -30 2q-66 0 -107 -24t-41 -64q0 -29 19.5 -49.5t58.5 -20.5zM126 539h-43q0 39 23.5 63.5t60.5 24.5q31 0 59 -25q28 -24 48 -24q19 0 31 12.5t12 31.5h42q0 -39 -23.5 -63t-61.5 -24q-32 0 -60 24q-27 24 -46 24t-30.5 -12t-11.5 -32z" />
    <glyph glyph-name="adieresis" unicode="&#xe4;" horiz-adv-x="453" 
d="M408 49v-49q-8 -4 -29 -4q-55 0 -75 48q-56 -51 -129 -51q-61 0 -95 35t-34 88q0 68 61 107t156 39q22 0 34 -3v55q0 34 -24.5 58.5t-66.5 24.5q-27 0 -54.5 -10.5t-43.5 -26.5l-40 40q56 57 144 57q73 0 115.5 -40.5t42.5 -102.5v-228q0 -37 38 -37zM197 53q60 0 100 43
v113q-18 2 -30 2q-66 0 -107 -24t-41 -64q0 -29 19.5 -49.5t58.5 -20.5zM278 540q-13 14 -13 33t13 33q14 14 34 14t33 -14q14 -13 14 -33t-14 -34q-13 -13 -33 -13t-34 14zM125 619q19 0 32.5 -13.5t13.5 -32.5q0 -31 -28.5 -43t-50.5 10t-10 50.5t43 28.5z" />
    <glyph glyph-name="aring" unicode="&#xe5;" horiz-adv-x="453" 
d="M408 49v-49q-8 -4 -29 -4q-55 0 -75 48q-56 -51 -129 -51q-61 0 -95 35t-34 88q0 68 61 107t156 39q22 0 34 -3v55q0 34 -24.5 58.5t-66.5 24.5q-27 0 -54.5 -10.5t-43.5 -26.5l-40 40q56 57 144 57q73 0 115.5 -40.5t42.5 -102.5v-228q0 -37 38 -37zM216 685
q40 0 64 -24.5t24 -64.5q0 -41 -24 -65.5t-64 -24.5q-39 0 -63.5 25t-24.5 65t24.5 64.5t63.5 24.5zM197 53q60 0 100 43v113q-18 2 -30 2q-66 0 -107 -24t-41 -64q0 -29 19.5 -49.5t58.5 -20.5zM164 595q0 -24 14.5 -39t37.5 -15q24 0 38.5 15t14.5 39q2 34 -25.5 48t-55 0
t-24.5 -48z" />
    <glyph glyph-name="ae" unicode="&#xe6;" horiz-adv-x="720" 
d="M297 259v55q0 34 -24.5 58.5t-66.5 24.5q-27 0 -54.5 -10.5t-43.5 -26.5l-40 40q56 57 144 57q79 0 119 -52q55 52 141 52q96 0 150.5 -67t54.5 -184h-307v-94q44 -54 124 -54q76 0 120 47l44 -45q-64 -67 -168 -67q-114 0 -174 69q-56 -69 -141 -69q-61 0 -95 35t-34 88
q0 68 61 107t156 39q22 0 34 -3zM370 314v-56h234q-7 64 -40.5 99.5t-89.5 35.5q-69 0 -107 -50q3 -27 3 -29zM297 101v108q-18 2 -30 2q-66 0 -107 -24t-41 -64q0 -29 19.5 -49.5t58.5 -20.5q58 0 100 48z" />
    <glyph glyph-name="ccedilla" unicode="&#xe7;" horiz-adv-x="478" 
d="M280 58q75 0 117 47l45 -45q-60 -63 -154 -67v-52q30 -5 47.5 -25t17.5 -51q0 -36 -23 -58t-59 -22q-39 0 -61 25l26 25q23 -23 52.5 -11t29.5 42q0 47 -65 47v81q-94 7 -151 70t-57 161q0 104 64 168t167 64t166 -68l-45 -45q-43 48 -117 48q-71 0 -115 -46.5
t-44 -120.5t44 -120.5t115 -46.5z" />
    <glyph glyph-name="egrave" unicode="&#xe8;" horiz-adv-x="508" 
d="M465 206h-342q5 -67 48 -107.5t111 -40.5q76 0 120 47l44 -45q-64 -67 -168 -67q-105 0 -169 64t-64 170q0 101 59 166q60 64 156 64t150.5 -67t54.5 -184zM262 393q-57 0 -95 -36.5t-44 -98.5h269q-7 64 -40.5 99.5t-89.5 35.5zM159 637l38 38l126 -125l-38 -38z" />
    <glyph glyph-name="eacute" unicode="&#xe9;" horiz-adv-x="508" 
d="M465 206h-342q5 -67 48 -107.5t111 -40.5q76 0 120 47l44 -45q-64 -67 -168 -67q-105 0 -169 64t-64 170q0 101 59 166q60 64 156 64t150.5 -67t54.5 -184zM262 393q-57 0 -95 -36.5t-44 -98.5h269q-7 64 -40.5 99.5t-89.5 35.5zM236 512l-38 38l125 125l38 -38z" />
    <glyph glyph-name="ecircumflex" unicode="&#xea;" horiz-adv-x="508" 
d="M465 206h-342q5 -67 48 -107.5t111 -40.5q76 0 120 47l44 -45q-64 -67 -168 -67q-105 0 -169 64t-64 170q0 101 59 166q60 64 156 64t150.5 -67t54.5 -184zM262 393q-57 0 -95 -36.5t-44 -98.5h269q-7 64 -40.5 99.5t-89.5 35.5zM135 550l126 125l125 -125l-38 -38
l-87 87l-88 -87z" />
    <glyph glyph-name="edieresis" unicode="&#xeb;" horiz-adv-x="508" 
d="M465 206h-342q5 -67 48 -107.5t111 -40.5q76 0 120 47l44 -45q-64 -67 -168 -67q-105 0 -169 64t-64 170q0 101 59 166q60 64 156 64t150.5 -67t54.5 -184zM262 393q-57 0 -95 -36.5t-44 -98.5h269q-7 64 -40.5 99.5t-89.5 35.5zM121 573q0 19 13.5 32.5t32.5 13.5
q31 0 43 -28.5t-10 -50.5t-50.5 -10t-28.5 43zM354 620q20 0 33.5 -13.5t13.5 -33.5t-13.5 -33.5t-33.5 -13.5q-19 0 -32.5 13.5t-13.5 33.5t13.5 33.5t32.5 13.5z" />
    <glyph glyph-name="igrave" unicode="&#xec;" 
d="M8 637l38 38l125 -125l-38 -38zM146 0h-73v450h73v-450z" />
    <glyph glyph-name="iacute" unicode="&#xed;" 
d="M86 512l-38 38l125 125l38 -38zM146 0h-73v450h73v-450z" />
    <glyph glyph-name="icircumflex" unicode="&#xee;" 
d="M-15 550l125 125l125 -125l-38 -38l-87 87l-87 -87zM146 0h-73v450h73v-450z" />
    <glyph glyph-name="idieresis" unicode="&#xef;" 
d="M146 0h-73v450h73v-450zM80 573q0 -20 -13.5 -33.5t-32.5 -13.5q-31 0 -43 29.5t9 49.5q23 23 51.5 10.5t28.5 -42.5zM185 620q20 0 33.5 -13.5t13.5 -33.5t-13.5 -33.5t-33.5 -13.5q-19 0 -32.5 13.5t-13.5 33.5t13.5 33.5t32.5 13.5z" />
    <glyph glyph-name="eth" unicode="&#xf0;" horiz-adv-x="555" 
d="M262 592l-95 -54l-29 50l87 49l-62 84l65 36l61 -83l93 53l29 -50l-86 -49q109 -163 146 -239q39 -77 39 -157q0 -110 -64 -174q-65 -65 -168 -65q-105 0 -169 64t-64 169q0 102 65 167q64 64 167 64q49 0 87 -21q-56 88 -102 156zM391 104q44 47 44 121q0 73 -44 120
t-113 47q-70 0 -114 -47q-43 -46 -43 -120q0 -75 43 -121t114 -46q70 0 113 46z" />
    <glyph glyph-name="ntilde" unicode="&#xf1;" horiz-adv-x="521" 
d="M73 0v450h73v-38q54 45 132 45q77 0 123 -50.5t46 -133.5v-273h-72v273q0 53 -31.5 86t-81.5 33q-71 0 -116 -45v-347h-73zM160 539h-43q0 39 24 63.5t60 24.5q31 0 59 -25q28 -24 49 -24q18 0 30 12.5t12 31.5h42q0 -39 -23 -63t-61 -24q-31 0 -60 24q-28 24 -47 24
t-30.5 -12t-11.5 -32z" />
    <glyph glyph-name="ograve" unicode="&#xf2;" horiz-adv-x="555" 
d="M109 57q-64 64 -64 168t64 168t169 64q103 0 168 -65q64 -64 64 -167q0 -104 -64 -168t-168 -64q-105 0 -169 64zM164 345q-43 -46 -43 -120q0 -75 43 -121t114 -46q70 0 113 46q44 47 44 121q0 73 -44 120t-113 47q-70 0 -114 -47zM176 637l38 38l125 -125l-38 -38z" />
    <glyph glyph-name="oacute" unicode="&#xf3;" horiz-adv-x="555" 
d="M109 57q-64 64 -64 168t64 168t169 64q103 0 168 -65q64 -64 64 -167q0 -104 -64 -168t-168 -64q-105 0 -169 64zM164 345q-43 -46 -43 -120q0 -75 43 -121t114 -46q70 0 113 46q44 47 44 121q0 73 -44 120t-113 47q-70 0 -114 -47zM254 512l-38 38l125 125l38 -38z" />
    <glyph glyph-name="ocircumflex" unicode="&#xf4;" horiz-adv-x="555" 
d="M109 57q-64 64 -64 168t64 168t169 64q103 0 168 -65q64 -64 64 -167q0 -104 -64 -168t-168 -64q-105 0 -169 64zM164 345q-43 -46 -43 -120q0 -75 43 -121t114 -46q70 0 113 46q44 47 44 121q0 73 -44 120t-113 47q-70 0 -114 -47zM152 550l126 125l125 -125l-38 -38
l-87 87l-88 -87z" />
    <glyph glyph-name="otilde" unicode="&#xf5;" horiz-adv-x="555" 
d="M109 57q-64 64 -64 168t64 168t169 64q103 0 168 -65q64 -64 64 -167q0 -104 -64 -168t-168 -64q-105 0 -169 64zM164 345q-43 -46 -43 -120q0 -75 43 -121t114 -46q70 0 113 46q44 47 44 121q0 73 -44 120t-113 47q-70 0 -114 -47zM182 539h-43q0 39 23.5 63.5
t60.5 24.5q31 0 59 -25q28 -24 49 -24q18 0 30 12.5t12 31.5h42q0 -39 -23 -63t-61 -24q-31 0 -60 24q-28 24 -47 24t-30.5 -12t-11.5 -32z" />
    <glyph glyph-name="odieresis" unicode="&#xf6;" horiz-adv-x="555" 
d="M109 57q-64 64 -64 168t64 168t169 64q103 0 168 -65q64 -64 64 -167q0 -104 -64 -168t-168 -64q-105 0 -169 64zM164 345q-43 -46 -43 -120q0 -75 43 -121t114 -46q70 0 113 46q44 47 44 121q0 73 -44 120t-113 47q-70 0 -114 -47zM230 573q0 -20 -13.5 -33.5
t-32.5 -13.5q-31 0 -43 29.5t9 49.5q23 23 51.5 10.5t28.5 -42.5zM338 540q-14 14 -14 33t14 33t33 14t33 -14t14 -33t-14 -33t-33 -14t-33 14z" />
    <glyph glyph-name="divide" unicode="&#xf7;" horiz-adv-x="500" 
d="M439 238h-378v58h378v-58zM204 102q-3 29 28 41t50 -9q21 -19 9 -50t-41 -28q-20 0 -33 13t-13 33zM204 432q0 20 13 33t33 13q19 0 32 -13t13 -33q2 -27 -21.5 -38.5t-47 0t-22.5 38.5z" />
    <glyph glyph-name="oslash" unicode="&#xf8;" horiz-adv-x="555" 
d="M129 -7h-76l53 67q-61 64 -61 165q0 104 64 168t169 64q68 0 121 -29l27 34h76l-56 -70q64 -61 64 -167q0 -104 -64 -168t-168 -64q-72 0 -125 31zM439 225q0 66 -35 113l-210 -264q36 -21 84 -21q72 0 116.5 47.5t44.5 124.5zM116 225q0 -65 33 -111l209 263
q-35 20 -80 20q-72 0 -117 -48t-45 -124z" />
    <glyph glyph-name="ugrave" unicode="&#xf9;" horiz-adv-x="531" 
d="M386 450h72v-265q0 -86 -54 -139q-53 -53 -139 -53t-139 53t-53 139v265h76v-265q0 -56 33 -91.5t85 -35.5q53 0 86 35.5t33 91.5v265zM164 637l38 38l125 -125l-38 -38z" />
    <glyph glyph-name="uacute" unicode="&#xfa;" horiz-adv-x="531" 
d="M386 450h72v-265q0 -86 -54 -139q-53 -53 -139 -53t-139 53t-53 139v265h76v-265q0 -56 33 -91.5t85 -35.5q53 0 86 35.5t33 91.5v265zM242 512l-38 38l125 125l38 -38z" />
    <glyph glyph-name="ucircumflex" unicode="&#xfb;" horiz-adv-x="531" 
d="M140 550l125 125l125 -125l-38 -38l-87 87l-87 -87zM386 450h72v-265q0 -86 -54 -139q-53 -53 -139 -53t-139 53t-53 139v265h76v-265q0 -56 33 -91.5t85 -35.5q53 0 86 35.5t33 91.5v265z" />
    <glyph glyph-name="udieresis" unicode="&#xfc;" horiz-adv-x="531" 
d="M125 573q0 19 13.5 32.5t32.5 13.5q31 0 43 -28.5t-10 -50.5t-50.5 -10t-28.5 43zM326 540q-14 14 -14 33t14 33t33 14t33 -14t14 -33t-14 -33t-33 -14t-33 14zM386 450h72v-265q0 -86 -54 -139q-53 -53 -139 -53t-139 53t-53 139v265h76v-265q0 -56 33 -91.5t85 -35.5
q53 0 86 35.5t33 91.5v265z" />
    <glyph glyph-name="yacute" unicode="&#xfd;" horiz-adv-x="529" 
d="M422 450h81l-321 -700h-81l129 250l-204 450h81l158 -363zM241 512l-38 38l125 125l38 -38z" />
    <glyph glyph-name="thorn" unicode="&#xfe;" horiz-adv-x="541" 
d="M73 -250v1000h73v-338q54 45 133 45q97 0 157 -65q60 -64 60 -167t-63 -168q-63 -64 -165 -64q-70 0 -122 33v-276h-73zM262 392q-71 0 -116 -45v-246q44 -43 116 -43q71 0 114 46q44 47 44 121q0 73 -44 120t-114 47z" />
    <glyph glyph-name="ydieresis" unicode="&#xff;" horiz-adv-x="529" 
d="M422 450h81l-321 -700h-81l129 250l-204 450h81l158 -363zM171 619q19 0 32.5 -13.5t13.5 -32.5q0 -31 -28.5 -43t-50.5 10t-10 50.5t43 28.5zM324 540q-13 14 -13 33t13 33q14 14 34 14t33 -14q14 -14 14 -33t-14 -33q-13 -14 -33 -14t-34 14z" />
    <glyph glyph-name="Amacron" unicode="&#x100;" horiz-adv-x="749" 
d="M721 0h-87l-88 202h-343l-88 -202h-87l311 700h72zM518 270l-143 334l-144 -334h287zM497 768h-244v46h244v-46z" />
    <glyph glyph-name="amacron" unicode="&#x101;" horiz-adv-x="453" 
d="M408 49v-49q-8 -4 -29 -4q-55 0 -75 48q-56 -51 -129 -51q-61 0 -95 35t-34 88q0 68 61 107t156 39q22 0 34 -3v55q0 34 -24.5 58.5t-66.5 24.5q-27 0 -54.5 -10.5t-43.5 -26.5l-40 40q56 57 144 57q73 0 115.5 -40.5t42.5 -102.5v-228q0 -37 38 -37zM197 53q60 0 100 43
v113q-18 2 -30 2q-66 0 -107 -24t-41 -64q0 -29 19.5 -49.5t58.5 -20.5zM336 543h-244v47h244v-47z" />
    <glyph glyph-name="Abreve" unicode="&#x102;" horiz-adv-x="749" 
d="M721 0h-87l-88 202h-343l-88 -202h-87l311 700h72zM518 270l-143 334l-144 -334h287zM375 807q61 0 102 42l38 -38q-57 -59 -140 -59q-82 0 -141 59l38 38q42 -42 103 -42z" />
    <glyph glyph-name="abreve" unicode="&#x103;" horiz-adv-x="453" 
d="M408 49v-49q-8 -4 -29 -4q-55 0 -75 48q-56 -51 -129 -51q-61 0 -95 35t-34 88q0 68 61 107t156 39q22 0 34 -3v55q0 34 -24.5 58.5t-66.5 24.5q-27 0 -54.5 -10.5t-43.5 -26.5l-40 40q56 57 144 57q73 0 115.5 -40.5t42.5 -102.5v-228q0 -37 38 -37zM197 53q60 0 100 43
v113q-18 2 -30 2q-66 0 -107 -24t-41 -64q0 -29 19.5 -49.5t58.5 -20.5zM319 624l38 -38q-57 -59 -141 -59q-81 0 -140 60l38 38q40 -43 102 -43q61 0 103 42z" />
    <glyph glyph-name="Aogonek" unicode="&#x104;" horiz-adv-x="749" 
d="M663 -39q-3 -39 34 -53.5t61 11.5l27 -27q-24 -26 -67 -26q-42 0 -67.5 26t-25.5 69q0 24 9 39l-88 202h-343l-88 -202h-87l311 700h72l310 -700h-48q-10 -13 -10 -39zM518 270l-143 334l-144 -334h287z" />
    <glyph glyph-name="aogonek" unicode="&#x105;" horiz-adv-x="453" 
d="M380 -39q0 -27 15.5 -42.5t39.5 -15.5q27 0 40 16l28 -27q-24 -26 -67 -26q-42 0 -68 26t-26 69q0 23 10 39q-34 9 -48 44q-56 -51 -129 -51q-61 0 -95 35t-34 88q0 68 61 107t156 39q22 0 34 -3v55q0 34 -24.5 58.5t-66.5 24.5q-27 0 -54.5 -10.5t-43.5 -26.5l-40 40
q56 57 144 57q73 0 115.5 -40.5t42.5 -102.5v-228q0 -37 38 -37v-49q-9 -3 -21 -4q-7 -13 -7 -35zM197 53q60 0 100 43v113q-18 2 -30 2q-66 0 -107 -24t-41 -64q0 -29 19.5 -49.5t58.5 -20.5z" />
    <glyph glyph-name="Cacute" unicode="&#x106;" horiz-adv-x="699" 
d="M406 61q127 0 204 80l49 -47q-98 -101 -256 -101q-157 0 -255 99q-98 100 -98 258t98 258q98 99 255 99q158 0 256 -101l-49 -48q-76 81 -204 81q-124 0 -201 -80t-77 -209t77 -209t201 -80zM358 742l-38 38l125 125l38 -38z" />
    <glyph glyph-name="cacute" unicode="&#x107;" horiz-adv-x="478" 
d="M280 58q75 0 117 47l45 -45q-61 -67 -166 -67q-103 0 -167 64t-64 168t64 168t167 64t166 -68l-45 -45q-43 48 -117 48q-71 0 -115 -46.5t-44 -120.5t44 -120.5t115 -46.5zM243 512l-38 38l125 125l38 -38z" />
    <glyph glyph-name="Ccircumflex" unicode="&#x108;" horiz-adv-x="699" 
d="M257 775l125 125l125 -125l-38 -38l-87 87l-87 -87zM406 61q127 0 204 80l49 -47q-98 -101 -256 -101q-157 0 -255 99q-98 100 -98 258t98 258q98 99 255 99q158 0 256 -101l-49 -48q-76 81 -204 81q-124 0 -201 -80t-77 -209t77 -209t201 -80z" />
    <glyph glyph-name="ccircumflex" unicode="&#x109;" horiz-adv-x="478" 
d="M280 58q75 0 117 47l45 -45q-61 -67 -166 -67q-103 0 -167 64t-64 168t64 168t167 64t166 -68l-45 -45q-43 48 -117 48q-71 0 -115 -46.5t-44 -120.5t44 -120.5t115 -46.5zM140 550l126 125l125 -125l-38 -38l-87 87l-88 -87z" />
    <glyph glyph-name="Cdotaccent" unicode="&#x10a;" horiz-adv-x="699" 
d="M406 61q127 0 204 80l49 -47q-98 -101 -256 -101q-157 0 -255 99q-98 100 -98 258t98 258q98 99 255 99q158 0 256 -101l-49 -48q-76 81 -204 81q-124 0 -201 -80t-77 -209t77 -209t201 -80zM333 810q0 20 14.5 34.5t34.5 14.5q21 0 35 -14.5t14 -34.5q0 -21 -14 -35
t-35 -14q-20 0 -34.5 14t-14.5 35z" />
    <glyph glyph-name="cdotaccent" unicode="&#x10b;" horiz-adv-x="478" 
d="M280 58q75 0 117 47l45 -45q-61 -67 -166 -67q-103 0 -167 64t-64 168t64 168t167 64t166 -68l-45 -45q-43 48 -117 48q-71 0 -115 -46.5t-44 -120.5t44 -120.5t115 -46.5zM264 634q21 0 35 -14.5t14 -34.5t-14 -34.5t-35 -14.5q-20 0 -34.5 14.5t-14.5 34.5t14.5 34.5
t34.5 14.5z" />
    <glyph glyph-name="Ccaron" unicode="&#x10c;" horiz-adv-x="699" 
d="M505 862l-125 -125l-125 125l38 38l87 -87l87 87zM406 61q127 0 204 80l49 -47q-98 -101 -256 -101q-157 0 -255 99q-98 100 -98 258t98 258q98 99 255 99q158 0 256 -101l-49 -48q-76 81 -204 81q-124 0 -201 -80t-77 -209t77 -209t201 -80z" />
    <glyph glyph-name="ccaron" unicode="&#x10d;" horiz-adv-x="478" 
d="M280 58q75 0 117 47l45 -45q-61 -67 -166 -67q-103 0 -167 64t-64 168t64 168t167 64t166 -68l-45 -45q-43 48 -117 48q-71 0 -115 -46.5t-44 -120.5t44 -120.5t115 -46.5zM390 637l-125 -125l-126 125l38 38l88 -87l87 87z" />
    <glyph glyph-name="Dcaron" unicode="&#x10e;" horiz-adv-x="692" 
d="M461 862l-125 -125l-125 125l38 38l87 -87l87 87zM290 0h-214v700h214q158 0 255 -96t97 -254t-97 -254t-255 -96zM290 634h-136v-568h136q123 0 198 78q76 77 76 206t-76 206q-75 78 -198 78z" />
    <glyph glyph-name="dcaron" unicode="&#x10f;" horiz-adv-x="680" 
d="M468 750v-750h-73v38q-55 -45 -133 -45q-97 0 -157 64q-60 65 -60 168t63 168q63 64 165 64q69 0 122 -33v326h73zM280 58q73 0 115 44v247q-43 43 -115 43q-71 0 -115 -46.5t-44 -120.5t44 -120.5t115 -46.5zM582 561l-26 26q39 39 47 73q-18 3 -30 16.5t-12 31.5
q0 21 14.5 35t35.5 14t34.5 -14.5t13.5 -42.5q0 -64 -77 -139z" />
    <glyph glyph-name="Dcroat" unicode="&#x110;" horiz-adv-x="708" 
d="M101 321h-55v58h55v321h204q157 0 255 -96q97 -96 97 -254t-97 -254q-98 -96 -255 -96h-204v321zM305 634h-126v-255h161v-58h-161v-255h126q123 0 198 78q76 77 76 206t-76 206q-75 78 -198 78z" />
    <glyph glyph-name="dslash" unicode="&#x111;" horiz-adv-x="555" 
d="M468 579v-579h-73v37q-58 -44 -133 -44q-97 0 -157 64q-60 65 -60 168t63 168q63 64 165 64q72 0 122 -35v157h-133v58h133v113h73v-113h57v-58h-57zM280 58q72 0 115 45v246q-44 43 -115 43t-115 -46.5t-44 -120.5t44 -120.5t115 -46.5z" />
    <glyph glyph-name="Emacron" unicode="&#x112;" horiz-adv-x="498" 
d="M445 637h-294v-253h262v-63h-262v-258h299v-63h-374v700h369v-63zM384 768h-244v46h244v-46z" />
    <glyph glyph-name="emacron" unicode="&#x113;" horiz-adv-x="508" 
d="M465 206h-342q5 -67 48 -107.5t111 -40.5q76 0 120 47l44 -45q-64 -67 -168 -67q-105 0 -169 64t-64 170q0 101 59 166q60 64 156 64t150.5 -67t54.5 -184zM262 393q-57 0 -95 -36.5t-44 -98.5h269q-7 64 -40.5 99.5t-89.5 35.5zM382 543h-244v47h244v-47z" />
    <glyph glyph-name="Ebreve" unicode="&#x114;" horiz-adv-x="498" 
d="M445 637h-294v-253h262v-63h-262v-258h299v-63h-374v700h369v-63zM262 807q62 0 102 42l38 -38q-57 -59 -140 -59q-82 0 -141 59l38 38q42 -42 103 -42z" />
    <glyph glyph-name="ebreve" unicode="&#x115;" horiz-adv-x="508" 
d="M465 206h-342q5 -67 48 -107.5t111 -40.5q76 0 120 47l44 -45q-64 -67 -168 -67q-105 0 -169 64t-64 170q0 101 59 166q60 64 156 64t150.5 -67t54.5 -184zM262 393q-57 0 -95 -36.5t-44 -98.5h269q-7 64 -40.5 99.5t-89.5 35.5zM260 582q62 0 102 42l38 -38
q-57 -59 -140 -59q-82 0 -140 60l38 38q40 -43 102 -43z" />
    <glyph glyph-name="Edotaccent" unicode="&#x116;" horiz-adv-x="498" 
d="M445 637h-294v-253h262v-63h-262v-258h299v-63h-374v700h369v-63zM213 810q0 20 14 34.5t35 14.5q20 0 34.5 -14.5t14.5 -34.5q0 -21 -14.5 -35t-34.5 -14q-21 0 -35 14t-14 35z" />
    <glyph glyph-name="edotaccent" unicode="&#x117;" horiz-adv-x="508" 
d="M465 206h-342q5 -67 48 -107.5t111 -40.5q76 0 120 47l44 -45q-64 -67 -168 -67q-105 0 -169 64t-64 170q0 101 59 166q60 64 156 64t150.5 -67t54.5 -184zM262 393q-57 0 -95 -36.5t-44 -98.5h269q-7 64 -40.5 99.5t-89.5 35.5zM226 550q-14 15 -14 35t14 34
q15 15 35 15t34 -15q15 -14 15 -34t-15 -35q-14 -14 -34 -14t-35 14z" />
    <glyph glyph-name="Eogonek" unicode="&#x118;" horiz-adv-x="498" 
d="M339 -39q0 -27 15 -42.5t40 -15.5q24 0 40 16l27 -27q-24 -26 -67 -26q-42 0 -68 26t-26 69q0 23 10 39h-234v700h369v-63h-294v-253h262v-63h-262v-258h299v-63h-101q-10 -13 -10 -39z" />
    <glyph glyph-name="eogonek" unicode="&#x119;" horiz-adv-x="508" 
d="M329 -39q0 -27 15 -42.5t39 -15.5q25 0 41 16l27 -27q-24 -26 -67 -26q-42 0 -68 26t-26 69q0 18 6 33q-4 -1 -18 -1q-105 0 -169 64t-64 170q0 101 59 166q60 64 156 64t150.5 -67t54.5 -184h-342q5 -67 48 -107.5t111 -40.5q76 0 120 47l44 -45q-44 -45 -107 -60
q-10 -13 -10 -39zM262 393q-57 0 -95 -36.5t-44 -98.5h269q-7 64 -40.5 99.5t-89.5 35.5z" />
    <glyph glyph-name="Ecaron" unicode="&#x11a;" horiz-adv-x="498" 
d="M387 862l-125 -125l-125 125l38 38l87 -87l87 87zM445 637h-294v-253h262v-63h-262v-258h299v-63h-374v700h369v-63z" />
    <glyph glyph-name="ecaron" unicode="&#x11b;" horiz-adv-x="508" 
d="M465 206h-342q5 -67 48 -107.5t111 -40.5q76 0 120 47l44 -45q-64 -67 -168 -67q-105 0 -169 64t-64 170q0 101 59 166q60 64 156 64t150.5 -67t54.5 -184zM262 393q-57 0 -95 -36.5t-44 -98.5h269q-7 64 -40.5 99.5t-89.5 35.5zM385 637l-125 -125l-125 125l38 38
l87 -87l87 87z" />
    <glyph glyph-name="Gcircumflex" unicode="&#x11c;" horiz-adv-x="735" 
d="M584 306h-181v63h256v-276q-97 -100 -256 -100q-157 0 -255 99q-98 100 -98 258t98 258q98 99 255 99q158 0 256 -101l-49 -48q-76 81 -204 81q-124 0 -201 -80t-77 -209t77 -209t201 -80q107 0 178 59v186zM276 775l126 125l125 -125l-38 -38l-87 87l-88 -87z" />
    <glyph glyph-name="gcircumflex" unicode="&#x11d;" horiz-adv-x="507" 
d="M23 -118q0 42 27.5 74.5t75.5 48.5q-58 25 -58 75q0 52 63 77q-78 37 -78 136q0 75 49 119.5t128 44.5q75 0 122 -40q34 40 77 40q15 0 25 -2v-59q-10 3 -21 3q-25 0 -46 -23q20 -35 20 -81q0 -72 -50 -117q-49 -45 -129 -45q-41 0 -65.5 -14.5t-24.5 -36.5t29.5 -36
t77.5 -14q96 0 154 -38t58 -100q0 -67 -66 -109q-65 -42 -164 -42q-93 0 -148.5 38t-55.5 101zM98 -118q0 -37 35 -59.5t94 -22.5q65 0 109 26q45 26 45 67q0 37 -37.5 59t-98.5 22q-67 0 -107 -25.5t-40 -66.5zM155 370q-29 -29 -29 -75t29 -75q31 -29 76 -29q46 0 75 29
q30 28 30 75t-30 75q-29 29 -75 29q-45 0 -76 -29zM104 550l125 125l125 -125l-38 -38l-87 87l-87 -87z" />
    <glyph glyph-name="Gbreve" unicode="&#x11e;" horiz-adv-x="735" 
d="M584 306h-181v63h256v-276q-97 -100 -256 -100q-157 0 -255 99q-98 100 -98 258t98 258q98 99 255 99q158 0 256 -101l-49 -48q-76 81 -204 81q-124 0 -201 -80t-77 -209t77 -209t201 -80q107 0 178 59v186zM503 849l38 -38q-56 -59 -140 -59q-81 0 -140 59l38 38
q41 -42 102 -42t102 42z" />
    <glyph glyph-name="gbreve" unicode="&#x11f;" horiz-adv-x="507" 
d="M23 -118q0 42 27.5 74.5t75.5 48.5q-58 25 -58 75q0 52 63 77q-78 37 -78 136q0 75 49 119.5t128 44.5q75 0 122 -40q34 40 77 40q15 0 25 -2v-59q-10 3 -21 3q-25 0 -46 -23q20 -35 20 -81q0 -72 -50 -117q-49 -45 -129 -45q-41 0 -65.5 -14.5t-24.5 -36.5t29.5 -36
t77.5 -14q96 0 154 -38t58 -100q0 -67 -66 -109q-65 -42 -164 -42q-93 0 -148.5 38t-55.5 101zM98 -118q0 -37 35 -59.5t94 -22.5q65 0 109 26q45 26 45 67q0 37 -37.5 59t-98.5 22q-67 0 -107 -25.5t-40 -66.5zM155 370q-29 -29 -29 -75t29 -75q31 -29 76 -29q46 0 75 29
q30 28 30 75t-30 75q-29 29 -75 29q-45 0 -76 -29zM333 624l38 -38q-57 -59 -141 -59q-82 0 -140 60l38 38q40 -43 102 -43q61 0 103 42z" />
    <glyph glyph-name="Gdotaccent" unicode="&#x120;" horiz-adv-x="735" 
d="M584 306h-181v63h256v-276q-97 -100 -256 -100q-157 0 -255 99q-98 100 -98 258t98 258q98 99 255 99q158 0 256 -101l-49 -48q-76 81 -204 81q-124 0 -201 -80t-77 -209t77 -209t201 -80q107 0 178 59v186zM352 810q0 20 14.5 34.5t34.5 14.5q21 0 35 -14.5t14 -34.5
q0 -21 -14 -35t-35 -14q-20 0 -34.5 14t-14.5 35z" />
    <glyph glyph-name="gdotaccent" unicode="&#x121;" horiz-adv-x="507" 
d="M23 -118q0 42 27.5 74.5t75.5 48.5q-58 25 -58 75q0 52 63 77q-78 37 -78 136q0 75 49 119.5t128 44.5q75 0 122 -40q34 40 77 40q15 0 25 -2v-59q-10 3 -21 3q-25 0 -46 -23q20 -35 20 -81q0 -72 -50 -117q-49 -45 -129 -45q-41 0 -65.5 -14.5t-24.5 -36.5t29.5 -36
t77.5 -14q96 0 154 -38t58 -100q0 -67 -66 -109q-65 -42 -164 -42q-93 0 -148.5 38t-55.5 101zM98 -118q0 -37 35 -59.5t94 -22.5q65 0 109 26q45 26 45 67q0 37 -37.5 59t-98.5 22q-67 0 -107 -25.5t-40 -66.5zM155 370q-29 -29 -29 -75t29 -75q31 -29 76 -29q46 0 75 29
q30 28 30 75t-30 75q-29 29 -75 29q-45 0 -76 -29zM228 634q20 0 34.5 -14.5t14.5 -34.5t-14.5 -34.5t-34.5 -14.5q-21 0 -35 14.5t-14 34.5t14 34.5t35 14.5z" />
    <glyph glyph-name="Gcommaaccent" unicode="&#x122;" horiz-adv-x="735" 
d="M584 306h-181v63h256v-276q-97 -100 -256 -100q-157 0 -255 99q-98 100 -98 258t98 258q98 99 255 99q158 0 256 -101l-49 -48q-76 81 -204 81q-124 0 -201 -80t-77 -209t77 -209t201 -80q107 0 178 59v186zM370 -217l-22 22q36 36 41 65q-15 1 -25.5 13t-10.5 27
q0 25 21 37t42 0t21 -44q0 -56 -67 -120z" />
    <glyph glyph-name="gcommaaccent" unicode="&#x123;" horiz-adv-x="507" 
d="M23 -118q0 42 27.5 74.5t75.5 48.5q-58 25 -58 75q0 52 63 77q-78 37 -78 136q0 75 49 119.5t128 44.5q75 0 122 -40q34 40 77 40q15 0 25 -2v-59q-10 3 -21 3q-25 0 -46 -23q20 -35 20 -81q0 -72 -50 -117q-49 -45 -129 -45q-41 0 -65.5 -14.5t-24.5 -36.5t29.5 -36
t77.5 -14q96 0 154 -38t58 -100q0 -67 -66 -109q-65 -42 -164 -42q-93 0 -148.5 38t-55.5 101zM98 -118q0 -37 35 -59.5t94 -22.5q65 0 109 26q45 26 45 67q0 37 -37.5 59t-98.5 22q-67 0 -107 -25.5t-40 -66.5zM155 370q-29 -29 -29 -75t29 -75q31 -29 76 -29q46 0 75 29
q30 28 30 75t-30 75q-29 29 -75 29q-45 0 -76 -29zM257 683l22 -22q-37 -38 -41 -65q16 -2 26 -13.5t10 -27.5q2 -29 -28 -39q-31 -10 -48 14q-9 13 -8 32q0 54 67 121z" />
    <glyph glyph-name="Hcircumflex" unicode="&#x124;" horiz-adv-x="690" 
d="M220 775l125 125l125 -125l-38 -38l-87 87l-87 -87zM76 700h75v-316h388v316h75v-700h-75v321h-388v-321h-75v700z" />
    <glyph glyph-name="hcircumflex" unicode="&#x125;" horiz-adv-x="523" 
d="M73 0v750h73v-338q54 45 132 45q77 0 123 -50.5t46 -133.5v-273h-72v273q0 53 -31.5 86t-81.5 33q-71 0 -116 -45v-347h-73zM148 785l125 125l126 -125l-38 -38l-88 87l-87 -87z" />
    <glyph glyph-name="Hbar" unicode="&#x126;" horiz-adv-x="700" 
d="M176 0h-75v510h-61v59h61v131h75v-131h343v131h75v-131h66v-59h-66v-510h-75v321h-343v-321zM176 510v-126h343v126h-343z" />
    <glyph glyph-name="hbar" unicode="&#x127;" horiz-adv-x="538" 
d="M88 592h-58v58h58v100h73v-100h173v-58h-173v-179q56 44 132 44t122.5 -50.5t46.5 -133.5v-273h-73v273q0 53 -31.5 86t-81.5 33q-72 0 -115 -45v-347h-73v592z" />
    <glyph glyph-name="Itilde" unicode="&#x128;" horiz-adv-x="222" 
d="M149 0h-76v700h76v-700zM16 764h-43q0 39 24 63t60 24q31 0 60 -24t48 -24q18 0 30 12.5t12 31.5h43q0 -39 -23.5 -63t-61.5 -24q-31 0 -60 24q-28 24 -47 24q-18 0 -30 -12t-12 -32z" />
    <glyph glyph-name="itilde" unicode="&#x129;" 
d="M15 539h-43q0 39 23.5 63.5t60.5 24.5q32 0 60 -25q29 -24 47 -24q19 0 31 12.5t12 31.5h42q0 -39 -23.5 -63t-61.5 -24q-31 0 -60 24q-27 24 -46 24t-30.5 -12t-11.5 -32zM146 0h-73v450h73v-450z" />
    <glyph glyph-name="Imacron" unicode="&#x12a;" horiz-adv-x="222" 
d="M149 0h-76v700h76v-700zM233 768h-244v46h244v-46z" />
    <glyph glyph-name="imacron" unicode="&#x12b;" 
d="M146 0h-73v450h73v-450zM232 543h-244v47h244v-47z" />
    <glyph glyph-name="Ibreve" unicode="&#x12c;" horiz-adv-x="222" 
d="M149 0h-76v700h76v-700zM111 807q61 0 103 42l38 -38q-57 -59 -141 -59q-81 0 -140 59l38 38q41 -42 102 -42z" />
    <glyph glyph-name="ibreve" unicode="&#x12d;" 
d="M110 582q62 0 102 42l38 -38q-57 -59 -140 -59q-82 0 -141 60l39 38q40 -43 102 -43zM146 0h-73v450h73v-450z" />
    <glyph glyph-name="Iogonek" unicode="&#x12e;" horiz-adv-x="222" 
d="M102 -39q0 -27 15.5 -42.5t39.5 -15.5q27 0 40 16l28 -27q-26 -26 -68 -26t-67.5 26t-25.5 69q0 24 9 39v700h76v-700h-37q-10 -16 -10 -39z" />
    <glyph glyph-name="iogonek" unicode="&#x12f;" 
d="M146 0h-73v450h73v-450zM110 634q20 0 34.5 -14.5t14.5 -34.5t-14.5 -34.5t-34.5 -14.5q-21 0 -35 14.5t-14 34.5t14 34.5t35 14.5zM102 -39q0 -27 15.5 -42.5t39.5 -15.5q27 0 40 16l28 -27q-26 -26 -68 -26t-67.5 26t-25.5 69q0 24 9 39h39q-10 -16 -10 -39z" />
    <glyph glyph-name="Idot" unicode="&#x130;" horiz-adv-x="222" 
d="M62 810q0 20 14 34.5t35 14.5q20 0 34.5 -14.5t14.5 -34.5q0 -21 -14.5 -35t-34.5 -14q-21 0 -35 14t-14 35zM149 0h-76v700h76v-700z" />
    <glyph glyph-name="dotlessi" unicode="&#x131;" 
d="M146 0h-73v450h73v-450z" />
    <glyph glyph-name="IJ" unicode="&#x132;" horiz-adv-x="503" 
d="M151 250h-75v450h75v-450zM354 190v510h76v-510q0 -88 -55 -143q-55 -54 -142 -54t-142 55l48 49q35 -36 91 -36t90 35.5t34 93.5z" />
    <glyph glyph-name="ij" unicode="&#x133;" horiz-adv-x="439" 
d="M146 0h-73v450h73v-450zM110 634q20 0 34.5 -14.5t14.5 -34.5t-14.5 -34.5t-34.5 -14.5q-21 0 -35 14.5t-14 34.5t14 34.5t35 14.5zM329 634q21 0 35 -14.5t14 -34.5t-14 -34.5t-35 -14.5q-20 0 -34.5 14.5t-14.5 34.5t14.5 34.5t34.5 14.5zM237 -250v49q56 0 56 53v598
h73v-600q0 -48 -26 -76t-70 -28q-25 0 -33 4z" />
    <glyph glyph-name="Jcircumflex" unicode="&#x134;" horiz-adv-x="453" 
d="M304 190v510h75v-510q0 -88 -55 -143q-54 -54 -141 -54q-88 0 -143 55l49 49q35 -36 91 -36q55 0 89.5 35.5t34.5 93.5zM216 775l125 125l126 -125l-38 -38l-88 87l-87 -87z" />
    <glyph glyph-name="jcircumflex" unicode="&#x135;" 
d="M-15 550l125 125l125 -125l-38 -38l-87 87l-87 -87zM18 -250v49q55 0 55 53v598h73v-600q0 -48 -26 -76t-69 -28q-25 0 -33 4z" />
    <glyph glyph-name="Kcommaaccent" unicode="&#x136;" horiz-adv-x="596" 
d="M149 0h-76v700h76v-700zM565 0h-97l-309 359l289 341h95l-289 -341zM275 -217l-22 22q37 36 41 65q-15 1 -25.5 13t-10.5 27q0 25 21 37t42 0t21 -44q0 -56 -67 -120z" />
    <glyph glyph-name="kcommaaccent" unicode="&#x137;" horiz-adv-x="466" 
d="M146 232v-232h-73v750h73v-504l180 204h87l-188 -211l210 -239h-87zM210 -217l-22 22q36 36 41 65q-15 1 -25.5 13t-10.5 27q0 18 12.5 30t30.5 12t29.5 -12.5t11.5 -36.5q0 -56 -67 -120z" />
    <glyph glyph-name="Lacute" unicode="&#x139;" horiz-adv-x="465" 
d="M189 737l-38 38l125 125l38 -38zM76 700h75v-637h274v-63h-349v700z" />
    <glyph glyph-name="lacute" unicode="&#x13a;" horiz-adv-x="247" 
d="M80 772l-38 38l125 125l38 -38zM204 49v-49q-8 -4 -35 -4q-44 0 -70 28t-26 76v650h73v-648q0 -53 58 -53z" />
    <glyph glyph-name="Lcommaaccent" unicode="&#x13b;" horiz-adv-x="465" 
d="M76 700h75v-637h274v-63h-349v700zM226 -217l-23 22q37 36 41 65q-15 1 -25 13t-10 27q0 18 12 30t30 12t29.5 -12.5t11.5 -36.5q0 -54 -66 -120z" />
    <glyph glyph-name="lcommaaccent" unicode="&#x13c;" horiz-adv-x="247" 
d="M111 -217l-22 22q36 36 41 65q-15 1 -25.5 13t-10.5 27q0 25 21 37t42 0t21 -44q0 -56 -67 -120zM204 49v-49q-8 -4 -35 -4q-44 0 -70 28t-26 76v650h73v-648q0 -53 58 -53z" />
    <glyph glyph-name="Lcaron" unicode="&#x13d;" horiz-adv-x="465" 
d="M239 862l-125 -125l-125 125l38 38l87 -87l87 87zM76 700h75v-637h274v-63h-349v700z" />
    <glyph glyph-name="lcaron" unicode="&#x13e;" horiz-adv-x="371" 
d="M204 49v-49q-8 -4 -35 -4q-44 0 -70 28t-26 76v650h73v-648q0 -53 58 -53zM273 561l-26 26q40 40 47 73q-18 3 -30 16.5t-12 31.5q0 21 14.5 35t35.5 14t34.5 -14.5t13.5 -42.5q0 -64 -77 -139z" />
    <glyph glyph-name="Ldot" unicode="&#x13f;" horiz-adv-x="465" 
d="M76 700h75v-637h274v-63h-349v700zM315 290q-14 15 -14 35t14 34q15 15 35 15t34 -15q15 -14 15 -34t-15 -35q-14 -14 -34 -14t-35 14z" />
    <glyph glyph-name="ldot" unicode="&#x140;" horiz-adv-x="377" 
d="M204 49v-49q-8 -4 -35 -4q-44 0 -70 28t-26 76v650h73v-648q0 -53 58 -53zM299 374q21 0 35 -14.5t14 -34.5t-14 -34.5t-35 -14.5q-20 0 -34.5 14.5t-14.5 34.5t14.5 34.5t34.5 14.5z" />
    <glyph glyph-name="Lslash" unicode="&#x141;" horiz-adv-x="494" 
d="M48 196l-38 38l94 94v372h76v-314l89 90l38 -38l-127 -128v-247h273v-63h-349v252z" />
    <glyph glyph-name="lslash" unicode="&#x142;" horiz-adv-x="290" 
d="M231 49v-49q-8 -4 -36 -4q-43 0 -69 28t-26 76v184l-54 -54l-38 38l92 92v390h73v-333l61 61l38 -38l-99 -99v-239q0 -53 58 -53z" />
    <glyph glyph-name="Nacute" unicode="&#x143;" horiz-adv-x="713" 
d="M76 0v700h51l435 -558v558h75v-700h-51l-435 558v-558h-75zM333 737l-38 38l125 125l38 -38z" />
    <glyph glyph-name="nacute" unicode="&#x144;" horiz-adv-x="521" 
d="M73 0v450h73v-38q54 45 132 45q77 0 123 -50.5t46 -133.5v-273h-72v273q0 53 -31.5 86t-81.5 33q-71 0 -116 -45v-347h-73zM237 512l-38 38l125 125l38 -38z" />
    <glyph glyph-name="Ncommaaccent" unicode="&#x145;" horiz-adv-x="713" 
d="M76 0v700h51l435 -558v558h75v-700h-51l-435 558v-558h-75zM334 -217l-22 22q36 36 41 65q-15 1 -25.5 13t-10.5 27q0 25 21 37t42 0t21 -44q0 -56 -67 -120z" />
    <glyph glyph-name="ncommaaccent" unicode="&#x146;" horiz-adv-x="521" 
d="M73 0v450h73v-38q54 45 132 45q77 0 123 -50.5t46 -133.5v-273h-72v273q0 53 -31.5 86t-81.5 33q-71 0 -116 -45v-347h-73zM235 -217l-22 22q36 36 41 65q-15 1 -25.5 13t-10.5 27q0 18 12.5 30t30.5 12t29.5 -12.5t11.5 -36.5q0 -56 -67 -120z" />
    <glyph glyph-name="Ncaron" unicode="&#x147;" horiz-adv-x="713" 
d="M481 862l-125 -125l-125 125l38 38l87 -87l87 87zM76 0v700h51l435 -558v558h75v-700h-51l-435 558v-558h-75z" />
    <glyph glyph-name="ncaron" unicode="&#x148;" horiz-adv-x="521" 
d="M385 637l-125 -125l-125 125l38 38l87 -87l87 87zM73 0v450h73v-38q54 45 132 45q77 0 123 -50.5t46 -133.5v-273h-72v273q0 53 -31.5 86t-81.5 33q-71 0 -116 -45v-347h-73z" />
    <glyph glyph-name="Eng" unicode="&#x14a;" horiz-adv-x="713" 
d="M506 -250v49q56 0 56 53v175l-411 531v-558h-75v700h51l435 -558v558h75v-850q0 -48 -27 -76t-71 -28q-25 0 -33 4z" />
    <glyph glyph-name="eng" unicode="&#x14b;" horiz-adv-x="521" 
d="M319 -250v49q56 0 56 53v421q0 53 -31.5 86t-81.5 33q-71 0 -116 -45v-347h-73v450h73v-38q54 45 132 45q77 0 123 -50.5t46 -133.5v-423q0 -48 -26 -76t-69 -28q-25 0 -33 4z" />
    <glyph glyph-name="Omacron" unicode="&#x14c;" horiz-adv-x="805" 
d="M148 92q-98 100 -98 258t98 258q98 99 255 99q156 0 254 -99q98 -100 98 -258t-98 -258q-98 -99 -254 -99q-157 0 -255 99zM204 559q-76 -79 -76 -209t76 -209q77 -80 199 -80q121 0 198 80q76 79 76 209t-76 209q-77 80 -198 80q-122 0 -199 -80zM525 768h-244v46h244
v-46z" />
    <glyph glyph-name="omacron" unicode="&#x14d;" horiz-adv-x="555" 
d="M109 57q-64 64 -64 168t64 168t169 64q103 0 168 -65q64 -64 64 -167q0 -104 -64 -168t-168 -64q-105 0 -169 64zM164 345q-43 -46 -43 -120q0 -75 43 -121t114 -46q70 0 113 46q44 47 44 121q0 73 -44 120t-113 47q-70 0 -114 -47zM400 543h-244v47h244v-47z" />
    <glyph glyph-name="Obreve" unicode="&#x14e;" horiz-adv-x="805" 
d="M148 92q-98 100 -98 258t98 258q98 99 255 99q156 0 254 -99q98 -100 98 -258t-98 -258q-98 -99 -254 -99q-157 0 -255 99zM204 559q-76 -79 -76 -209t76 -209q77 -80 199 -80q121 0 198 80q76 79 76 209t-76 209q-77 80 -198 80q-122 0 -199 -80zM403 807q61 0 102 42
l38 -38q-57 -59 -140 -59q-82 0 -141 59l38 38q40 -42 103 -42z" />
    <glyph glyph-name="obreve" unicode="&#x14f;" horiz-adv-x="555" 
d="M109 57q-64 64 -64 168t64 168t169 64q103 0 168 -65q64 -64 64 -167q0 -104 -64 -168t-168 -64q-105 0 -169 64zM164 345q-43 -46 -43 -120q0 -75 43 -121t114 -46q70 0 113 46q44 47 44 121q0 73 -44 120t-113 47q-70 0 -114 -47zM380 624l38 -38q-57 -59 -140 -59
q-82 0 -141 60l38 38q40 -43 103 -43q62 0 102 42z" />
    <glyph glyph-name="Ohungarumlaut" unicode="&#x150;" horiz-adv-x="805" 
d="M148 92q-98 100 -98 258t98 258q98 99 255 99q156 0 254 -99q98 -100 98 -258t-98 -258q-98 -99 -254 -99q-157 0 -255 99zM204 559q-76 -79 -76 -209t76 -209q77 -80 199 -80q121 0 198 80q76 79 76 209t-76 209q-77 80 -198 80q-122 0 -199 -80zM304 737l-38 38
l126 125l38 -38zM454 737l-38 38l125 125l38 -38z" />
    <glyph glyph-name="ohungarumlaut" unicode="&#x151;" horiz-adv-x="555" 
d="M109 57q-64 64 -64 168t64 168t169 64q103 0 168 -65q64 -64 64 -167q0 -104 -64 -168t-168 -64q-105 0 -169 64zM164 345q-43 -46 -43 -120q0 -75 43 -121t114 -46q70 0 113 46q44 47 44 121q0 73 -44 120t-113 47q-70 0 -114 -47zM179 512l-38 38l126 125l38 -38z
M329 512l-38 38l125 125l38 -38z" />
    <glyph glyph-name="OE" unicode="&#x152;" horiz-adv-x="875" 
d="M825 637h-271v-253h238v-63h-238v-258h276v-63h-349q-41 -7 -78 -7q-157 0 -255 99q-98 100 -98 258t98 258q98 99 255 99q37 0 78 -7h344v-63zM403 61q42 0 75 11v556q-33 11 -75 11q-122 0 -199 -80q-76 -79 -76 -209t76 -209q77 -80 199 -80z" />
    <glyph glyph-name="oe" unicode="&#x153;" horiz-adv-x="841" 
d="M798 206h-342q5 -67 48 -107.5t112 -40.5q75 0 119 47l45 -45q-64 -67 -169 -67t-167 65q-63 -65 -166 -65q-105 0 -169 64t-64 168t64 168t169 64q100 0 163 -63q59 63 152 63q96 0 150.5 -67t54.5 -184zM278 58q80 0 124 60q-23 49 -23 109q0 61 21 107q-43 58 -122 58
q-70 0 -114 -47q-43 -46 -43 -120q0 -75 43 -121t114 -46zM595 393q-57 0 -94.5 -36.5t-44.5 -98.5h269q-6 63 -40 99t-90 36z" />
    <glyph glyph-name="Racute" unicode="&#x154;" horiz-adv-x="534" 
d="M504 0h-86l-168 309h-96v-309h-78v700h196q92 0 148 -54q56 -53 56 -142q0 -74 -40 -124.5t-110 -65.5zM272 634h-118v-260h118q57 0 91.5 35.5t34.5 94.5t-34.5 94.5t-91.5 35.5zM238 737l-38 38l125 125l38 -38z" />
    <glyph glyph-name="racute" unicode="&#x155;" horiz-adv-x="345" 
d="M268 456q3 0 29 -2v-64q-17 3 -34 3q-73 0 -117 -62v-331h-73v450h73v-55q52 61 122 61zM164 512l-38 38l125 125l38 -38z" />
    <glyph glyph-name="Rcommaaccent" unicode="&#x156;" horiz-adv-x="534" 
d="M504 0h-86l-168 309h-96v-309h-78v700h196q92 0 148 -54q56 -53 56 -142q0 -74 -40 -124.5t-110 -65.5zM272 634h-118v-260h118q57 0 91.5 35.5t34.5 94.5t-34.5 94.5t-91.5 35.5zM244 -217l-22 22q36 36 41 65q-15 1 -25.5 13t-10.5 27q0 18 12.5 30t30.5 12t29.5 -12.5
t11.5 -36.5q0 -56 -67 -120z" />
    <glyph glyph-name="rcommaaccent" unicode="&#x157;" horiz-adv-x="345" 
d="M268 456q3 0 29 -2v-64q-17 3 -34 3q-73 0 -117 -62v-331h-73v450h73v-55q52 61 122 61zM85 -217l-22 22q37 36 41 65q-15 1 -25.5 13t-10.5 27q0 25 21 37t42 0t21 -44q0 -56 -67 -120z" />
    <glyph glyph-name="Rcaron" unicode="&#x158;" horiz-adv-x="534" 
d="M504 0h-86l-168 309h-96v-309h-78v700h196q92 0 148 -54q56 -53 56 -142q0 -74 -40 -124.5t-110 -65.5zM272 634h-118v-260h118q57 0 91.5 35.5t34.5 94.5t-34.5 94.5t-91.5 35.5zM387 862l-125 -125l-125 125l38 38l87 -87l87 87z" />
    <glyph glyph-name="rcaron" unicode="&#x159;" horiz-adv-x="345" 
d="M268 456q3 0 29 -2v-64q-17 3 -34 3q-73 0 -117 -62v-331h-73v450h73v-55q52 61 122 61zM313 637l-125 -125l-126 125l38 38l88 -87l87 87z" />
    <glyph glyph-name="Sacute" unicode="&#x15a;" horiz-adv-x="530" 
d="M454 625l-47 -48q-25 27 -66.5 44.5t-81.5 17.5q-59 0 -91.5 -34.5t-32.5 -83.5q0 -79 120 -124l61.5 -22.5t56.5 -27t54.5 -38t33.5 -49.5t14 -67q0 -82 -56 -141t-159 -59q-133 0 -219 92l47 47q30 -33 74.5 -52t90.5 -19q71 0 107 41q37 40 37 89q0 76 -120 119
q-39 14 -60 22t-57 27.5t-54.5 39t-33.5 51t-14 69.5q0 78 49 133t145 55q123 0 202 -82zM229 737l-38 38l125 125l38 -38z" />
    <glyph glyph-name="sacute" unicode="&#x15b;" horiz-adv-x="384" 
d="M324 404l-45 -45q-35 36 -87 36q-32 0 -49.5 -19t-17.5 -46q0 -26 21.5 -43.5t52.5 -29t62.5 -25t53 -40t21.5 -64.5q0 -54 -39 -95q-39 -40 -110 -40q-91 0 -148 60l46 45q38 -44 97 -44q39 0 60 21.5t21 51.5q0 25 -21.5 42t-52.5 28t-62.5 25t-53 41t-21.5 66
q0 56 35.5 92t99.5 36q86 0 137 -53zM161 512l-38 38l125 125l38 -38z" />
    <glyph glyph-name="Scircumflex" unicode="&#x15c;" horiz-adv-x="530" 
d="M454 625l-47 -48q-25 27 -66.5 44.5t-81.5 17.5q-59 0 -91.5 -34.5t-32.5 -83.5q0 -79 120 -124l61.5 -22.5t56.5 -27t54.5 -38t33.5 -49.5t14 -67q0 -82 -56 -141t-159 -59q-133 0 -219 92l47 47q30 -33 74.5 -52t90.5 -19q71 0 107 41q37 40 37 89q0 76 -120 119
q-39 14 -60 22t-57 27.5t-54.5 39t-33.5 51t-14 69.5q0 78 49 133t145 55q123 0 202 -82zM127 775l125 125l126 -125l-38 -38l-88 87l-87 -87z" />
    <glyph glyph-name="scircumflex" unicode="&#x15d;" horiz-adv-x="384" 
d="M324 404l-45 -45q-35 36 -87 36q-32 0 -49.5 -19t-17.5 -46q0 -26 21.5 -43.5t52.5 -29t62.5 -25t53 -40t21.5 -64.5q0 -54 -39 -95q-39 -40 -110 -40q-91 0 -148 60l46 45q38 -44 97 -44q39 0 60 21.5t21 51.5q0 25 -21.5 42t-52.5 28t-62.5 25t-53 41t-21.5 66
q0 56 35.5 92t99.5 36q86 0 137 -53zM59 550l125 125l125 -125l-38 -38l-87 87l-87 -87z" />
    <glyph glyph-name="Scedilla" unicode="&#x15e;" horiz-adv-x="530" 
d="M454 625l-47 -48q-25 27 -66.5 44.5t-81.5 17.5q-59 0 -91.5 -34.5t-32.5 -83.5q0 -79 120 -124l61.5 -22.5t56.5 -27t54.5 -38t33.5 -49.5t14 -67q0 -79 -52 -137q-51 -58 -147 -63v-52q66 -12 66 -76q0 -35 -23 -58q-22 -22 -60 -22t-60 25l25 25q23 -23 52.5 -11
t29.5 42q0 47 -64 47v81q-122 6 -201 91l47 47q30 -33 74.5 -52t90.5 -19q71 0 107 41q37 40 37 89q0 76 -120 119q-39 14 -60 22t-57 27.5t-54.5 39t-33.5 51t-14 69.5q0 78 49 133t145 55q123 0 202 -82z" />
    <glyph glyph-name="scedilla" unicode="&#x15f;" horiz-adv-x="384" 
d="M324 404l-45 -45q-35 36 -87 36q-32 0 -49.5 -19t-17.5 -46q0 -26 21.5 -43.5t52.5 -29t62.5 -25t53 -40t21.5 -64.5q0 -54 -36 -92t-98 -42v-53q66 -12 66 -76q0 -35 -23 -58q-22 -22 -60 -22t-60 25l25 25q21 -22 53.5 -11t29.5 42q0 47 -65 47v81q-79 6 -129 59l46 45
q38 -44 97 -44q39 0 60 21.5t21 51.5q0 25 -21.5 42t-52.5 28t-62.5 25t-53 41t-21.5 66q0 56 35.5 92t99.5 36q86 0 137 -53z" />
    <glyph glyph-name="Scaron" unicode="&#x160;" horiz-adv-x="530" 
d="M454 625l-47 -48q-25 27 -66.5 44.5t-81.5 17.5q-59 0 -91.5 -34.5t-32.5 -83.5q0 -79 120 -124l61.5 -22.5t56.5 -27t54.5 -38t33.5 -49.5t14 -67q0 -82 -56 -141t-159 -59q-133 0 -219 92l47 47q30 -33 74.5 -52t90.5 -19q71 0 107 41q37 40 37 89q0 76 -120 119
q-39 14 -60 22t-57 27.5t-54.5 39t-33.5 51t-14 69.5q0 78 49 133t145 55q123 0 202 -82zM378 862l-126 -125l-125 125l38 38l87 -87l88 87z" />
    <glyph glyph-name="scaron" unicode="&#x161;" horiz-adv-x="384" 
d="M324 404l-45 -45q-35 36 -87 36q-32 0 -49.5 -19t-17.5 -46q0 -26 21.5 -43.5t52.5 -29t62.5 -25t53 -40t21.5 -64.5q0 -54 -39 -95q-39 -40 -110 -40q-91 0 -148 60l46 45q38 -44 97 -44q39 0 60 21.5t21 51.5q0 25 -21.5 42t-52.5 28t-62.5 25t-53 41t-21.5 66
q0 56 35.5 92t99.5 36q86 0 137 -53zM309 637l-125 -125l-125 125l38 38l87 -87l87 87z" />
    <glyph glyph-name="Tcommaaccent" unicode="&#x162;" horiz-adv-x="557" 
d="M517 637h-201v-637h-75v637h-201v63h477v-63zM256 -217l-22 22q36 36 41 65q-15 1 -25.5 13t-10.5 27q0 18 12.5 30t30.5 12t29.5 -12.5t11.5 -36.5q0 -56 -67 -120z" />
    <glyph glyph-name="tcommaaccent" unicode="&#x163;" horiz-adv-x="319" 
d="M88 392h-58v58h58v100h75v-100h121v-58h-121v-253q0 -37 22 -60.5t58 -23.5q24 0 41 10v-62q-21 -10 -53 -10q-66 0 -104.5 40t-38.5 106v253zM152 -217l-22 22q36 36 41 65q-15 1 -25.5 13t-10.5 27q0 18 12 30t31 12q18 0 29.5 -12.5t11.5 -36.5q0 -56 -67 -120z" />
    <glyph glyph-name="Tcaron" unicode="&#x164;" horiz-adv-x="557" 
d="M517 637h-201v-637h-75v637h-201v63h477v-63zM404 862l-125 -125l-126 125l38 38l88 -87l87 87z" />
    <glyph glyph-name="tcaron" unicode="&#x165;" horiz-adv-x="358" 
d="M88 392h-58v58h58v100h75v-100h121v-58h-121v-253q0 -37 22 -60.5t58 -23.5q24 0 41 10v-62q-21 -10 -53 -10q-66 0 -104.5 40t-38.5 106v253zM268 535l-26 26q40 41 46 73q-17 3 -29 16.5t-12 31.5q0 21 14 35t35 14t35 -14.5t14 -42.5q0 -62 -77 -139z" />
    <glyph glyph-name="Tbar" unicode="&#x166;" horiz-adv-x="557" 
d="M241 341h-145v58h145v238h-201v63h477v-63h-201v-238h146v-58h-146v-341h-75v341z" />
    <glyph glyph-name="tbar" unicode="&#x167;" horiz-adv-x="319" 
d="M88 244h-58v56h58v92h-58v58h58v100h75v-100h121v-58h-121v-92h121v-56h-121v-105q0 -37 22 -60.5t58 -23.5q24 0 41 10v-62q-21 -10 -53 -10q-66 0 -104.5 40t-38.5 106v105z" />
    <glyph glyph-name="Utilde" unicode="&#x168;" horiz-adv-x="673" 
d="M522 255v445h75v-445q0 -117 -73 -190q-72 -72 -188 -72q-117 0 -189 72q-71 73 -71 190v445h75v-445q0 -87 51 -141q51 -53 133 -53t135 53q52 53 52 141zM241 764h-43q0 39 23.5 63t60.5 24q32 0 60 -24t47 -24t31 12.5t12 31.5h42q0 -39 -23.5 -63t-61.5 -24
q-31 0 -59 24q-29 24 -47 24q-19 0 -30.5 -12t-11.5 -32z" />
    <glyph glyph-name="utilde" unicode="&#x169;" horiz-adv-x="531" 
d="M386 450h72v-265q0 -86 -54 -139q-53 -53 -139 -53t-139 53t-53 139v265h76v-265q0 -56 33 -91.5t85 -35.5q53 0 86 35.5t33 91.5v265zM169 539h-42q0 39 23.5 63.5t60.5 24.5q31 0 59 -25q28 -24 48 -24q19 0 30.5 12t11.5 32h43q0 -39 -23.5 -63t-61.5 -24
q-32 0 -60 24q-27 24 -46 24t-31 -12t-12 -32z" />
    <glyph glyph-name="Umacron" unicode="&#x16a;" horiz-adv-x="673" 
d="M522 255v445h75v-445q0 -117 -73 -190q-72 -72 -188 -72q-117 0 -189 72q-71 73 -71 190v445h75v-445q0 -87 51 -141q51 -53 133 -53t135 53q52 53 52 141zM458 768h-244v46h244v-46z" />
    <glyph glyph-name="umacron" unicode="&#x16b;" horiz-adv-x="531" 
d="M386 450h72v-265q0 -86 -54 -139q-53 -53 -139 -53t-139 53t-53 139v265h76v-265q0 -56 33 -91.5t85 -35.5q53 0 86 35.5t33 91.5v265zM387 543h-244v47h244v-47z" />
    <glyph glyph-name="Ubreve" unicode="&#x16c;" horiz-adv-x="673" 
d="M522 255v445h75v-445q0 -117 -73 -190q-72 -72 -188 -72q-117 0 -189 72q-71 73 -71 190v445h75v-445q0 -87 51 -141q51 -53 133 -53t135 53q52 53 52 141zM336 807q62 0 103 42l38 -38q-57 -59 -141 -59q-81 0 -140 59l38 38q40 -42 102 -42z" />
    <glyph glyph-name="ubreve" unicode="&#x16d;" horiz-adv-x="531" 
d="M386 450h72v-265q0 -86 -54 -139q-53 -53 -139 -53t-139 53t-53 139v265h76v-265q0 -56 33 -91.5t85 -35.5q53 0 86 35.5t33 91.5v265zM368 624l38 -38q-57 -59 -141 -59q-81 0 -140 60l38 38q40 -43 102 -43q61 0 103 42z" />
    <glyph glyph-name="Uring" unicode="&#x16e;" horiz-adv-x="673" 
d="M522 255v445h75v-445q0 -117 -73 -190q-72 -72 -188 -72q-117 0 -189 72q-71 73 -71 190v445h75v-445q0 -87 51 -141q51 -53 133 -53t135 53q52 53 52 141zM336 910q40 0 64 -24.5t24 -65.5q0 -40 -24 -64.5t-64 -24.5q-38 0 -62.5 24.5t-24.5 64.5t24.5 65t62.5 25z
M336 766q24 0 38.5 15t14.5 39t-14.5 39t-38.5 15q-23 0 -37.5 -15t-14.5 -39t14.5 -39t37.5 -15z" />
    <glyph glyph-name="uring" unicode="&#x16f;" horiz-adv-x="531" 
d="M265 685q40 0 64 -24.5t24 -64.5q0 -41 -24 -65.5t-64 -24.5q-39 0 -63.5 25t-24.5 65t24.5 64.5t63.5 24.5zM213 595q0 -24 14.5 -39t37.5 -15t38 15t15 39q2 33 -25.5 47.5t-55 0.5t-24.5 -48zM386 450h72v-265q0 -86 -54 -139q-53 -53 -139 -53t-139 53t-53 139v265
h76v-265q0 -56 33 -91.5t85 -35.5q53 0 86 35.5t33 91.5v265z" />
    <glyph glyph-name="Uhungarumlaut" unicode="&#x170;" horiz-adv-x="673" 
d="M522 255v445h75v-445q0 -117 -73 -190q-72 -72 -188 -72q-117 0 -189 72q-71 73 -71 190v445h75v-445q0 -87 51 -141q51 -53 133 -53t135 53q52 53 52 141zM238 737l-38 38l125 125l38 -38zM387 737l-38 38l126 125l38 -38z" />
    <glyph glyph-name="uhungarumlaut" unicode="&#x171;" horiz-adv-x="531" 
d="M386 450h72v-265q0 -86 -54 -139q-53 -53 -139 -53t-139 53t-53 139v265h76v-265q0 -56 33 -91.5t85 -35.5q53 0 86 35.5t33 91.5v265zM167 512l-38 38l125 125l38 -38zM316 512l-38 38l125 125l38 -38z" />
    <glyph glyph-name="Uogonek" unicode="&#x172;" horiz-adv-x="673" 
d="M392 -39q0 -27 15.5 -42.5t39.5 -15.5q27 0 40 16l28 -27q-26 -26 -67 -26q-42 0 -68 26t-26 69q0 20 7 33q-3 0 -13 -0.5t-12 -0.5q-117 0 -189 72q-71 73 -71 190v445h75v-445q0 -87 51 -141q51 -53 133 -53t135 53q52 53 52 141v445h75v-445q0 -99 -52.5 -167.5
t-142.5 -87.5q-10 -16 -10 -39z" />
    <glyph glyph-name="uogonek" unicode="&#x173;" horiz-adv-x="531" 
d="M312 -39q0 -27 15 -42.5t39 -15.5q25 0 41 16l27 -27q-24 -26 -67 -26q-42 0 -68 26t-26 69q0 18 6 33q-3 -1 -14 -1q-86 0 -139 53t-53 139v265h76v-265q0 -56 33 -91.5t85 -35.5q53 0 86 35.5t33 91.5v265h72v-265q0 -71 -36.5 -120t-99.5 -65q-10 -13 -10 -39z" />
    <glyph glyph-name="Wcircumflex" unicode="&#x174;" horiz-adv-x="1133" 
d="M1018 700h87l-263 -700h-76l-200 571l-199 -571h-76l-263 700h87l214 -584l198 584h79l199 -584zM441 775l125 125l126 -125l-38 -38l-88 87l-87 -87z" />
    <glyph glyph-name="wcircumflex" unicode="&#x175;" horiz-adv-x="792" 
d="M683 450h83l-174 -450h-76l-120 348l-120 -348h-76l-174 450h83l129 -362l121 362h74l121 -362zM271 550l125 125l125 -125l-38 -38l-87 87l-87 -87z" />
    <glyph glyph-name="Ycircumflex" unicode="&#x176;" horiz-adv-x="667" 
d="M371 0h-76v302l-267 398h88l217 -323l218 323h87l-267 -399v-301zM208 775l125 125l125 -125l-38 -38l-87 87l-87 -87z" />
    <glyph glyph-name="ycircumflex" unicode="&#x177;" horiz-adv-x="529" 
d="M422 450h81l-321 -700h-81l129 250l-204 450h81l158 -363zM139 550l126 125l125 -125l-38 -38l-87 87l-88 -87z" />
    <glyph glyph-name="Ydieresis" unicode="&#x178;" horiz-adv-x="667" 
d="M371 0h-76v302l-267 398h88l217 -323l218 323h87l-267 -399v-301zM193 797q0 31 28.5 43t50.5 -10t10 -50.5t-43 -28.5q-19 0 -32.5 13.5t-13.5 32.5zM380 797q0 20 13.5 33.5t33.5 13.5t33.5 -13.5t13.5 -33.5q0 -19 -13.5 -32.5t-33.5 -13.5t-33.5 13.5t-13.5 32.5z
" />
    <glyph glyph-name="Zacute" unicode="&#x179;" horiz-adv-x="625" 
d="M463 637h-406v63h515v-27l-413 -610h416v-63h-525v28zM289 737l-38 38l125 125l38 -38z" />
    <glyph glyph-name="zacute" unicode="&#x17a;" horiz-adv-x="470" 
d="M314 392h-260v58h366v-27l-264 -365h264v-58h-370v28zM211 512l-38 38l125 125l38 -38z" />
    <glyph glyph-name="Zdotaccent" unicode="&#x17b;" horiz-adv-x="625" 
d="M463 637h-406v63h515v-27l-413 -610h416v-63h-525v28zM263 810q0 20 14.5 34.5t34.5 14.5q21 0 35 -14.5t14 -34.5q0 -21 -14 -35t-35 -14q-20 0 -34.5 14t-14.5 35z" />
    <glyph glyph-name="zdotaccent" unicode="&#x17c;" horiz-adv-x="470" 
d="M314 392h-260v58h366v-27l-264 -365h264v-58h-370v28zM235 634q20 0 34.5 -14.5t14.5 -34.5t-14.5 -34.5t-34.5 -14.5q-21 0 -35 14.5t-14 34.5t14 34.5t35 14.5z" />
    <glyph glyph-name="Zcaron" unicode="&#x17d;" horiz-adv-x="625" 
d="M463 637h-406v63h515v-27l-413 -610h416v-63h-525v28zM438 862l-126 -125l-125 125l38 38l87 -87l88 87z" />
    <glyph glyph-name="zcaron" unicode="&#x17e;" horiz-adv-x="470" 
d="M360 637l-125 -125l-125 125l38 38l87 -87l87 87zM314 392h-260v58h366v-27l-264 -365h264v-58h-370v28z" />
    <glyph glyph-name="longs" unicode="&#x17f;" horiz-adv-x="302" 
d="M149 0h-76v606q0 68 41 109.5t109 41.5q33 0 54 -10v-62q-17 10 -42 10q-39 0 -62.5 -25t-23.5 -64v-606z" />
    <glyph glyph-name="uni018F" unicode="&#x18f;" horiz-adv-x="746" 
d="M50 350v29h566q-11 118 -85 188q-75 72 -191 72q-128 0 -205 -81l-48 48q98 101 256 101q156 0 254 -99q98 -100 98 -258t-89 -258q-88 -99 -233 -99q-144 0 -234 99q-89 100 -89 258zM373 61q101 0 167 70q68 71 75 185h-484q7 -114 74 -185q66 -70 168 -70z" />
    <glyph glyph-name="florin" unicode="&#x192;" horiz-adv-x="324" 
d="M40 -250v49q55 0 55 53v540h-62v58h62v156q0 68 41 109.5t109 41.5q33 0 54 -10v-62q-17 10 -42 10q-39 0 -62.5 -25t-23.5 -64v-156h128v-58h-128v-542q0 -48 -27 -76t-71 -28q-25 0 -33 4z" />
    <glyph glyph-name="uni01DD" unicode="&#x1dd;" horiz-adv-x="508" 
d="M45 244h343q-5 67 -48 107.5t-112 40.5q-77 0 -119 -47l-45 45q64 67 169 67q103 0 168 -65q64 -64 64 -169q0 -101 -59 -166q-58 -64 -155 -64t-151.5 67t-54.5 184zM249 57q57 0 94.5 36.5t44.5 98.5h-269q6 -63 40 -99t90 -36z" />
    <glyph glyph-name="Aringacute" unicode="&#x1fa;" horiz-adv-x="749" 
d="M352 859l-16 17l125 125l38 -38l-103 -103q31 -7 48.5 -30t17.5 -57q0 -61 -47 -82l306 -691h-87l-88 202h-343l-88 -202h-87l307 691q-48 21 -48 82q0 33 17.5 56t47.5 30zM518 270l-143 334l-144 -334h287zM322 772q0 -24 15 -39t38 -15t38 15t15 39q3 33 -25 47.5
t-56 0.5t-25 -48z" />
    <glyph glyph-name="aringacute" unicode="&#x1fb;" horiz-adv-x="453" 
d="M408 49v-49q-8 -4 -29 -4q-55 0 -75 48q-56 -51 -129 -51q-61 0 -95 35t-34 88q0 68 61 107t156 39q22 0 34 -3v55q0 34 -24.5 58.5t-66.5 24.5q-27 0 -54.5 -10.5t-43.5 -26.5l-40 40q56 57 144 57q73 0 115.5 -40.5t42.5 -102.5v-228q0 -37 38 -37zM190 657l-16 17
l126 126l38 -38l-104 -104q31 -6 49.5 -29.5t18.5 -58.5q0 -41 -24 -65.5t-64 -24.5q-39 0 -63.5 25t-24.5 65q0 34 17.5 57t46.5 30zM197 53q60 0 100 43v113q-18 2 -30 2q-66 0 -107 -24t-41 -64q0 -29 19.5 -49.5t58.5 -20.5zM176 609q-15 -15 -15 -39t14 -39
q15 -15 39 -15t38 15q15 15 15 39t-15 39t-38 15t-38 -15z" />
    <glyph glyph-name="AEacute" unicode="&#x1fc;" horiz-adv-x="772" 
d="M721 637h-271v-253h239v-63h-239v-258h276v-63h-351v202h-172l-88 -202h-87l311 700h382v-63zM375 604l-144 -334h144v334zM387 737l-38 38l125 125l38 -38z" />
    <glyph glyph-name="aeacute" unicode="&#x1fd;" horiz-adv-x="720" 
d="M297 259v55q0 34 -24.5 58.5t-66.5 24.5q-27 0 -54.5 -10.5t-43.5 -26.5l-40 40q56 57 144 57q79 0 119 -52q55 52 141 52q96 0 150.5 -67t54.5 -184h-307v-94q44 -54 124 -54q76 0 120 47l44 -45q-64 -67 -168 -67q-114 0 -174 69q-56 -69 -141 -69q-61 0 -95 35t-34 88
q0 68 61 107t156 39q22 0 34 -3zM370 314v-56h234q-7 64 -40.5 99.5t-89.5 35.5q-69 0 -107 -50q3 -27 3 -29zM297 101v108q-18 2 -30 2q-66 0 -107 -24t-41 -64q0 -29 19.5 -49.5t58.5 -20.5q58 0 100 48zM346 512l-38 38l125 125l38 -38z" />
    <glyph glyph-name="Oslashacute" unicode="&#x1fe;" horiz-adv-x="805" 
d="M132 -7h-79l90 104q-93 97 -93 253q0 158 98 258q98 99 255 99q123 0 214 -65l56 65h79l-90 -104q93 -99 93 -253q0 -158 -98 -258q-98 -99 -254 -99q-127 0 -215 64zM677 350q0 116 -65 196l-376 -433q68 -52 167 -52q121 0 198 80q76 79 76 209zM128 350
q0 -116 65 -196l376 433q-70 52 -166 52q-122 0 -199 -80q-76 -79 -76 -209zM379 737l-38 38l125 125l38 -38z" />
    <glyph glyph-name="oslashacute" unicode="&#x1ff;" horiz-adv-x="555" 
d="M129 -7h-76l53 67q-61 64 -61 165q0 104 64 168t169 64q68 0 121 -29l27 34h76l-56 -70q64 -61 64 -167q0 -104 -64 -168t-168 -64q-72 0 -125 31zM439 225q0 66 -35 113l-210 -264q36 -21 84 -21q72 0 116.5 47.5t44.5 124.5zM116 225q0 -65 33 -111l209 263
q-35 20 -80 20q-72 0 -117 -48t-45 -124zM254 512l-38 38l125 125l38 -38z" />
    <glyph glyph-name="Scommaaccent" unicode="&#x218;" horiz-adv-x="530" 
d="M454 625l-47 -48q-25 27 -66.5 44.5t-81.5 17.5q-59 0 -91.5 -34.5t-32.5 -83.5q0 -79 120 -124l61.5 -22.5t56.5 -27t54.5 -38t33.5 -49.5t14 -67q0 -82 -56 -141t-159 -59q-133 0 -219 92l47 47q30 -33 74.5 -52t90.5 -19q71 0 107 41q37 40 37 89q0 76 -120 119
q-39 14 -60 22t-57 27.5t-54.5 39t-33.5 51t-14 69.5q0 78 49 133t145 55q123 0 202 -82zM238 -217l-22 22q36 36 41 65q-15 1 -25.5 13t-10.5 27q0 25 21 37t42 0t21 -44q0 -56 -67 -120z" />
    <glyph glyph-name="scommaaccent" unicode="&#x219;" horiz-adv-x="384" 
d="M324 404l-45 -45q-35 36 -87 36q-32 0 -49.5 -19t-17.5 -46q0 -26 21.5 -43.5t52.5 -29t62.5 -25t53 -40t21.5 -64.5q0 -54 -39 -95q-39 -40 -110 -40q-91 0 -148 60l46 45q38 -44 97 -44q39 0 60 21.5t21 51.5q0 25 -21.5 42t-52.5 28t-62.5 25t-53 41t-21.5 66
q0 56 35.5 92t99.5 36q86 0 137 -53zM162 -217l-22 22q36 36 41 65q-15 1 -25.5 13t-10.5 27q0 18 12.5 30t30.5 12t29.5 -12.5t11.5 -36.5q0 -56 -67 -120z" />
    <glyph glyph-name="uni021A" unicode="&#x21a;" horiz-adv-x="557" 
d="M517 637h-201v-637h-75v637h-201v63h477v-63zM256 -217l-22 22q36 36 41 65q-15 1 -25.5 13t-10.5 27q0 18 12.5 30t30.5 12t29.5 -12.5t11.5 -36.5q0 -56 -67 -120z" />
    <glyph glyph-name="uni021B" unicode="&#x21b;" horiz-adv-x="319" 
d="M88 392h-58v58h58v100h75v-100h121v-58h-121v-253q0 -37 22 -60.5t58 -23.5q24 0 41 10v-62q-21 -10 -53 -10q-66 0 -104.5 40t-38.5 106v253zM152 -217l-22 22q36 36 41 65q-15 1 -25.5 13t-10.5 27q0 18 12 30t31 12q18 0 29.5 -12.5t11.5 -36.5q0 -56 -67 -120z" />
    <glyph glyph-name="dotlessj" unicode="&#x237;" 
d="M18 -250v49q55 0 55 53v598h73v-600q0 -48 -26 -76t-69 -28q-25 0 -33 4z" />
    <glyph glyph-name="circumflex" unicode="&#x2c6;" horiz-adv-x="352" 
d="M51 550l125 125l125 -125l-38 -38l-87 87l-87 -87z" />
    <glyph glyph-name="caron" unicode="&#x2c7;" horiz-adv-x="352" 
d="M301 637l-125 -125l-125 125l38 38l87 -87l87 87z" />
    <glyph glyph-name="breve" unicode="&#x2d8;" horiz-adv-x="354" 
d="M177 582q61 0 102 42l38 -38q-57 -59 -140 -59t-140 60l38 38q40 -43 102 -43z" />
    <glyph glyph-name="dotaccent" unicode="&#x2d9;" 
d="M110 634q20 0 34.5 -14.5t14.5 -34.5t-14.5 -34.5t-34.5 -14.5q-21 0 -35 14.5t-14 34.5t14 34.5t35 14.5z" />
    <glyph glyph-name="ring" unicode="&#x2da;" horiz-adv-x="275" 
d="M138 685q40 0 64 -24.5t24 -64.5q0 -41 -24 -65.5t-64 -24.5q-39 0 -63.5 25t-24.5 65t24.5 64.5t63.5 24.5zM86 595q0 -24 14.5 -39t37.5 -15t38 15t15 39q2 33 -25.5 47.5t-55 0.5t-24.5 -48z" />
    <glyph glyph-name="ogonek" unicode="&#x2db;" horiz-adv-x="256" 
d="M86 -39q0 -27 15.5 -42.5t39.5 -15.5q27 0 40 16l28 -27q-26 -26 -68 -26t-67.5 26t-25.5 69q0 24 9 39h39q-10 -16 -10 -39z" />
    <glyph glyph-name="tilde" unicode="&#x2dc;" horiz-adv-x="337" 
d="M73 539h-43q0 39 24 63.5t60 24.5q31 0 59 -25q29 -24 49 -24q18 0 30 12.5t12 31.5h43q0 -39 -23.5 -63t-61.5 -24q-32 0 -60 24t-47 24q-18 0 -30 -12t-12 -32z" />
    <glyph glyph-name="hungarumlaut" unicode="&#x2dd;" horiz-adv-x="414" 
d="M89 512l-38 38l125 125l38 -38zM238 512l-38 38l125 125l38 -38z" />
    <glyph glyph-name="uni0400" unicode="&#x400;" horiz-adv-x="498" 
d="M445 637h-294v-253h262v-63h-262v-258h299v-63h-374v700h369v-63zM161 862l38 38l125 -125l-38 -38z" />
    <glyph glyph-name="afii10023" unicode="&#x401;" horiz-adv-x="498" 
d="M445 637h-294v-253h262v-63h-262v-258h299v-63h-374v700h369v-63zM134 764q-13 14 -13 33t13 33q14 14 34 14t33 -14q14 -14 14 -33t-14 -33q-13 -13 -33 -13t-34 13zM309 797q0 30 28.5 43t50.5 -10q23 -22 10 -50.5t-43 -28.5q-19 0 -32.5 13.5t-13.5 32.5z" />
    <glyph glyph-name="afii10051" unicode="&#x402;" horiz-adv-x="694" 
d="M489 0v49q56 0 56 53v143q0 53 -31.5 86t-81.5 33q-71 0 -116 -45v-319h-75v637h-201v63h477v-63h-201v-253q56 46 133 46q78 0 124.5 -50.5t46.5 -134.5v-145q0 -48 -26 -76t-71 -28q-26 0 -34 4z" />
    <glyph glyph-name="afii10052" unicode="&#x403;" horiz-adv-x="466" 
d="M225 737l-38 38l125 125l38 -38zM151 0h-75v700h349v-63h-274v-637z" />
    <glyph glyph-name="afii10053" unicode="&#x404;" horiz-adv-x="699" 
d="M406 639q-116 0 -190 -70q-76 -71 -86 -185h415v-63h-415q9 -117 84 -189q76 -71 192 -71q127 0 204 80l49 -47q-98 -101 -256 -101q-157 0 -255 99q-98 100 -98 258t98 258q98 99 255 99q158 0 256 -101l-49 -48q-76 81 -204 81z" />
    <glyph glyph-name="afii10054" unicode="&#x405;" horiz-adv-x="530" 
d="M454 625l-47 -48q-25 27 -66.5 44.5t-81.5 17.5q-59 0 -91.5 -34.5t-32.5 -83.5q0 -79 120 -124l61.5 -22.5t56.5 -27t54.5 -38t33.5 -49.5t14 -67q0 -82 -56 -141t-159 -59q-133 0 -219 92l47 47q30 -33 74.5 -52t90.5 -19q71 0 107 41q37 40 37 89q0 76 -120 119
q-39 14 -60 22t-57 27.5t-54.5 39t-33.5 51t-14 69.5q0 78 49 133t145 55q123 0 202 -82z" />
    <glyph glyph-name="afii10055" unicode="&#x406;" horiz-adv-x="222" 
d="M149 0h-76v700h76v-700z" />
    <glyph glyph-name="afii10056" unicode="&#x407;" horiz-adv-x="222" 
d="M149 0h-76v700h76v-700zM79 797q0 -19 -13.5 -32.5t-32.5 -13.5q-31 0 -43 28.5t10 50.5t50.5 10t28.5 -43zM143 797q0 30 28.5 43t50.5 -10q23 -22 10 -50.5t-43 -28.5q-19 0 -32.5 13.5t-13.5 32.5z" />
    <glyph glyph-name="afii10057" unicode="&#x408;" horiz-adv-x="453" 
d="M304 190v510h75v-510q0 -88 -55 -143q-54 -54 -141 -54q-88 0 -143 55l49 49q35 -36 91 -36q55 0 89.5 35.5t34.5 93.5z" />
    <glyph glyph-name="afii10058" unicode="&#x409;" horiz-adv-x="942" 
d="M688 0h-199v637h-256v-464q0 -81 -40.5 -129t-105.5 -48q-37 0 -49 4v49q55 0 86.5 31.5t31.5 88.5v531h410v-309h122q91 0 147 -53t56 -142t-56 -143q-56 -53 -147 -53zM688 326h-122v-260h122q56 0 91 36t35 94t-35 94t-91 36z" />
    <glyph glyph-name="afii10059" unicode="&#x40a;" horiz-adv-x="937" 
d="M76 700h75v-309h333v309h77v-309h122q91 0 147 -53t56 -142t-56 -143q-56 -53 -147 -53h-199v326h-333v-326h-75v700zM683 326h-122v-260h122q56 0 91 36t35 94t-35 94t-91 36z" />
    <glyph glyph-name="afii10060" unicode="&#x40b;" horiz-adv-x="694" 
d="M517 637h-201v-253q56 46 133 46q78 0 124.5 -50.5t46.5 -134.5v-245h-75v245q0 53 -31.5 86t-81.5 33q-71 0 -116 -45v-319h-75v637h-201v63h477v-63z" />
    <glyph glyph-name="afii10061" unicode="&#x40c;" horiz-adv-x="596" 
d="M149 0h-76v700h76v-700zM565 0h-97l-309 359l289 341h95l-289 -341zM274 737l-38 38l125 125l38 -38z" />
    <glyph glyph-name="uni040D" unicode="&#x40d;" horiz-adv-x="706" 
d="M151 142l427 558h52v-700h-76v558l-427 -558h-51v700h75v-558zM251 862l38 38l125 -125l-38 -38z" />
    <glyph glyph-name="afii10062" unicode="&#x40e;" horiz-adv-x="609" 
d="M305 807q61 0 102 42l38 -38q-57 -59 -140 -59q-82 0 -141 59l38 38q41 -42 103 -42zM502 700h81l-352 -700h-81l119 220l-243 480h81l198 -393z" />
    <glyph glyph-name="afii10145" unicode="&#x40f;" horiz-adv-x="696" 
d="M313 -150v150h-237v700h75v-637h393v637h76v-700h-237v-150h-70z" />
    <glyph glyph-name="afii10017" unicode="&#x410;" horiz-adv-x="749" 
d="M721 0h-87l-88 202h-343l-88 -202h-87l311 700h72zM518 270l-143 334l-144 -334h287z" />
    <glyph glyph-name="afii10018" unicode="&#x411;" horiz-adv-x="537" 
d="M283 0h-207v700h356v-63h-278v-246h129q91 0 147 -53t56 -142t-56 -143q-56 -53 -147 -53zM283 326h-129v-260h129q56 0 91 36t35 94t-35 94t-91 36z" />
    <glyph glyph-name="afii10019" unicode="&#x412;" horiz-adv-x="545" 
d="M293 0h-217v700h191q84 0 135.5 -49t51.5 -131q0 -106 -82 -151q55 -18 87.5 -64.5t32.5 -111.5q0 -89 -55 -141t-144 -52zM417 198q0 58 -35 94t-92 36h-136v-262h136q57 0 92 36t35 96zM262 634h-108v-240h108q53 0 85 33t32 87t-32 87t-85 33z" />
    <glyph glyph-name="afii10020" unicode="&#x413;" horiz-adv-x="466" 
d="M151 0h-75v700h349v-63h-274v-637z" />
    <glyph glyph-name="afii10021" unicode="&#x414;" horiz-adv-x="680" 
d="M574 -150v150h-468v-150h-70v211q55 0 85 39.5t30 115.5v484h421v-637h72v-213h-70zM228 637v-422q0 -103 -55 -152h321v574h-266z" />
    <glyph glyph-name="afii10022" unicode="&#x415;" horiz-adv-x="498" 
d="M445 637h-294v-253h262v-63h-262v-258h299v-63h-374v700h369v-63z" />
    <glyph glyph-name="afii10024" unicode="&#x416;" horiz-adv-x="904" 
d="M489 0h-75v700h75v-700zM873 0h-89l-284 359l269 341h87l-269 -341zM135 700l269 -341l-284 -359h-90l286 359l-268 341h87z" />
    <glyph glyph-name="afii10025" unicode="&#x417;" horiz-adv-x="545" 
d="M290 328h-105v66h77q55 0 88.5 33.5t33.5 90.5q0 56 -33 89.5t-91 33.5q-88 0 -163 -75l-46 47q94 94 213 94q91 0 143 -50.5t52 -133.5q0 -111 -87 -154q56 -18 88 -64.5t32 -112.5q0 -92 -60 -145.5t-163 -53.5q-133 0 -229 101l49 47q76 -82 176 -82q71 0 111.5 37.5
t40.5 100.5q0 59 -35 95t-92 36z" />
    <glyph glyph-name="afii10026" unicode="&#x418;" horiz-adv-x="706" 
d="M151 142l427 558h52v-700h-76v558l-427 -558h-51v700h75v-558z" />
    <glyph glyph-name="afii10027" unicode="&#x419;" horiz-adv-x="706" 
d="M455 849l38 -38q-57 -59 -140 -59q-82 0 -141 59l39 38q41 -42 102 -42t102 42zM151 142l427 558h52v-700h-76v558l-427 -558h-51v700h75v-558z" />
    <glyph glyph-name="afii10028" unicode="&#x41a;" horiz-adv-x="596" 
d="M149 0h-76v700h76v-700zM565 0h-97l-309 359l289 341h95l-289 -341z" />
    <glyph glyph-name="afii10029" unicode="&#x41b;" horiz-adv-x="658" 
d="M38 0v49q55 0 86.5 31.5t31.5 88.5v531h426v-700h-78v637h-271v-464q0 -81 -40.5 -129t-105.5 -48q-37 0 -49 4z" />
    <glyph glyph-name="afii10030" unicode="&#x41c;" horiz-adv-x="809" 
d="M733 0h-75v545l-237 -384h-33l-237 384v-545h-75v700h57l271 -433l271 433h58v-700z" />
    <glyph glyph-name="afii10031" unicode="&#x41d;" horiz-adv-x="690" 
d="M76 700h75v-316h388v316h75v-700h-75v321h-388v-321h-75v700z" />
    <glyph glyph-name="afii10032" unicode="&#x41e;" horiz-adv-x="805" 
d="M148 92q-98 100 -98 258t98 258q98 99 255 99q156 0 254 -99q98 -100 98 -258t-98 -258q-98 -99 -254 -99q-157 0 -255 99zM204 559q-76 -79 -76 -209t76 -209q77 -80 199 -80q121 0 198 80q76 79 76 209t-76 209q-77 80 -198 80q-122 0 -199 -80z" />
    <glyph glyph-name="afii10033" unicode="&#x41f;" horiz-adv-x="661" 
d="M76 0v700h509v-700h-75v637h-359v-637h-75z" />
    <glyph glyph-name="afii10034" unicode="&#x420;" horiz-adv-x="519" 
d="M154 0h-78v700h189q91 0 147 -54q57 -52 57 -142t-57 -142q-56 -53 -147 -53h-111v-309zM265 634h-111v-260h111q56 0 91 36t35 94t-35 94t-91 36z" />
    <glyph glyph-name="afii10035" unicode="&#x421;" horiz-adv-x="699" 
d="M406 61q127 0 204 80l49 -47q-98 -101 -256 -101q-157 0 -255 99q-98 100 -98 258t98 258q98 99 255 99q158 0 256 -101l-49 -48q-76 81 -204 81q-124 0 -201 -80t-77 -209t77 -209t201 -80z" />
    <glyph glyph-name="afii10036" unicode="&#x422;" horiz-adv-x="557" 
d="M517 637h-201v-637h-75v637h-201v63h477v-63z" />
    <glyph glyph-name="afii10037" unicode="&#x423;" horiz-adv-x="609" 
d="M502 700h81l-352 -700h-81l119 220l-243 480h81l198 -393z" />
    <glyph glyph-name="afii10038" unicode="&#x424;" horiz-adv-x="769" 
d="M422 0h-75v68q-132 0 -215 78q-82 79 -82 204t82 203q82 79 215 79v68h75v-68q132 0 214 -78t82 -204t-82 -204t-214 -78v-68zM422 564v-428q97 0 158 59q61 60 61 155q0 96 -61 154q-60 60 -158 60zM347 136v428q-97 0 -158 -60q-61 -58 -61 -154q0 -95 61 -155
q62 -59 158 -59z" />
    <glyph glyph-name="afii10039" unicode="&#x425;" horiz-adv-x="721" 
d="M690 0h-97l-233 303l-233 -303h-96l274 354l-267 346h97l225 -294l225 294h97l-268 -346z" />
    <glyph glyph-name="afii10040" unicode="&#x426;" horiz-adv-x="725" 
d="M619 -150v150h-543v700h75v-637h393v637h76v-637h70v-213h-71z" />
    <glyph glyph-name="afii10041" unicode="&#x427;" horiz-adv-x="578" 
d="M502 700v-700h-73v315q-63 -19 -149 -19q-99 0 -151.5 55t-52.5 158v191h73v-189q0 -154 145 -154q85 0 135 19v324h73z" />
    <glyph glyph-name="afii10042" unicode="&#x428;" horiz-adv-x="1014" 
d="M938 700v-700h-862v700h75v-637h318v637h76v-637h318v637h75z" />
    <glyph glyph-name="afii10043" unicode="&#x429;" horiz-adv-x="1044" 
d="M938 -150v150h-862v700h75v-637h318v637h76v-637h318v637h75v-637h70v-213h-70z" />
    <glyph glyph-name="afii10044" unicode="&#x42a;" horiz-adv-x="649" 
d="M196 637h-156v63h233v-309h122q91 0 147 -53t56 -142t-56 -143q-56 -53 -147 -53h-199v637zM395 326h-122v-260h122q56 0 91 36t35 94t-35 94t-91 36z" />
    <glyph glyph-name="afii10045" unicode="&#x42b;" horiz-adv-x="731" 
d="M275 0h-199v700h78v-309h121q91 0 147 -53q57 -52 57 -142q0 -89 -57 -143q-56 -53 -147 -53zM275 326h-121v-260h121q56 0 91 36t35 94t-35 94t-91 36zM655 0h-75v700h75v-700z" />
    <glyph glyph-name="afii10046" unicode="&#x42c;" horiz-adv-x="529" 
d="M275 0h-199v700h78v-309h121q91 0 147 -53q57 -52 57 -142q0 -89 -57 -143q-56 -53 -147 -53zM275 326h-121v-260h121q56 0 91 36t35 94t-35 94t-91 36z" />
    <glyph glyph-name="afii10047" unicode="&#x42d;" horiz-adv-x="699" 
d="M89 558l-49 48q98 101 257 101q157 0 254 -99q98 -100 98 -258t-98 -258q-97 -99 -254 -99q-159 0 -257 101l49 47q77 -80 204 -80q116 0 192 71q77 72 84 189h-352v63h352q-10 115 -86 185q-74 70 -190 70q-126 0 -204 -81z" />
    <glyph glyph-name="afii10048" unicode="&#x42e;" horiz-adv-x="1029" 
d="M76 700h75v-316h186q10 145 98 234q87 89 222 89q145 0 233 -99q89 -100 89 -258t-89 -258q-88 -99 -233 -99q-135 0 -224 90q-87 90 -96 238h-186v-321h-75v700zM480 559q-67 -79 -67 -209t67 -209q68 -80 177 -80q108 0 176 80t68 209t-68 209t-176 80q-109 0 -177 -80
z" />
    <glyph glyph-name="afii10049" unicode="&#x42f;" horiz-adv-x="544" 
d="M254 700h214v-700h-77v309h-107l-162 -309h-86l173 312q-73 13 -116 64t-43 128q0 89 56 142q57 54 148 54zM254 374h137v260h-137q-56 0 -91 -36t-35 -94t35 -94t91 -36z" />
    <glyph glyph-name="afii10065" unicode="&#x430;" horiz-adv-x="453" 
d="M408 49v-49q-8 -4 -29 -4q-55 0 -75 48q-56 -51 -129 -51q-61 0 -95 35t-34 88q0 68 61 107t156 39q22 0 34 -3v55q0 34 -24.5 58.5t-66.5 24.5q-27 0 -54.5 -10.5t-43.5 -26.5l-40 40q56 57 144 57q73 0 115.5 -40.5t42.5 -102.5v-228q0 -37 38 -37zM197 53q60 0 100 43
v113q-18 2 -30 2q-66 0 -107 -24t-41 -64q0 -29 19.5 -49.5t58.5 -20.5z" />
    <glyph glyph-name="afii10066" unicode="&#x431;" horiz-adv-x="565" 
d="M434 755l41 -41q-57 -65 -178 -109q-36 -12 -61 -26.5t-51 -41.5t-40 -72t-15 -107h6q52 99 162 99q93 0 158 -65q64 -64 64 -169q0 -102 -65 -167q-65 -63 -176 -63q-105 0 -164 69t-59 243q0 98 21 168t53.5 104.5t76 60t83 36.5t80.5 32t64 49zM138 224q0 -76 39 -121
t109 -45q71 0 115 46.5t44 121.5q0 73 -44 120q-43 46 -114 46q-69 0 -109 -45.5t-40 -122.5z" />
    <glyph glyph-name="afii10067" unicode="&#x432;" horiz-adv-x="442" 
d="M255 0h-182v450h166q59 0 93 -31t34 -83q0 -66 -54 -98q80 -27 80 -114q0 -57 -37 -90.5t-100 -33.5zM243 208h-97v-152h97q34 0 55 21t21 55t-21 55t-55 21zM146 394v-135h82q30 0 48.5 19t18.5 49q0 29 -18.5 48t-48.5 19h-82z" />
    <glyph glyph-name="afii10068" unicode="&#x433;" horiz-adv-x="368" 
d="M327 392h-181v-392h-73v450h254v-58z" />
    <glyph glyph-name="afii10069" unicode="&#x434;" horiz-adv-x="534" 
d="M435 58h60v-178h-68v120h-322v-120h-68v178q38 0 63 28.5t25 71.5v292h310v-392zM198 392v-228q0 -66 -43 -106h208v334h-165z" />
    <glyph glyph-name="afii10070" unicode="&#x435;" horiz-adv-x="508" 
d="M465 206h-342q5 -67 48 -107.5t111 -40.5q76 0 120 47l44 -45q-64 -67 -168 -67q-105 0 -169 64t-64 170q0 101 59 166q60 64 156 64t150.5 -67t54.5 -184zM262 393q-57 0 -95 -36.5t-44 -98.5h269q-7 64 -40.5 99.5t-89.5 35.5z" />
    <glyph glyph-name="afii10072" unicode="&#x436;" horiz-adv-x="664" 
d="M633 0h-84l-181 234v-234h-72v235l-182 -235h-83l185 237l-169 213h84l165 -212v212h72v-211l165 211h84l-169 -213z" />
    <glyph glyph-name="afii10073" unicode="&#x437;" horiz-adv-x="408" 
d="M190 457q66 0 105.5 -32.5t39.5 -86.5q0 -70 -57 -102q80 -27 80 -116q0 -58 -43 -92.5t-119 -34.5q-94 0 -161 67l42 41q47 -48 113 -48q44 0 69.5 21.5t25.5 57.5q0 34 -20.5 54t-55.5 20h-69v51h52q31 0 51 20t20 50q0 29 -21 49.5t-58 20.5q-59 0 -100 -44l-41 42
q60 62 147 62z" />
    <glyph glyph-name="afii10074" unicode="&#x438;" horiz-adv-x="533" 
d="M73 450h73v-333l255 333h59v-450h-73v333l-255 -333h-59v450z" />
    <glyph glyph-name="afii10075" unicode="&#x439;" horiz-adv-x="533" 
d="M369 624l38 -38q-57 -59 -141 -59q-82 0 -140 60l38 38q40 -43 102 -43q61 0 103 42zM73 450h73v-333l255 333h59v-450h-73v333l-255 -333h-59v450z" />
    <glyph glyph-name="afii10076" unicode="&#x43a;" horiz-adv-x="465" 
d="M146 232v-232h-73v450h73v-209l185 209h87l-191 -213l208 -237h-87z" />
    <glyph glyph-name="afii10077" unicode="&#x43b;" horiz-adv-x="500" 
d="M38 0v49q39 0 61 22t22 63v316h305v-450h-72v392h-160v-261q0 -63 -31.5 -99t-84.5 -36q-31 0 -40 4z" />
    <glyph glyph-name="afii10078" unicode="&#x43c;" horiz-adv-x="599" 
d="M141 0h-68v450h70l157 -271l156 271h70v-450h-68v335l-137 -245h-43l-137 245v-335z" />
    <glyph glyph-name="afii10079" unicode="&#x43d;" horiz-adv-x="528" 
d="M73 450h73v-193h236v193h72v-450h-72v198h-236v-198h-73v450z" />
    <glyph glyph-name="afii10080" unicode="&#x43e;" horiz-adv-x="555" 
d="M109 57q-64 64 -64 168t64 168t169 64q103 0 168 -65q64 -64 64 -167q0 -104 -64 -168t-168 -64q-105 0 -169 64zM164 345q-43 -46 -43 -120q0 -75 43 -121t114 -46q70 0 113 46q44 47 44 121q0 73 -44 120t-113 47q-70 0 -114 -47z" />
    <glyph glyph-name="afii10081" unicode="&#x43f;" horiz-adv-x="515" 
d="M442 0h-73v392h-223v-392h-73v450h369v-450z" />
    <glyph glyph-name="afii10082" unicode="&#x440;" horiz-adv-x="541" 
d="M73 -250v700h73v-38q54 45 133 45q97 0 157 -65q60 -64 60 -167t-63 -168q-63 -64 -165 -64q-70 0 -122 33v-276h-73zM262 392q-71 0 -116 -45v-246q44 -43 116 -43q71 0 114 46q44 47 44 121q0 73 -44 120t-114 47z" />
    <glyph glyph-name="afii10083" unicode="&#x441;" horiz-adv-x="478" 
d="M280 58q75 0 117 47l45 -45q-61 -67 -166 -67q-103 0 -167 64t-64 168t64 168t167 64t166 -68l-45 -45q-43 48 -117 48q-71 0 -115 -46.5t-44 -120.5t44 -120.5t115 -46.5z" />
    <glyph glyph-name="afii10084" unicode="&#x442;" horiz-adv-x="434" 
d="M394 392h-140v-392h-73v392h-141v58h354v-58z" />
    <glyph glyph-name="afii10085" unicode="&#x443;" horiz-adv-x="529" 
d="M422 450h81l-321 -700h-81l129 250l-204 450h81l158 -363z" />
    <glyph glyph-name="afii10086" unicode="&#x444;" horiz-adv-x="678" 
d="M401 -5q-7 0 -25 2v-247h-73v247q-24 -2 -25 -2q-104 0 -169 63q-64 64 -64 167t64 166q64 64 169 64q1 0 25 -2v297h73v-297q18 2 25 2q104 0 168 -64q64 -63 64 -166t-64 -167q-65 -63 -168 -63zM401 392q-7 0 -25 -2v-330q18 -2 25 -2q70 0 113 46q44 47 44 121
q0 73 -44 120t-113 47zM278 58q1 0 25 2v330q-24 2 -25 2q-70 0 -114 -47q-43 -46 -43 -120q0 -75 43 -121t114 -46z" />
    <glyph glyph-name="afii10087" unicode="&#x445;" horiz-adv-x="513" 
d="M482 0h-85l-141 183l-141 -183h-84l178 229l-171 221h85l133 -173l134 173h85l-172 -221z" />
    <glyph glyph-name="afii10088" unicode="&#x446;" horiz-adv-x="535" 
d="M429 0h-356v450h73v-392h223v392h73v-392h55v-178h-68v120z" />
    <glyph glyph-name="afii10089" unicode="&#x447;" horiz-adv-x="475" 
d="M402 450v-450h-73v188q-48 -17 -103 -17q-74 0 -114.5 41.5t-40.5 113.5v124h73v-121q0 -45 25 -71.5t73 -26.5q52 0 87 20v199h73z" />
    <glyph glyph-name="afii10090" unicode="&#x448;" horiz-adv-x="710" 
d="M391 58h173v392h73v-450h-564v450h73v-392h173v392h72v-392z" />
    <glyph glyph-name="afii10091" unicode="&#x449;" horiz-adv-x="730" 
d="M623 0h-550v450h73v-392h173v392h72v-392h173v392h73v-392h54v-178h-68v120z" />
    <glyph glyph-name="afii10092" unicode="&#x44a;" horiz-adv-x="512" 
d="M323 0h-162v392h-121v58h193v-190h90q66 0 105 -36t39 -94t-39 -94t-105 -36zM321 204h-88v-148h88q32 0 52.5 20.5t20.5 53.5q0 32 -20.5 53t-52.5 21z" />
    <glyph glyph-name="afii10093" unicode="&#x44b;" horiz-adv-x="599" 
d="M236 0h-163v450h73v-190h90q66 0 105 -36t39 -94t-39 -94t-105 -36zM234 204h-88v-148h88q32 0 52.5 20.5t20.5 53.5q0 32 -20.5 53t-52.5 21zM526 0h-73v450h73v-450z" />
    <glyph glyph-name="afii10094" unicode="&#x44c;" horiz-adv-x="425" 
d="M236 0h-163v450h73v-190h90q66 0 105 -36t39 -94t-39 -94t-105 -36zM234 204h-88v-148h88q32 0 52.5 20.5t20.5 53.5q0 32 -20.5 53t-52.5 21z" />
    <glyph glyph-name="afii10095" unicode="&#x44d;" horiz-adv-x="478" 
d="M355 201h-201v53h201q-9 63 -51.5 100.5t-105.5 37.5q-75 0 -117 -47l-45 45q61 67 166 67q103 0 167 -64t64 -168t-64 -168t-167 -64q-102 0 -166 67l45 46q43 -48 117 -48q65 0 107.5 39t49.5 104z" />
    <glyph glyph-name="afii10096" unicode="&#x44e;" horiz-adv-x="747" 
d="M73 450h73v-193h113q10 90 70.5 145t150.5 55q98 0 160 -65t62 -167q0 -103 -62 -168q-61 -64 -160 -64q-92 0 -153 56q-60 56 -68 149h-113v-198h-73v450zM374 345q-41 -47 -41 -120q0 -74 41 -121q40 -46 106 -46t106 46q41 47 41 121q0 73 -41 120t-106 47t-106 -47z
" />
    <glyph glyph-name="afii10097" unicode="&#x44f;" horiz-adv-x="463" 
d="M212 450h177v-450h-73v185h-82l-102 -185h-77l112 190q-48 11 -75 45t-27 82q0 61 39.5 97t107.5 36zM214 241h102v153h-102q-34 0 -55 -21t-21 -55t21 -55.5t55 -21.5z" />
    <glyph glyph-name="uni0450" unicode="&#x450;" horiz-adv-x="508" 
d="M465 206h-342q5 -67 48 -107.5t111 -40.5q76 0 120 47l44 -45q-64 -67 -168 -67q-105 0 -169 64t-64 170q0 101 59 166q60 64 156 64t150.5 -67t54.5 -184zM262 393q-57 0 -95 -36.5t-44 -98.5h269q-7 64 -40.5 99.5t-89.5 35.5zM159 637l38 38l126 -125l-38 -38z" />
    <glyph glyph-name="afii10071" unicode="&#x451;" horiz-adv-x="508" 
d="M465 206h-342q5 -67 48 -107.5t111 -40.5q76 0 120 47l44 -45q-64 -67 -168 -67q-105 0 -169 64t-64 170q0 101 59 166q60 64 156 64t150.5 -67t54.5 -184zM262 393q-57 0 -95 -36.5t-44 -98.5h269q-7 64 -40.5 99.5t-89.5 35.5zM214 552q0 -19 -13.5 -32.5t-33.5 -13.5
q-30 0 -42 28.5t9 50.5q22 22 51 10t29 -43zM321 519q-13 13 -13 33t13 33q13 14 33 14t33 -14q14 -13 14 -33t-14 -33q-13 -13 -33 -13t-33 13z" />
    <glyph glyph-name="afii10099" unicode="&#x452;" horiz-adv-x="538" 
d="M333 -250v49q56 0 56 53v421q0 53 -31.5 86t-81.5 33q-72 0 -115 -45v-347h-73v592h-58v58h58v100h73v-100h173v-58h-173v-179q56 44 132 44t122.5 -50.5t46.5 -133.5v-423q0 -48 -26 -76t-70 -28q-25 0 -33 4z" />
    <glyph glyph-name="afii10100" unicode="&#x453;" horiz-adv-x="368" 
d="M175 512l-38 38l125 125l38 -38zM327 392h-181v-392h-73v450h254v-58z" />
    <glyph glyph-name="afii10101" unicode="&#x454;" horiz-adv-x="478" 
d="M280 392q-64 0 -106.5 -37.5t-50.5 -100.5h232v-53h-233q8 -66 50.5 -104.5t107.5 -38.5q75 0 117 47l45 -45q-61 -67 -166 -67q-103 0 -167 64t-64 168t64 168t167 64t166 -68l-45 -45q-43 48 -117 48z" />
    <glyph glyph-name="afii10102" unicode="&#x455;" horiz-adv-x="384" 
d="M324 404l-45 -45q-35 36 -87 36q-32 0 -49.5 -19t-17.5 -46q0 -26 21.5 -43.5t52.5 -29t62.5 -25t53 -40t21.5 -64.5q0 -54 -39 -95q-39 -40 -110 -40q-91 0 -148 60l46 45q38 -44 97 -44q39 0 60 21.5t21 51.5q0 25 -21.5 42t-52.5 28t-62.5 25t-53 41t-21.5 66
q0 56 35.5 92t99.5 36q86 0 137 -53z" />
    <glyph glyph-name="afii10103" unicode="&#x456;" 
d="M146 0h-73v450h73v-450zM110 634q20 0 34.5 -14.5t14.5 -34.5t-14.5 -34.5t-34.5 -14.5q-21 0 -35 14.5t-14 34.5t14 34.5t35 14.5z" />
    <glyph glyph-name="afii10104" unicode="&#x457;" 
d="M146 0h-73v450h73v-450zM-13 560q-2 29 29 42t51 -9q22 -20 9 -51t-42 -29q-20 0 -33.5 13.5t-13.5 33.5zM185 607q20 0 33.5 -13.5t13.5 -33.5t-13.5 -33.5t-33.5 -13.5q-19 0 -32.5 13.5t-13.5 33.5t13.5 33.5t32.5 13.5z" />
    <glyph glyph-name="afii10105" unicode="&#x458;" 
d="M110 634q20 0 34.5 -14.5t14.5 -34.5t-14.5 -34.5t-34.5 -14.5q-21 0 -35 14.5t-14 34.5t14 34.5t35 14.5zM18 -250v49q55 0 55 53v598h73v-600q0 -48 -26 -76t-69 -28q-25 0 -33 4z" />
    <glyph glyph-name="afii10106" unicode="&#x459;" horiz-adv-x="700" 
d="M516 0h-162v392h-160v-261q0 -63 -31.5 -99t-84.5 -36q-31 0 -40 4v49q39 0 61 22t22 63v316h305v-190h90q66 0 105 -36t39 -94t-39 -94t-105 -36zM514 204h-88v-148h88q32 0 52.5 20.5t20.5 53.5q0 32 -20.5 53t-52.5 21z" />
    <glyph glyph-name="afii10107" unicode="&#x45a;" horiz-adv-x="728" 
d="M73 450h73v-193h230v193h73v-193h96q65 0 102.5 -35.5t37.5 -93.5t-37.5 -93t-102.5 -35h-169v198h-230v-198h-73v450zM543 198h-94v-142h94q31 0 50 19.5t19 51.5q0 33 -19 52t-50 19z" />
    <glyph glyph-name="afii10108" unicode="&#x45b;" horiz-adv-x="538" 
d="M88 592h-58v58h58v100h73v-100h173v-58h-173v-179q56 44 132 44t122.5 -50.5t46.5 -133.5v-273h-73v273q0 53 -31.5 86t-81.5 33q-72 0 -115 -45v-347h-73v592z" />
    <glyph glyph-name="afii10109" unicode="&#x45c;" horiz-adv-x="465" 
d="M146 232v-232h-73v450h73v-209l185 209h87l-191 -213l208 -237h-87zM209 512l-38 38l125 125l38 -38z" />
    <glyph glyph-name="uni045D" unicode="&#x45d;" horiz-adv-x="533" 
d="M73 450h73v-333l255 333h59v-450h-73v333l-255 -333h-59v450zM165 637l38 38l125 -125l-38 -38z" />
    <glyph glyph-name="afii10110" unicode="&#x45e;" horiz-adv-x="529" 
d="M422 450h81l-321 -700h-81l129 250l-204 450h81l158 -363zM367 624l38 -38q-57 -59 -140 -59t-141 60l38 38q40 -43 103 -43q61 0 102 42z" />
    <glyph glyph-name="afii10193" unicode="&#x45f;" horiz-adv-x="515" 
d="M292 -120h-68v120h-151v450h73v-392h223v392h73v-450h-150v-120z" />
    <glyph glyph-name="afii10050" unicode="&#x490;" horiz-adv-x="464" 
d="M410 637h-259v-637h-75v700h276v125h58v-188z" />
    <glyph glyph-name="afii10098" unicode="&#x491;" horiz-adv-x="365" 
d="M317 392h-171v-392h-73v450h186v100h58v-158z" />
    <glyph glyph-name="uni04D8" unicode="&#x4d8;" horiz-adv-x="746" 
d="M50 350v29h566q-11 118 -85 188q-75 72 -191 72q-128 0 -205 -81l-48 48q98 101 256 101q156 0 254 -99q98 -100 98 -258t-89 -258q-88 -99 -233 -99q-144 0 -234 99q-89 100 -89 258zM373 61q101 0 167 70q68 71 75 185h-484q7 -114 74 -185q66 -70 168 -70z" />
    <glyph glyph-name="afii10846" unicode="&#x4d9;" horiz-adv-x="508" 
d="M45 244h343q-5 67 -48 107.5t-112 40.5q-77 0 -119 -47l-45 45q64 67 169 67q103 0 168 -65q64 -64 64 -169q0 -101 -59 -166q-58 -64 -155 -64t-151.5 67t-54.5 184zM249 57q57 0 94.5 36.5t44.5 98.5h-269q6 -63 40 -99t90 -36z" />
    <glyph glyph-name="Wgrave" unicode="&#x1e80;" horiz-adv-x="1133" 
d="M1018 700h87l-263 -700h-76l-200 571l-199 -571h-76l-263 700h87l214 -584l198 584h79l199 -584zM465 862l38 38l125 -125l-38 -38z" />
    <glyph glyph-name="wgrave" unicode="&#x1e81;" horiz-adv-x="792" 
d="M683 450h83l-174 -450h-76l-120 348l-120 -348h-76l-174 450h83l129 -362l121 362h74l121 -362zM295 637l38 38l125 -125l-38 -38z" />
    <glyph glyph-name="Wacute" unicode="&#x1e82;" horiz-adv-x="1133" 
d="M1018 700h87l-263 -700h-76l-200 571l-199 -571h-76l-263 700h87l214 -584l198 584h79l199 -584zM543 737l-38 38l125 125l38 -38z" />
    <glyph glyph-name="wacute" unicode="&#x1e83;" horiz-adv-x="792" 
d="M683 450h83l-174 -450h-76l-120 348l-120 -348h-76l-174 450h83l129 -362l121 362h74l121 -362zM373 512l-38 38l125 125l38 -38z" />
    <glyph glyph-name="Wdieresis" unicode="&#x1e84;" horiz-adv-x="1133" 
d="M1018 700h87l-263 -700h-76l-200 571l-199 -571h-76l-263 700h87l214 -584l198 584h79l199 -584zM426 797q0 20 13.5 33.5t32.5 13.5q31 0 43 -29t-10 -51q-22 -21 -50.5 -9t-28.5 42zM613 797q0 20 13.5 33.5t33.5 13.5t33.5 -13.5t13.5 -33.5q0 -19 -13.5 -32.5
t-33.5 -13.5t-33.5 13.5t-13.5 32.5z" />
    <glyph glyph-name="wdieresis" unicode="&#x1e85;" horiz-adv-x="792" 
d="M683 450h83l-174 -450h-76l-120 348l-120 -348h-76l-174 450h83l129 -362l121 362h74l121 -362zM256 573q0 30 28.5 42.5t50.5 -10.5q22 -20 10 -49.5t-43 -29.5q-19 0 -32.5 13.5t-13.5 33.5zM489 620q20 0 34 -13.5t14 -33.5t-14 -33.5t-34 -13.5q-19 0 -32.5 13.5
t-13.5 33.5t13.5 33.5t32.5 13.5z" />
    <glyph glyph-name="Ygrave" unicode="&#x1ef2;" horiz-adv-x="667" 
d="M371 0h-76v302l-267 398h88l217 -323l218 323h87l-267 -399v-301zM232 862l38 38l125 -125l-38 -38z" />
    <glyph glyph-name="ygrave" unicode="&#x1ef3;" horiz-adv-x="529" 
d="M422 450h81l-321 -700h-81l129 250l-204 450h81l158 -363zM163 637l38 38l125 -125l-38 -38z" />
    <glyph glyph-name="figuredash" unicode="&#x2012;" horiz-adv-x="500" 
d="M439 321h-378v58h378v-58z" />
    <glyph glyph-name="endash" unicode="&#x2013;" horiz-adv-x="500" 
d="M439 236h-378v58h378v-58z" />
    <glyph glyph-name="emdash" unicode="&#x2014;" horiz-adv-x="700" 
d="M639 236h-578v58h578v-58z" />
    <glyph glyph-name="quoteleft" unicode="&#x2018;" 
d="M139 707l26 -26q-39 -38 -47 -73q18 -2 29.5 -15.5t11.5 -32.5q0 -20 -14 -34.5t-35 -14.5t-35 15t-14 42q0 62 78 139z" />
    <glyph glyph-name="quoteright" unicode="&#x2019;" 
d="M82 511l-26 26q40 41 46 73q-17 3 -29 16.5t-12 31.5q0 21 14 35t35 14t35 -14.5t14 -42.5q0 -62 -77 -139z" />
    <glyph glyph-name="quotesinglbase" unicode="&#x201a;" 
d="M82 -105l-26 26q40 40 46 73q-17 2 -29 15.5t-12 32.5q0 20 14 34.5t35 14.5t35 -14.5t14 -42.5q0 -62 -77 -139z" />
    <glyph glyph-name="quotedblleft" unicode="&#x201c;" horiz-adv-x="353" 
d="M272 731l26 -26q-40 -40 -46 -73q17 -2 29 -15.5t12 -32.5q0 -20 -14.5 -34.5t-35.5 -14.5q-20 0 -34 15t-14 42q0 62 77 139zM139 731l26 -26q-39 -38 -47 -73q18 -2 29.5 -15.5t11.5 -32.5q0 -20 -14 -34.5t-35 -14.5t-35 15t-14 42q0 62 78 139z" />
    <glyph glyph-name="quotedblright" unicode="&#x201d;" horiz-adv-x="353" 
d="M82 535l-26 26q40 41 46 73q-17 3 -29 16.5t-12 31.5q0 21 14 35t35 14t35 -14.5t14 -42.5q0 -62 -77 -139zM215 535l-26 26q40 40 47 73q-18 3 -30 16.5t-12 31.5q0 21 14.5 35t35.5 14t34.5 -14.5t13.5 -42.5q0 -64 -77 -139z" />
    <glyph glyph-name="quotedblbase" unicode="&#x201e;" horiz-adv-x="353" 
d="M82 -105l-26 26q40 40 46 73q-17 2 -29 15.5t-12 32.5q0 20 14 34.5t35 14.5t35 -14.5t14 -42.5q0 -62 -77 -139zM215 -105l-26 26q40 38 47 73q-18 2 -30 15.5t-12 32.5q0 20 14.5 34.5t35.5 14.5t34.5 -15t13.5 -42q0 -64 -77 -139z" />
    <glyph glyph-name="dagger" unicode="&#x2020;" horiz-adv-x="500" 
d="M214 392h-153v58h153v300h72v-300h153v-58h-153v-642h-72v642z" />
    <glyph glyph-name="daggerdbl" unicode="&#x2021;" horiz-adv-x="500" 
d="M214 66h-153v58h153v268h-153v58h153v300h72v-300h153v-58h-153v-268h153v-58h-153v-316h-72v316z" />
    <glyph glyph-name="bullet" unicode="&#x2022;" horiz-adv-x="259" 
d="M79 224q-21 21 -21 51t21 50q21 21 51 21t50 -21q21 -20 21 -50t-21 -51q-20 -20 -50 -20t-51 20z" />
    <glyph glyph-name="ellipsis" unicode="&#x2026;" horiz-adv-x="659" 
d="M61 42q0 20 14 34.5t35 14.5q20 0 34.5 -14.5t14.5 -34.5q0 -21 -14.5 -35t-34.5 -14q-21 0 -35 14t-14 35zM280 42q0 20 14.5 34.5t34.5 14.5q21 0 35 -14.5t14 -34.5q0 -21 -14 -35t-35 -14q-20 0 -34.5 14t-14.5 35zM500 42q0 20 14.5 34.5t34.5 14.5t34.5 -14.5
t14.5 -34.5q0 -21 -14.5 -35t-34.5 -14t-34.5 14t-14.5 35z" />
    <glyph glyph-name="perthousand" unicode="&#x2030;" horiz-adv-x="1247" 
d="M281 0h-74l368 700h74zM210 707q75 0 122 -46.5t47 -122.5t-47 -122.5t-122 -46.5q-76 0 -123 46.5t-47 122.5t47 122.5t123 46.5zM135 619q-29 -32 -29 -81q0 -50 29 -82q28 -31 75 -31q46 0 74 31q29 32 29 82q0 49 -29 81t-74 32q-46 0 -75 -32zM645 331
q76 0 123 -46.5t47 -122.5t-47 -122.5t-123 -46.5q-75 0 -122 46.5t-47 122.5t47 122.5t122 46.5zM570 243q-28 -31 -28 -81q0 -51 28 -82t75 -31t75 31q29 32 29 82q0 49 -29 81t-75 32t-75 -32zM1037 331q76 0 122.5 -46.5t46.5 -122.5t-46.5 -122.5t-122.5 -46.5
q-75 0 -122 46.5t-47 122.5t47 122.5t122 46.5zM962 243q-28 -31 -28 -81q0 -51 28 -82t75 -31t75 31q29 32 29 82q0 49 -29 81t-75 32t-75 -32z" />
    <glyph glyph-name="guilsinglleft" unicode="&#x2039;" horiz-adv-x="300" 
d="M244 117l-38 -38l-170 171l170 171l38 -38l-132 -133z" />
    <glyph glyph-name="guilsinglright" unicode="&#x203a;" horiz-adv-x="300" 
d="M89 421l171 -171l-171 -171l-38 38l133 133l-133 133z" />
    <glyph glyph-name="fraction" unicode="&#x2044;" horiz-adv-x="530" 
d="M109 0h-56l368 700h56z" />
    <glyph glyph-name="Euro" unicode="&#x20ac;" horiz-adv-x="747" 
d="M100 396h-60v44h67q25 122 118 195q91 72 225 72q159 0 257 -101l-49 -48q-78 81 -204 81q-100 0 -171 -53.5t-96 -145.5h268v-44h-276q-6 -46 0 -92h276v-44h-268q25 -92 96 -145.5t171 -53.5q127 0 204 80l49 -47q-98 -101 -257 -101q-134 0 -225 72q-93 73 -118 195
h-67v44h60q-2 40 -2 46t2 46z" />
    <glyph glyph-name="uni20B4" unicode="&#x20b4;" horiz-adv-x="427" 
d="M206 390h-163v44h207l14 14q43 40 43 91q0 45 -30.5 73.5t-77.5 28.5q-69 0 -108 -48l-47 47q58 67 155 67q83 0 132 -46q51 -47 51 -120q0 -57 -41 -107h43v-44h-84l-78 -78h162v-44h-205l-16 -16q-43 -40 -43 -91q0 -45 30.5 -73.5t77.5 -28.5q69 0 108 48l47 -47
q-58 -67 -155 -67q-83 0 -133 46q-50 47 -50 120q0 59 42 109h-44v44h86z" />
    <glyph glyph-name="afii61352" unicode="&#x2116;" horiz-adv-x="995" 
d="M76 0v700h51l435 -558v558h75v-700h-51l-435 558v-558h-75zM837 704q58 0 93.5 -35.5t35.5 -92.5t-35.5 -92.5t-93.5 -35.5q-57 0 -92.5 35.5t-35.5 92.5t35.5 92.5t92.5 35.5zM757 576q0 -39 22.5 -62.5t57.5 -23.5q36 0 58.5 23.5t22.5 62.5q0 38 -22.5 62t-58.5 24
q-35 0 -57.5 -24t-22.5 -62z" />
    <glyph glyph-name="trademark" unicode="&#x2122;" horiz-adv-x="684" 
d="M264 662h-97v-312h-46v312h-97v38h240v-38zM645 350h-46v257l-112 -180h-18l-112 180v-257h-45v350h34l132 -207l132 207h35v-350z" />
    <glyph glyph-name="arrowleft" unicode="&#x2190;" horiz-adv-x="996" 
d="M454 45l-48 -49l-354 354l354 354l47 -48l-272 -272h738v-68h-738z" />
    <glyph glyph-name="arrowup" unicode="&#x2191;" horiz-adv-x="811" 
d="M440 -162h-68v737l-272 -273l-48 48l354 354l353 -354l-48 -47l-271 272v-737z" />
    <glyph glyph-name="arrowright" unicode="&#x2192;" horiz-adv-x="996" 
d="M814 316h-737v68h737l-272 272l48 48l354 -354l-354 -354l-48 49z" />
    <glyph glyph-name="arrowdown" unicode="&#x2193;" horiz-adv-x="811" 
d="M759 187l-353 -354l-354 354l48 48l272 -272v737h68v-737l271 272z" />
    <glyph glyph-name="uni2196" unicode="&#x2196;" horiz-adv-x="766" 
d="M145 132h-68v500h500v-68h-384l521 -521l-48 -48l-521 522v-385z" />
    <glyph glyph-name="uni2197" unicode="&#x2197;" horiz-adv-x="766" 
d="M574 564h-385v68h500v-500h-68v385l-521 -522l-48 48z" />
    <glyph glyph-name="uni2198" unicode="&#x2198;" horiz-adv-x="766" 
d="M689 0h-500v68h385l-522 521l48 48l521 -521v384h68v-500z" />
    <glyph glyph-name="uni2199" unicode="&#x2199;" horiz-adv-x="766" 
d="M577 0h-500v500h68v-384l521 521l48 -48l-521 -521h384v-68z" />
    <glyph glyph-name="minus" unicode="&#x2212;" horiz-adv-x="436" 
d="M375 273h-314v59h314v-59z" />
    <glyph glyph-name="commaaccent" unicode="&#xf6c3;" 
d="M85 -217l-22 22q37 36 41 65q-15 1 -25.5 13t-10.5 27q0 25 21 37t42 0t21 -44q0 -56 -67 -120z" />
    <glyph glyph-name="NULL" horiz-adv-x="0" 
 />
    <glyph glyph-name="CR" horiz-adv-x="333" 
 />
    <glyph glyph-name="adieresis.alt" horiz-adv-x="539" 
d="M279 457q124 0 187 -73v-384h-73v36q-53 -43 -131 -43q-97 0 -157 64q-60 65 -60 168q0 104 64 168t170 64zM121 225q0 -74 44 -121q43 -46 115 -46q71 0 113 42v256q-43 36 -116 36q-70 0 -113 -46t-43 -121zM371 620q20 0 33.5 -13.5t13.5 -33.5t-13.5 -33.5
t-33.5 -13.5q-19 0 -32.5 13.5t-13.5 33.5t13.5 33.5t32.5 13.5zM138 573q0 30 28.5 42.5t50.5 -10.5q22 -20 10 -49.5t-43 -29.5q-19 0 -32.5 13.5t-13.5 33.5z" />
    <glyph glyph-name="agrave.alt" horiz-adv-x="539" 
d="M279 457q124 0 187 -73v-384h-73v36q-53 -43 -131 -43q-97 0 -157 64q-60 65 -60 168q0 104 64 168t170 64zM121 225q0 -74 44 -121q43 -46 115 -46q71 0 113 42v256q-43 36 -116 36q-70 0 -113 -46t-43 -121zM177 637l38 38l125 -125l-38 -38z" />
    <glyph glyph-name="amacron.alt" horiz-adv-x="539" 
d="M279 457q124 0 187 -73v-384h-73v36q-53 -43 -131 -43q-97 0 -157 64q-60 65 -60 168q0 104 64 168t170 64zM121 225q0 -74 44 -121q43 -46 115 -46q71 0 113 42v256q-43 36 -116 36q-70 0 -113 -46t-43 -121zM400 543h-244v47h244v-47z" />
    <glyph glyph-name="aogonek.alt" horiz-adv-x="539" 
d="M422 -39q-3 -39 34 -53.5t61 11.5l27 -27q-24 -26 -67 -26q-42 0 -67.5 26t-25.5 69q0 24 9 39v36q-53 -43 -131 -43q-97 0 -157 64q-60 65 -60 168q0 104 64 168t170 64q124 0 187 -73v-384h-34q-10 -13 -10 -39zM121 225q0 -74 44 -121q43 -46 115 -46q71 0 113 42v256
q-43 36 -116 36q-70 0 -113 -46t-43 -121z" />
    <glyph glyph-name="aring.alt" horiz-adv-x="539" 
d="M279 457q124 0 187 -73v-384h-73v36q-53 -43 -131 -43q-97 0 -157 64q-60 65 -60 168q0 104 64 168t170 64zM121 225q0 -74 44 -121q43 -46 115 -46q71 0 113 42v256q-43 36 -116 36q-70 0 -113 -46t-43 -121zM279 685q40 0 64 -24.5t24 -64.5q0 -41 -24 -65.5t-64 -24.5
q-38 0 -62.5 25t-24.5 65t24.5 64.5t62.5 24.5zM227 595q0 -24 14.5 -39t37.5 -15q24 0 38.5 15t14.5 39q2 34 -25.5 48t-55 0t-24.5 -48z" />
    <glyph glyph-name="atilde.alt" horiz-adv-x="539" 
d="M279 457q124 0 187 -73v-384h-73v36q-53 -43 -131 -43q-97 0 -157 64q-60 65 -60 168q0 104 64 168t170 64zM121 225q0 -74 44 -121q43 -46 115 -46q71 0 113 42v256q-43 36 -116 36q-70 0 -113 -46t-43 -121zM184 539h-43q0 39 23.5 63.5t60.5 24.5q31 0 59 -25
q28 -24 48 -24q19 0 31 12.5t12 31.5h42q0 -39 -23.5 -63t-61.5 -24q-32 0 -60 24q-27 24 -46 24t-30.5 -12t-11.5 -32z" />
    <glyph glyph-name="g.alt" horiz-adv-x="539" 
d="M393 -33v63q-52 -37 -126 -37q-100 0 -161 64t-61 168t64 168t170 64q124 0 187 -73v-417q0 -102 -61 -163t-161 -61q-106 0 -171 68l45 45q46 -48 122 -48q70 0 111.5 43t41.5 116zM121 225q0 -75 43 -121t114 -46q73 0 115 47v251q-43 36 -116 36q-70 0 -113 -46
t-43 -121z" />
    <glyph glyph-name="gbreve.alt" horiz-adv-x="539" 
d="M393 -33v63q-52 -37 -126 -37q-100 0 -161 64t-61 168t64 168t170 64q124 0 187 -73v-417q0 -102 -61 -163t-161 -61q-106 0 -171 68l45 45q46 -48 122 -48q70 0 111.5 43t41.5 116zM121 225q0 -75 43 -121t114 -46q73 0 115 47v251q-43 36 -116 36q-70 0 -113 -46
t-43 -121zM276 582q62 0 102 42l38 -38q-56 -59 -140 -59q-82 0 -140 60l38 38q40 -43 102 -43z" />
    <glyph glyph-name="gcircumflex.alt" horiz-adv-x="539" 
d="M393 -33v63q-52 -37 -126 -37q-100 0 -161 64t-61 168t64 168t170 64q124 0 187 -73v-417q0 -102 -61 -163t-161 -61q-106 0 -171 68l45 45q46 -48 122 -48q70 0 111.5 43t41.5 116zM121 225q0 -75 43 -121t114 -46q73 0 115 47v251q-43 36 -116 36q-70 0 -113 -46
t-43 -121zM151 550l126 125l125 -125l-38 -38l-87 87l-88 -87z" />
    <glyph glyph-name="gcommaaccent.alt" horiz-adv-x="539" 
d="M393 -33v63q-52 -37 -126 -37q-100 0 -161 64t-61 168t64 168t170 64q124 0 187 -73v-417q0 -102 -61 -163t-161 -61q-106 0 -171 68l45 45q46 -48 122 -48q70 0 111.5 43t41.5 116zM121 225q0 -75 43 -121t114 -46q73 0 115 47v251q-43 36 -116 36q-70 0 -113 -46
t-43 -121zM299 683l23 -22q-37 -38 -41 -65q15 -2 25 -13.5t10 -27.5q0 -17 -12 -29.5t-30 -12.5t-29.5 13t-11.5 36q0 55 66 121z" />
    <glyph glyph-name="gdotaccent.alt" horiz-adv-x="539" 
d="M393 -33v63q-52 -37 -126 -37q-100 0 -161 64t-61 168t64 168t170 64q124 0 187 -73v-417q0 -102 -61 -163t-161 -61q-106 0 -171 68l45 45q46 -48 122 -48q70 0 111.5 43t41.5 116zM121 225q0 -75 43 -121t114 -46q73 0 115 47v251q-43 36 -116 36q-70 0 -113 -46
t-43 -121zM276 634q20 0 34.5 -14.5t14.5 -34.5t-14.5 -34.5t-34.5 -14.5q-21 0 -35 14.5t-14 34.5t14 34.5t35 14.5z" />
    <glyph glyph-name="afii10021.alt" horiz-adv-x="816" 
d="M710 -150v150h-604v-150h-70v213h56l280 637h72l280 -637h56v-213h-70zM637 63l-229 542l-229 -542h458z" />
    <glyph glyph-name="afii10029.alt" horiz-adv-x="749" 
d="M117 0h-89l311 700h72l310 -700h-89l-257 602z" />
    <glyph glyph-name="afii10058.alt" horiz-adv-x="1001" 
d="M117 0h-89l311 700h72l136 -309h200q91 0 147 -53q57 -52 57 -142q0 -89 -57 -143q-56 -53 -147 -53h-115l-257 602zM747 326h-171l116 -260h55q56 0 91 36t35 94t-35 94t-91 36z" />
    <glyph glyph-name="afii10065.alt" horiz-adv-x="539" 
d="M279 457q124 0 187 -73v-384h-73v36q-53 -43 -131 -43q-97 0 -157 64q-60 65 -60 168q0 104 64 168t170 64zM121 225q0 -74 44 -121q43 -46 115 -46q71 0 113 42v256q-43 36 -116 36q-70 0 -113 -46t-43 -121z" />
    <glyph glyph-name="afii10069.alt" horiz-adv-x="592" 
d="M506 58h50v-178h-68v120h-383v-120h-68v178h49l176 392h69zM427 58l-131 309l-131 -309h262z" />
    <glyph glyph-name="afii10077.alt" horiz-adv-x="529" 
d="M107 0h-81l204 450h69l204 -450h-81l-157 363z" />
    <glyph glyph-name="afii10106.alt" horiz-adv-x="707" 
d="M107 0h-81l204 450h69l86 -190h138q66 0 105 -36t39 -94t-39 -94t-105 -36h-101l-157 363zM521 204h-111l68 -148h43q32 0 52.5 20.5t20.5 53.5q0 32 -20.5 53t-52.5 21z" />
    <glyph glyph-name="acircumflex.alt" horiz-adv-x="539" 
d="M154 550l125 125l125 -125l-38 -38l-87 87l-87 -87zM279 457q124 0 187 -73v-384h-73v36q-53 -43 -131 -43q-97 0 -157 64q-60 65 -60 168q0 104 64 168t170 64zM121 225q0 -74 44 -121q43 -46 115 -46q71 0 113 42v256q-43 36 -116 36q-70 0 -113 -46t-43 -121z" />
    <glyph glyph-name="abreve.alt" horiz-adv-x="539" 
d="M279 457q124 0 187 -73v-384h-73v36q-53 -43 -131 -43q-97 0 -157 64q-60 65 -60 168q0 104 64 168t170 64zM121 225q0 -74 44 -121q43 -46 115 -46q71 0 113 42v256q-43 36 -116 36q-70 0 -113 -46t-43 -121zM279 582q61 0 102 42l38 -38q-57 -59 -140 -59t-140 60
l38 38q40 -43 102 -43z" />
    <glyph glyph-name="aacute.alt" horiz-adv-x="539" 
d="M279 457q124 0 187 -73v-384h-73v36q-53 -43 -131 -43q-97 0 -157 64q-60 65 -60 168q0 104 64 168t170 64zM121 225q0 -74 44 -121q43 -46 115 -46q71 0 113 42v256q-43 36 -116 36q-70 0 -113 -46t-43 -121zM254 512l-38 38l126 125l38 -38z" />
    <glyph glyph-name="a.alt" horiz-adv-x="539" 
d="M279 457q124 0 187 -73v-384h-73v36q-53 -43 -131 -43q-97 0 -157 64q-60 65 -60 168q0 104 64 168t170 64zM121 225q0 -74 44 -121q43 -46 115 -46q71 0 113 42v256q-43 36 -116 36q-70 0 -113 -46t-43 -121z" />
    <glyph glyph-name="zero.fitted" horiz-adv-x="530" 
d="M100 92q-63 99 -63 258t63 258t165 99t165 -99t63 -258t-63 -258t-165 -99t-165 99zM155 561q-42 -81 -42 -211t42 -211t110 -81t110 81t42 211t-42 211t-110 81t-110 -81z" />
    <glyph glyph-name="one.fitted" horiz-adv-x="530" 
d="M416 0h-304v58h116v577l-123 -21v59l196 31v-646h115v-58z" />
    <glyph glyph-name="germandbls.case" horiz-adv-x="590" 
d="M149 521v-521h-76v521q0 83 53 134q53 52 139 52q85 0 138 -51q54 -51 54 -133q0 -61 -33.5 -105t-90.5 -58q0 -62 74 -96q29 -12 38.5 -16t33.5 -18.5t34 -27t19.5 -34.5t9.5 -48q0 -54 -40 -90.5t-109 -36.5q-91 0 -148 60l46 45q38 -44 97 -44q39 0 60 20t21 47
q0 48 -74 79q-30 12 -47.5 22t-41 28t-35 45t-11.5 62v58q54 0 88 30.5t34 80.5q0 51 -32.5 83.5t-84.5 32.5t-84 -34t-32 -87z" />
    <glyph glyph-name="at.case" horiz-adv-x="794" 
d="M628 130l36 -35q-96 -102 -264 -102q-160 0 -257 99q-98 100 -98 258t98 258q97 99 255 99q159 0 254 -94q97 -94 97 -234q0 -54 -15.5 -95t-41 -63t-53 -32.5t-56.5 -10.5q-66 0 -88 37q-41 -37 -102 -37q-72 0 -116.5 47.5t-44.5 124.5t48 124.5t125 47.5q93 0 139 -55
v-202q0 -17 14 -26.5t36 -9.5q42 0 69 36.5t27 107.5q0 124 -79 203q-80 80 -212 80q-133 0 -214 -85q-81 -84 -81 -221q0 -138 81 -222q83 -84 216 -84q146 0 227 86zM406 229q49 0 81 29v189q-34 24 -83 24q-52 0 -82.5 -33t-30.5 -88t31 -88t84 -33z" />
    <glyph glyph-name="parenleft.case" horiz-adv-x="298" 
d="M247 757v-56q-46 0 -79 -99q-32 -101 -32 -253q0 -151 32 -252q33 -99 79 -99v-55q-81 0 -133 114q-53 115 -53 293t53 293q52 114 133 114z" />
    <glyph glyph-name="parenright.case" horiz-adv-x="298" 
d="M51 701v56q80 0 133 -114q53 -115 53 -293t-53 -293q-53 -114 -133 -114v56q47 0 78 99q33 99 33 252t-33 252q-31 99 -78 99z" />
    <glyph glyph-name="bracketleft.case" horiz-adv-x="297" 
d="M73 750h174v-58h-101v-684h101v-58h-174v800z" />
    <glyph glyph-name="bracketright.case" horiz-adv-x="297" 
d="M151 692h-100v58h173v-800h-173v58h100v684z" />
    <glyph glyph-name="braceleft.case" horiz-adv-x="318" 
d="M278 -1v-56q-67 0 -112 49q-45 48 -45 124v75q0 56 -23.5 93t-57.5 37v56q34 0 57.5 37t23.5 93v77q0 76 45 124q45 49 112 49v-56q-34 0 -57.5 -36t-23.5 -91v-76q0 -53 -22.5 -92t-62.5 -57q40 -18 62.5 -57t22.5 -92v-74q0 -55 23.5 -91t57.5 -36z" />
    <glyph glyph-name="braceright.case" horiz-adv-x="318" 
d="M40 -57v56q34 0 57.5 36t23.5 91v74q0 53 22.5 92t62.5 57q-40 18 -62.5 57t-22.5 92v76q0 55 -23.5 91t-57.5 36v56q67 0 112 -49q45 -48 45 -124v-77q0 -56 23.5 -93t57.5 -37v-56q-34 0 -57.5 -37t-23.5 -93v-75q0 -76 -45 -124q-45 -49 -112 -49z" />
    <glyph glyph-name="questiondown.case" horiz-adv-x="471" 
d="M385 114l48 -48q-79 -73 -192 -73q-93 0 -145 52q-51 53 -51 128q0 76 55 119q2 1 19.5 15t21.5 18t18 17t18 21.5t12 23t10.5 30.5t2.5 34v57h72v-57q0 -95 -54 -147q-10 -9 -32.5 -28.5t-34 -30.5t-22 -30.5t-10.5 -40.5q0 -49 32 -82.5t90 -33.5q39 0 78 15.5t64 40.5
zM287 658q0 -20 -14.5 -34.5t-34.5 -14.5t-34.5 14.5t-14.5 34.5q0 21 14.5 35t34.5 14t34.5 -14t14.5 -35z" />
    <glyph glyph-name="guillemotleft.case" horiz-adv-x="470" 
d="M244 217l-38 -38l-170 171l170 171l38 -38l-132 -133zM414 217l-38 -38l-171 171l171 171l38 -38l-133 -133z" />
    <glyph glyph-name="guillemotright.case" horiz-adv-x="470" 
d="M258 521l171 -171l-171 -171l-38 38l133 133l-133 133zM89 521l171 -171l-171 -171l-38 38l133 133l-133 133z" />
    <glyph glyph-name="guilsinglleft.case" horiz-adv-x="300" 
d="M244 217l-38 -38l-170 171l170 171l38 -38l-132 -133z" />
    <glyph glyph-name="guilsinglright.case" horiz-adv-x="300" 
d="M89 521l171 -171l-171 -171l-38 38l133 133l-133 133z" />
    <glyph glyph-name="hyphen.case" horiz-adv-x="340" 
d="M279 321h-218v58h218v-58z" />
    <glyph glyph-name="endash.case" horiz-adv-x="500" 
d="M439 321h-378v58h378v-58z" />
    <glyph glyph-name="emdash.case" horiz-adv-x="700" 
d="M639 321h-578v58h578v-58z" />
    <glyph glyph-name="bar.case" 
d="M146 -50h-73v800h73v-800z" />
    <glyph glyph-name="brokenbar.case" 
d="M146 -50h-73v350h73v-350zM73 750h73v-350h-73v350z" />
    <glyph glyph-name="asciitilde.case" horiz-adv-x="433" 
d="M85 299h-49q0 47 30 77t76 30q40 0 80 -32t68 -32q25 0 41 16.5t16 43.5h50q0 -48 -30 -78t-77 -30q-27 0 -48 10t-32.5 22.5t-29 22.5t-37.5 10q-25 0 -41.5 -16.5t-16.5 -43.5z" />
    <glyph glyph-name="dagger.case" horiz-adv-x="500" 
d="M214 479h-153v58h153v213h72v-213h153v-58h-153v-529h-72v529z" />
    <glyph glyph-name="daggerdbl.case" horiz-adv-x="500" 
d="M214 179h-153v58h153v242h-153v58h153v213h72v-213h153v-58h-153v-242h153v-58h-153v-229h-72v229z" />
    <glyph glyph-name="bullet.case" horiz-adv-x="259" 
d="M79 299q-21 21 -21 51t21 50q21 21 51 21t50 -21q21 -20 21 -50t-21 -51q-20 -20 -50 -20t-51 20z" />
    <glyph glyph-name="A.smcp" horiz-adv-x="586" 
d="M559 0h-81l-61 131h-248l-61 -131h-81l233 504h66zM392 194l-99 219l-99 -219h198z" />
    <glyph glyph-name="Aacute.smcp" horiz-adv-x="586" 
d="M559 0h-81l-61 131h-248l-61 -131h-81l233 504h66zM392 194l-99 219l-99 -219h198zM276 527l-35 35l99 95l34 -34z" />
    <glyph glyph-name="Abreve.smcp" horiz-adv-x="586" 
d="M559 0h-81l-61 131h-248l-61 -131h-81l233 504h66zM392 194l-99 219l-99 -219h198zM293 586q46 0 75 29l35 -34q-45 -45 -110 -45q-64 0 -109 45l34 34q32 -29 75 -29z" />
    <glyph glyph-name="Acircumflex.smcp" horiz-adv-x="586" 
d="M559 0h-81l-61 131h-248l-61 -131h-81l233 504h66zM392 194l-99 219l-99 -219h198zM194 562l99 95l98 -95l-34 -35l-64 62l-64 -62z" />
    <glyph glyph-name="Agrave.smcp" horiz-adv-x="586" 
d="M559 0h-81l-61 131h-248l-61 -131h-81l233 504h66zM392 194l-99 219l-99 -219h198zM211 623l35 34l98 -95l-34 -35z" />
    <glyph glyph-name="Adieresis.smcp" horiz-adv-x="586" 
d="M559 0h-81l-61 131h-248l-61 -131h-81l233 504h66zM392 194l-99 219l-99 -219h198zM221 615q17 0 29 -11.5t12 -28.5t-12 -28.5t-29 -11.5t-28 11.5t-11 28.5t11.5 28.5t27.5 11.5zM335 546q-12 12 -12 29t12 28q12 12 29 12t29 -12q12 -11 12 -28t-12 -29
q-12 -11 -29 -11t-29 11z" />
    <glyph glyph-name="Amacron.smcp" horiz-adv-x="586" 
d="M559 0h-81l-61 131h-248l-61 -131h-81l233 504h66zM392 194l-99 219l-99 -219h198zM388 549h-189v42h189v-42z" />
    <glyph glyph-name="Aogonek.smcp" horiz-adv-x="586" 
d="M504 -26q0 -18 11 -28.5t28 -10.5q19 0 29 10l24 -23q-23 -19 -52 -20t-52.5 19.5t-20.5 51.5q0 17 7 27l-61 131h-248l-61 -131h-81l233 504h66l233 -504h-48q-7 -11 -7 -26zM392 194l-99 219l-99 -219h198z" />
    <glyph glyph-name="Aring.smcp" horiz-adv-x="586" 
d="M559 0h-81l-61 131h-248l-61 -131h-81l233 504h66zM392 194l-99 219l-99 -219h198zM293 654q31 0 49 -18t18 -48t-18 -48t-49 -18q-30 0 -48.5 18t-18.5 48t18.5 48t48.5 18zM293 623q-23 2 -32.5 -17t0 -37.5t32.5 -16.5q23 -2 32.5 16.5t0 37.5t-32.5 17z" />
    <glyph glyph-name="Atilde.smcp" horiz-adv-x="586" 
d="M559 0h-81l-61 131h-248l-61 -131h-81l233 504h66zM392 194l-99 219l-99 -219h198zM222 546h-37q0 30 19 49t48 19q23 0 45 -17q22 -16 36 -16q13 0 21.5 8.5t8.5 21.5h38q0 -31 -19 -49.5t-49 -18.5q-25 0 -45 16q-22 17 -35 17q-14 0 -22.5 -8.5t-8.5 -21.5z" />
    <glyph glyph-name="AE.smcp" horiz-adv-x="602" 
d="M557 446h-194v-164h170v-58h-170v-166h198v-58h-268v131h-124l-61 -131h-81l233 504h297v-58zM293 415l-99 -221h99v221z" />
    <glyph glyph-name="AEacute.smcp" horiz-adv-x="602" 
d="M557 446h-194v-164h170v-58h-170v-166h198v-58h-268v131h-124l-61 -131h-81l233 504h297v-58zM293 415l-99 -221h99v221zM303 527l-35 35l99 95l35 -34z" />
    <glyph glyph-name="B.smcp" horiz-adv-x="432" 
d="M230 0h-169v504h151q65 0 104.5 -36t39.5 -96q0 -70 -57 -106q39 -14 62 -47t23 -78q0 -64 -42.5 -102.5t-111.5 -38.5zM314 146q0 37 -24 60.5t-62 23.5h-94v-169h94q39 0 62.5 23t23.5 62zM208 443h-74v-152h74q35 0 56.5 21t21.5 55t-21.5 55t-56.5 21z" />
    <glyph glyph-name="C.smcp" horiz-adv-x="543" 
d="M315 57q88 0 144 53l45 -44q-74 -72 -193 -72q-118 0 -192 71q-74 72 -74 187t74 186q73 72 192 72t193 -72l-45 -45q-54 54 -144 54q-87 0 -143 -54q-54 -54 -54 -141t54 -141q56 -54 143 -54z" />
    <glyph glyph-name="Cacute.smcp" horiz-adv-x="543" 
d="M315 57q88 0 144 53l45 -44q-74 -72 -193 -72q-118 0 -192 71q-74 72 -74 187t74 186q73 72 192 72t193 -72l-45 -45q-54 54 -144 54q-87 0 -143 -54q-54 -54 -54 -141t54 -141q56 -54 143 -54zM278 530l-35 34l99 96l35 -35z" />
    <glyph glyph-name="Ccaron.smcp" horiz-adv-x="543" 
d="M315 57q88 0 144 53l45 -44q-74 -72 -193 -72q-118 0 -192 71q-74 72 -74 187t74 186q73 72 192 72t193 -72l-45 -45q-54 54 -144 54q-87 0 -143 -54q-54 -54 -54 -141t54 -141q56 -54 143 -54zM393 623l-99 -96l-99 96l35 34l64 -61l64 61z" />
    <glyph glyph-name="Ccedilla.smcp" horiz-adv-x="543" 
d="M315 57q88 0 144 53l45 -44q-69 -67 -179 -72v-34q50 -12 50 -57q0 -27 -18 -44t-46 -17q-29 0 -48 19l22 21q13 -10 26 -10q14 0 23.5 9t9.5 23q0 32 -48 32v58q-111 4 -182 75q-69 72 -69 183q0 115 74 186q73 72 192 72t193 -72l-45 -45q-54 54 -144 54
q-87 0 -143 -54q-54 -54 -54 -141t54 -141q56 -54 143 -54z" />
    <glyph glyph-name="Ccircumflex.smcp" horiz-adv-x="543" 
d="M315 57q88 0 144 53l45 -44q-74 -72 -193 -72q-118 0 -192 71q-74 72 -74 187t74 186q73 72 192 72t193 -72l-45 -45q-54 54 -144 54q-87 0 -143 -54q-54 -54 -54 -141t54 -141q56 -54 143 -54zM197 562l99 95l99 -95l-35 -35l-64 62l-64 -62z" />
    <glyph glyph-name="Cdotaccent.smcp" horiz-adv-x="543" 
d="M315 57q88 0 144 53l45 -44q-74 -72 -193 -72q-118 0 -192 71q-74 72 -74 187t74 186q73 72 192 72t193 -72l-45 -45q-54 54 -144 54q-87 0 -143 -54q-54 -54 -54 -141t54 -141q56 -54 143 -54zM253 584q0 18 12.5 30.5t30.5 12.5t30.5 -12.5t12.5 -30.5
q0 -17 -12.5 -29.5t-30.5 -12.5t-30.5 12.5t-12.5 29.5z" />
    <glyph glyph-name="D.smcp" horiz-adv-x="541" 
d="M230 0h-169v504h169q118 0 192 -69t74 -183t-74 -183t-192 -69zM230 443h-96v-382h96q87 0 139 52q54 53 54 139t-54 138q-53 53 -139 53z" />
    <glyph glyph-name="Dcaron.smcp" horiz-adv-x="541" 
d="M230 0h-169v504h169q118 0 192 -69t74 -183t-74 -183t-192 -69zM230 443h-96v-382h96q87 0 139 52q54 53 54 139t-54 138q-53 53 -139 53zM362 623l-99 -96l-99 96l35 34l64 -61l64 61z" />
    <glyph glyph-name="Dcroat.smcp" horiz-adv-x="549" 
d="M79 225h-38v54h38v225h159q120 0 193 -69t73 -183t-73 -183t-193 -69h-159v225zM238 443h-87v-164h114v-54h-114v-164h87q87 0 139 52q54 53 54 139t-54 138q-53 53 -139 53z" />
    <glyph glyph-name="Eth.smcp" horiz-adv-x="549" 
d="M79 225h-38v54h38v225h159q120 0 193 -69t73 -183t-73 -183t-193 -69h-159v225zM238 443h-87v-164h114v-54h-114v-164h87q87 0 139 52q54 53 54 139t-54 138q-53 53 -139 53z" />
    <glyph glyph-name="Thorn.smcp" horiz-adv-x="412" 
d="M134 0h-73v504h73v-101h75q71 0 114.5 -39.5t43.5 -105.5t-43 -105t-115 -39h-75v-114zM295 258q0 38 -24 61.5t-62 23.5h-75v-168h75q38 0 62 23t24 60z" />
    <glyph glyph-name="E.smcp" horiz-adv-x="388" 
d="M342 446h-211v-164h187v-58h-187v-166h214v-58h-284v504h281v-58z" />
    <glyph glyph-name="Eacute.smcp" horiz-adv-x="388" 
d="M342 446h-211v-164h187v-58h-187v-166h214v-58h-284v504h281v-58zM185 527l-34 35l98 95l34 -34z" />
    <glyph glyph-name="Ebreve.smcp" horiz-adv-x="388" 
d="M342 446h-211v-164h187v-58h-187v-166h214v-58h-284v504h281v-58zM202 586q46 0 75 29l34 -34q-45 -45 -109 -45t-110 45l34 34q32 -29 76 -29z" />
    <glyph glyph-name="Ecaron.smcp" horiz-adv-x="388" 
d="M342 446h-211v-164h187v-58h-187v-166h214v-58h-284v504h281v-58zM300 623l-98 -96l-99 96l35 34l64 -61l64 61z" />
    <glyph glyph-name="Ecircumflex.smcp" horiz-adv-x="388" 
d="M342 446h-211v-164h187v-58h-187v-166h214v-58h-284v504h281v-58zM103 562l99 95l98 -95l-34 -35l-64 62l-64 -62z" />
    <glyph glyph-name="Edieresis.smcp" horiz-adv-x="388" 
d="M342 446h-211v-164h187v-58h-187v-166h214v-58h-284v504h281v-58zM130 615q17 0 29 -11.5t12 -28.5t-12 -28.5t-29 -11.5t-28.5 11.5t-11.5 28.5t12 28.5t28 11.5zM244 546q-12 12 -12 29t12 28q12 12 29 12t28 -12q12 -11 12 -28t-12 -29q-11 -11 -28 -11t-29 11z" />
    <glyph glyph-name="Edotaccent.smcp" horiz-adv-x="388" 
d="M342 446h-211v-164h187v-58h-187v-166h214v-58h-284v504h281v-58zM159 584q0 18 12.5 30.5t30.5 12.5t30.5 -12.5t12.5 -30.5q0 -17 -12.5 -29.5t-30.5 -12.5t-30.5 12.5t-12.5 29.5z" />
    <glyph glyph-name="Egrave.smcp" horiz-adv-x="388" 
d="M342 446h-211v-164h187v-58h-187v-166h214v-58h-284v504h281v-58zM121 623l34 34l98 -95l-34 -35z" />
    <glyph glyph-name="Emacron.smcp" horiz-adv-x="388" 
d="M342 446h-211v-164h187v-58h-187v-166h214v-58h-284v504h281v-58zM296 549h-189v42h189v-42z" />
    <glyph glyph-name="Eogonek.smcp" horiz-adv-x="388" 
d="M263 -26q0 -18 10.5 -28.5t28.5 -10.5q19 0 29 10l24 -23q-20 -20 -53 -20q-32 0 -52.5 19.5t-20.5 51.5q0 17 7 27h-175v504h281v-58h-211v-164h187v-58h-187v-166h214v-58h-75q-7 -10 -7 -26z" />
    <glyph glyph-name="F.smcp" horiz-adv-x="370" 
d="M331 446h-200v-164h176v-58h-176v-224h-70v504h270v-58z" />
    <glyph glyph-name="G.smcp" horiz-adv-x="566" 
d="M434 213h-123v58h193v-205q-72 -72 -193 -72q-118 0 -192 71q-74 72 -74 187t74 186q73 72 192 72t193 -72l-45 -45q-54 54 -144 54q-87 0 -143 -54q-54 -54 -54 -141t54 -141q56 -54 143 -54q72 0 119 34v122z" />
    <glyph glyph-name="Gbreve.smcp" horiz-adv-x="566" 
d="M434 213h-123v58h193v-205q-72 -72 -193 -72q-118 0 -192 71q-74 72 -74 187t74 186q73 72 192 72t193 -72l-45 -45q-54 54 -144 54q-87 0 -143 -54q-54 -54 -54 -141t54 -141q56 -54 143 -54q72 0 119 34v122zM310 586q46 0 75 29l34 -34q-43 -45 -109 -45
q-64 0 -109 45l34 34q32 -29 75 -29z" />
    <glyph glyph-name="Gcircumflex.smcp" horiz-adv-x="566" 
d="M434 213h-123v58h193v-205q-72 -72 -193 -72q-118 0 -192 71q-74 72 -74 187t74 186q73 72 192 72t193 -72l-45 -45q-54 54 -144 54q-87 0 -143 -54q-54 -54 -54 -141t54 -141q56 -54 143 -54q72 0 119 34v122zM212 562l99 95l98 -95l-34 -35l-64 62l-65 -62z" />
    <glyph glyph-name="Gcommaaccent.smcp" horiz-adv-x="566" 
d="M434 213h-123v58h193v-205q-72 -72 -193 -72q-118 0 -192 71q-74 72 -74 187t74 186q73 72 192 72t193 -72l-45 -45q-54 54 -144 54q-87 0 -143 -54q-54 -54 -54 -141t54 -141q56 -54 143 -54q72 0 119 34v122zM284 -168l-18 19q26 26 31 48q-12 1 -20.5 11t-8.5 22
q0 15 10.5 25.5t25.5 10.5q35 0 35 -40q0 -44 -55 -96z" />
    <glyph glyph-name="Gdotaccent.smcp" horiz-adv-x="566" 
d="M434 213h-123v58h193v-205q-72 -72 -193 -72q-118 0 -192 71q-74 72 -74 187t74 186q73 72 192 72t193 -72l-45 -45q-54 54 -144 54q-87 0 -143 -54q-54 -54 -54 -141t54 -141q56 -54 143 -54q72 0 119 34v122zM268 584q0 18 12 30.5t30 12.5t30.5 -12.5t12.5 -30.5
q0 -17 -12.5 -29.5t-30.5 -12.5t-30 12.5t-12 29.5z" />
    <glyph glyph-name="H.smcp" horiz-adv-x="535" 
d="M61 504h70v-222h273v222h70v-504h-70v224h-273v-224h-70v504z" />
    <glyph glyph-name="Hbar.smcp" horiz-adv-x="545" 
d="M151 0h-70v364h-43v54h43v86h70v-86h238v86h70v-86h48v-54h-48v-364h-70v224h-238v-224zM151 364v-82h238v82h-238z" />
    <glyph glyph-name="Hcircumflex.smcp" horiz-adv-x="535" 
d="M61 504h70v-222h273v222h70v-504h-70v224h-273v-224h-70v504zM169 562l99 95l98 -95l-34 -35l-64 62l-64 -62z" />
    <glyph glyph-name="I.smcp" horiz-adv-x="189" 
d="M130 0h-71v504h71v-504z" />
    <glyph glyph-name="Iacute.smcp" horiz-adv-x="189" 
d="M130 0h-71v504h71v-504zM78 527l-35 35l99 95l34 -34z" />
    <glyph glyph-name="Ibreve.smcp" horiz-adv-x="190" 
d="M130 0h-70v504h70v-504zM95 586q44 0 76 29l34 -34q-45 -45 -110 -45q-64 0 -109 45l34 34q32 -29 75 -29z" />
    <glyph glyph-name="Icircumflex.smcp" horiz-adv-x="190" 
d="M130 0h-71v504h71v-504zM-4 562l99 95l99 -95l-35 -35l-64 62l-64 -62z" />
    <glyph glyph-name="Idieresis.smcp" horiz-adv-x="190" 
d="M130 0h-70v504h70v-504zM34 615q16 0 28 -11.5t12 -28.5t-11.5 -28.5t-28.5 -11.5t-29 11.5t-12 28.5t12 28.5t29 11.5zM197 575q1 -24 -20.5 -34.5t-42.5 0t-19 34.5q0 17 11.5 28.5t28.5 11.5t29.5 -12t12.5 -28z" />
    <glyph glyph-name="Idotaccent.smcp" horiz-adv-x="190" 
d="M130 0h-70v504h70v-504zM52 584q0 18 12 30.5t30 12.5q29 0 40 -26.5t-10 -46.5q-20 -19 -46 -8t-26 38z" />
    <glyph glyph-name="Igrave.smcp" horiz-adv-x="189" 
d="M130 0h-71v504h71v-504zM13 623l35 34l98 -95l-34 -35z" />
    <glyph glyph-name="Imacron.smcp" horiz-adv-x="190" 
d="M130 0h-70v504h70v-504zM190 549h-189v42h189v-42z" />
    <glyph glyph-name="Iogonek.smcp" horiz-adv-x="190" 
d="M130 0h-71v504h71v-504zM86 -26q0 -18 10.5 -28.5t28.5 -10.5q19 0 29 10l24 -23q-20 -20 -53 -20q-32 0 -52 19.5t-20 51.5q0 17 6 27h34q-7 -11 -7 -26z" />
    <glyph glyph-name="Itilde.smcp" horiz-adv-x="189" 
d="M130 0h-71v504h71v-504zM25 546h-38q0 30 19 49t49 19q23 0 45 -17q20 -16 35 -16q13 0 21.5 8.5t8.5 21.5h38q0 -31 -19 -49.5t-49 -18.5q-25 0 -45 16q-22 17 -35 17t-21.5 -8.5t-8.5 -21.5z" />
    <glyph glyph-name="IJ.smcp" horiz-adv-x="394" 
d="M131 180h-70v324h70v-324zM264 140v364h71v-364q0 -65 -42.5 -105.5t-109.5 -40.5q-66 0 -110 41l45 45q23 -23 62 -23q38 0 61 23t23 60z" />
    <glyph glyph-name="J.smcp" horiz-adv-x="359" 
d="M229 140v364h70v-364q0 -65 -42 -105.5t-110 -40.5q-65 0 -109 41l45 45q23 -23 62 -23q37 0 60.5 23t23.5 60z" />
    <glyph glyph-name="Jcircumflex.smcp" horiz-adv-x="358" 
d="M229 140v364h70v-364q0 -65 -42 -105.5t-110 -40.5q-65 0 -109 41l45 45q23 -23 62 -23q37 0 60.5 23t23.5 60zM165 562l99 95l98 -95l-34 -35l-64 62l-65 -62z" />
    <glyph glyph-name="K.smcp" horiz-adv-x="474" 
d="M130 0h-71v504h71v-504zM446 0h-91l-223 259l208 245h89l-208 -245z" />
    <glyph glyph-name="Kcommaaccent.smcp" horiz-adv-x="474" 
d="M130 0h-71v504h71v-504zM446 0h-91l-223 259l208 245h89l-208 -245zM219 -168l-19 19q26 26 31 48q-12 1 -20 11t-8 22q0 15 10 25.5t26 10.5q14 0 24.5 -10.5t10.5 -29.5q0 -44 -55 -96z" />
    <glyph glyph-name="L.smcp" horiz-adv-x="368" 
d="M61 504h70v-446h199v-58h-269v504z" />
    <glyph glyph-name="Lacute.smcp" horiz-adv-x="368" 
d="M61 504h70v-446h199v-58h-269v504zM152 527l-35 35l99 95l34 -34z" />
    <glyph glyph-name="Lcaron.smcp" horiz-adv-x="368" 
d="M61 504h70v-446h199v-58h-269v504zM195 623l-99 -96l-98 96l34 34l64 -61l65 61z" />
    <glyph glyph-name="Lcommaaccent.smcp" horiz-adv-x="368" 
d="M61 504h70v-446h199v-58h-269v504zM176 -168l-19 19q28 26 32 48q-12 1 -20.5 11t-8.5 22q0 21 18 31t35.5 1t17.5 -36q0 -44 -55 -96z" />
    <glyph glyph-name="Ldot.smcp" horiz-adv-x="368" 
d="M61 504h70v-446h199v-58h-269v504zM242 203q-12 13 -12 31t12 30q13 13 31 13t30 -13q13 -12 13 -30t-13 -31q-12 -12 -30 -12t-31 12z" />
    <glyph glyph-name="Lslash.smcp" horiz-adv-x="396" 
d="M50 128l-35 35l74 71v270h71v-215l62 60l35 -34l-97 -95v-162h198v-58h-269v166z" />
    <glyph glyph-name="M.smcp" horiz-adv-x="622" 
d="M561 0h-70v360l-166 -250h-28l-166 250v-360h-70v504h53l197 -293l197 293h53v-504z" />
    <glyph glyph-name="N.smcp" horiz-adv-x="553" 
d="M61 0v504h46l314 -370v370h71v-504h-46l-315 370v-370h-70z" />
    <glyph glyph-name="Nacute.smcp" horiz-adv-x="553" 
d="M61 0v504h46l314 -370v370h71v-504h-46l-315 370v-370h-70zM259 527l-35 35l99 95l35 -34z" />
    <glyph glyph-name="Ncaron.smcp" horiz-adv-x="553" 
d="M61 0v504h46l314 -370v370h71v-504h-46l-315 370v-370h-70zM375 623l-99 -96l-99 96l35 34l64 -61l64 61z" />
    <glyph glyph-name="Ncommaaccent.smcp" horiz-adv-x="553" 
d="M61 0v504h46l314 -370v370h71v-504h-46l-315 370v-370h-70zM258 -168l-19 19q25 24 33 48q-12 1 -21 11t-9 22q0 15 10 25.5t26 10.5q35 0 35 -40q0 -44 -55 -96z" />
    <glyph glyph-name="Ntilde.smcp" horiz-adv-x="553" 
d="M61 0v504h46l314 -370v370h71v-504h-46l-315 370v-370h-70zM206 546h-38q0 30 19 49t48 19q23 0 45 -17q22 -16 36 -16q13 0 21.5 8.5t8.5 21.5h38q0 -31 -19 -49.5t-49 -18.5q-25 0 -45 16q-22 17 -35 17t-21.5 -8.5t-8.5 -21.5z" />
    <glyph glyph-name="Eng.smcp" horiz-adv-x="553" 
d="M383 -180v45q38 0 38 36v127l-290 342v-370h-70v504h46l314 -370v370h71v-605q0 -37 -22 -59.5t-59 -22.5q-19 0 -28 3z" />
    <glyph glyph-name="O.smcp" horiz-adv-x="623" 
d="M311 510q119 0 192 -72q74 -71 74 -186t-74 -187q-74 -71 -192 -71t-192 71q-74 72 -74 187t74 186q73 72 192 72zM171 393q-53 -55 -53 -141t53 -141q54 -54 140 -54q87 0 139 54q54 54 54 141t-54 141q-52 54 -139 54q-86 0 -140 -54z" />
    <glyph glyph-name="Oacute.smcp" horiz-adv-x="623" 
d="M311 510q119 0 192 -72q74 -71 74 -186t-74 -187q-74 -71 -192 -71t-192 71q-74 72 -74 187t74 186q73 72 192 72zM171 393q-53 -55 -53 -141t53 -141q54 -54 140 -54q87 0 139 54q54 54 54 141t-54 141q-52 54 -139 54q-86 0 -140 -54zM294 527l-35 35l100 95l34 -34z
" />
    <glyph glyph-name="Obreve.smcp" horiz-adv-x="623" 
d="M311 510q119 0 192 -72q74 -71 74 -186t-74 -187q-74 -71 -192 -71t-192 71q-74 72 -74 187t74 186q73 72 192 72zM171 393q-53 -55 -53 -141t53 -141q54 -54 140 -54q87 0 139 54q54 54 54 141t-54 141q-52 54 -139 54q-86 0 -140 -54zM311 586q46 0 75 29l35 -34
q-45 -45 -110 -45q-63 0 -109 45l34 34q32 -29 75 -29z" />
    <glyph glyph-name="Ocircumflex.smcp" horiz-adv-x="623" 
d="M311 510q119 0 192 -72q74 -71 74 -186t-74 -187q-74 -71 -192 -71t-192 71q-74 72 -74 187t74 186q73 72 192 72zM171 393q-53 -55 -53 -141t53 -141q54 -54 140 -54q87 0 139 54q54 54 54 141t-54 141q-52 54 -139 54q-86 0 -140 -54zM212 562l99 95l99 -95l-34 -35
l-65 62l-64 -62z" />
    <glyph glyph-name="Odieresis.smcp" horiz-adv-x="623" 
d="M311 510q119 0 192 -72q74 -71 74 -186t-74 -187q-74 -71 -192 -71t-192 71q-74 72 -74 187t74 186q73 72 192 72zM171 393q-53 -55 -53 -141t53 -141q54 -54 140 -54q87 0 139 54q54 54 54 141t-54 141q-52 54 -139 54q-86 0 -140 -54zM211 546q-11 12 -11 29t12 28
q12 12 28 12t28 -12q12 -11 12 -28t-12 -29q-11 -11 -28 -11t-29 11zM382 615q17 0 29 -11.5t12 -28.5t-12 -28.5t-29 -11.5t-28.5 11.5t-11.5 28.5t12 28.5t28 11.5z" />
    <glyph glyph-name="Ograve.smcp" horiz-adv-x="623" 
d="M311 510q119 0 192 -72q74 -71 74 -186t-74 -187q-74 -71 -192 -71t-192 71q-74 72 -74 187t74 186q73 72 192 72zM171 393q-53 -55 -53 -141t53 -141q54 -54 140 -54q87 0 139 54q54 54 54 141t-54 141q-52 54 -139 54q-86 0 -140 -54zM229 623l35 34l99 -95l-34 -35z
" />
    <glyph glyph-name="Ohungarumlaut.smcp" horiz-adv-x="623" 
d="M311 510q119 0 192 -72q74 -71 74 -186t-74 -187q-74 -71 -192 -71t-192 71q-74 72 -74 187t74 186q73 72 192 72zM171 393q-53 -55 -53 -141t53 -141q54 -54 140 -54q87 0 139 54q54 54 54 141t-54 141q-52 54 -139 54q-86 0 -140 -54zM236 527l-35 35l99 95l35 -34z
M353 527l-35 35l99 95l34 -34z" />
    <glyph glyph-name="Omacron.smcp" horiz-adv-x="623" 
d="M311 510q119 0 192 -72q74 -71 74 -186t-74 -187q-74 -71 -192 -71t-192 71q-74 72 -74 187t74 186q73 72 192 72zM171 393q-53 -55 -53 -141t53 -141q54 -54 140 -54q87 0 139 54q54 54 54 141t-54 141q-52 54 -139 54q-86 0 -140 -54zM406 549h-189v42h189v-42z" />
    <glyph glyph-name="Oslash.smcp" horiz-adv-x="622" 
d="M117 -6h-73l69 77q-68 71 -68 181q0 115 74 186q73 72 192 72q89 0 156 -43l39 43h72l-69 -77q68 -71 68 -181q0 -115 -74 -187q-74 -71 -192 -71q-91 0 -156 43zM504 252q0 77 -42 128l-262 -293q46 -30 111 -30q87 0 139 54q54 54 54 141zM118 252q0 -77 42 -128
l262 292q-47 31 -111 31q-86 0 -140 -54q-53 -55 -53 -141z" />
    <glyph glyph-name="Oslashacute.smcp" horiz-adv-x="622" 
d="M117 -6h-73l69 77q-68 71 -68 181q0 115 74 186q73 72 192 72q89 0 156 -43l39 43h72l-69 -77q68 -71 68 -181q0 -115 -74 -187q-74 -71 -192 -71q-91 0 -156 43zM504 252q0 77 -42 128l-262 -293q46 -30 111 -30q87 0 139 54q54 54 54 141zM118 252q0 -77 42 -128
l262 292q-47 31 -111 31q-86 0 -140 -54q-53 -55 -53 -141zM294 527l-35 35l99 95l35 -34z" />
    <glyph glyph-name="Otilde.smcp" horiz-adv-x="623" 
d="M311 510q119 0 192 -72q74 -71 74 -186t-74 -187q-74 -71 -192 -71t-192 71q-74 72 -74 187t74 186q73 72 192 72zM171 393q-53 -55 -53 -141t53 -141q54 -54 140 -54q87 0 139 54q54 54 54 141t-54 141q-52 54 -139 54q-86 0 -140 -54zM241 546h-38q0 31 19 49.5
t49 18.5q22 0 45 -17q22 -16 36 -16q13 0 21 8.5t8 21.5h38q0 -31 -18.5 -49.5t-48.5 -18.5q-26 0 -46 16q-22 17 -35 17t-21.5 -8t-8.5 -22z" />
    <glyph glyph-name="OE.smcp" horiz-adv-x="681" 
d="M637 446h-195v-164h172v-58h-172v-166h199v-58h-266q-42 -6 -64 -6q-118 0 -192 71q-74 72 -74 187t74 186q73 72 192 72q23 0 63 -6h263v-58zM311 57q32 0 61 10v370q-29 10 -61 10q-86 0 -140 -54q-53 -55 -53 -141t53 -141q54 -54 140 -54z" />
    <glyph glyph-name="P.smcp" horiz-adv-x="412" 
d="M134 0h-73v504h148q71 0 114.5 -39.5t43.5 -105.5t-43.5 -105.5t-114.5 -39.5h-75v-214zM295 359q0 38 -24 61t-62 23h-75v-168h75q38 0 62 23.5t24 60.5z" />
    <glyph glyph-name="Q.smcp" horiz-adv-x="623" 
d="M585 28l-44 -45l-64 61q-70 -50 -166 -50q-118 0 -192 71q-74 72 -74 187t74 186q73 72 192 72t192 -72q74 -71 74 -186q0 -97 -55 -164zM311 57q75 0 119 32l-80 77l44 45l75 -71q35 47 35 112q0 87 -54 141q-52 54 -139 54q-86 0 -140 -54q-53 -55 -53 -141t53 -141
q54 -54 140 -54z" />
    <glyph glyph-name="R.smcp" horiz-adv-x="425" 
d="M397 0h-81l-117 214h-65v-214h-73v504h154q72 0 115.5 -39.5t43.5 -105.5q0 -52 -28 -88.5t-77 -49.5zM301 359q0 38 -24 61t-62 23h-81v-168h81q38 0 62 23.5t24 60.5z" />
    <glyph glyph-name="Racute.smcp" horiz-adv-x="425" 
d="M397 0h-81l-117 214h-65v-214h-73v504h154q72 0 115.5 -39.5t43.5 -105.5q0 -52 -28 -88.5t-77 -49.5zM301 359q0 38 -24 61t-62 23h-81v-168h81q38 0 62 23.5t24 60.5zM190 527l-34 35l99 95l35 -34z" />
    <glyph glyph-name="Rcaron.smcp" horiz-adv-x="425" 
d="M397 0h-81l-117 214h-65v-214h-73v504h154q72 0 115.5 -39.5t43.5 -105.5q0 -52 -28 -88.5t-77 -49.5zM301 359q0 38 -24 61t-62 23h-81v-168h81q38 0 62 23.5t24 60.5zM307 623l-100 -96l-98 96l35 34l63 -61l65 61z" />
    <glyph glyph-name="Rcommaaccent.smcp" horiz-adv-x="425" 
d="M397 0h-81l-117 214h-65v-214h-73v504h154q72 0 115.5 -39.5t43.5 -105.5q0 -52 -28 -88.5t-77 -49.5zM301 359q0 38 -24 61t-62 23h-81v-168h81q38 0 62 23.5t24 60.5zM194 -168l-19 19q25 24 33 48q-12 1 -21 11t-9 22q0 21 18 31t36 1t18 -36q0 -43 -56 -96z" />
    <glyph glyph-name="S.smcp" horiz-adv-x="424" 
d="M361 447l-45 -44q-19 19 -49 31.5t-57 12.5q-40 0 -63 -23t-22 -53t25 -49q16 -11 37.5 -20.5t52 -21t46.5 -18.5q88 -36 88 -120q0 -62 -43 -105t-122 -43q-100 0 -170 70l44 44q51 -51 120 -51q45 0 71.5 25t26.5 58q0 49 -88 78q-35 12 -56 21t-49 26.5t-41.5 44
t-13.5 60.5q0 62 39.5 101t110.5 39q93 0 158 -63z" />
    <glyph glyph-name="Sacute.smcp" horiz-adv-x="424" 
d="M361 447l-45 -44q-19 19 -49 31.5t-57 12.5q-40 0 -63 -23t-22 -53t25 -49q16 -11 37.5 -20.5t52 -21t46.5 -18.5q88 -36 88 -120q0 -62 -43 -105t-122 -43q-100 0 -170 70l44 44q51 -51 120 -51q45 0 71.5 25t26.5 58q0 49 -88 78q-35 12 -56 21t-49 26.5t-41.5 44
t-13.5 60.5q0 62 39.5 101t110.5 39q93 0 158 -63zM186 527l-34 35l98 95l35 -34z" />
    <glyph glyph-name="Scaron.smcp" horiz-adv-x="424" 
d="M361 447l-45 -44q-19 19 -49 31.5t-57 12.5q-40 0 -63 -23t-22 -53t25 -49q16 -11 37.5 -20.5t52 -21t46.5 -18.5q88 -36 88 -120q0 -62 -43 -105t-122 -43q-100 0 -170 70l44 44q51 -51 120 -51q45 0 71.5 25t26.5 58q0 49 -88 78q-35 12 -56 21t-49 26.5t-41.5 44
t-13.5 60.5q0 62 39.5 101t110.5 39q93 0 158 -63zM303 623l-100 -96l-98 96l34 34l64 -61l65 61z" />
    <glyph glyph-name="Scedilla.smcp" horiz-adv-x="424" 
d="M361 447l-45 -44q-19 19 -49 31.5t-57 12.5q-40 0 -63 -23t-22 -53t25 -49q16 -11 37.5 -20.5t52 -21t46.5 -18.5q88 -36 88 -120q0 -62 -40 -102.5t-110 -44.5v-35q49 -10 49 -57q4 -40 -39 -56t-72 14l22 21q11 -10 25 -10q15 0 24.5 9t9.5 23q0 32 -48 32v59
q-91 5 -156 69l44 44q51 -51 120 -51q45 0 71.5 25t26.5 58q0 49 -88 78q-35 12 -56 21t-49 26.5t-41.5 44t-13.5 60.5q0 62 39.5 101t110.5 39q93 0 158 -63z" />
    <glyph glyph-name="Scircumflex.smcp" horiz-adv-x="424" 
d="M361 447l-45 -44q-19 19 -49 31.5t-57 12.5q-40 0 -63 -23t-22 -53t25 -49q16 -11 37.5 -20.5t52 -21t46.5 -18.5q88 -36 88 -120q0 -62 -43 -105t-122 -43q-100 0 -170 70l44 44q51 -51 120 -51q45 0 71.5 25t26.5 58q0 49 -88 78q-35 12 -56 21t-49 26.5t-41.5 44
t-13.5 60.5q0 62 39.5 101t110.5 39q93 0 158 -63zM105 562l98 95l100 -95l-35 -35l-65 62l-64 -62z" />
    <glyph glyph-name="Scommaaccent.smcp" horiz-adv-x="424" 
d="M361 447l-45 -44q-19 19 -49 31.5t-57 12.5q-40 0 -63 -23t-22 -53t25 -49q16 -11 37.5 -20.5t52 -21t46.5 -18.5q88 -36 88 -120q0 -62 -43 -105t-122 -43q-100 0 -170 70l44 44q51 -51 120 -51q45 0 71.5 25t26.5 58q0 49 -88 78q-35 12 -56 21t-49 26.5t-41.5 44
t-13.5 60.5q0 62 39.5 101t110.5 39q93 0 158 -63zM192 -168l-19 19q28 28 32 48q-12 1 -20.5 11t-8.5 22q0 21 18 31t35.5 1t17.5 -36q0 -44 -55 -96z" />
    <glyph glyph-name="T.smcp" horiz-adv-x="438" 
d="M400 446h-146v-446h-70v446h-146v58h362v-58z" />
    <glyph glyph-name="Tbar.smcp" horiz-adv-x="438" 
d="M184 240h-106v53h106v153h-146v58h362v-58h-146v-153h106v-53h-106v-240h-70v240z" />
    <glyph glyph-name="two.fitted" horiz-adv-x="530" 
d="M55 0v65l306 303q41 41 41 118q0 69 -39 112t-101 43t-100.5 -43t-38.5 -112h-75q0 98 59 160q60 61 155 61q97 0 155 -61q60 -62 60 -160q0 -100 -67 -167l-258 -256h325v-63h-422z" />
    <glyph glyph-name="three.fitted" horiz-adv-x="530" 
d="M263 349h-46v62h46q51 0 82.5 32.5t31.5 83.5t-31.5 83t-82.5 32q-50 0 -81.5 -32t-31.5 -83h-75q0 81 52 130q53 50 136 50q84 0 137 -50q52 -49 52 -130q0 -102 -85 -145q54 -22 85 -69t31 -110q0 -94 -61 -152t-159 -58q-97 0 -158 58q-60 59 -60 152h75
q0 -65 39.5 -105t103.5 -40q65 0 105 40t40 105t-40.5 105.5t-104.5 40.5z" />
    <glyph glyph-name="four.fitted" horiz-adv-x="530" 
d="M423 0h-73v136h-317v36l312 528h75v-501h62v-63h-59v-136zM352 589l-228 -390h228v390z" />
    <glyph glyph-name="five.fitted" horiz-adv-x="530" 
d="M477 214q0 -98 -60 -160q-58 -61 -155 -61q-95 0 -155 57q-59 59 -59 150h73q0 -62 39.5 -101.5t101.5 -39.5t101 43t39 112q0 75 -44 122t-114 47q-74 0 -117 -43l-53 21l44 339h307v-63h-243l-30 -211q41 23 96 23q103 0 166 -65q63 -64 63 -170z" />
    <glyph glyph-name="six.fitted" horiz-adv-x="530" 
d="M209 585l84 122l62 -36q-109 -154 -170 -261q35 20 81 20q98 0 159 -60t61 -158t-61 -159q-61 -60 -160 -60t-160 61t-61 164q0 36 4 61q4 28 21 67l29 63q9 20 50 84zM119 212q0 -68 40.5 -111t105.5 -43t105.5 43t40.5 111q0 69 -40.5 112t-105.5 43t-105.5 -43
t-40.5 -112z" />
    <glyph glyph-name="seven.fitted" horiz-adv-x="530" 
d="M383 637h-330v63h424v-27l-254 -673h-78z" />
    <glyph glyph-name="eight.fitted" horiz-adv-x="530" 
d="M75 527q0 80 53 130t137 50t137 -50t53 -130q0 -101 -86 -145q54 -22 85 -69t31 -110q0 -94 -61 -152t-159 -58t-159 58t-61 152q0 63 30.5 110t84.5 69q-85 43 -85 145zM160 308q-40 -40 -40 -105t40 -105t105 -40t105 40t40 105t-40 105t-105 40t-105 -40zM183 610
q-32 -32 -32 -83t32 -83t82 -32t82 32t32 83t-32 83t-82 32t-82 -32z" />
    <glyph glyph-name="nine.fitted" horiz-adv-x="530" 
d="M258 23l-21 -30l-63 36q102 141 170 261q-35 -20 -80 -20q-98 0 -159 60t-61 158t61 158q61 61 160 61t160 -61t61 -164q0 -88 -45 -172q-45 -86 -183 -287zM410 488q0 68 -40.5 111t-104.5 43t-104.5 -43t-40.5 -111q0 -69 40 -112t105 -43t105 43t40 112z" />
    <glyph glyph-name="exclamdown.case" 
d="M61 658q0 21 14 35t35 14q20 0 34.5 -14t14.5 -35q0 -20 -14.5 -34.5t-34.5 -14.5q-21 0 -35 14.5t-14 34.5zM73 0v508h73v-508h-73z" />
    <glyph glyph-name="Uhungarumlaut.smcp" horiz-adv-x="519" 
d="M388 185v319h70v-319q0 -86 -55 -138q-56 -53 -144 -53q-89 0 -144 52q-54 53 -54 139v319h70v-319q0 -57 35.5 -92.5t91.5 -35.5q58 0 94 35.5t36 92.5zM184 527l-35 35l99 95l35 -34zM301 527l-35 35l99 95l35 -34z" />
    <glyph glyph-name="Umacron.smcp" horiz-adv-x="519" 
d="M388 185v319h70v-319q0 -86 -55 -138q-56 -53 -144 -53q-89 0 -144 52q-54 53 -54 139v319h70v-319q0 -57 35.5 -92.5t91.5 -35.5q58 0 94 35.5t36 92.5zM354 549h-189v42h189v-42z" />
    <glyph glyph-name="Uogonek.smcp" horiz-adv-x="519" 
d="M305 -26q0 -18 11 -28.5t28 -10.5q19 0 29 10l23 -23q-18 -20 -51 -20q-32 0 -52.5 19.5t-20.5 51.5q0 11 3 22q-3 -1 -16 -1q-89 0 -144 52q-54 53 -54 139v319h70v-319q0 -57 35.5 -92.5t91.5 -35.5q58 0 94 35.5t36 92.5v319h70v-319q0 -71 -40 -121t-107 -64
q-6 -10 -6 -26z" />
    <glyph glyph-name="Uring.smcp" horiz-adv-x="519" 
d="M388 185v319h70v-319q0 -86 -55 -138q-56 -53 -144 -53q-89 0 -144 52q-54 53 -54 139v319h70v-319q0 -57 35.5 -92.5t91.5 -35.5q58 0 94 35.5t36 92.5zM259 654q31 0 49.5 -18t18.5 -48t-18.5 -48t-49.5 -18q-30 0 -48.5 18t-18.5 48t18.5 48t48.5 18zM259 552
q23 -2 32.5 16.5t0 37.5t-32.5 17q-22 2 -31.5 -17t0 -37.5t31.5 -16.5z" />
    <glyph glyph-name="Utilde.smcp" horiz-adv-x="519" 
d="M388 185v319h70v-319q0 -86 -55 -138q-56 -53 -144 -53q-89 0 -144 52q-54 53 -54 139v319h70v-319q0 -57 35.5 -92.5t91.5 -35.5q58 0 94 35.5t36 92.5zM189 546h-37q0 30 18.5 49t47.5 19q23 0 45 -17q22 -16 36 -16q13 0 21.5 8.5t8.5 21.5h38q0 -31 -19 -49.5
t-49 -18.5q-25 0 -45 16q-22 17 -35 17t-21.5 -8.5t-8.5 -21.5z" />
    <glyph glyph-name="V.smcp" horiz-adv-x="586" 
d="M476 504h83l-233 -504h-66l-233 504h83l183 -411z" />
    <glyph glyph-name="W.smcp" horiz-adv-x="859" 
d="M751 504h82l-194 -504h-71l-139 382l-137 -382h-72l-193 504h82l147 -394l137 394h73l138 -394z" />
    <glyph glyph-name="Wacute.smcp" horiz-adv-x="859" 
d="M751 504h82l-194 -504h-71l-139 382l-137 -382h-72l-193 504h82l147 -394l137 394h73l138 -394zM412 527l-34 35l99 95l34 -34z" />
    <glyph glyph-name="Wcircumflex.smcp" horiz-adv-x="859" 
d="M751 504h82l-194 -504h-71l-139 382l-137 -382h-72l-193 504h82l147 -394l137 394h73l138 -394zM330 562l99 95l100 -95l-36 -35l-64 62l-63 -62z" />
    <glyph glyph-name="Wdieresis.smcp" horiz-adv-x="859" 
d="M751 504h82l-194 -504h-71l-139 382l-137 -382h-72l-193 504h82l147 -394l137 394h73l138 -394zM358 615q17 0 29 -12t12 -28q0 -27 -25.5 -37t-44.5 8q-18 20 -7.5 44.5t36.5 24.5zM500 615q25 0 35.5 -20t0 -40t-35.5 -20q-17 0 -28.5 11.5t-11.5 28.5t12 28.5t28 11.5
z" />
    <glyph glyph-name="Wgrave.smcp" horiz-adv-x="859" 
d="M751 504h82l-194 -504h-71l-139 382l-137 -382h-72l-193 504h82l147 -394l137 394h73l138 -394zM348 623l34 34l99 -95l-34 -35z" />
    <glyph glyph-name="X.smcp" horiz-adv-x="566" 
d="M538 0h-91l-164 208l-164 -208h-91l203 255l-197 249h91l158 -200l157 200h92l-198 -249z" />
    <glyph glyph-name="Y.smcp" horiz-adv-x="524" 
d="M297 0h-71v212l-199 292h81l154 -223l153 223h82l-200 -293v-211z" />
    <glyph glyph-name="Yacute.smcp" horiz-adv-x="524" 
d="M297 0h-71v212l-199 292h81l154 -223l153 223h82l-200 -293v-211zM245 527l-35 35l99 95l34 -34z" />
    <glyph glyph-name="Ycircumflex.smcp" horiz-adv-x="524" 
d="M297 0h-71v212l-199 292h81l154 -223l153 223h82l-200 -293v-211zM163 562l99 95l98 -95l-34 -35l-64 62l-64 -62z" />
    <glyph glyph-name="Ydieresis.smcp" horiz-adv-x="524" 
d="M297 0h-71v212l-199 292h81l154 -223l153 223h82l-200 -293v-211zM190 615q17 0 29 -11.5t12 -28.5t-12 -28.5t-29 -11.5t-28.5 11.5t-11.5 28.5t12 28.5t28 11.5zM304 546q-12 12 -12 29t12 28q12 12 29 12t28 -12q12 -11 12 -28t-12 -29q-11 -11 -28 -11t-29 11z" />
    <glyph glyph-name="Ygrave.smcp" horiz-adv-x="524" 
d="M297 0h-71v212l-199 292h81l154 -223l153 223h82l-200 -293v-211zM180 623l35 34l98 -95l-34 -35z" />
    <glyph glyph-name="Z.smcp" horiz-adv-x="489" 
d="M339 446h-289v58h393v-22l-294 -424h295v-58h-399v22z" />
    <glyph glyph-name="Zacute.smcp" horiz-adv-x="489" 
d="M339 446h-289v58h393v-22l-294 -424h295v-58h-399v22zM227 527l-34 35l99 95l34 -34z" />
    <glyph glyph-name="Zcaron.smcp" horiz-adv-x="489" 
d="M339 446h-289v58h393v-22l-294 -424h295v-58h-399v22zM343 623l-99 -96l-98 96l34 34l64 -61l65 61z" />
    <glyph glyph-name="Zdotaccent.smcp" horiz-adv-x="489" 
d="M339 446h-289v58h393v-22l-294 -424h295v-58h-399v22zM202 584q0 18 12 30.5t30 12.5t31 -12.5t13 -30.5q0 -17 -13 -29.5t-31 -12.5t-30 12.5t-12 29.5z" />
    <glyph glyph-name="uni018F.smcp" horiz-adv-x="576" 
d="M45 252v27h410q-8 75 -61 121.5t-133 46.5q-89 0 -145 -54l-45 45q75 72 193 72t192 -72q74 -71 74 -186q0 -116 -67 -187q-68 -71 -175 -71q-108 0 -176 71q-67 71 -67 187zM288 57q68 0 113.5 44.5t52.5 118.5h-333q8 -75 53 -119t114 -44z" />
    <glyph glyph-name="afii10017.smcp" horiz-adv-x="586" 
d="M559 0h-81l-61 131h-248l-61 -131h-81l233 504h66zM392 194l-99 219l-99 -219h198z" />
    <glyph glyph-name="afii10018.smcp" horiz-adv-x="424" 
d="M220 0h-159v504h276v-58h-203v-156h86q72 0 115.5 -39.5t43.5 -105.5t-43.5 -105.5t-115.5 -39.5zM220 229h-86v-168h86q39 0 62.5 23t23.5 61t-23.5 61t-62.5 23z" />
    <glyph glyph-name="afii10019.smcp" horiz-adv-x="432" 
d="M230 0h-169v504h151q65 0 104.5 -36t39.5 -96q0 -70 -57 -106q39 -14 62 -47t23 -78q0 -64 -42.5 -102.5t-111.5 -38.5zM314 146q0 37 -24 60.5t-62 23.5h-94v-169h94q39 0 62.5 23t23.5 62zM208 443h-74v-152h74q35 0 56.5 21t21.5 55t-21.5 55t-56.5 21z" />
    <glyph glyph-name="afii10020.smcp" horiz-adv-x="368" 
d="M131 0h-70v504h269v-58h-199v-446z" />
    <glyph glyph-name="afii10021.smcp" horiz-adv-x="532" 
d="M433 -108v108h-334v-108h-66v164q40 0 62.5 29t22.5 82v337h326v-446h55v-166h-66zM191 446v-279q0 -70 -40 -109h220v388h-180z" />
    <glyph glyph-name="afii10022.smcp" horiz-adv-x="388" 
d="M342 446h-211v-164h187v-58h-187v-166h214v-58h-284v504h281v-58z" />
    <glyph glyph-name="afii10023.smcp" horiz-adv-x="388" 
d="M342 446h-211v-164h187v-58h-187v-166h214v-58h-284v504h281v-58zM130 615q17 0 29 -11.5t12 -28.5t-12 -28.5t-29 -11.5t-28.5 11.5t-11.5 28.5t12 28.5t28 11.5zM244 546q-12 12 -12 29t12 28q12 12 29 12t28 -12q12 -11 12 -28t-12 -29q-11 -11 -28 -11t-29 11z" />
    <glyph glyph-name="afii10024.smcp" horiz-adv-x="710" 
d="M390 0h-70v504h70v-504zM682 0h-84l-206 259l195 245h81l-194 -245zM123 504l194 -245l-205 -259h-84l208 259l-194 245h81z" />
    <glyph glyph-name="afii10025.smcp" horiz-adv-x="432" 
d="M228 230h-78v61h57q38 0 60.5 20.5t22.5 57.5t-23 58.5t-63 21.5q-62 0 -115 -51l-43 43q70 69 163 69q71 0 111.5 -37t40.5 -98q0 -74 -62 -109q40 -14 62.5 -47.5t22.5 -78.5q0 -67 -46.5 -106.5t-124.5 -39.5q-101 0 -175 72l44 44q56 -55 126 -55q50 0 78 24.5
t28 66.5q0 37 -24 60.5t-62 23.5z" />
    <glyph glyph-name="afii10026.smcp" horiz-adv-x="546" 
d="M131 134l307 370h47v-504h-71v370l-307 -370h-46v504h70v-370z" />
    <glyph glyph-name="afii10027.smcp" horiz-adv-x="546" 
d="M273 586q46 0 75 29l34 -34q-45 -45 -109 -45q-63 0 -110 45l35 34q32 -29 75 -29zM131 134l307 370h47v-504h-71v370l-307 -370h-46v504h70v-370z" />
    <glyph glyph-name="afii10028.smcp" horiz-adv-x="474" 
d="M130 0h-71v504h71v-504zM446 0h-91l-223 259l208 245h89l-208 -245z" />
    <glyph glyph-name="afii10029.smcp" horiz-adv-x="513" 
d="M36 0v45q39 0 63 23t24 62v374h329v-504h-74v446h-183v-313q0 -62 -32.5 -99t-86.5 -37q-26 0 -40 3z" />
    <glyph glyph-name="afii10030.smcp" horiz-adv-x="622" 
d="M561 0h-70v360l-166 -250h-28l-166 250v-360h-70v504h53l197 -293l197 293h53v-504z" />
    <glyph glyph-name="afii10031.smcp" horiz-adv-x="535" 
d="M61 504h70v-222h273v222h70v-504h-70v224h-273v-224h-70v504z" />
    <glyph glyph-name="afii10032.smcp" horiz-adv-x="623" 
d="M311 510q119 0 192 -72q74 -71 74 -186t-74 -187q-74 -71 -192 -71t-192 71q-74 72 -74 187t74 186q73 72 192 72zM171 393q-53 -55 -53 -141t53 -141q54 -54 140 -54q87 0 139 54q54 54 54 141t-54 141q-52 54 -139 54q-86 0 -140 -54z" />
    <glyph glyph-name="afii10033.smcp" horiz-adv-x="511" 
d="M61 0v504h389v-504h-70v446h-249v-446h-70z" />
    <glyph glyph-name="afii10034.smcp" horiz-adv-x="412" 
d="M134 0h-73v504h148q71 0 114.5 -39.5t43.5 -105.5t-43.5 -105.5t-114.5 -39.5h-75v-214zM295 359q0 38 -24 61t-62 23h-75v-168h75q38 0 62 23.5t24 60.5z" />
    <glyph glyph-name="afii10035.smcp" horiz-adv-x="543" 
d="M315 57q88 0 144 53l45 -44q-74 -72 -193 -72q-118 0 -192 71q-74 72 -74 187t74 186q73 72 192 72t193 -72l-45 -45q-54 54 -144 54q-87 0 -143 -54q-54 -54 -54 -141t54 -141q56 -54 143 -54z" />
    <glyph glyph-name="afii10036.smcp" horiz-adv-x="438" 
d="M400 446h-146v-446h-70v446h-146v58h362v-58z" />
    <glyph glyph-name="afii10037.smcp" horiz-adv-x="477" 
d="M377 504h75l-261 -504h-76l90 158l-180 346h75l139 -263z" />
    <glyph glyph-name="afii10038.smcp" horiz-adv-x="608" 
d="M339 0h-70v48q-100 0 -162 56q-62 57 -62 148t62 147q61 57 162 57v48h70v-48q99 0 161 -57q62 -56 62 -147t-62 -148q-62 -56 -161 -56v-48zM339 393v-282q67 0 109 39t42 102t-42 102t-109 39zM269 111v282q-67 0 -109 -39t-42 -102t42 -102t109 -39z" />
    <glyph glyph-name="afii10039.smcp" horiz-adv-x="566" 
d="M538 0h-91l-164 208l-164 -208h-91l203 255l-197 249h91l158 -200l157 200h92l-198 -249z" />
    <glyph glyph-name="afii10040.smcp" horiz-adv-x="563" 
d="M464 -108v108h-403v504h70v-446h276v446h70v-446h53v-166h-66z" />
    <glyph glyph-name="afii10041.smcp" horiz-adv-x="453" 
d="M392 504v-504h-68v220q-49 -13 -109 -13q-75 0 -114.5 40.5t-39.5 116.5v140h68v-138q0 -103 100 -103q62 0 95 13v228h68z" />
    <glyph glyph-name="afii10042.smcp" horiz-adv-x="771" 
d="M710 504v-504h-649v504h70v-446h219v446h71v-446h219v446h70z" />
    <glyph glyph-name="afii10043.smcp" horiz-adv-x="796" 
d="M697 -108v108h-636v504h70v-446h219v446h71v-446h219v446h70v-446h53v-166h-66z" />
    <glyph glyph-name="afii10044.smcp" horiz-adv-x="512" 
d="M153 446h-115v58h188v-214h82q72 0 115.5 -39.5t43.5 -105.5t-43.5 -105.5t-115.5 -39.5h-155v446zM394 145q0 37 -24 60.5t-62 23.5h-82v-168h82q38 0 62 23t24 61z" />
    <glyph glyph-name="afii10045.smcp" horiz-adv-x="576" 
d="M217 0h-156v504h73v-214h83q71 0 114.5 -39.5t43.5 -105.5t-43.5 -105.5t-114.5 -39.5zM217 229h-83v-168h83q38 0 61.5 23t23.5 61t-23.5 61t-61.5 23zM515 0h-70v504h70v-504z" />
    <glyph glyph-name="afii10046.smcp" horiz-adv-x="420" 
d="M217 0h-156v504h73v-214h83q71 0 114.5 -39.5t43.5 -105.5t-43.5 -105.5t-114.5 -39.5zM217 229h-83v-168h83q38 0 61.5 23t23.5 61t-23.5 61t-61.5 23z" />
    <glyph glyph-name="afii10047.smcp" horiz-adv-x="543" 
d="M83 393l-45 45q75 72 193 72q119 0 192 -72q74 -71 74 -186t-74 -187q-74 -71 -192 -71t-193 72l45 44q56 -53 145 -53q80 0 133 45.5t61 121.5h-252v58h252q-9 75 -62 120t-132 45q-91 0 -145 -54z" />
    <glyph glyph-name="afii10048.smcp" horiz-adv-x="792" 
d="M61 504h70v-222h129q9 102 75 165t167 63q110 0 177 -72q68 -71 68 -186q0 -114 -68 -187q-68 -71 -177 -71q-102 0 -168 63t-74 167h-129v-224h-70v504zM502 57q78 0 124 54q48 54 48 141t-48 141q-46 54 -124 54q-76 0 -124 -54q-47 -55 -47 -141t47 -141
q48 -54 124 -54z" />
    <glyph glyph-name="afii10049.smcp" horiz-adv-x="430" 
d="M204 504h165v-504h-73v214h-71l-113 -214h-80l125 219q-52 12 -82 49t-30 91q0 66 43.5 105.5t115.5 39.5zM118 359q0 -37 24 -60.5t62 -23.5h92v168h-92q-38 0 -62 -23t-24 -61z" />
    <glyph glyph-name="afii10050.smcp" horiz-adv-x="366" 
d="M318 446h-187v-446h-70v504h203v90h54v-148z" />
    <glyph glyph-name="afii10051.smcp" horiz-adv-x="537" 
d="M370 0v45q38 0 38 36v94q0 33 -20.5 54t-54.5 21q-50 0 -79 -28v-222h-70v446h-146v58h362v-58h-146v-167q43 32 96 32q58 0 93.5 -37.5t35.5 -98.5v-96q0 -38 -21.5 -60t-59.5 -22q-20 0 -28 3z" />
    <glyph glyph-name="afii10052.smcp" horiz-adv-x="368" 
d="M177 527l-34 35l98 95l35 -34zM131 0h-70v504h269v-58h-199v-446z" />
    <glyph glyph-name="afii10053.smcp" horiz-adv-x="543" 
d="M315 447q-80 0 -133 -45t-61 -120h295v-58h-295q8 -76 60.5 -121.5t133.5 -45.5q88 0 144 53l45 -44q-74 -72 -193 -72q-118 0 -192 71q-74 72 -74 187t74 186q73 72 192 72t193 -72l-45 -45q-54 54 -144 54z" />
    <glyph glyph-name="afii10054.smcp" horiz-adv-x="424" 
d="M361 447l-45 -44q-19 19 -49 31.5t-57 12.5q-40 0 -63 -23t-22 -53t25 -49q16 -11 37.5 -20.5t52 -21t46.5 -18.5q88 -36 88 -120q0 -62 -43 -105t-122 -43q-100 0 -170 70l44 44q51 -51 120 -51q45 0 71.5 25t26.5 58q0 49 -88 78q-35 12 -56 21t-49 26.5t-41.5 44
t-13.5 60.5q0 62 39.5 101t110.5 39q93 0 158 -63z" />
    <glyph glyph-name="afii10055.smcp" horiz-adv-x="189" 
d="M130 0h-71v504h71v-504z" />
    <glyph glyph-name="afii10056.smcp" horiz-adv-x="190" 
d="M130 0h-70v504h70v-504zM34 615q16 0 28 -11.5t12 -28.5t-11.5 -28.5t-28.5 -11.5t-29 11.5t-12 28.5t12 28.5t29 11.5zM197 575q1 -24 -20.5 -34.5t-42.5 0t-19 34.5q0 17 11.5 28.5t28.5 11.5t29.5 -12t12.5 -28z" />
    <glyph glyph-name="afii10057.smcp" horiz-adv-x="359" 
d="M229 140v364h70v-364q0 -65 -42 -105.5t-110 -40.5q-65 0 -109 41l45 45q23 -23 62 -23q37 0 60.5 23t23.5 60z" />
    <glyph glyph-name="afii10058.smcp" horiz-adv-x="728" 
d="M524 0h-155v446h-174v-313q0 -62 -32.5 -99t-86.5 -37q-26 0 -40 3v45q39 0 63 23t24 62v374h318v-214h83q71 0 114.5 -39.5t43.5 -105.5t-43 -105.5t-115 -39.5zM610 145q0 37 -24 60.5t-62 23.5h-83v-168h83q38 0 62 23t24 61z" />
    <glyph glyph-name="afii10059.smcp" horiz-adv-x="725" 
d="M61 504h70v-214h235v214h73v-214h83q71 0 114.5 -39.5t43.5 -105.5t-43.5 -105.5t-114.5 -39.5h-156v229h-235v-229h-70v504zM522 229h-83v-168h83q38 0 61.5 23t23.5 61t-23.5 61t-61.5 23z" />
    <glyph glyph-name="afii10060.smcp" horiz-adv-x="537" 
d="M400 446h-146v-167q43 32 96 32q58 0 93.5 -37.5t35.5 -98.5v-175h-71v175q0 33 -20.5 54t-54.5 21q-50 0 -79 -28v-222h-70v446h-146v58h362v-58z" />
    <glyph glyph-name="afii10061.smcp" horiz-adv-x="474" 
d="M130 0h-71v504h71v-504zM446 0h-91l-223 259l208 245h89l-208 -245zM219 527l-34 35l99 95l35 -34z" />
    <glyph glyph-name="afii10062.smcp" horiz-adv-x="477" 
d="M314 615l34 -34q-45 -45 -109 -45q-63 0 -110 45l35 34q29 -29 75 -29t75 29zM377 504h75l-261 -504h-76l90 158l-180 346h75l139 -263z" />
    <glyph glyph-name="afii10145.smcp" horiz-adv-x="538" 
d="M237 -108v108h-176v504h70v-446h276v446h70v-504h-175v-108h-65z" />
    <glyph glyph-name="uni040D.smcp" horiz-adv-x="546" 
d="M191 623l35 34l98 -95l-34 -35zM131 134l307 370h47v-504h-71v370l-307 -370h-46v504h70v-370z" />
    <glyph glyph-name="uni0400.smcp" horiz-adv-x="388" 
d="M342 446h-211v-164h187v-58h-187v-166h214v-58h-284v504h281v-58zM121 623l34 34l99 -95l-35 -35z" />
    <glyph glyph-name="uni04D8.smcp" horiz-adv-x="576" 
d="M45 252v27h410q-8 75 -61 121.5t-133 46.5q-89 0 -145 -54l-45 45q75 72 193 72t192 -72q74 -71 74 -186q0 -116 -67 -187q-68 -71 -175 -71q-108 0 -176 71q-67 71 -67 187zM288 57q68 0 113.5 44.5t52.5 118.5h-333q8 -75 53 -119t114 -44z" />
    <glyph glyph-name="afii10056_afii10056.smcp" horiz-adv-x="379" 
d="M130 0h-70v504h70v-504zM34 615q16 0 28 -11.5t12 -28.5t-11.5 -28.5t-28.5 -11.5t-29 11.5t-12 28.5t12 28.5t29 11.5zM320 0h-71v504h71v-504zM345 615q25 0 35.5 -20t0 -40t-35.5 -20q-24 -2 -34.5 19t0 42t34.5 19zM190 615q16 0 28 -11.5t12 -28.5t-11.5 -28.5
t-28.5 -11.5q-25 0 -35.5 20t0 40t35.5 20z" />
    <glyph glyph-name="afii10021.alt.smcp" horiz-adv-x="625" 
d="M527 -108v108h-428v-108h-66v166h41l205 446h67l206 -446h40v-166h-65zM470 58l-158 356l-157 -356h315z" />
    <glyph glyph-name="afii10029.alt.smcp" horiz-adv-x="586" 
d="M110 0h-83l233 504h66l233 -504h-83l-183 411z" />
    <glyph glyph-name="afii10058.alt.smcp" horiz-adv-x="777" 
d="M110 0h-83l233 504h66l100 -214h147q72 0 115.5 -39.5t43.5 -105.5t-43.5 -105.5t-115.5 -39.5h-97l-183 411zM573 229h-121l80 -168h41q38 0 62 23t24 61q0 37 -24 60.5t-62 23.5z" />
    <glyph glyph-name="Aringacute.smcp" horiz-adv-x="586" 
d="M272 618l-14 15l98 96l35 -34l-79 -76q48 -12 48 -63q0 -41 -31 -59l230 -497h-81l-61 131h-248l-61 -131h-81l230 498q-31 16 -31 58q0 50 46 62zM392 194l-99 219l-99 -219h198zM293 591q-23 2 -32.5 -17t0 -37.5t32.5 -16.5q23 -2 32.5 16.5t0 37.5t-32.5 17z" />
    <glyph glyph-name="germandbls.smcp" horiz-adv-x="464" 
d="M130 369v-369h-71v369q0 63 41.5 102t108.5 39t108.5 -38.5t41.5 -100.5q0 -42 -23.5 -73t-63.5 -44q0 -23 15.5 -38t37.5 -24t44 -19t37.5 -31t15.5 -52q0 -41 -31.5 -68.5t-84.5 -27.5q-72 0 -115 46l42 42q28 -31 68 -31q25 0 39 12t14 28q0 20 -23.5 35t-51.5 24.5
t-51.5 35t-23.5 65.5v52q38 0 61.5 19.5t23.5 51.5q0 33 -22.5 54.5t-57.5 21.5t-57 -23t-22 -58z" />
    <glyph glyph-name="at.smcp" horiz-adv-x="614" 
d="M474 98l33 -32q-73 -72 -198 -72q-120 0 -194 71q-74 72 -74 187t74 186q73 72 193 72q118 0 192 -68q73 -67 73 -169q0 -75 -39 -110q-38 -35 -88 -35q-49 0 -68 28q-31 -28 -77 -28q-53 0 -85.5 34t-32.5 90t36 90t95 34q74 0 108 -43v-131q0 -28 35 -28
q27 0 44.5 23.5t17.5 68.5q0 86 -57 142q-58 56 -153 56q-96 0 -155 -59t-59 -153q0 -95 59 -154q58 -58 156 -58q103 0 164 58zM236 252q0 -36 21.5 -57t57.5 -21q34 0 55 18v123q-21 15 -57 15q-35 0 -56 -21.5t-21 -56.5z" />
    <glyph glyph-name="parenleft.smcp" horiz-adv-x="241" 
d="M198 546v-51q-32 0 -55 -69q-22 -67 -22 -175q0 -107 22 -174q23 -68 55 -68v-51q-63 0 -105 82t-42 212t42 212t105 82z" />
    <glyph glyph-name="parenright.smcp" horiz-adv-x="241" 
d="M43 495v51q64 0 106 -82t42 -212t-42 -212t-106 -82v51q32 0 55 68q23 71 23 175q0 105 -23 174t-55 69z" />
    <glyph glyph-name="bracketleft.smcp" horiz-adv-x="243" 
d="M59 540h141v-53h-73v-470h73v-53h-141v576z" />
    <glyph glyph-name="bracketright.smcp" horiz-adv-x="243" 
d="M116 487h-73v53h141v-576h-141v53h73v470z" />
    <glyph glyph-name="braceleft.smcp" horiz-adv-x="255" 
d="M218 9v-51q-54 0 -90 36t-36 92v51q0 38 -16 63t-38 25v51q22 0 38 25.5t16 63.5v53q0 56 36 92t90 36v-51q-22 0 -38.5 -25t-16.5 -61v-53q0 -36 -17 -64t-46 -41q63 -30 63 -106v-51q0 -36 16.5 -60.5t38.5 -24.5z" />
    <glyph glyph-name="braceright.smcp" horiz-adv-x="255" 
d="M38 -42v51q22 0 38 24.5t16 60.5v51q0 76 64 106q-30 13 -47 41t-17 64v53q0 36 -16 61t-38 25v51q54 0 89.5 -36t35.5 -92v-53q0 -38 16.5 -63.5t38.5 -25.5v-51q-22 0 -38.5 -25.5t-16.5 -62.5v-51q0 -56 -35.5 -92t-89.5 -36z" />
    <glyph glyph-name="exclamdown.smcp" horiz-adv-x="187" 
d="M51 467q0 18 12 30.5t30 12.5q19 0 31 -12.5t12 -30.5q0 -17 -12 -29.5t-31 -12.5q-18 0 -30 12.5t-12 29.5zM59 0v361h68v-361h-68z" />
    <glyph glyph-name="questiondown.smcp" horiz-adv-x="376" 
d="M296 92l44 -44q-63 -54 -147 -54q-70 0 -111 37t-41 95q0 29 12 50t29 34.5l34 27t29 34t12 47.5v42h68v-42q0 -36 -11.5 -62.5t-28.5 -42t-33.5 -28t-28 -27t-11.5 -32.5q0 -30 22 -51.5t61 -21.5q57 0 101 38zM234 467q0 -17 -12.5 -29.5t-30.5 -12.5q-17 0 -30 12.5
t-13 29.5q0 18 13 30.5t30 12.5q18 0 30.5 -12.5t12.5 -30.5z" />
    <glyph glyph-name="bar.smcp" horiz-adv-x="187" 
d="M127 -36h-68v576h68v-576z" />
    <glyph glyph-name="brokenbar.smcp" horiz-adv-x="187" 
d="M127 -36h-68v252h68v-252zM59 540h68v-252h-68v252z" />
    <glyph glyph-name="dagger.smcp" horiz-adv-x="395" 
d="M163 337h-112v53h112v150h68v-150h113v-53h-113v-373h-68v373z" />
    <glyph glyph-name="daggerdbl.smcp" horiz-adv-x="395" 
d="M163 121h-112v53h112v163h-112v53h112v150h68v-150h113v-53h-113v-163h113v-53h-113v-157h-68v157z" />
    <glyph glyph-name="zero.smcp" horiz-adv-x="443" 
d="M221 510q79 0 127 -72q49 -70 49 -186t-49 -187q-48 -71 -127 -71q-77 0 -127 71q-49 71 -49 187t49 186q50 72 127 72zM145 395q-29 -56 -29 -143t29 -143q28 -55 76 -55t76 55q30 55 30 143t-30 143q-28 55 -76 55t-76 -55z" />
    <glyph glyph-name="one.smcp" horiz-adv-x="265" 
d="M116 444l-82 -14v54l150 23v-507h-68v444z" />
    <glyph glyph-name="two.smcp" horiz-adv-x="409" 
d="M44 0v58l225 215q27 27 27 76q0 44 -26 72t-68 28q-41 0 -67 -28t-26 -72h-70q0 72 45 116.5t118 44.5q74 0 119 -44.5t45 -116.5q0 -74 -50 -121l-179 -170h229v-58h-322z" />
    <glyph glyph-name="three.smcp" horiz-adv-x="421" 
d="M209 243h-34v58h34q35 0 56.5 20.5t21.5 53.5t-21.5 54t-56.5 21q-34 0 -55.5 -21t-21.5 -54h-70q0 60 40.5 97.5t106.5 37.5q67 0 107.5 -37.5t40.5 -97.5q0 -67 -59 -102q80 -36 80 -124q0 -69 -47 -112t-122 -43t-121 43q-47 44 -47 112h71q0 -42 27 -68.5t70 -26.5
t70.5 26.5t27.5 68.5q0 41 -27.5 67.5t-70.5 26.5z" />
    <glyph glyph-name="four.smcp" horiz-adv-x="436" 
d="M343 0h-68v93h-237v32l234 379h69v-353h45v-58h-43v-93zM278 401l-155 -250h155v250z" />
    <glyph glyph-name="five.smcp" horiz-adv-x="409" 
d="M366 155q0 -72 -45 -116.5t-119 -44.5q-73 0 -118 42.5t-45 111.5h68q0 -41 26.5 -67t68.5 -26t68 28t26 72q0 49 -30 79.5t-77 30.5q-49 0 -80 -28l-50 17l32 250h236v-58h-176l-19 -131q28 11 61 11q78 0 125.5 -47t47.5 -124z" />
    <glyph glyph-name="six.smcp" horiz-adv-x="417" 
d="M227 510l59 -34q-73 -86 -126 -175q19 10 49 10q75 0 121 -43t46 -115q0 -71 -46.5 -115t-121.5 -44t-121 45t-46 120q0 74 42 149q41 75 144 202zM138 225q-26 -29 -26 -72t26 -72q27 -27 70 -27t70 27q27 29 27 72t-27 72q-27 28 -70 28t-70 -28z" />
    <glyph glyph-name="seven.smcp" horiz-adv-x="417" 
d="M283 446h-238v58h327v-22l-184 -482h-73z" />
    <glyph glyph-name="eight.smcp" horiz-adv-x="422" 
d="M63 375q0 60 41 97.5t107 37.5t107 -37.5t41 -97.5q0 -67 -60 -102q80 -35 80 -124q0 -69 -46.5 -112t-121.5 -43t-121.5 43t-46.5 112q0 90 79 124q-59 35 -59 102zM113 149q0 -42 27.5 -68.5t70.5 -26.5t70.5 26.5t27.5 68.5q0 41 -27.5 67.5t-70.5 26.5t-70.5 -26.5
t-27.5 -67.5zM134 375q0 -32 21.5 -52.5t55.5 -20.5t56 20.5t22 52.5q0 33 -22 54t-56 21t-55.5 -21t-21.5 -54z" />
    <glyph glyph-name="nine.smcp" horiz-adv-x="417" 
d="M190 -6l-59 34q73 86 126 175q-19 -10 -49 -10q-75 0 -121 43t-46 115q0 71 46.5 115t121.5 44t121 -45t46 -120q0 -73 -42 -150q-42 -75 -144 -201zM278 279q27 29 27 72q0 44 -27 71q-27 28 -70 28t-70 -28q-26 -28 -26 -71t26 -72q27 -28 70 -28t70 28z" />
    <glyph glyph-name="dollar.smcp" horiz-adv-x="424" 
d="M230 -72h-39v67q-89 6 -152 69l44 44q45 -45 108 -51v169q-55 20 -93 46q-45 33 -45 98q0 59 36.5 97t101.5 42v67h39v-68q79 -11 131 -61l-45 -44q-35 35 -86 42v-161l52 -21q13 -5 44 -25q48 -33 48 -96q0 -59 -38.5 -100t-105.5 -47v-67zM301 140q0 42 -71 71v-152
q34 8 52.5 30.5t18.5 50.5zM125 371q0 -43 66 -72v146q-31 -6 -48.5 -27t-17.5 -47z" />
    <glyph glyph-name="Euro.smcp" horiz-adv-x="577" 
d="M81 281h-43v39h49q21 87 90.5 138.5t168.5 51.5q119 0 194 -72l-45 -45q-55 54 -145 54q-68 0 -118 -34.5t-69 -92.5h189v-39h-197q-2 -26 -2 -29q0 -5 2 -29h197v-39h-189q19 -59 68.5 -93t118.5 -34q89 0 145 53l45 -44q-75 -72 -194 -72q-99 0 -168.5 51t-90.5 139
h-49v39h43q-1 6 -1 29q0 22 1 29z" />
    <glyph glyph-name="sterling.smcp" horiz-adv-x="407" 
d="M94 225h-56v54h56v85q0 64 42 105q43 41 109 41t110 -41l-45 -45q-23 23 -62 23q-38 0 -61 -23t-23 -60v-85h129v-54h-129v-133q18 -5 49 -23q35 -18 55 -18q18 0 29.5 11.5t11.5 28.5h55q0 -44 -26.5 -70.5t-68.5 -26.5q-32 0 -76 23q-43 23 -62 23q-18 0 -29.5 -11
t-11.5 -29h-55q0 70 59 91v134z" />
    <glyph glyph-name="yen.smcp" horiz-adv-x="524" 
d="M226 153h-100v39h100v20l-199 292h81l154 -223l153 223h82l-200 -293v-19h100v-39h-100v-52h100v-39h-100v-62h-71v62h-100v39h100v52z" />
    <glyph glyph-name="uni20B4.smcp" horiz-adv-x="343" 
d="M154 278h-115v39h155l9 8q29 26 29 58q0 29 -21 47.5t-53 18.5q-46 0 -74 -31l-44 43q46 49 118 49q64 0 104 -34.5t40 -89.5q0 -37 -23 -69h25v-39h-60l-53 -50h113v-39h-154l-10 -10q-29 -26 -29 -58q0 -29 21 -47.5t53 -18.5q46 0 74 31l43 -43q-43 -49 -117 -49
q-64 0 -104 34.5t-40 89.5q0 40 24 71h-26v39h62z" />
    <glyph glyph-name="numbersign.smcp" horiz-adv-x="480" 
d="M327 0h-68l19 119h-119l-19 -119h-68l19 119h-53v54h62l24 158h-61v54h70l20 119h68l-20 -119h119l19 119h68l-19 -119h54v-54h-62l-25 -158h62v-54h-71zM311 331h-118l-25 -158h119z" />
    <glyph glyph-name="zero.fitted.smcp" horiz-adv-x="417" 
d="M209 510q77 0 124 -72q48 -70 48 -186q0 -115 -48 -187q-47 -71 -124 -71q-78 0 -126 71q-47 73 -47 187q0 115 47 186q48 72 126 72zM209 54q45 0 73.5 55t28.5 143t-28.5 143t-73.5 55q-46 0 -74.5 -55t-28.5 -143t28.5 -143t74.5 -55z" />
    <glyph glyph-name="one.fitted.smcp" horiz-adv-x="417" 
d="M326 0h-238v53h85v391l-91 -14v54l159 23v-454h85v-53z" />
    <glyph glyph-name="two.fitted.smcp" horiz-adv-x="418" 
d="M47 0v58l227 215q28 28 28 76q0 44 -26.5 72t-68.5 28t-68 -28t-26 -72h-70q0 72 45.5 116.5t118.5 44.5t118.5 -44.5t45.5 -116.5q0 -71 -53 -121l-180 -170h233v-58h-324z" />
    <glyph glyph-name="three.fitted.smcp" horiz-adv-x="418" 
d="M208 243h-34v58h34q34 0 56 21t22 53q0 33 -22 54t-56 21t-55.5 -21t-21.5 -54h-70q0 60 40.5 97.5t106.5 37.5t107 -37.5t41 -97.5q0 -67 -59 -102q79 -36 79 -124q0 -69 -46.5 -112t-121.5 -43t-121 43q-47 44 -47 112h71q0 -42 27 -68.5t70 -26.5t70.5 26.5t27.5 68.5
q0 41 -27.5 67.5t-70.5 26.5z" />
    <glyph glyph-name="four.fitted.smcp" horiz-adv-x="417" 
d="M333 0h-68v93h-234v32l231 379h68v-353h45v-58h-42v-93zM268 401l-152 -250h152v250z" />
    <glyph glyph-name="five.fitted.smcp" horiz-adv-x="418" 
d="M371 155q0 -72 -45.5 -116.5t-118.5 -44.5t-118.5 42.5t-45.5 111.5h68q0 -41 26.5 -67t69.5 -26q42 0 68.5 28t26.5 72q0 49 -30.5 79.5t-78.5 30.5q-50 0 -81 -28l-49 17l32 250h237v-58h-177l-19 -131q27 11 61 11q79 0 126.5 -47t47.5 -124z" />
    <glyph glyph-name="six.fitted.smcp" horiz-adv-x="418" 
d="M228 510l58 -34q-80 -97 -126 -175q19 10 50 10q75 0 121 -43.5t46 -114.5t-46.5 -115t-121.5 -44q-76 0 -122 45t-46 120t42 150q45 78 145 201zM138 225q-27 -29 -27 -72t27 -72q28 -27 71 -27t70 27q28 28 28 72t-28 72q-27 28 -70 28t-71 -28z" />
    <glyph glyph-name="seven.fitted.smcp" horiz-adv-x="417" 
d="M283 446h-237v58h325v-22l-184 -482h-72z" />
    <glyph glyph-name="eight.fitted.smcp" horiz-adv-x="418" 
d="M61 375q0 60 41.5 97.5t106.5 37.5q66 0 107 -37.5t41 -97.5q0 -67 -60 -102q81 -36 81 -124q0 -69 -47 -112t-122 -43t-122 43t-47 112q0 88 80 124q-59 33 -59 102zM111 149q0 -42 27.5 -68.5t70.5 -26.5t70.5 26.5t27.5 68.5q0 41 -27.5 67.5t-70.5 26.5t-70.5 -26.5
t-27.5 -67.5zM131 375q0 -32 22 -52.5t56 -20.5t55.5 20.5t21.5 52.5q0 33 -21.5 54t-55.5 21t-56 -21t-22 -54z" />
    <glyph glyph-name="nine.fitted.smcp" horiz-adv-x="417" 
d="M190 -6l-59 34q73 86 126 175q-19 -10 -49 -10q-75 0 -121 43t-46 115t46 115q47 44 122 44t121 -45t46 -120q0 -74 -43 -150q-41 -75 -143 -201zM278 279q28 28 28 72t-28 71q-27 28 -70 28t-70 -28q-26 -28 -26 -71t26 -72q27 -28 70 -28t70 28z" />
    <glyph glyph-name="exclam.smcp" horiz-adv-x="187" 
d="M51 37q0 17 12 29.5t30 12.5q19 0 31 -12.5t12 -29.5q0 -18 -12 -30.5t-31 -12.5q-18 0 -30 12.5t-12 30.5zM127 143h-68v361h68v-361z" />
    <glyph glyph-name="ampersand.smcp" horiz-adv-x="468" 
d="M309 243h-51v58h172v-58h-51v-94q0 -69 -46.5 -112t-121.5 -43t-121.5 43t-46.5 112q0 88 80 124q-60 35 -60 102q0 60 41 97.5t107 37.5t107 -37.5t41 -97.5h-70q0 33 -22 54t-56 21t-55.5 -21t-21.5 -54q0 -32 21.5 -53t55.5 -21h21v-58h-21q-43 0 -70.5 -26.5
t-27.5 -67.5q0 -42 27.5 -68.5t70.5 -26.5t70.5 26.5t27.5 68.5v94z" />
    <glyph glyph-name="slash.smcp" horiz-adv-x="436" 
d="M113 -36h-69l280 576h68z" />
    <glyph glyph-name="backslash.smcp" horiz-adv-x="436" 
d="M44 540h69l279 -576h-68z" />
    <glyph glyph-name="question.smcp" horiz-adv-x="376" 
d="M79 412l-44 44q63 54 147 54q70 0 111 -37t41 -95q0 -29 -12 -50t-29 -34.5l-34 -27t-29 -34t-12 -47.5v-42h-68v42q0 36 11.5 62.5t28 42t33.5 28t28.5 27t11.5 32.5q0 30 -22 51.5t-60 21.5q-58 0 -102 -38zM141 37q0 17 12.5 29.5t30.5 12.5t30.5 -12.5t12.5 -29.5
q0 -18 -12.5 -30.5t-30.5 -12.5t-30.5 12.5t-12.5 30.5z" />
    <glyph glyph-name="percent.smcp" horiz-adv-x="676" 
d="M233 0h-68l278 504h69zM170 510q58 0 94.5 -35t36.5 -91t-36.5 -91t-94.5 -35q-59 0 -95.5 35t-36.5 91t36.5 91t95.5 35zM99 384q0 -34 19.5 -54.5t51.5 -20.5t51.5 20.5t19.5 54.5q0 33 -20 54t-51 21t-51 -21t-20 -54zM507 246q58 0 94.5 -35t36.5 -91t-36.5 -91
t-94.5 -35q-59 0 -96 35t-37 91t37 91t96 35zM436 120q-3 -32 20 -54t51 -21t51 21q20 22 20 54q0 33 -20 54t-51 21q-32 0 -51.5 -20.5t-19.5 -54.5z" />
    <glyph glyph-name="perthousand.smcp" horiz-adv-x="974" 
d="M233 0h-68l278 504h69zM170 510q58 0 94.5 -35t36.5 -91t-36.5 -91t-94.5 -35q-59 0 -95.5 35t-36.5 91t36.5 91t95.5 35zM99 384q0 -34 19.5 -54.5t51.5 -20.5t51.5 20.5t19.5 54.5q0 33 -20 54t-51 21t-51 -21t-20 -54zM507 246q58 0 94.5 -35t36.5 -91t-36.5 -91
t-94.5 -35q-59 0 -96 35t-37 91t37 91t96 35zM436 120q-3 -32 20 -54t51 -21t51 21q20 22 20 54q0 33 -20 54t-51 21q-32 0 -51.5 -20.5t-19.5 -54.5zM805 246q58 0 94.5 -35t36.5 -91t-36.5 -91t-94.5 -35q-59 0 -95.5 35t-36.5 91t36.5 91t95.5 35zM734 120
q0 -33 19.5 -54t51.5 -21q31 0 51 21t20 54q0 34 -19.5 54.5t-51.5 20.5t-51.5 -20.5t-19.5 -54.5z" />
    <glyph glyph-name="section.smcp" horiz-adv-x="340" 
d="M140 319l151 -146l-45 -44l-153 146q-51 48 -51 108q0 56 39.5 91.5t103.5 35.5q72 0 118 -49l-43 -43q-28 31 -75 31q-32 0 -52.5 -19t-20.5 -48q0 -38 28 -63zM200 5l-151 146l45 45l154 -147q50 -48 50 -108q0 -56 -39.5 -91.5t-103.5 -35.5q-75 0 -118 49l43 43
q28 -31 75 -31q32 0 52.5 19t20.5 48q0 38 -28 63z" />
    <glyph glyph-name="paragraph.smcp" horiz-adv-x="468" 
d="M201 504h85v-504h-66v224h-19q-69 0 -111.5 38t-42.5 102t42.5 102t111.5 38zM409 0h-66v504h66v-504z" />
    <glyph glyph-name="quoteright_afii10056.smcp" horiz-adv-x="274" 
d="M214 0h-70v504h70v-504zM199 575q0 16 12 28t29 12t29 -11.5t12 -28.5q1 -24 -20 -34.5t-42 0t-20 34.5zM26 491l-25 26q40 40 46 73q-18 2 -29.5 15.5t-11.5 32.5q0 20 14 34.5t35 14.5t35 -15t14 -42q0 -63 -78 -139z" />
    <glyph glyph-name="zero.sub" horiz-adv-x="302" 
d="M66 -5q-32 50 -32 130q0 79 32 129q33 50 85 50t84 -50q33 -50 33 -129t-33 -129q-32 -50 -84 -50t-85 49zM99 225q-20 -38 -20 -100q0 -61 20 -101q20 -38 52 -38q31 0 51 38q20 40 20 101q0 62 -20 100q-20 39 -51 39q-33 0 -52 -39z" />
    <glyph glyph-name="one.sub" horiz-adv-x="182" 
d="M81 261l-55 -10v35l99 16v-352h-44v311z" />
    <glyph glyph-name="two.sub" horiz-adv-x="279" 
d="M33 -50v38l150 150q19 19 19 54q0 32 -17.5 52t-45.5 20q-29 0 -46.5 -20t-17.5 -52h-45q0 50 30 81t79 31q48 0 78 -31t30 -81t-33 -83l-121 -121h154v-38h-214z" />
    <glyph glyph-name="three.sub" horiz-adv-x="287" 
d="M143 121h-23v37h23q24 0 38.5 15t14.5 39q0 23 -14.5 37.5t-38.5 14.5q-23 0 -37.5 -14.5t-14.5 -37.5h-46q0 40 27.5 66t70.5 26q44 0 71 -25.5t27 -66.5q0 -50 -40 -72q54 -26 54 -87q0 -48 -31 -77.5t-81 -29.5t-80.5 29.5t-30.5 77.5h45q0 -30 18.5 -48.5t47.5 -18.5
q30 0 48.5 18.5t18.5 48.5t-18.5 49t-48.5 19z" />
    <glyph glyph-name="four.sub" horiz-adv-x="297" 
d="M231 -50h-44v66h-158v20l156 264h44v-247h31v-37h-29v-66zM189 233l-105 -180h105v180z" />
    <glyph glyph-name="five.sub" horiz-adv-x="279" 
d="M247 58q0 -50 -30 -81t-78 -31q-49 0 -79 29.5t-30 76.5h44q0 -29 18 -47.5t47 -18.5q28 0 45.5 20t17.5 52q0 34 -20.5 56t-52.5 22q-34 0 -54 -20l-32 12l21 172h157v-38h-118l-12 -95q16 9 41 9q52 0 83.5 -32.5t31.5 -85.5z" />
    <glyph glyph-name="six.sub" horiz-adv-x="286" 
d="M156 304l37 -22q-53 -69 -83 -124q13 7 33 7q49 0 80 -30t31 -79t-31 -79q-30 -31 -80 -31q-51 0 -81 30.5t-30 83.5q0 49 26 99q24 45 98 145zM77 56q0 -31 18.5 -50.5t47.5 -19.5t47 19t18 51t-18 52t-47 20t-47.5 -20t-18.5 -52z" />
    <glyph glyph-name="seven.sub" horiz-adv-x="284" 
d="M193 262h-159v38h216v-14l-123 -336h-47z" />
    <glyph glyph-name="eight.sub" horiz-adv-x="288" 
d="M46 212q0 41 27.5 66.5t70.5 25.5t70.5 -25.5t27.5 -66.5q0 -50 -40 -72q54 -26 54 -87q0 -48 -31 -77.5t-81 -29.5t-81 29.5t-31 77.5q0 63 54 87q-40 22 -40 72zM96 101q-18 -18 -18 -48t18 -49q19 -18 48 -18t47 18q19 19 19 49t-19 48q-18 19 -47 19t-48 -19zM92 212
q0 -24 14.5 -38.5t37.5 -14.5t38 14.5t15 38.5q2 32 -25.5 45.5t-55 0t-24.5 -45.5z" />
    <glyph glyph-name="nine.sub" horiz-adv-x="286" 
d="M130 -54l-38 22q50 65 84 124q-13 -7 -33 -7q-49 0 -81 30q-30 30 -30 79t30 79q31 31 81 31q51 0 81 -30.5t30 -83.5q0 -48 -27 -98q-24 -45 -97 -146zM77 194q0 -32 18.5 -52t47.5 -20t47 20t18 52t-18 51t-47 19t-47.5 -19.5t-18.5 -50.5z" />
    <glyph glyph-name="comma.sub" horiz-adv-x="131" 
d="M51 -106l-16 14q22 22 25 39q-23 5 -23 27q0 12 8.5 20t20.5 8q27 0 27 -32q0 -34 -42 -76z" />
    <glyph glyph-name="period.sub" horiz-adv-x="131" 
d="M65 2q17 0 24 -14t0 -28t-24 -14q-17 -1 -24 13.5t0 29t24 13.5z" />
    <glyph glyph-name="parenleft.sub" horiz-adv-x="167" 
d="M135 329v-33q-21 0 -36.5 -49t-15.5 -122q0 -74 15 -122.5t37 -48.5v-33q-41 0 -70 57q-28 56 -28 147t28 147q29 57 70 57z" />
    <glyph glyph-name="parenright.sub" horiz-adv-x="167" 
d="M32 296v33q42 0 70 -57q28 -56 28 -147t-28 -147q-28 -57 -70 -57v33q22 0 37 48.5t15 122.5t-15 122.5t-37 48.5z" />
    <glyph glyph-name="hyphen.sub" horiz-adv-x="189" 
d="M152 107h-115v36h115v-36z" />
    <glyph glyph-name="zero.sup" horiz-adv-x="302" 
d="M66 395q-32 50 -32 130q0 79 32 129q33 50 85 50t84 -50q33 -50 33 -129q0 -81 -33 -130q-31 -49 -84 -49q-52 0 -85 49zM99 625q-20 -38 -20 -100q0 -61 20 -101q20 -38 52 -38q31 0 51 38q20 40 20 101q0 62 -20 100q-20 39 -51 39q-33 0 -52 -39z" />
    <glyph glyph-name="one.sup" horiz-adv-x="182" 
d="M81 661l-55 -10v35l99 16v-352h-44v311z" />
    <glyph glyph-name="two.sup" horiz-adv-x="279" 
d="M33 350v38l150 150q19 19 19 54q0 32 -17.5 52t-45.5 20q-29 0 -46.5 -20t-17.5 -52h-45q0 50 30 81t79 31q48 0 78 -31t30 -81t-33 -83l-121 -121h154v-38h-214z" />
    <glyph glyph-name="three.sup" horiz-adv-x="287" 
d="M143 521h-23v37h23q24 0 38.5 15t14.5 39q0 23 -14.5 37.5t-38.5 14.5q-23 0 -37.5 -14.5t-14.5 -37.5h-46q0 40 27.5 66t70.5 26q44 0 71 -25.5t27 -66.5q0 -50 -40 -72q54 -26 54 -87q0 -48 -31 -77.5t-81 -29.5t-80.5 29.5t-30.5 77.5h45q0 -30 18.5 -48.5t47.5 -18.5
q30 0 48.5 18.5t18.5 48.5t-18.5 49t-48.5 19z" />
    <glyph glyph-name="four.sup" horiz-adv-x="297" 
d="M231 350h-44v66h-158v20l156 264h44v-247h31v-37h-29v-66zM189 633l-105 -180h105v180z" />
    <glyph glyph-name="five.sup" horiz-adv-x="279" 
d="M247 458q0 -50 -30 -81t-78 -31q-49 0 -79 29.5t-30 76.5h44q0 -29 18 -47.5t47 -18.5q28 0 45.5 20t17.5 52q0 34 -20.5 56t-52.5 22q-34 0 -54 -20l-32 12l21 172h157v-38h-118l-12 -95q16 9 41 9q52 0 83.5 -32.5t31.5 -85.5z" />
    <glyph glyph-name="six.sup" horiz-adv-x="286" 
d="M156 704l37 -22q-53 -69 -83 -124q13 7 33 7q49 0 80 -30t31 -79t-31 -80q-30 -30 -80 -30q-51 0 -81 30.5t-30 83.5q0 49 26 99q24 45 98 145zM77 456q0 -31 18.5 -50.5t47.5 -19.5t47 19t18 51t-18 52t-47 20t-47.5 -20t-18.5 -52z" />
    <glyph glyph-name="seven.sup" horiz-adv-x="284" 
d="M193 662h-159v38h216v-14l-123 -336h-47z" />
    <glyph glyph-name="eight.sup" horiz-adv-x="288" 
d="M46 612q0 41 27.5 66.5t70.5 25.5t70.5 -25.5t27.5 -66.5q0 -50 -40 -72q54 -26 54 -87q0 -48 -31 -77.5t-81 -29.5t-81 29.5t-31 77.5q0 63 54 87q-40 22 -40 72zM96 501q-18 -18 -18 -48t18 -49q19 -18 48 -18t47 18q19 19 19 49t-19 48q-18 19 -47 19t-48 -19zM92 612
q0 -24 14.5 -38.5t37.5 -14.5t38 14.5t15 38.5q2 32 -25.5 45.5t-55 0t-24.5 -45.5z" />
    <glyph glyph-name="nine.sup" horiz-adv-x="286" 
d="M130 346l-38 22q50 65 84 124q-13 -7 -33 -7q-49 0 -81 30q-30 30 -30 79t30 79q31 31 81 31q51 0 81 -30.5t30 -83.5q0 -48 -27 -98q-24 -45 -97 -146zM77 594q0 -32 18.5 -52t47.5 -20t47 20t18 52t-18 51t-47 19t-47.5 -19.5t-18.5 -50.5z" />
    <glyph glyph-name="comma.sup" horiz-adv-x="131" 
d="M51 294l-16 14q22 22 25 39q-23 5 -23 27q0 12 8.5 20t20.5 8q27 0 27 -32q0 -34 -42 -76z" />
    <glyph glyph-name="period.sup" horiz-adv-x="131" 
d="M65 402q17 0 24 -14t0 -28t-24 -14q-17 -1 -24 13.5t0 29t24 13.5z" />
    <glyph glyph-name="parenleft.sup" horiz-adv-x="167" 
d="M135 729v-33q-21 0 -36.5 -49t-15.5 -122q0 -74 15 -122.5t37 -48.5v-33q-41 0 -70 57q-28 56 -28 147t28 147q29 57 70 57z" />
    <glyph glyph-name="parenright.sup" horiz-adv-x="167" 
d="M32 696v33q42 0 70 -57q28 -56 28 -147t-28 -147q-28 -57 -70 -57v33q22 0 37 48.5t15 122.5t-15 122.5t-37 48.5z" />
    <glyph glyph-name="hyphen.sup" horiz-adv-x="189" 
d="M152 507h-115v36h115v-36z" />
    <glyph glyph-name="Ugrave.smcp" horiz-adv-x="519" 
d="M388 185v319h70v-319q0 -86 -55 -138q-56 -53 -144 -53q-89 0 -144 52q-54 53 -54 139v319h70v-319q0 -57 35.5 -92.5t91.5 -35.5q58 0 94 35.5t36 92.5zM178 623l34 34l99 -95l-34 -35z" />
    <glyph glyph-name="Udieresis.smcp" horiz-adv-x="519" 
d="M388 185v319h70v-319q0 -86 -55 -138q-56 -53 -144 -53q-89 0 -144 52q-54 53 -54 139v319h70v-319q0 -57 35.5 -92.5t91.5 -35.5q58 0 94 35.5t36 92.5zM188 615q24 2 34.5 -19t0 -42t-34.5 -19q-17 0 -28.5 11.5t-11.5 28.5t12 28.5t28 11.5zM330 615q17 0 29 -11.5
t12 -28.5t-12 -28.5t-29 -11.5t-28.5 11.5t-11.5 28.5t12 28.5t28 11.5z" />
    <glyph glyph-name="Ucircumflex.smcp" horiz-adv-x="519" 
d="M388 185v319h70v-319q0 -86 -55 -138q-56 -53 -144 -53q-89 0 -144 52q-54 53 -54 139v319h70v-319q0 -57 35.5 -92.5t91.5 -35.5q58 0 94 35.5t36 92.5zM161 562l98 95l100 -95l-35 -35l-65 62l-64 -62z" />
    <glyph glyph-name="a.ord" horiz-adv-x="260" 
d="M232 483v-31q-10 -2 -18 -2q-33 0 -44 26q-28 -28 -70 -28q-33 0 -52 19.5t-19 48.5q0 38 33 60t85 22q9 0 19 -2v26q0 18 -13 31t-34 13q-33 0 -53 -20l-25 25q33 33 81 33q41 0 65.5 -23t24.5 -59v-119q0 -20 20 -20zM115 486q30 0 51 22v56q-10 2 -16 2
q-33 0 -53.5 -12t-20.5 -33q0 -14 9.5 -24.5t29.5 -10.5z" />
    <glyph glyph-name="b.ord" horiz-adv-x="307" 
d="M148 448q-72 0 -105 42v375h46v-180q28 19 68 19q53 0 87 -35.5t34 -92.5t-36 -92.5t-94 -35.5zM230 576q0 39 -22 62q-22 24 -59 24t-60 -26v-134q3 0 26.5 -6t34.5 -6q36 0 58 23.5t22 62.5z" />
    <glyph glyph-name="c.ord" horiz-adv-x="272" 
d="M77 576q0 -39 22.5 -62.5t59.5 -23.5q40 0 61 23l28 -28q-34 -37 -91 -37q-58 0 -93 35.5t-35 92.5t35 92.5t93 35.5q56 0 91 -38l-28 -28q-23 24 -61 24q-37 0 -59.5 -24t-22.5 -62z" />
    <glyph glyph-name="d.ord" horiz-adv-x="308" 
d="M265 865v-413h-46v20q-29 -24 -72 -24q-53 0 -85.5 35.5t-32.5 92.5t35 92.5t91 35.5q35 0 64 -17v178h46zM77 576q0 -39 22.5 -62.5t59.5 -23.5q39 0 60 22v128q-22 22 -60 22q-37 0 -59.5 -24t-22.5 -62z" />
    <glyph glyph-name="e.ord" horiz-adv-x="289" 
d="M262 562h-183q3 -33 25 -52.5t57 -19.5q41 0 62 23l28 -28q-34 -37 -93 -37q-57 0 -93 35.5t-36 93.5q0 56 33 91.5t87 35.5t83.5 -38t29.5 -104zM149 663q-29 0 -48 -18t-22 -49h136q-7 67 -66 67z" />
    <glyph glyph-name="egrave.ord" horiz-adv-x="289" 
d="M262 562h-183q3 -33 25 -52.5t57 -19.5q41 0 62 23l28 -28q-34 -37 -93 -37q-57 0 -93 35.5t-36 93.5q0 56 33 91.5t87 35.5t83.5 -38t29.5 -104zM149 663q-29 0 -48 -18t-22 -49h136q-7 67 -66 67zM90 803l24 23l72 -71l-24 -23z" />
    <glyph glyph-name="f.ord" horiz-adv-x="191" 
d="M56 663h-33v37h33v82q0 40 23.5 63.5t62.5 23.5q16 0 30 -6v-39q-12 5 -22 5q-21 0 -33 -13t-12 -34v-82h67v-37h-67v-211h-49v211z" />
    <glyph glyph-name="g.ord" horiz-adv-x="291" 
d="M16 388q0 49 55 67q-30 15 -30 41q0 28 33 42q-41 21 -41 74q0 42 27.5 67t71.5 25q43 0 69 -23q18 23 42 23q2 0 7.5 -0.5t6.5 -0.5v-38q-4 2 -11 2q-12 0 -24 -12q9 -18 9 -41q0 -40 -28 -65q-26 -25 -72 -25q-45 0 -45 -27q0 -25 54 -25t86.5 -21.5t32.5 -56.5
q0 -37 -36.5 -60.5t-91.5 -23.5q-52 0 -83.5 21.5t-31.5 56.5zM64 388q0 -19 18 -30.5t48 -11.5q34 0 57.5 13.5t23.5 33.5q0 19 -19.5 30.5t-51.5 11.5q-34 0 -55 -13t-21 -34zM80 614q0 -24 14.5 -39t38.5 -15q23 0 38.5 15t15.5 39q0 23 -15.5 38t-38.5 15
q-24 0 -38.5 -15t-14.5 -38z" />
    <glyph glyph-name="h.ord" horiz-adv-x="297" 
d="M43 452v413h46v-186q31 25 71 25q42 0 67.5 -28.5t25.5 -74.5v-149h-46v149q0 28 -16 44.5t-42 16.5q-39 0 -60 -24v-186h-46z" />
    </font>
</defs>
</svg>
